<svg width="360" height="510" viewBox="0 0 360 510" fill="none" xmlns="http://www.w3.org/2000/svg">
<path d="M328.671 50.2L326.271 60.1L323.271 49.7L313.971 48.2L323.271 46.1L325.871 36L328.271 45.3L338.071 47.8L328.671 50.2Z" stroke="#00353D" stroke-linejoin="round"/>
<path d="M269.271 24L268.271 29L267.571 24.3L262.971 23.3L267.671 22.6L268.671 18L268.971 22.7L273.971 23.7L269.271 24Z" stroke="#00353D" stroke-linejoin="round"/>
<path d="M35.0849 49.202C31.409 47.5453 28.6145 44.9063 27.0578 41.9994C25.5015 39.0932 25.1922 35.9458 26.4215 33.2183C27.6508 30.4908 30.2137 28.638 33.422 27.8792C36.6308 27.1202 40.4589 27.466 44.1348 29.1227C47.8107 30.7795 50.6051 33.4185 52.1618 36.3254C53.7182 39.2316 54.0275 42.3789 52.7981 45.1064C51.5688 47.834 49.0059 49.6868 45.7977 50.4456C42.5888 51.2046 38.7608 50.8588 35.0849 49.202Z" stroke="black"/>
<path d="M26.1595 33.5208C20.956 45.0659 25.4534 50.4602 32.9889 53.8565C40.5243 57.2528 49.2248 56.1232 52.3981 45.3468" stroke="black" stroke-linecap="round"/>
<path d="M43.3294 50.5191L42.3291 55.5402" stroke="black"/>
<path d="M36.595 49.5895L35.5947 54.6105" stroke="black"/>
<path d="M30.2612 45.8956L28.7534 51.1088" stroke="black"/>
<path fill-rule="evenodd" clip-rule="evenodd" d="M38.448 42.6211C38.2578 42.5413 38.0818 42.4253 37.9312 42.2817C37.7808 42.1362 37.6519 41.9627 37.5305 41.7937L37.1194 41.2307L36.7086 40.6637L36.6873 40.6309L36.6781 40.595C36.6804 40.5619 36.7055 40.5382 36.7266 40.5161C37.1957 40.1337 37.6747 39.7774 38.1719 39.442C38.398 39.2874 38.6276 39.1389 38.8647 38.9948L38.9839 38.8582C39.0515 38.955 39.1113 39.0531 39.171 39.1512L39.3368 39.4134L39.5286 39.7517C39.6713 40.0083 39.8019 40.27 39.9204 40.5366C39.9675 40.6476 40.0144 40.7625 40.057 40.8809L40.1025 41.0153C40.2011 41.3432 40.2402 41.6807 40.1206 41.9935C39.9741 42.4101 39.555 42.6942 39.1217 42.7306C38.8894 42.7497 38.6573 42.7081 38.448 42.6211ZM38.4424 41.3501L38.3389 41.2059L38.0245 40.7728C38.2433 40.6099 38.4657 40.4531 38.6879 40.2982C38.7643 40.4386 38.8329 40.5785 38.9012 40.7222L39.0072 40.943L39.0976 41.1627C39.1371 41.2712 39.1657 41.3671 39.1833 41.4506C39.2057 41.5794 39.1906 41.6273 39.1859 41.6387C39.1805 41.6599 39.1717 41.6749 39.1469 41.6928L39.0941 41.7204L39.0383 41.7342C38.995 41.737 38.9444 41.7335 38.8944 41.7203L38.8255 41.6978C38.7838 41.6773 38.7386 41.6526 38.6938 41.6202L38.6272 41.5646C38.5685 41.5077 38.5143 41.4432 38.4424 41.3501Z" fill="black"/>
<path fill-rule="evenodd" clip-rule="evenodd" d="M42.1895 37.3015C42.4743 37.7658 42.7581 38.2456 42.7953 38.7808C42.8149 39.0621 42.7431 39.3625 42.5934 39.6007C42.4573 39.8125 42.2619 39.9751 42.0192 40.0307L41.9005 40.0479L41.7984 40.0525L41.6468 40.0361C41.4496 40.0009 41.2602 39.9094 41.0961 39.7903C40.8393 39.5982 40.6495 39.3441 40.4558 39.0879L40.4341 39.0629L40.1155 38.6335L39.9725 38.4375L39.9329 38.3878C39.9227 38.3656 39.9164 38.3436 39.9219 38.3205C39.9255 38.2679 39.971 38.2338 40.0163 38.2017L40.7699 37.6688L41.7786 36.9597L41.9109 36.916C41.98 36.9913 42.0408 37.0739 42.1014 37.1603L42.1895 37.3015ZM41.7883 38.9593L41.7637 39.032L41.6923 38.9879C41.6253 38.9382 41.5669 38.8774 41.4944 38.794L41.2858 38.5269L41.6112 38.297C41.6526 38.3763 41.6867 38.4491 41.7133 38.5175C41.7635 38.6404 41.7914 38.7462 41.7999 38.8486L41.7973 38.8856C41.7996 38.9092 41.794 38.9343 41.7883 38.9593Z" fill="black"/>
<path fill-rule="evenodd" clip-rule="evenodd" d="M42.5031 33.7503L41.3985 31.8977L38.6339 34.0391L39.2674 35.0073L35.8279 37.3367L34.9038 35.9861L32.2091 38.0796L33.3535 39.9212L31.8567 41.0623L33.686 44.1479L33.7114 44.177L33.7724 44.2576L33.8653 44.3855C33.9369 44.4825 34.0342 44.6028 34.1635 44.7136C34.4291 44.9494 34.8196 45.1332 35.3351 45.0398C35.7398 44.9642 36.0705 44.7699 36.3017 44.598L36.3265 44.5802C36.5786 44.8953 36.9344 45.2412 37.4122 45.5211C37.7169 45.7009 38.0628 45.8502 38.4593 45.9483C39.0445 46.0928 39.7353 46.1252 40.5364 45.9792C41.6428 45.6666 42.609 44.6668 42.751 43.1319C43.3149 43.1888 44.0134 43.1101 44.6077 42.7285C45.5338 42.1371 46.0317 40.9461 45.6898 38.9939L45.6845 38.9582L45.4869 38.365L46.5563 37.4585L46.6027 37.354C46.7371 37.054 46.7974 36.7509 46.7171 36.385C46.6454 36.0648 46.4694 35.7237 46.2273 35.3211L44.6186 32.3841L42.5031 33.7503ZM40.6422 35.2831L39.977 34.2637L41.1192 33.3799L42.1743 35.1547L44.2572 33.8077L44.8861 34.9557L43.0115 36.2917L43.5891 37.1072L45.3586 35.8187C45.4955 36.0455 45.5856 36.2143 45.6469 36.3458C45.6982 36.4532 45.7277 36.5355 45.7426 36.6031C45.7604 36.6846 45.7596 36.7531 45.7294 36.8489L44.327 38.0396L44.712 39.2038C45.0011 40.9018 44.526 41.5951 44.0711 41.8865C43.5425 42.2237 42.8168 42.1869 42.423 42.0499L41.7195 41.8052L41.7617 42.5501C41.8419 43.9869 41.0543 44.7818 40.3342 45.0019C39.2361 45.1957 38.4565 44.9751 37.9187 44.6577C37.6252 44.4865 37.3928 44.2804 37.2147 44.082C37.0549 43.9025 36.9377 43.7299 36.8573 43.5912L36.5741 43.1036L36.1237 43.4423L35.9613 43.5817L35.9278 43.6127L35.7783 43.7354L35.7037 43.7948C35.5385 43.9184 35.3552 44.0192 35.1569 44.0564L35.0702 44.064L35.0234 44.0608C34.9419 44.0512 34.8817 44.0157 34.8227 43.9626C34.7673 43.9157 34.7166 43.8554 34.6629 43.7831L34.6128 43.715L34.5089 43.5766L34.2777 43.1846L35.8763 42.0448L35.2947 41.231L33.7661 42.3209L33.1702 41.3181L34.6836 40.1645L33.5318 38.3165L34.6783 37.4271L35.5671 38.7224L40.6422 35.2831Z" fill="black"/>
</svg>
