<svg width="414" height="483" viewBox="0 0 414 483" fill="none" xmlns="http://www.w3.org/2000/svg">
<path d="M383.959 60.2116L380.373 75L375.892 59.4647L362 57.2241L375.892 54.0871L379.776 39L383.361 52.8921L398 56.6266L383.959 60.2116Z" stroke="#00353D" stroke-linejoin="round"/>
<path d="M343.271 14L342.271 19L341.571 14.3L336.971 13.3L341.671 12.6L342.671 8L342.971 12.7L347.971 13.7L343.271 14Z" stroke="#00353D" stroke-linejoin="round"/>
<path d="M37.0829 54.202C33.407 52.5453 30.6126 49.9063 29.0559 46.9994C27.4995 44.0932 27.1903 40.9458 28.4196 38.2183C29.6489 35.4908 32.2118 33.638 35.42 32.8792C38.6289 32.1202 42.4569 32.466 46.1328 34.1227C49.8087 35.7795 52.6032 38.4185 54.1599 41.3254C55.7162 44.2316 56.0255 47.3789 54.7962 50.1064C53.5669 52.834 51.004 54.6868 47.7958 55.4456C44.5869 56.2046 40.7588 55.8588 37.0829 54.202Z" stroke="black"/>
<path d="M28.1575 38.5208C22.9541 50.0659 27.4514 55.4602 34.9869 58.8565C42.5224 62.2528 51.2229 61.1232 54.3962 50.3468" stroke="black" stroke-linecap="round"/>
<path d="M45.3274 55.5191L44.3271 60.5402" stroke="black"/>
<path d="M38.593 54.5895L37.5927 59.6105" stroke="black"/>
<path d="M32.2593 50.8956L30.7515 56.1088" stroke="black"/>
<path fill-rule="evenodd" clip-rule="evenodd" d="M40.448 47.6211C40.2578 47.5413 40.0818 47.4253 39.9312 47.2817C39.7808 47.1362 39.6519 46.9627 39.5305 46.7937L39.1194 46.2307L38.7086 45.6637L38.6873 45.6309L38.6781 45.595C38.6804 45.5619 38.7055 45.5382 38.7266 45.5161C39.1957 45.1337 39.6747 44.7774 40.1719 44.442C40.398 44.2874 40.6276 44.1389 40.8647 43.9948L40.9839 43.8582C41.0515 43.955 41.1113 44.0531 41.171 44.1512L41.3368 44.4134L41.5286 44.7517C41.6713 45.0083 41.8019 45.27 41.9204 45.5366C41.9675 45.6476 42.0144 45.7625 42.057 45.8809L42.1025 46.0153C42.2011 46.3432 42.2402 46.6807 42.1206 46.9935C41.9741 47.4101 41.555 47.6942 41.1217 47.7306C40.8894 47.7497 40.6573 47.7081 40.448 47.6211ZM40.4424 46.3501L40.3389 46.2059L40.0245 45.7728C40.2433 45.6099 40.4657 45.4531 40.6879 45.2982C40.7643 45.4386 40.8329 45.5785 40.9012 45.7222L41.0072 45.943L41.0976 46.1627C41.1371 46.2712 41.1657 46.3671 41.1833 46.4506C41.2057 46.5794 41.1906 46.6273 41.1859 46.6387C41.1805 46.6599 41.1717 46.6749 41.1469 46.6928L41.0941 46.7204L41.0383 46.7342C40.995 46.737 40.9444 46.7335 40.8944 46.7203L40.8255 46.6978C40.7838 46.6773 40.7386 46.6526 40.6938 46.6202L40.6272 46.5646C40.5685 46.5077 40.5143 46.4432 40.4424 46.3501Z" fill="black"/>
<path fill-rule="evenodd" clip-rule="evenodd" d="M44.1895 42.3015C44.4743 42.7658 44.7581 43.2456 44.7953 43.7808C44.8149 44.0621 44.7431 44.3625 44.5934 44.6007C44.4573 44.8125 44.2619 44.9751 44.0192 45.0307L43.9005 45.0479L43.7984 45.0525L43.6468 45.0361C43.4496 45.0009 43.2602 44.9094 43.0961 44.7903C42.8393 44.5982 42.6495 44.3441 42.4558 44.0879L42.4341 44.0629L42.1155 43.6335L41.9725 43.4375L41.9329 43.3878C41.9227 43.3656 41.9164 43.3436 41.9219 43.3205C41.9255 43.2679 41.971 43.2338 42.0163 43.2017L42.7699 42.6688L43.7786 41.9597L43.9109 41.916C43.98 41.9913 44.0408 42.0739 44.1014 42.1603L44.1895 42.3015ZM43.7883 43.9593L43.7637 44.032L43.6923 43.9879C43.6253 43.9382 43.5669 43.8774 43.4944 43.794L43.2858 43.5269L43.6112 43.297C43.6526 43.3763 43.6867 43.4491 43.7133 43.5175C43.7635 43.6404 43.7914 43.7462 43.7999 43.8486L43.7973 43.8856C43.7996 43.9092 43.794 43.9343 43.7883 43.9593Z" fill="black"/>
<path fill-rule="evenodd" clip-rule="evenodd" d="M44.5031 38.7503L43.3985 36.8977L40.6339 39.0391L41.2674 40.0073L37.8279 42.3367L36.9038 40.9861L34.2091 43.0796L35.3535 44.9212L33.8567 46.0623L35.686 49.1479L35.7114 49.177L35.7724 49.2576L35.8653 49.3855C35.9369 49.4825 36.0342 49.6028 36.1635 49.7136C36.4291 49.9494 36.8196 50.1332 37.3351 50.0398C37.7398 49.9642 38.0705 49.7699 38.3017 49.598L38.3265 49.5802C38.5786 49.8953 38.9344 50.2412 39.4122 50.5211C39.7169 50.7009 40.0628 50.8502 40.4593 50.9483C41.0445 51.0928 41.7353 51.1252 42.5364 50.9792C43.6428 50.6666 44.609 49.6668 44.751 48.1319C45.3149 48.1888 46.0134 48.1101 46.6077 47.7285C47.5338 47.1371 48.0317 45.9461 47.6898 43.9939L47.6845 43.9582L47.4869 43.365L48.5563 42.4585L48.6027 42.354C48.7371 42.054 48.7974 41.7509 48.7171 41.385C48.6454 41.0648 48.4694 40.7237 48.2273 40.3211L46.6186 37.3841L44.5031 38.7503ZM42.6422 40.2831L41.977 39.2637L43.1192 38.3799L44.1743 40.1547L46.2572 38.8077L46.8861 39.9557L45.0115 41.2917L45.5891 42.1072L47.3586 40.8187C47.4955 41.0455 47.5856 41.2143 47.6469 41.3458C47.6982 41.4532 47.7277 41.5355 47.7426 41.6031C47.7604 41.6846 47.7596 41.7531 47.7294 41.8489L46.327 43.0396L46.712 44.2038C47.0011 45.9018 46.526 46.5951 46.0711 46.8865C45.5425 47.2237 44.8168 47.1869 44.423 47.0499L43.7195 46.8052L43.7617 47.5501C43.8419 48.9869 43.0543 49.7818 42.3342 50.0019C41.2361 50.1957 40.4565 49.9751 39.9187 49.6577C39.6252 49.4865 39.3928 49.2804 39.2147 49.082C39.0549 48.9025 38.9377 48.7299 38.8573 48.5912L38.5741 48.1036L38.1237 48.4423L37.9613 48.5817L37.9278 48.6127L37.7783 48.7354L37.7037 48.7948C37.5385 48.9184 37.3552 49.0192 37.1569 49.0564L37.0702 49.064L37.0234 49.0608C36.9419 49.0512 36.8817 49.0157 36.8227 48.9626C36.7673 48.9157 36.7166 48.8554 36.6629 48.7831L36.6128 48.715L36.5089 48.5766L36.2777 48.1846L37.8763 47.0448L37.2947 46.231L35.7661 47.3209L35.1702 46.3181L36.6836 45.1645L35.5318 43.3165L36.6783 42.4271L37.5671 43.7224L42.6422 40.2831Z" fill="black"/>
</svg>
