<svg width="390" height="483" viewBox="0 0 390 483" fill="none" xmlns="http://www.w3.org/2000/svg">
<path d="M361.671 63.2L359.271 73.1L356.271 62.7L346.971 61.2L356.271 59.1L358.871 49L361.271 58.3L371.071 60.8L361.671 63.2Z" stroke="#00353D" stroke-linejoin="round"/>
<path d="M321.271 34L320.271 39L319.571 34.3L314.971 33.3L319.671 32.6L320.671 28L320.971 32.7L325.971 33.7L321.271 34Z" stroke="#00353D" stroke-linejoin="round"/>
<path d="M30.0732 53.202C26.3973 51.5453 23.6028 48.9063 22.0461 45.9994C20.4898 43.0932 20.1805 39.9458 21.4098 37.2183C22.6391 34.4908 25.202 32.638 28.4102 31.8792C31.6191 31.1202 35.4472 31.466 39.1231 33.1227C42.799 34.7795 45.5934 37.4185 47.1501 40.3254C48.7065 43.2316 49.0157 46.3789 47.7864 49.1064C46.5571 51.834 43.9942 53.6868 40.786 54.4456C37.5771 55.2046 33.7491 54.8588 30.0732 53.202Z" stroke="black"/>
<path d="M21.1477 37.5208C15.9443 49.0659 20.4417 54.4602 27.9771 57.8565C35.5126 61.2528 44.2131 60.1232 47.3864 49.3468" stroke="black" stroke-linecap="round"/>
<path d="M38.3176 54.5191L37.3173 59.5402" stroke="black"/>
<path d="M31.5833 53.5895L30.583 58.6105" stroke="black"/>
<path d="M25.2495 49.8956L23.7417 55.1088" stroke="black"/>
<path fill-rule="evenodd" clip-rule="evenodd" d="M33.448 46.6211C33.2578 46.5413 33.0818 46.4253 32.9312 46.2817C32.7808 46.1362 32.6519 45.9627 32.5305 45.7937L32.1194 45.2307L31.7086 44.6637L31.6873 44.6309L31.6781 44.595C31.6804 44.5619 31.7055 44.5382 31.7266 44.5161C32.1957 44.1337 32.6747 43.7774 33.1719 43.442C33.398 43.2874 33.6276 43.1389 33.8647 42.9948L33.9839 42.8582C34.0515 42.955 34.1113 43.0531 34.171 43.1512L34.3368 43.4134L34.5286 43.7517C34.6713 44.0083 34.8019 44.27 34.9204 44.5366C34.9675 44.6476 35.0144 44.7625 35.057 44.8809L35.1025 45.0153C35.2011 45.3432 35.2402 45.6807 35.1206 45.9935C34.9741 46.4101 34.555 46.6942 34.1217 46.7306C33.8894 46.7497 33.6573 46.7081 33.448 46.6211ZM33.4424 45.3501L33.3389 45.2059L33.0245 44.7728C33.2433 44.6099 33.4657 44.4531 33.6879 44.2982C33.7643 44.4386 33.8329 44.5785 33.9012 44.7222L34.0072 44.943L34.0976 45.1627C34.1371 45.2712 34.1657 45.3671 34.1833 45.4506C34.2057 45.5794 34.1906 45.6273 34.1859 45.6387C34.1805 45.6599 34.1717 45.6749 34.1469 45.6928L34.0941 45.7204L34.0383 45.7342C33.995 45.737 33.9444 45.7335 33.8944 45.7203L33.8255 45.6978C33.7838 45.6773 33.7386 45.6526 33.6938 45.6202L33.6272 45.5646C33.5685 45.5077 33.5143 45.4432 33.4424 45.3501Z" fill="black"/>
<path fill-rule="evenodd" clip-rule="evenodd" d="M37.1895 41.3015C37.4743 41.7658 37.7581 42.2456 37.7953 42.7808C37.8149 43.0621 37.7431 43.3625 37.5934 43.6007C37.4573 43.8125 37.2619 43.9751 37.0192 44.0307L36.9005 44.0479L36.7984 44.0525L36.6468 44.0361C36.4496 44.0009 36.2602 43.9094 36.0961 43.7903C35.8393 43.5982 35.6495 43.3441 35.4558 43.0879L35.4341 43.0629L35.1155 42.6335L34.9725 42.4375L34.9329 42.3878C34.9227 42.3656 34.9164 42.3436 34.9219 42.3205C34.9255 42.2679 34.971 42.2338 35.0163 42.2017L35.7699 41.6688L36.7786 40.9597L36.9109 40.916C36.98 40.9913 37.0408 41.0739 37.1014 41.1603L37.1895 41.3015ZM36.7883 42.9593L36.7637 43.032L36.6923 42.9879C36.6253 42.9382 36.5669 42.8774 36.4944 42.794L36.2858 42.5269L36.6112 42.297C36.6526 42.3763 36.6867 42.4491 36.7133 42.5175C36.7635 42.6404 36.7914 42.7462 36.7999 42.8486L36.7973 42.8856C36.7996 42.9092 36.794 42.9343 36.7883 42.9593Z" fill="black"/>
<path fill-rule="evenodd" clip-rule="evenodd" d="M37.5031 37.7503L36.3985 35.8977L33.6339 38.0391L34.2674 39.0073L30.8279 41.3367L29.9038 39.9861L27.2091 42.0796L28.3535 43.9212L26.8567 45.0623L28.686 48.1479L28.7114 48.177L28.7724 48.2576L28.8653 48.3855C28.9369 48.4825 29.0342 48.6028 29.1635 48.7136C29.4291 48.9494 29.8196 49.1332 30.3351 49.0398C30.7398 48.9642 31.0705 48.7699 31.3017 48.598L31.3265 48.5802C31.5786 48.8953 31.9344 49.2412 32.4122 49.5211C32.7169 49.7009 33.0628 49.8502 33.4593 49.9483C34.0445 50.0928 34.7353 50.1252 35.5364 49.9792C36.6428 49.6666 37.609 48.6668 37.751 47.1319C38.3149 47.1888 39.0134 47.1101 39.6077 46.7285C40.5338 46.1371 41.0317 44.9461 40.6898 42.9939L40.6845 42.9582L40.4869 42.365L41.5563 41.4585L41.6027 41.354C41.7371 41.054 41.7974 40.7509 41.7171 40.385C41.6454 40.0648 41.4694 39.7237 41.2273 39.3211L39.6186 36.3841L37.5031 37.7503ZM35.6422 39.2831L34.977 38.2637L36.1192 37.3799L37.1743 39.1547L39.2572 37.8077L39.8861 38.9557L38.0115 40.2917L38.5891 41.1072L40.3586 39.8187C40.4955 40.0455 40.5856 40.2143 40.6469 40.3458C40.6982 40.4532 40.7277 40.5355 40.7426 40.6031C40.7604 40.6846 40.7596 40.7531 40.7294 40.8489L39.327 42.0396L39.712 43.2038C40.0011 44.9018 39.526 45.5951 39.0711 45.8865C38.5425 46.2237 37.8168 46.1869 37.423 46.0499L36.7195 45.8052L36.7617 46.5501C36.8419 47.9869 36.0543 48.7818 35.3342 49.0019C34.2361 49.1957 33.4565 48.9751 32.9187 48.6577C32.6252 48.4865 32.3928 48.2804 32.2147 48.082C32.0549 47.9025 31.9377 47.7299 31.8573 47.5912L31.5741 47.1036L31.1237 47.4423L30.9613 47.5817L30.9278 47.6127L30.7783 47.7354L30.7037 47.7948C30.5385 47.9184 30.3552 48.0192 30.1569 48.0564L30.0702 48.064L30.0234 48.0608C29.9419 48.0512 29.8817 48.0157 29.8227 47.9626C29.7673 47.9157 29.7166 47.8554 29.6629 47.7831L29.6128 47.715L29.5089 47.5766L29.2777 47.1846L30.8763 46.0448L30.2947 45.231L28.7661 46.3209L28.1702 45.3181L29.6836 44.1645L28.5318 42.3165L29.6783 41.4271L30.5671 42.7224L35.6422 39.2831Z" fill="black"/>
</svg>
