<svg width="575" height="622" viewBox="0 0 575 622" fill="none" xmlns="http://www.w3.org/2000/svg">
<path d="M531.668 58.693L526.988 78L521.137 57.7178L503 54.7925L521.137 50.6971L526.207 31L530.888 49.1369L550 54.0125L531.668 58.693Z" stroke="#00353D" stroke-linejoin="round"/>
<path d="M443.609 24.8182L440.973 38L439.127 25.6091L427 22.9727L439.391 21.1273L442.027 9L442.818 21.3909L456 24.0273L443.609 24.8182Z" stroke="#00353D" stroke-linejoin="round"/>
<path fill-rule="evenodd" clip-rule="evenodd" d="M52.2832 29.03C54.2899 32.7771 57.911 36.2091 62.7048 38.3697C67.4986 40.5303 72.4682 40.9703 76.6047 39.9919C80.7394 39.0139 83.9709 36.6465 85.5122 33.2267C87.0535 29.8069 86.6871 25.8178 84.6812 22.0723C82.6746 18.3251 79.0534 14.8931 74.2596 12.7325C69.4659 10.572 64.4962 10.132 60.3597 11.1103C56.225 12.0883 52.9936 14.4558 51.4523 17.8756C49.9109 21.2954 50.2774 25.2845 52.2832 29.03ZM50.2329 17.326C46.7385 25.0789 52.0764 35.0465 62.1552 39.5891C72.234 44.1317 83.2373 41.5292 86.7316 33.7762C90.2259 26.0233 84.8881 16.0558 74.8092 11.5132C64.7304 6.97054 53.7272 9.57304 50.2329 17.326Z" fill="black"/>
<path fill-rule="evenodd" clip-rule="evenodd" d="M74.5813 45.9849C79.0377 44.4567 82.8756 40.6699 84.9489 33.6291C85.0533 33.2748 85.4251 33.0721 85.7794 33.1765C86.1337 33.2808 86.3363 33.6526 86.232 34.0069C84.0609 41.3797 79.9581 45.5551 75.0151 47.2501C70.1053 48.9338 64.4947 48.1259 59.3553 45.8096C54.2595 43.5129 50.0539 40.4833 48.0613 35.9568C46.0614 31.4139 46.3648 25.5382 49.8859 17.7257C50.0377 17.3889 50.4337 17.239 50.7704 17.3908C51.1071 17.5425 51.2571 17.9385 51.1053 18.2753C47.6668 25.9045 47.4979 31.3572 49.2855 35.4179C51.0803 39.4951 54.9218 42.3443 59.9049 44.5902C64.8444 46.8165 70.0917 47.5245 74.5813 45.9849Z" fill="black"/>
<path fill-rule="evenodd" clip-rule="evenodd" d="M71.4641 47.3257L72.802 40.6099L74.1138 40.8712L72.7759 47.587L71.4641 47.3257Z" fill="black"/>
<path fill-rule="evenodd" clip-rule="evenodd" d="M62.4563 46.0835L63.7942 39.3677L65.106 39.629L63.7681 46.3448L62.4563 46.0835Z" fill="black"/>
<path fill-rule="evenodd" clip-rule="evenodd" d="M53.3211 41.3396L55.3379 34.3667L56.6227 34.7384L54.606 41.7112L53.3211 41.3396Z" fill="black"/>
<path fill-rule="evenodd" clip-rule="evenodd" d="M66.2302 30.5267C65.9757 30.42 65.7404 30.2648 65.539 30.0728C65.3378 29.8781 65.1654 29.6461 65.0031 29.4201L64.4532 28.6669L63.9036 27.9086L63.8752 27.8647L63.8629 27.8167C63.866 27.7724 63.8996 27.7407 63.9278 27.7112C64.5552 27.1997 65.1959 26.7232 65.8608 26.2745C66.1633 26.0677 66.4704 25.8691 66.7875 25.6765L66.9469 25.4938C67.0374 25.6231 67.1173 25.7544 67.1972 25.8856L67.419 26.2363L67.6755 26.6888C67.8664 27.032 68.0411 27.382 68.1996 27.7387C68.2626 27.8871 68.3252 28.0407 68.3823 28.1992L68.4431 28.3789C68.5749 28.8175 68.6273 29.2689 68.4673 29.6873C68.2714 30.2445 67.7108 30.6245 67.1313 30.6732C66.8205 30.6987 66.5101 30.6431 66.2302 30.5267ZM66.2227 28.8267L66.0843 28.6338L65.6637 28.0546C65.9564 27.8366 66.2538 27.6269 66.551 27.4197C66.6532 27.6075 66.7449 27.7946 66.8363 27.9869L66.9781 28.2822L67.0991 28.576C67.1518 28.7211 67.1901 28.8495 67.2137 28.9611C67.2436 29.1334 67.2235 29.1975 67.2172 29.2127C67.21 29.241 67.1981 29.2612 67.165 29.285L67.0943 29.322L67.0197 29.3404C66.9619 29.3442 66.8941 29.3395 66.8272 29.3218L66.7351 29.2918C66.6794 29.2644 66.6188 29.2313 66.559 29.1879L66.4699 29.1136C66.3914 29.0375 66.3188 28.9512 66.2227 28.8267Z" fill="black"/>
<path fill-rule="evenodd" clip-rule="evenodd" d="M71.2345 23.4117C71.6155 24.0326 71.9951 24.6744 72.0448 25.3901C72.071 25.7664 71.9749 26.1683 71.7747 26.4869C71.5926 26.7701 71.3314 26.9876 71.0067 27.0619L70.848 27.0849L70.7114 27.0912L70.5087 27.0692C70.2448 27.022 69.9915 26.8997 69.7721 26.7404C69.4286 26.4834 69.1747 26.1437 68.9157 25.8009L68.8866 25.7675L68.4604 25.1932L68.2692 24.9311L68.2162 24.8645C68.2026 24.8348 68.1941 24.8054 68.2015 24.7745C68.2064 24.7041 68.2672 24.6586 68.3278 24.6157L69.3358 23.9028L70.6849 22.9544L70.8618 22.8961C70.9543 22.9968 71.0357 23.1072 71.1167 23.2228L71.2345 23.4117ZM70.6979 25.629L70.6649 25.7262L70.5695 25.6672C70.4799 25.6007 70.4018 25.5194 70.3048 25.4079L70.0258 25.0507L70.461 24.7431C70.5165 24.8491 70.5621 24.9466 70.5976 25.0381C70.6647 25.2025 70.702 25.3439 70.7134 25.4808L70.71 25.5303C70.713 25.562 70.7055 25.5955 70.6979 25.629Z" fill="black"/>
<path fill-rule="evenodd" clip-rule="evenodd" d="M71.6539 18.6618L70.1765 16.1839L66.4788 19.0481L67.3262 20.343L62.7258 23.4587L61.4897 21.6523L57.8855 24.4523L59.4162 26.9156L57.4141 28.4418L59.8609 32.5688L59.8949 32.6078L59.9764 32.7156L60.1007 32.8866C60.1964 33.0163 60.3266 33.1773 60.4996 33.3255C60.8548 33.6409 61.3771 33.8867 62.0666 33.7618C62.6079 33.6607 63.0502 33.4008 63.3595 33.1709L63.3926 33.147C63.7299 33.5685 64.2057 34.0311 64.8448 34.4055C65.2523 34.6459 65.715 34.8457 66.2453 34.9769C67.0279 35.1701 67.9519 35.2135 69.0234 35.0183C70.5033 34.6001 71.7957 33.2628 71.9856 31.2099C72.7397 31.286 73.674 31.1807 74.469 30.6704C75.7076 29.8793 76.3736 28.2864 75.9163 25.6752L75.9091 25.6275L75.6449 24.834L77.0752 23.6216L77.1373 23.4819C77.3171 23.0806 77.3977 22.6751 77.2903 22.1858C77.1944 21.7575 76.959 21.3012 76.6351 20.7628L74.4835 16.8344L71.6539 18.6618ZM69.165 20.7119L68.2752 19.3485L69.8029 18.1664L71.2142 20.5402L74.0001 18.7386L74.8413 20.274L72.334 22.061L73.1066 23.1517L75.4733 21.4283C75.6564 21.7317 75.7769 21.9574 75.8589 22.1334C75.9275 22.2769 75.967 22.387 75.9869 22.4774C76.0107 22.5865 76.0096 22.678 75.9692 22.8062L74.0935 24.3988L74.6084 25.956C74.9951 28.2271 74.3597 29.1544 73.7512 29.5442C73.0442 29.9952 72.0735 29.946 71.5468 29.7627L70.6059 29.4354L70.6623 30.4318C70.7695 32.3535 69.7162 33.4167 68.753 33.7111C67.2842 33.9703 66.2416 33.6752 65.5222 33.2506C65.1296 33.0217 64.8188 32.7461 64.5806 32.4807C64.3669 32.2407 64.2101 32.0098 64.1026 31.8242L63.7237 31.172L63.1214 31.625L62.9041 31.8116L62.8593 31.853L62.6594 32.0171L62.5596 32.0966C62.3386 32.2619 62.0935 32.3967 61.8282 32.4464L61.7123 32.4566L61.6497 32.4523C61.5406 32.4395 61.4601 32.392 61.3813 32.321C61.3071 32.2582 61.2394 32.1776 61.1675 32.0809L61.1006 31.9899L60.9615 31.8047L60.6524 31.2804L62.7905 29.7559L62.0125 28.6674L59.9681 30.1252L59.171 28.7839L61.1952 27.241L59.6546 24.7691L61.1881 23.5796L62.3769 25.312L69.165 20.7119Z" fill="black"/>
</svg>
