<svg width="428" height="483" viewBox="0 0 428 483" fill="none" xmlns="http://www.w3.org/2000/svg">
<path d="M404.008 81.1577L399.925 98L394.822 80.3071L379 77.7552L394.822 74.1826L399.245 57L403.328 72.8216L420 77.0747L404.008 81.1577Z" stroke="#00353D" stroke-width="1.2" stroke-linejoin="round"/>
<path d="M357.736 39.2727L356.191 47L355.109 39.7364L348 38.1909L355.264 37.1091L356.809 30L357.273 37.2636L365 38.8091L357.736 39.2727Z" stroke="#00353D" stroke-linejoin="round"/>
<path d="M36.6583 50.3223C28.426 46.6415 24.3054 38.5596 27.1145 32.376C29.9237 26.1923 38.7564 23.902 46.9887 27.5828C55.2209 31.2636 59.3416 39.3455 56.5324 45.5291C53.7233 51.7127 44.8906 54.003 36.6583 50.3223Z" stroke="black"/>
<path d="M26.9113 32.6432C20.9951 45.6724 25.9706 51.6983 34.3578 55.4502C42.7449 59.202 52.4741 57.854 56.1156 45.7073" stroke="black" stroke-linecap="round"/>
<path d="M45.9976 51.6455L44.8467 57.2577" stroke="black"/>
<path d="M38.4703 50.6064L37.3193 56.2187" stroke="black"/>
<path d="M31.3867 46.4748L29.6763 52.3019" stroke="black"/>
<path fill-rule="evenodd" clip-rule="evenodd" d="M40.5365 42.8136C40.3239 42.7244 40.1272 42.5948 39.9589 42.4343C39.7908 42.2716 39.6467 42.0777 39.511 41.8888L39.0515 41.2595L38.5922 40.6257L38.5685 40.5891L38.5582 40.5489C38.5608 40.5119 38.5889 40.4854 38.6125 40.4608C39.1368 40.0334 39.6722 39.6351 40.2278 39.2602C40.4806 39.0874 40.7372 38.9214 41.0023 38.7604L41.1354 38.6077C41.2111 38.7158 41.2778 38.8255 41.3446 38.9352L41.5299 39.2282L41.7444 39.6064C41.9038 39.8932 42.0498 40.1857 42.1823 40.4837C42.2349 40.6078 42.2873 40.7361 42.3349 40.8686L42.3858 41.0187C42.4959 41.3853 42.5397 41.7625 42.406 42.1121C42.2423 42.5778 41.7738 42.8953 41.2895 42.936C41.0298 42.9574 40.7704 42.9109 40.5365 42.8136ZM40.5303 41.393L40.4146 41.2317L40.0631 40.7477C40.3077 40.5656 40.5563 40.3903 40.8046 40.2172C40.89 40.3742 40.9667 40.5305 41.043 40.6912L41.1615 40.9379L41.2626 41.1835C41.3067 41.3047 41.3386 41.412 41.3584 41.5053C41.3834 41.6493 41.3666 41.7028 41.3613 41.7156C41.3553 41.7392 41.3453 41.756 41.3177 41.776L41.2586 41.8069L41.1963 41.8223C41.1479 41.8255 41.0913 41.8215 41.0354 41.8067L40.9584 41.7816C40.9119 41.7587 40.8613 41.7311 40.8113 41.6948L40.7368 41.6327C40.6712 41.5691 40.6106 41.497 40.5303 41.393Z" fill="black"/>
<path fill-rule="evenodd" clip-rule="evenodd" d="M44.7184 36.8678C45.0369 37.3867 45.3541 37.923 45.3956 38.5211C45.4175 38.8356 45.3372 39.1714 45.1699 39.4377C45.0178 39.6744 44.7994 39.8561 44.5281 39.9182L44.3955 39.9374L44.2813 39.9426L44.1119 39.9243C43.8914 39.8849 43.6797 39.7826 43.4964 39.6495C43.2094 39.4348 42.9971 39.1508 42.7807 38.8644L42.7564 38.8365L42.4003 38.3565L42.2404 38.1375L42.1962 38.0819C42.1848 38.057 42.1777 38.0325 42.1839 38.0066C42.188 37.9478 42.2388 37.9098 42.2894 37.8739L43.1318 37.2782L44.2592 36.4857L44.407 36.4369C44.4843 36.521 44.5523 36.6133 44.62 36.7099L44.7184 36.8678ZM44.27 38.7207L44.2425 38.802L44.1628 38.7527C44.0879 38.6971 44.0226 38.6291 43.9415 38.5359L43.7084 38.2374L44.0721 37.9804C44.1184 38.069 44.1565 38.1504 44.1862 38.2269C44.2423 38.3643 44.2735 38.4824 44.283 38.5969L44.2802 38.6383C44.2827 38.6647 44.2764 38.6927 44.27 38.7207Z" fill="black"/>
<path fill-rule="evenodd" clip-rule="evenodd" d="M45.069 32.8984L43.8344 30.8277L40.7442 33.2212L41.4524 34.3034L37.608 36.9071L36.575 35.3975L33.563 37.7374L34.8422 39.7959L33.1692 41.0713L35.2139 44.5201L35.2422 44.5527L35.3104 44.6428L35.4142 44.7857C35.4942 44.8941 35.603 45.0286 35.7476 45.1525C36.0444 45.416 36.4809 45.6215 37.0571 45.5171C37.5094 45.4326 37.8791 45.2154 38.1375 45.0233L38.1652 45.0033C38.447 45.3556 38.8447 45.7421 39.3788 46.055C39.7193 46.256 40.106 46.4229 40.5491 46.5325C41.2032 46.694 41.9753 46.7302 42.8708 46.5671C44.1074 46.2176 45.1874 45.1001 45.3461 43.3846C45.9764 43.4481 46.7571 43.3602 47.4214 42.9337C48.4566 42.2726 49.0131 40.9414 48.6309 38.7593L48.6249 38.7195L48.4041 38.0564L49.5994 37.0432L49.6513 36.9264C49.8015 36.5911 49.8689 36.2522 49.7791 35.8433C49.699 35.4854 49.5023 35.1041 49.2316 34.6542L47.4336 31.3713L45.069 32.8984ZM42.989 34.6116L42.2455 33.4723L43.5222 32.4844L44.7016 34.4682L47.0297 32.9626L47.7326 34.2457L45.6373 35.739L46.2829 36.6505L48.2607 35.2103C48.4138 35.4639 48.5144 35.6525 48.583 35.7995C48.6403 35.9195 48.6733 36.0115 48.6899 36.0871C48.7098 36.1782 48.7089 36.2547 48.6752 36.3618L47.1076 37.6927L47.5379 38.994C47.8611 40.8919 47.3301 41.6669 46.8216 41.9926C46.2308 42.3694 45.4196 42.3283 44.9795 42.1752L44.1932 41.9016L44.2403 42.7343C44.3299 44.3402 43.4497 45.2287 42.6448 45.4747C41.4173 45.6913 40.546 45.4447 39.9448 45.0899C39.6168 44.8986 39.3571 44.6683 39.158 44.4465C38.9794 44.2459 38.8484 44.053 38.7585 43.8979L38.4419 43.3529L37.9385 43.7315L37.757 43.8873L37.7196 43.9219L37.5525 44.0591L37.4691 44.1255C37.2844 44.2637 37.0796 44.3764 36.8579 44.4178L36.761 44.4264L36.7087 44.4228C36.6176 44.4121 36.5503 44.3724 36.4844 44.3131C36.4224 44.2606 36.3658 44.1932 36.3058 44.1124L36.2498 44.0363L36.1336 43.8816L35.8753 43.4435L37.662 42.1694L37.0119 41.2598L35.3034 42.478L34.6373 41.3572L36.3289 40.0678L35.0414 38.0022L36.3229 37.0081L37.3164 38.4558L42.989 34.6116Z" fill="black"/>
</svg>
