<?xml version="1.0" encoding="UTF-8"?>
<svg width="1831px" height="344px" viewBox="0 0 1831 344" version="1.1" xmlns="http://www.w3.org/2000/svg" xmlns:xlink="http://www.w3.org/1999/xlink">
    <g transform="translate(444.000000, 56.000000)">
        <path d="M101.780048,227.551594 C101.703127,227.551072 101.626246,227.550489 101.549404,227.549844 C101.472563,227.550489 101.395682,227.551072 101.318761,227.551594 L101.318761,227.554911 L101.780048,227.554911 L101.780048,227.551594 L101.780048,227.551594 Z" id="Path" fill="#252525"></path>
        <path d="M1036.09413,100.953525 L1036.09413,223.647389 C1036.09413,224.44549 1035.44874,225.092478 1034.65261,225.092478 L1000.77107,225.092478 C999.974936,225.092478 999.329545,224.44549 999.329545,223.647389 L999.329545,100.953525 L976.484298,100.953525 C975.688167,100.953525 975.042776,100.306536 975.042776,99.5084355 L975.042776,70.6528918 C975.042776,69.854791 975.688167,69.2078025 976.484298,69.2078025 L999.329545,69.2078025 L999.329545,56.5256986 C999.329545,21.4275888 1018.89504,3.68167203 1057.4402,3.68167203 L1062.99871,3.68167203 C1063.79484,3.68167203 1064.44023,4.32866056 1064.44023,5.12676135 L1064.44023,36.8724837 C1064.44023,37.6705845 1063.79484,38.317573 1062.99871,38.317573 L1057.74003,38.317573 C1042.79996,38.317573 1036.09413,44.5587267 1036.09413,58.0285915 L1036.09413,69.2078025 L1089.02684,69.2078025 L1089.02684,56.5256986 C1089.02684,21.4275888 1108.59233,3.68167203 1147.13749,3.68167203 L1152.696,3.68167203 C1153.49213,3.68167203 1154.13752,4.32866056 1154.13752,5.12676135 L1154.13752,36.8724837 C1154.13752,37.6705845 1153.49213,38.317573 1152.696,38.317573 L1147.43732,38.317573 C1132.49726,38.317573 1125.79142,44.5587267 1125.79142,58.0285915 L1125.79142,69.2078025 L1152.696,69.2078025 C1153.49213,69.2078025 1154.13752,69.854791 1154.13752,70.6528918 L1154.13752,99.5084355 C1154.13752,100.306536 1153.49213,100.953525 1152.696,100.953525 L1125.79142,100.953525 L1125.79142,223.647389 C1125.79142,224.44549 1125.14603,225.092478 1124.3499,225.092478 L1090.46836,225.092478 C1089.67223,225.092478 1089.02684,224.44549 1089.02684,223.647389 L1089.02684,100.953525 L1036.09413,100.953525 Z" id="Path" fill="#00353D"></path>
        <path d="M376.960905,146.999851 C376.960905,171.240276 369.854697,191.079655 355.581792,206.301167 C341.426929,221.416483 322.400314,229 298.461363,229 C274.563822,229 255.529751,221.443857 241.03121,206.290503 C227.004187,191.006011 219.96182,171.131159 219.96182,146.999851 C219.96182,122.901708 226.985609,103.30889 241.041738,88.2990077 C255.462155,72.9201786 274.464878,65.300281 298.461363,65.300281 C322.498892,65.300281 341.492309,72.9470338 355.571137,88.2884366 C369.873627,103.23644 376.960905,122.79378 376.960905,146.999851 Z M340.196319,146.999851 C340.196319,117.276023 324.19991,97.0460033 298.461363,97.0460033 C272.722816,97.0460033 256.726407,117.276023 256.726407,146.999851 C256.726407,176.985848 272.688302,197.254278 298.461363,197.254278 C324.234424,197.254278 340.196319,176.985848 340.196319,146.999851 Z" id="Combined-Shape" fill="#00353D"></path>
        <path d="M437.228074,24.7027716 C437.228074,36.6742836 427.547201,46.3791115 415.605238,46.3791115 C403.663276,46.3791115 393.982402,36.6742836 393.982402,24.7027716 C393.982402,12.7312597 403.663276,3.02643172 415.605238,3.02643172 C427.547201,3.02643172 437.228074,12.7312597 437.228074,24.7027716 Z" id="Path" fill="#00353D"></path>
        <path d="M398.606806,69.2078025 L432.488348,69.2078025 C433.284479,69.2078025 433.929871,69.854791 433.929871,70.6528918 L433.929871,223.647389 C433.929871,224.44549 433.284479,225.092478 432.488348,225.092478 L398.606806,225.092478 C397.810675,225.092478 397.165284,224.44549 397.165284,223.647389 L397.165284,70.6528918 C397.165284,69.854791 397.810675,69.2078025 398.606806,69.2078025 Z" id="Path" fill="#00353D"></path>
        <path d="M636.965416,26.167262 C636.965416,25.3691612 637.610808,24.7221726 638.406939,24.7221726 L672.288481,24.7221726 C673.084612,24.7221726 673.730003,25.3691612 673.730003,26.167262 L673.730003,69.2078025 L702.50279,69.2078025 C703.298921,69.2078025 703.944312,69.854791 703.944312,70.6528918 L703.944312,99.5084355 C703.944312,100.306536 703.298921,100.953525 702.50279,100.953525 L673.730003,100.953525 L673.730003,174.051923 C673.730003,186.688004 680.791069,192.745599 695.67574,192.745599 L702.50279,192.745599 C703.298921,192.745599 703.944312,193.392587 703.944312,194.190688 L703.944312,223.647389 C703.944312,224.44549 703.298921,225.092478 702.50279,225.092478 L695.076067,225.092478 C655.7873,225.092478 636.965416,210.959634 636.965416,178.560602 L636.965416,100.953525 L614.12017,100.953525 C613.324039,100.953525 612.678647,100.306536 612.678647,99.5084355 L612.678647,70.6528918 C612.678647,69.854791 613.324039,69.2078025 614.12017,69.2078025 L636.965416,69.2078025 L636.965416,26.167262 Z" id="Path" fill="#00353D"></path>
        <path d="M813.208383,69.2192631 C813.9287,69.3107508 814.468717,69.9250192 814.468717,70.6528918 L814.468717,102.213643 C814.468717,103.099691 813.680584,103.777079 812.807087,103.641787 C784.168846,99.2061416 764.695832,117.734519 764.695832,149.219508 L764.695832,223.647389 C764.695832,224.44549 764.050441,225.092478 763.25431,225.092478 L730.572114,225.092478 C729.775984,225.092478 729.130592,224.44549 729.130592,223.647389 L729.130592,70.6528918 C729.130592,69.854791 729.775984,69.2078025 730.572114,69.2078025 L763.25431,69.2078025 C764.050441,69.2078025 764.695832,69.854791 764.695832,70.6528918 L764.695832,88.3661932 C774.763493,71.9616585 792.731642,66.6185059 813.208383,69.2192631 Z" id="Path" fill="#00353D"></path>
        <path d="M923.886033,121.450672 C923.886033,104.14746 913.618667,94.9419532 893.245033,94.9419532 C875.06963,94.9419532 865.499661,101.079068 864.093569,113.201381 C864.009055,113.93 863.393412,114.479561 862.661694,114.479561 L829.079988,114.479561 C828.254092,114.479561 827.59705,113.785315 827.640459,112.958519 C829.169717,83.8307201 854.68381,65.300281 892.045686,65.300281 C934.993285,65.300281 959.451273,85.1254769 959.451273,122.051829 L959.451273,223.647389 C959.451273,224.44549 958.805881,225.092478 958.00975,225.092478 L926.526902,225.092478 C925.730771,225.092478 925.085379,224.44549 925.085379,223.647389 L925.085379,213.295725 C914.968867,223.214017 895.286233,229 874.355323,229 C857.244946,229 843.674735,224.081116 833.457738,214.148971 C823.303186,203.969292 818.34353,191.883682 818.34353,177.358288 C818.34353,163.239572 823.524823,150.835717 833.742476,140.282389 C843.922738,129.767681 859.56703,124.514261 880.352057,124.514261 L923.886033,124.514261 L923.886033,121.450672 Z M886.34879,154.340905 C867.385985,154.340905 855.407953,161.633967 855.407953,175.254238 C855.407953,189.975968 866.0581,198.456592 884.849606,198.456592 C895.977306,198.456592 905.179043,194.925335 912.634794,187.738606 C920.150261,180.494313 923.886033,171.851971 923.886033,161.728202 L923.886033,154.340905 L886.34879,154.340905 Z" id="Combined-Shape" fill="#00353D"></path>
        <path d="M1218.41789,24.7027716 C1218.41789,36.6742836 1208.73701,46.3791115 1196.79505,46.3791115 C1184.85309,46.3791115 1175.17222,36.6742836 1175.17222,24.7027716 C1175.17222,12.7312597 1184.85309,3.02643172 1196.79505,3.02643172 C1208.73701,3.02643172 1218.41789,12.7312597 1218.41789,24.7027716 Z" id="Path" fill="#00353D"></path>
        <path d="M1179.79662,69.2078025 L1213.67816,69.2078025 C1214.47429,69.2078025 1215.11968,69.854791 1215.11968,70.6528918 L1215.11968,223.647389 C1215.11968,224.44549 1214.47429,225.092478 1213.67816,225.092478 L1179.79662,225.092478 C1179.00049,225.092478 1178.3551,224.44549 1178.3551,223.647389 L1178.3551,70.6528918 C1178.3551,69.854791 1179.00049,69.2078025 1179.79662,69.2078025 Z" id="Path" fill="#00353D"></path>
        <path d="M1367.74883,88.0107196 C1377.26986,98.4037173 1383.47498,111.198241 1386.35214,126.242163 C1386.52254,127.133159 1385.84138,127.959354 1384.9364,127.959354 L1350.43775,127.959354 C1349.78664,127.959354 1349.21636,127.521804 1349.04628,126.891742 C1343.97098,108.090209 1331.24663,97.4003402 1311.94647,97.054689 C1286.39795,97.5110293 1272.38849,116.210305 1272.38849,146.699273 C1272.38849,177.789602 1286.38509,196.782442 1311.89475,197.245473 C1330.37323,196.91075 1342.79767,187.016215 1348.31294,169.433472 C1348.50179,168.831424 1349.05853,168.421867 1349.68808,168.421867 L1384.49498,168.421855 C1385.41332,168.421855 1386.09753,169.271192 1385.9042,170.17117 C1382.86165,184.334542 1376.81378,196.394418 1367.74883,206.289561 C1354.42282,220.836009 1335.93936,228.501784 1313.18443,228.976495 C1313.09999,228.991935 1313.01298,229 1312.92409,229 C1312.58432,229 1312.24545,228.998435 1311.93411,228.995304 C1311.59614,228.998435 1311.25726,229 1310.91749,229 C1310.8286,229 1310.7416,228.991935 1310.65716,228.976495 C1287.90222,228.501784 1269.41876,220.836009 1256.09275,206.289561 C1242.4209,191.365593 1235.6239,171.536619 1235.6239,146.999851 C1235.6239,122.726046 1242.44236,102.91126 1256.09275,88.0107196 C1269.41876,73.4642715 1287.90222,65.7984971 1310.65716,65.3237855 C1310.7416,65.3083458 1310.8286,65.300281 1310.91749,65.300281 C1311.25726,65.300281 1311.59614,65.3018464 1311.90747,65.3049771 C1312.24545,65.3018464 1312.58432,65.300281 1312.92409,65.300281 C1313.01298,65.300281 1313.09999,65.3083458 1313.18443,65.3237855 C1335.93936,65.7984971 1354.42282,73.4642715 1367.74883,88.0107196 Z" id="Path" fill="#00353D"></path>
        <path d="M161.222711,88.7981493 L160.867904,87.3777292 C153.37934,59.1588667 134.041936,39.2582501 102.649258,39.2582501 C61.3089032,39.2582501 40.6822444,73.7692994 40.6822444,116.340836 C40.6822444,158.912373 61.3089032,193.423422 102.649258,193.423422 C133.998975,193.423422 153.32639,173.577237 160.837093,145.41975 L161.222112,143.88249 C161.41094,143.12856 162.088836,142.599739 162.866472,142.599739 L199.25142,142.599739 C200.187595,142.599739 200.946514,143.358223 200.946514,144.293862 C200.946514,144.39508 200.937437,144.496095 200.919393,144.595694 L200.665406,145.997658 C191.39345,193.829472 158.609918,229 101.863583,229 C33.9068364,229 1.42108547e-14,178.560774 1.42108547e-14,116.340836 C1.42108547e-14,54.1208978 33.9068364,3.68167203 101.863583,3.68167203 C158.72002,3.68167203 191.520576,38.9888111 200.71911,86.9625732 L200.921768,88.087653 C201.087635,89.0084887 200.475184,89.8893585 199.553821,90.0551308 C199.454707,90.0729636 199.354199,90.0819331 199.253492,90.0819331 L162.86733,90.0819331 C162.089296,90.0819331 161.411161,89.5525831 161.222711,88.7981493 Z" id="Path" fill="#00353D"></path>
        <path d="M545.941926,65.300281 C581.23856,65.300281 601.769205,88.6116278 601.769205,128.063401 L601.769205,223.647389 C601.769205,224.44549 601.123814,225.092478 600.327683,225.092478 L566.446141,225.092478 C565.65001,225.092478 565.004618,224.44549 565.004618,223.647389 L565.004618,134.676129 C565.004618,110.100208 555.657086,98.5488962 535.447643,98.5488962 C526.730709,98.5488962 517.68192,103.081879 510.65691,111.250607 C503.801121,119.555183 500.475025,129.675861 500.475025,141.890015 L500.475025,223.647389 C500.475025,224.44549 499.829633,225.092478 499.033503,225.092478 L464.870708,225.092478 C464.074577,225.092478 463.429185,224.44549 463.429185,223.647389 L463.429185,70.6528918 C463.429185,69.854791 464.074577,69.2078025 464.870708,69.2078025 L499.033503,69.2078025 C499.829633,69.2078025 500.475025,69.854791 500.475025,70.6528918 L500.475025,81.5455417 C510.329185,71.6821987 529.530258,65.300281 545.941926,65.300281 Z" id="Path" fill="#00353D"></path>
    </g>
    <path d="M59.9884887,3.66943659 C97.3256591,1.22314553 134.66283,1.13686838e-13 172,1.13686838e-13 C209.33717,1.13686838e-13 246.674341,1.22314552 284.011511,3.66943655 C314.256855,5.65107831 338.348921,29.743145 340.330563,59.9884887 C342.776854,97.3256591 344,134.66283 344,172 C344,209.33717 342.776854,246.674341 340.330563,284.011511 C338.348922,314.256855 314.256855,338.348921 284.011511,340.330563 C246.674341,342.776854 209.33717,344 172,344 C134.66283,344 97.3256595,342.776854 59.9884892,340.330563 C29.7431455,338.348922 5.65107883,314.256855 3.66943659,284.011511 C1.22314553,246.674341 0,209.33717 0,172 C0,134.66283 1.22314552,97.3256595 3.66943655,59.9884892 C5.65107831,29.7431455 29.743145,5.65107883 59.9884887,3.66943659 Z M212.428571,139.212622 L214.443734,143.687509 C214.929907,144.767109 216.00559,145.459772 217.189602,145.455652 L269.341305,145.274199 C269.575647,145.273383 269.809086,145.245113 270.036848,145.189966 C271.647179,144.800064 272.636531,143.178555 272.246629,141.568224 L272.246617,141.568227 C271.04864,136.620476 269.826568,132.343269 268.580399,128.736606 C254.769239,86.434987 220.727679,60.8944099 172.982354,60.8944099 C108.998662,60.8944099 70.5093168,106.908406 70.5093168,172.534161 C70.5093168,238.159917 108.998662,284.173913 172.982354,284.173913 C220.889577,284.173913 254.99355,258.458946 268.713059,215.922921 C270.288377,211.221734 271.556668,206.733107 272.517932,202.457039 C272.566583,202.240621 272.591082,202.019475 272.590978,201.797656 C272.590202,200.140808 271.246434,198.798297 269.589586,198.799072 L217.457954,198.823455 C216.264281,198.824014 215.184511,199.532184 214.708364,200.62678 L212.73209,205.169963 C212.318027,206.12184 211.884152,207.050619 211.43085,207.955593 C203.864461,223.061168 191.22658,231.206769 173.690986,231.206769 C159.154215,231.206769 148.045068,225.640435 140.290492,215.213525 C132.606965,204.882149 128.398419,189.909596 128.398419,172.534161 C128.398419,155.158727 132.606965,140.186174 140.290492,129.854798 C148.045068,119.427888 159.154215,113.861554 173.690986,113.861554 C191.101751,113.861554 203.677709,121.888617 211.265032,136.784454 C211.667949,137.575481 212.055882,138.385027 212.428571,139.212622 Z" id="Shape" fill="#FF7A34"></path>
</svg>
