<svg width="688" height="400" viewBox="0 0 688 400" fill="none" xmlns="http://www.w3.org/2000/svg">
<path d="M164.127 162.421L190.238 185.5" stroke="#10112B" stroke-miterlimit="10" stroke-linecap="round" stroke-linejoin="round"/>
<path d="M151.205 150.999L154.927 154.283" stroke="#10112B" stroke-miterlimit="10" stroke-linecap="round" stroke-linejoin="round"/>
<path d="M171.341 189.763L185.174 192.391" stroke="#10112B" stroke-miterlimit="10" stroke-linecap="round" stroke-linejoin="round"/>
<path d="M157.101 186.795L160.783 187.56" stroke="#10112B" stroke-miterlimit="10" stroke-linecap="round" stroke-linejoin="round"/>
<path d="M188.601 161.425L196.1 180.771" stroke="#10112B" stroke-miterlimit="10" stroke-linecap="round" stroke-linejoin="round"/>
<path d="M182.93 146.793L184.392 150.581" stroke="#10112B" stroke-miterlimit="10" stroke-linecap="round" stroke-linejoin="round"/>
<mask id="mask0_1537_13753" style="mask-type:luminance" maskUnits="userSpaceOnUse" x="353" y="0" width="82" height="64">
<path d="M418.695 0L353.166 31.7467L368.576 63.5544L434.105 31.8077L418.695 0Z" fill="white"/>
</mask>
<g mask="url(#mask0_1537_13753)">
<path d="M419.934 6.17272C417.225 4.50597 413.772 4.1062 410.761 5.1196C407.749 6.133 405.238 8.53112 404.089 11.4968C403.359 13.3792 403.179 15.5541 404.001 17.3996C404.822 19.245 406.78 20.6438 408.788 20.4374C411.958 20.1142 413.57 15.7737 411.909 13.0502C410.247 10.3267 406.448 9.48886 403.434 10.5189C400.42 11.549 398.124 14.0499 396.453 16.7609C393.826 21.0282 392.425 26.0386 392.462 31.0566C392.474 32.8231 392.678 34.6463 393.533 36.196C394.383 37.7477 396.004 38.9776 397.771 38.935C400.796 38.8581 402.6 34.9893 401.556 32.1484C400.509 29.3033 397.607 27.559 394.711 26.6824C389.972 25.253 384.721 25.6003 380.22 27.6461C375.719 29.692 372 33.4159 369.962 37.9262C366.647 45.263 367.867 53.7597 369.146 61.7149" stroke="black" stroke-miterlimit="10" stroke-linecap="round" stroke-linejoin="round"/>
</g>
<path d="M478.347 128.24C478.347 128.24 500.34 132.577 498.847 123.122C497.355 113.666 483.614 121.44 488.522 135.881" stroke="black" stroke-linecap="round" stroke-linejoin="round"/>
<path d="M507.674 172.708C507.674 172.708 488.205 183.82 486.61 174.382C485.015 164.944 500.516 167.938 500.46 183.191" stroke="black" stroke-linecap="round" stroke-linejoin="round"/>
<path d="M154.367 268.557L153.983 274.898L161.478 268.557H154.367Z" fill="#D8E3E4"/>
<path d="M519.393 268.557H510.072L519.297 276.628H153.886L146.584 382.129L527.272 382.801L519.393 268.557ZM423.02 300.265H452.133V313.332H423.116V300.265H423.02ZM431.091 320.635V333.702H402.073V320.635H431.091ZM383.048 300.265H412.066V313.332H383.048V300.265ZM391.023 320.635V333.702H362.006V320.635H391.023ZM342.981 300.265H371.999V313.332H342.981V300.265ZM351.052 320.635V333.702H322.035V320.635H351.052ZM302.914 300.265H331.931V313.332H302.914V300.265ZM310.985 320.635V333.702H281.967V320.635H310.985ZM262.943 300.265H291.96V313.332H262.943V300.265ZM270.918 320.635V333.702H241.9V320.635H270.918ZM222.875 300.265H251.893V313.332H222.875V300.265ZM183.288 300.265H212.306V313.332H183.288V300.265ZM231.427 333.702H202.313V320.635H231.331V333.702H231.427ZM233.733 364.834L245.071 350.133H428.689L440.027 364.834H233.733ZM471.158 333.702H442.141V320.635H471.158V333.702ZM491.624 313.332H462.607V300.265H491.624V313.332Z" fill="#FF7A34"/>
<path d="M148.083 382.015L169.551 395.14L527.667 382.825V372.292L148.083 382.015Z" fill="#805A00"/>
<path d="M146.584 382.128L163.879 400H509.784L527.272 382.801L146.584 382.128Z" fill="#80BC00"/>
<path d="M151.965 276.628H153.887L153.983 274.898L151.965 276.628Z" fill="#D8E3E4"/>
<path d="M223.548 215.614L212.018 225.415H223.548V215.614Z" fill="#80BC00"/>
<path d="M461.069 225.414L451.365 216.959V225.414H461.069Z" fill="#80BC00"/>
<path d="M488.166 249.243H476.347V243.574H198.662V249.243H184.154L161.478 268.556H510.073L488.166 249.243Z" fill="#80BC00"/>
<path d="M510.073 268.557H161.477L153.983 274.898L153.887 276.628H519.297L510.073 268.557Z" fill="#F45A04"/>
<path d="M476.347 243.575V249.244H488.166H508.055V217.536H476.347V225.415V238.866V243.575Z" fill="#386F77"/>
<path d="M198.662 243.575V236.849V225.415V217.536H166.858V249.244H184.154H198.662V243.575Z" fill="#386F77"/>
<path d="M476.347 225.415H461.069L476.347 238.866V225.415Z" fill="#FF7A34"/>
<path d="M212.018 225.415H198.662V236.849L212.018 225.415Z" fill="#FF7A34"/>
<path d="M198.662 243.575H476.347V238.866L461.069 225.415H451.365H223.548H212.018L198.662 236.849V243.575Z" fill="#805A00"/>
<path d="M437.817 205.044L451.461 216.959V97.5254L386.316 101.369C388.622 104.732 389.967 108.863 389.967 113.187C389.967 124.813 380.551 134.134 369.021 134.134C357.49 134.134 348.074 124.717 348.074 113.187C348.074 109.632 348.939 106.365 350.476 103.483L223.548 110.977V215.613L236.039 205.044H437.817ZM308.583 143.262C323.573 143.262 335.775 155.464 335.775 170.454C335.775 185.443 323.573 197.646 308.583 197.646C293.594 197.646 281.391 185.443 281.391 170.454C281.391 155.464 293.498 143.262 308.583 143.262Z" fill="#F8ECE6"/>
<path d="M451.365 225.414V216.959L437.817 205.044H236.039L223.548 215.614V225.414H451.365Z" fill="#7A8B00"/>
<path d="M245.071 350.133L233.733 364.834H440.027L428.689 350.133H245.071Z" fill="#F4BD15"/>
<path d="M231.331 320.634H202.313V333.702H231.331V320.634Z" fill="#F4BD15"/>
<path d="M270.918 320.634H241.901V333.702H270.918V320.634Z" fill="#F4BD15"/>
<path d="M310.985 320.634H281.968V333.702H310.985V320.634Z" fill="#F4BD15"/>
<path d="M350.957 320.634H321.939V333.702H350.957V320.634Z" fill="#F4BD15"/>
<path d="M391.024 320.634H362.006V333.702H391.024V320.634Z" fill="#F4BD15"/>
<path d="M431.091 320.634H402.073V333.702H431.091V320.634Z" fill="#F4BD15"/>
<path d="M471.159 320.634H442.141V333.702H471.159V320.634Z" fill="#F4BD15"/>
<path d="M212.307 300.264H183.289V313.332H212.307V300.264Z" fill="#F4BD15"/>
<path d="M251.893 300.264H222.875V313.332H251.893V300.264Z" fill="#F4BD15"/>
<path d="M291.96 300.264H262.943V313.332H291.96V300.264Z" fill="#F4BD15"/>
<path d="M331.931 300.264H302.914V313.332H331.931V300.264Z" fill="#F4BD15"/>
<path d="M371.999 300.264H342.981V313.332H371.999V300.264Z" fill="#F4BD15"/>
<path d="M412.066 300.264H383.049V313.332H412.066V300.264Z" fill="#F4BD15"/>
<path d="M452.038 300.264H423.02V313.332H452.038V300.264Z" fill="#F4BD15"/>
<path d="M491.625 300.264H462.607V313.332H491.625V300.264Z" fill="#F4BD15"/>
<path d="M308.584 197.646C323.601 197.646 335.776 185.472 335.776 170.454C335.776 155.436 323.601 143.262 308.584 143.262C293.566 143.262 281.392 155.436 281.392 170.454C281.392 185.472 293.566 197.646 308.584 197.646Z" fill="#F4BD15"/>
<path d="M368.925 92.2412C360.854 92.2412 353.839 96.8533 350.38 103.483L386.22 101.369C382.473 95.8924 376.131 92.2412 368.925 92.2412Z" fill="#F4BD15"/>
<path d="M368.924 134.23C380.551 134.23 389.871 124.814 389.871 113.284C389.871 108.864 388.526 104.828 386.22 101.465L350.38 103.579C348.843 106.462 347.978 109.825 347.978 113.284C347.978 124.814 357.394 134.23 368.924 134.23Z" fill="#E3AB00"/>
<path d="M302.722 76.7715C310.258 76.7715 316.366 70.6628 316.366 63.1274C316.366 55.592 310.258 49.4834 302.722 49.4834C295.187 49.4834 289.078 55.592 289.078 63.1274C289.078 70.6628 295.187 76.7715 302.722 76.7715Z" fill="#F4BD15"/>
<path d="M298.398 85.8037V109.344" stroke="black"/>
<path d="M358.932 129.714V160.365" stroke="black"/>
<path d="M325.302 185.347V217.343" stroke="black"/>
<path d="M337.985 174.874V195.82" stroke="black"/>
<path d="M306.085 101.177V112.9" stroke="black"/>
<path d="M124.63 261.718C121.569 264.086 118.073 265.263 114.909 265.272C111.746 265.28 108.943 264.123 107.189 261.855C105.435 259.587 105.021 256.584 105.824 253.524C106.627 250.464 108.646 247.377 111.707 245.009C114.769 242.642 118.264 241.464 121.428 241.456C124.591 241.448 127.394 242.604 129.148 244.872C130.902 247.14 131.317 250.144 130.514 253.203C129.71 256.263 127.691 259.35 124.63 261.718Z" stroke="black"/>
<path fill-rule="evenodd" clip-rule="evenodd" d="M119.583 256.268C119.414 256.318 119.236 256.337 119.059 256.324C118.881 256.31 118.703 256.266 118.531 256.22L117.956 256.072L117.379 255.922L117.347 255.912L117.322 255.893C117.305 255.87 117.309 255.841 117.311 255.815C117.412 255.309 117.535 254.816 117.68 254.326C117.745 254.102 117.816 253.88 117.894 253.657L117.898 253.503C117.995 253.53 118.088 253.562 118.18 253.594L118.431 253.677L118.74 253.795C118.973 253.887 119.2 253.988 119.423 254.1C119.514 254.147 119.607 254.197 119.699 254.252L119.802 254.316C120.044 254.478 120.252 254.679 120.343 254.95C120.472 255.303 120.35 255.717 120.085 255.975C119.942 256.113 119.767 256.212 119.583 256.268ZM118.891 255.435L118.745 255.396L118.304 255.281C118.359 255.056 118.421 254.832 118.483 254.61C118.609 254.661 118.73 254.716 118.853 254.773L119.042 254.861L119.22 254.957C119.305 255.007 119.376 255.054 119.433 255.1C119.517 255.172 119.533 255.212 119.536 255.222C119.544 255.239 119.546 255.254 119.54 255.279L119.52 255.326L119.491 255.365C119.464 255.39 119.429 255.415 119.389 255.434L119.331 255.456C119.293 255.465 119.249 255.473 119.202 255.476L119.129 255.476C119.059 255.47 118.989 255.457 118.891 255.435Z" fill="black"/>
<path fill-rule="evenodd" clip-rule="evenodd" d="M119.164 250.744C119.603 250.895 120.049 251.057 120.363 251.389C120.528 251.563 120.644 251.8 120.674 252.037C120.699 252.25 120.659 252.463 120.529 252.631L120.461 252.706L120.396 252.765L120.287 252.836C120.139 252.92 119.964 252.962 119.792 252.972C119.519 252.985 119.257 252.921 118.991 252.857L118.963 252.852L118.521 252.742L118.321 252.691L118.268 252.68C118.249 252.67 118.233 252.659 118.224 252.641C118.198 252.605 118.21 252.558 118.222 252.512L118.429 251.753L118.709 250.741L118.772 250.641C118.858 250.653 118.943 250.674 119.03 250.698L119.164 250.744ZM119.798 252.051L119.821 252.112L119.75 252.122C119.679 252.125 119.608 252.117 119.515 252.101L119.233 252.039L119.323 251.711C119.393 251.741 119.455 251.771 119.509 251.801C119.609 251.855 119.684 251.909 119.745 251.972L119.764 251.998C119.778 252.012 119.788 252.032 119.798 252.051Z" fill="black"/>
<path fill-rule="evenodd" clip-rule="evenodd" d="M117.448 248.238L115.719 247.617L115.06 250.522L116 250.816L114.999 254.21L113.66 253.822L113.021 256.657L114.77 257.249L114.403 258.81L117.277 259.849L117.309 259.855L117.393 259.875L117.523 259.909C117.623 259.934 117.752 259.96 117.897 259.963C118.199 259.975 118.556 259.884 118.844 259.544C119.07 259.275 119.182 258.968 119.241 258.73L119.248 258.705C119.584 258.775 120.005 258.81 120.471 258.736C120.769 258.689 121.077 258.6 121.391 258.45C121.854 258.228 122.326 257.876 122.774 257.346C123.332 256.542 123.427 255.361 122.689 254.275C123.091 254.007 123.508 253.577 123.692 253.004C123.981 252.114 123.664 251.061 122.383 249.962L122.36 249.942L121.909 249.658L122.121 248.483L122.095 248.389C122.021 248.119 121.897 247.887 121.646 247.69C121.426 247.518 121.125 247.389 120.748 247.255L118.1 246.194L117.448 248.238ZM117.054 250.253L116.065 249.943L116.338 248.743L117.992 249.34L118.633 247.326L119.668 247.741L119.158 249.634L119.98 249.858L120.446 248.053C120.659 248.128 120.809 248.19 120.921 248.243C121.013 248.286 121.077 248.325 121.123 248.361C121.179 248.405 121.216 248.45 121.248 248.53L120.97 250.072L121.853 250.629C122.962 251.59 123.025 252.303 122.884 252.741C122.718 253.249 122.221 253.617 121.888 253.74L121.293 253.96L121.724 254.427C122.554 255.329 122.466 256.278 122.112 256.813C121.494 257.535 120.862 257.811 120.337 257.894C120.051 257.94 119.787 257.93 119.562 257.896C119.36 257.865 119.189 257.815 119.061 257.767L118.611 257.599L118.498 258.066L118.467 258.246L118.462 258.284L118.43 258.446L118.413 258.525C118.371 258.696 118.305 258.861 118.195 258.993L118.142 259.045L118.109 259.068C118.05 259.106 117.992 259.115 117.924 259.112C117.862 259.112 117.796 259.099 117.722 259.081L117.652 259.063L117.509 259.028L117.145 258.896L117.579 257.281L116.756 257.06L116.341 258.604L115.406 258.267L115.777 256.689L114.019 256.097L114.292 254.892L115.577 255.263L117.054 250.253Z" fill="black"/>
<path d="M107.311 262.227C114.755 271.852 121.36 270.472 127.643 265.613C133.925 260.754 136.894 252.864 129.186 245.309" stroke="black" stroke-linecap="round"/>
<path d="M129.482 255.335L133.289 258.45" stroke="black"/>
<path d="M125.651 260.628L129.459 263.743" stroke="black"/>
<path d="M119.658 264.331L123.4 267.963" stroke="black"/>
<path d="M78 377.558C91.1171 374.587 126.171 368.159 161.452 366.215" stroke="black"/>
<path d="M509.842 359.432C525.77 360.128 567.99 363.461 609.446 371.22" stroke="black"/>
</svg>
