<svg width="335" height="276" viewBox="0 0 335 276" fill="none" xmlns="http://www.w3.org/2000/svg">
<path d="M59.6763 115.453L75.3431 129.301" stroke="#10112B" stroke-miterlimit="10" stroke-linecap="round" stroke-linejoin="round"/>
<path d="M51.9233 108.6L54.1566 110.57" stroke="#10112B" stroke-miterlimit="10" stroke-linecap="round" stroke-linejoin="round"/>
<path d="M64.0049 131.858L72.3049 133.434" stroke="#10112B" stroke-miterlimit="10" stroke-linecap="round" stroke-linejoin="round"/>
<path d="M55.4609 130.077L57.67 130.536" stroke="#10112B" stroke-miterlimit="10" stroke-linecap="round" stroke-linejoin="round"/>
<path d="M74.3608 114.856L78.8603 126.463" stroke="#10112B" stroke-miterlimit="10" stroke-linecap="round" stroke-linejoin="round"/>
<path d="M70.958 106.076L71.8355 108.349" stroke="#10112B" stroke-miterlimit="10" stroke-linecap="round" stroke-linejoin="round"/>
<mask id="mask0_1557_14519" style="mask-type:luminance" maskUnits="userSpaceOnUse" x="173" y="18" width="49" height="39">
<path d="M212.417 18L173.1 37.0481L182.346 56.1327L221.663 37.0847L212.417 18Z" fill="white"/>
</mask>
<g mask="url(#mask0_1557_14519)">
<path d="M213.161 21.7036C211.536 20.7036 209.464 20.4637 207.657 21.0718C205.85 21.6798 204.343 23.1187 203.654 24.8981C203.216 26.0275 203.108 27.3325 203.601 28.4398C204.094 29.547 205.269 30.3863 206.474 30.2625C208.376 30.0685 209.343 27.4642 208.346 25.8301C207.349 24.1961 205.069 23.6933 203.261 24.3114C201.453 24.9294 200.075 26.4299 199.073 28.0566C197.497 30.6169 196.656 33.6232 196.678 36.634C196.685 37.6939 196.808 38.7878 197.32 39.7176C197.83 40.6487 198.803 41.3866 199.864 41.3611C201.678 41.3149 202.761 38.9936 202.134 37.2891C201.506 35.582 199.765 34.5355 198.027 34.0095C195.184 33.1519 192.033 33.3602 189.333 34.5877C186.632 35.8152 184.401 38.0496 183.178 40.7558C181.189 45.1579 181.921 50.2559 182.688 55.029" stroke="black" stroke-miterlimit="10" stroke-linecap="round" stroke-linejoin="round"/>
</g>
<path d="M248.209 94.9444C248.209 94.9444 261.404 97.5463 260.509 91.8732C259.614 86.2001 251.369 90.8644 254.314 99.529" stroke="black" stroke-linecap="round" stroke-linejoin="round"/>
<path d="M265.805 121.625C265.805 121.625 254.124 128.292 253.167 122.629C252.21 116.966 261.51 118.763 261.477 127.914" stroke="black" stroke-linecap="round" stroke-linejoin="round"/>
<path d="M53.82 179.134L53.5894 182.939L58.0861 179.134H53.82Z" fill="#D8E3E4"/>
<path d="M272.836 179.134H267.244L272.778 183.976H53.5319L49.1504 247.277L277.563 247.681L272.836 179.134ZM215.012 198.159H232.48V205.999H215.07V198.159H215.012ZM219.855 210.381V218.221H202.444V210.381H219.855ZM191.029 198.159H208.44V205.999H191.029V198.159ZM195.814 210.381V218.221H178.404V210.381H195.814ZM166.989 198.159H184.4V205.999H166.989V198.159ZM171.832 210.381V218.221H154.421V210.381H171.832ZM142.949 198.159H160.359V205.999H142.949V198.159ZM147.791 210.381V218.221H130.381V210.381H147.791ZM118.966 198.159H136.376V205.999H118.966V198.159ZM123.751 210.381V218.221H106.34V210.381H123.751ZM94.9253 198.159H112.336V205.999H94.9253V198.159ZM71.1731 198.159H88.5836V205.999H71.1731V198.159ZM100.056 218.221H82.5879V210.381H99.9985V218.221H100.056ZM101.44 236.9L108.243 228.079H218.414L225.216 236.9H101.44ZM243.895 218.221H226.485V210.381H243.895V218.221ZM256.175 205.999H238.764V198.159H256.175V205.999Z" fill="#FF7A34"/>
<path d="M50.0498 247.209L62.9304 255.084L277.8 247.695V241.375L50.0498 247.209Z" fill="#805A00"/>
<path d="M49.1504 247.277L59.5276 258H267.071L277.563 247.68L49.1504 247.277Z" fill="#80BC00"/>
<path d="M52.3789 183.977H53.5319L53.5896 182.939L52.3789 183.977Z" fill="#D8E3E4"/>
<path d="M95.3288 147.368L88.4106 153.249H95.3288V147.368Z" fill="#80BC00"/>
<path d="M237.842 153.248L232.019 148.175V153.248H237.842Z" fill="#80BC00"/>
<path d="M254.099 167.545H247.008V164.144H80.3969V167.545H71.6916L58.0859 179.133H267.244L254.099 167.545Z" fill="#80BC00"/>
<path d="M267.244 179.134H58.0867L53.5899 182.939L53.5322 183.976H272.779L267.244 179.134Z" fill="#F45A04"/>
<path d="M247.008 164.145V167.546H254.099H266.033V148.521H247.008V153.249V161.32V164.145Z" fill="#386F77"/>
<path d="M80.3969 164.145V160.109V153.249V148.521H61.3145V167.546H71.6916H80.3969V164.145Z" fill="#386F77"/>
<path d="M247.008 153.249H237.841L247.008 161.32V153.249Z" fill="#FF7A34"/>
<path d="M88.4109 153.249H80.3975V160.109L88.4109 153.249Z" fill="#FF7A34"/>
<path d="M80.3975 164.145H247.009V161.32L237.842 153.249H232.019H95.3291H88.4109L80.3975 160.109V164.145Z" fill="#805A00"/>
<path d="M223.89 141.026L232.077 148.174V76.5142L192.989 78.8202C194.373 80.838 195.18 83.317 195.18 85.9113C195.18 92.887 189.53 98.4792 182.612 98.4792C175.694 98.4792 170.044 92.8294 170.044 85.9113C170.044 83.7782 170.563 81.818 171.486 80.0885L95.3286 84.5853V147.367L102.823 141.026H223.89ZM146.35 103.956C155.343 103.956 162.665 111.278 162.665 120.271C162.665 129.265 155.343 136.586 146.35 136.586C137.356 136.586 130.034 129.265 130.034 120.271C130.034 111.278 137.299 103.956 146.35 103.956Z" fill="#F8ECE6"/>
<path d="M232.019 153.248V148.175L223.89 141.026H102.823L95.3286 147.367V153.248H232.019Z" fill="#7A8B00"/>
<path d="M108.242 228.08L101.439 236.9H225.216L218.413 228.08H108.242Z" fill="#F4BD15"/>
<path d="M99.998 210.38H82.5874V218.22H99.998V210.38Z" fill="#F4BD15"/>
<path d="M123.751 210.38H106.34V218.22H123.751V210.38Z" fill="#F4BD15"/>
<path d="M147.791 210.38H130.38V218.22H147.791V210.38Z" fill="#F4BD15"/>
<path d="M171.774 210.38H154.363V218.22H171.774V210.38Z" fill="#F4BD15"/>
<path d="M195.814 210.38H178.404V218.22H195.814V210.38Z" fill="#F4BD15"/>
<path d="M219.854 210.38H202.444V218.22H219.854V210.38Z" fill="#F4BD15"/>
<path d="M243.895 210.38H226.485V218.22H243.895V210.38Z" fill="#F4BD15"/>
<path d="M88.5839 198.159H71.1733V205.999H88.5839V198.159Z" fill="#F4BD15"/>
<path d="M112.336 198.159H94.9253V205.999H112.336V198.159Z" fill="#F4BD15"/>
<path d="M136.376 198.159H118.966V205.999H136.376V198.159Z" fill="#F4BD15"/>
<path d="M160.359 198.159H142.948V205.999H160.359V198.159Z" fill="#F4BD15"/>
<path d="M184.399 198.159H166.989V205.999H184.399V198.159Z" fill="#F4BD15"/>
<path d="M208.44 198.159H191.03V205.999H208.44V198.159Z" fill="#F4BD15"/>
<path d="M232.423 198.159H215.012V205.999H232.423V198.159Z" fill="#F4BD15"/>
<path d="M256.175 198.159H238.764V205.999H256.175V198.159Z" fill="#F4BD15"/>
<path d="M146.35 136.587C155.361 136.587 162.665 129.283 162.665 120.272C162.665 111.262 155.361 103.957 146.35 103.957C137.339 103.957 130.035 111.262 130.035 120.272C130.035 129.283 137.339 136.587 146.35 136.587Z" fill="#F4BD15"/>
<path d="M182.555 73.3442C177.712 73.3442 173.504 76.1115 171.428 80.0894L192.932 78.8211C190.684 75.535 186.879 73.3442 182.555 73.3442Z" fill="#F4BD15"/>
<path d="M182.555 98.5379C189.53 98.5379 195.123 92.8881 195.123 85.97C195.123 83.318 194.316 80.8967 192.932 78.8789L171.428 80.1472C170.506 81.8768 169.987 83.8945 169.987 85.97C169.987 92.8881 175.637 98.5379 182.555 98.5379Z" fill="#E3AB00"/>
<path d="M142.833 64.0623C147.355 64.0623 151.02 60.3971 151.02 55.8759C151.02 51.3546 147.355 47.6895 142.833 47.6895C138.312 47.6895 134.647 51.3546 134.647 55.8759C134.647 60.3971 138.312 64.0623 142.833 64.0623Z" fill="#F4BD15"/>
<path d="M140.239 69.4819V83.6064" stroke="black"/>
<path d="M176.559 95.8276V114.218" stroke="black"/>
<path d="M156.381 129.208V148.405" stroke="black"/>
<path d="M163.991 122.924V135.492" stroke="black"/>
<path d="M144.851 78.7056V85.739" stroke="black"/>
<path d="M8 244.535C15.8703 242.753 36.9028 238.896 58.0711 237.729" stroke="black"/>
<path d="M267.106 233.659C276.663 234.077 301.995 236.077 326.869 240.732" stroke="black"/>
<path d="M36.5075 174.151C33.4461 176.519 29.9504 177.696 26.7867 177.705C23.6238 177.713 20.8209 176.557 19.0667 174.288C17.3126 172.02 16.898 169.017 17.7013 165.957C18.5048 162.898 20.5234 159.81 23.5848 157.442C26.6462 155.075 30.1419 153.897 33.3056 153.889C36.4685 153.881 39.2714 155.037 41.0255 157.305C42.7797 159.573 43.1943 162.577 42.391 165.636C41.5875 168.696 39.5689 171.784 36.5075 174.151Z" stroke="black"/>
<path fill-rule="evenodd" clip-rule="evenodd" d="M31.46 168.701C31.2917 168.751 31.1132 168.77 30.9364 168.757C30.7587 168.743 30.58 168.699 30.4087 168.653L29.8335 168.505L29.2564 168.355L29.2246 168.345L29.1991 168.326C29.1827 168.303 29.1864 168.274 29.1884 168.248C29.2899 167.743 29.4121 167.249 29.5576 166.759C29.6226 166.535 29.6933 166.313 29.7713 166.09L29.7757 165.936C29.8726 165.963 29.965 165.995 30.0574 166.027L30.3083 166.11L30.6177 166.229C30.8504 166.32 31.0779 166.421 31.3002 166.533C31.3913 166.58 31.4842 166.63 31.5764 166.685L31.679 166.749C31.9214 166.911 32.1298 167.112 32.2204 167.383C32.3496 167.736 32.2277 168.15 31.9624 168.408C31.8199 168.547 31.6448 168.645 31.46 168.701ZM30.7684 167.868L30.6222 167.829L30.181 167.714C30.2367 167.489 30.2981 167.265 30.3605 167.043C30.4867 167.094 30.6075 167.149 30.7303 167.207L30.9195 167.294L31.0979 167.39C31.1826 167.44 31.2533 167.488 31.3101 167.533C31.3945 167.605 31.4105 167.645 31.4136 167.655C31.4215 167.672 31.4238 167.687 31.4172 167.712L31.3975 167.759L31.3682 167.798C31.3413 167.823 31.3061 167.848 31.266 167.867L31.2085 167.889C31.17 167.898 31.1269 167.907 31.0799 167.909L31.006 167.909C30.9366 167.903 30.866 167.89 30.7684 167.868Z" fill="black"/>
<path fill-rule="evenodd" clip-rule="evenodd" d="M31.0416 163.177C31.4803 163.328 31.9267 163.49 32.2408 163.822C32.4059 163.996 32.5213 164.233 32.5518 164.47C32.5769 164.683 32.5364 164.896 32.4068 165.064L32.3381 165.139L32.2734 165.198L32.1648 165.269C32.016 165.353 31.8419 165.395 31.6696 165.405C31.3966 165.418 31.1343 165.354 30.8682 165.29L30.8404 165.285L30.3984 165.175L30.1983 165.124L30.1453 165.113C30.1265 165.104 30.1105 165.092 30.1016 165.074C30.0755 165.038 30.087 164.991 30.0994 164.945L30.3067 164.187L30.5863 163.174L30.6497 163.074C30.7359 163.086 30.8206 163.107 30.9072 163.131L31.0416 163.177ZM31.6751 164.484L31.6982 164.545L31.6274 164.555C31.5564 164.559 31.4851 164.55 31.3922 164.535L31.1105 164.472L31.2001 164.144C31.2702 164.174 31.3321 164.204 31.3866 164.234C31.4861 164.288 31.5617 164.342 31.6227 164.405L31.6411 164.431C31.6554 164.445 31.6652 164.465 31.6751 164.484Z" fill="black"/>
<path fill-rule="evenodd" clip-rule="evenodd" d="M29.3257 160.671L27.5964 160.05L26.937 162.955L27.8778 163.249L26.8763 166.643L25.5374 166.255L24.8981 169.091L26.6477 169.682L26.2808 171.243L29.1542 172.283L29.1867 172.288L29.2704 172.308L29.4007 172.342C29.5003 172.367 29.6295 172.393 29.7745 172.396C30.0768 172.408 30.4331 172.317 30.7217 171.977C30.9469 171.708 31.0593 171.401 31.1183 171.163L31.125 171.138C31.4614 171.209 31.8826 171.243 32.3484 171.169C32.6461 171.122 32.9545 171.033 33.2684 170.883C33.7314 170.661 34.2034 170.309 34.6513 169.779C35.2098 168.975 35.3042 167.794 34.5668 166.708C34.9685 166.44 35.3854 166.01 35.5697 165.437C35.8587 164.547 35.5416 163.494 34.26 162.395L34.2372 162.375L33.7861 162.091L33.9988 160.916L33.9728 160.822C33.8989 160.552 33.7744 160.32 33.5236 160.123C33.3031 159.951 33.0027 159.822 32.6255 159.688L29.9777 158.627L29.3257 160.671ZM28.9313 162.687L27.942 162.376L28.2149 161.177L29.8696 161.773L30.5106 159.759L31.5456 160.174L31.0357 162.067L31.857 162.291L32.3235 160.486C32.5363 160.561 32.6869 160.623 32.7985 160.677C32.8903 160.719 32.9543 160.758 33.0006 160.794C33.0565 160.838 33.093 160.883 33.125 160.963L32.847 162.505L33.7305 163.063C34.8397 164.023 34.9025 164.736 34.761 165.174C34.5959 165.682 34.0986 166.051 33.7654 166.174L33.1702 166.393L33.6012 166.861C34.4316 167.762 34.3439 168.711 33.9893 169.246C33.3719 169.968 32.7398 170.245 32.2142 170.327C31.9285 170.373 31.6641 170.363 31.4396 170.329C31.2373 170.298 31.0668 170.248 30.9388 170.2L30.4886 170.032L30.3757 170.499L30.3443 170.679L30.339 170.717L30.3071 170.879L30.2902 170.958C30.2484 171.129 30.1825 171.294 30.0721 171.426L30.0192 171.478L29.9867 171.501C29.9279 171.539 29.8691 171.548 29.8016 171.545C29.7397 171.545 29.6738 171.532 29.5993 171.514L29.5295 171.496L29.3863 171.461L29.022 171.329L29.4565 169.714L28.6334 169.493L28.218 171.038L27.2833 170.701L27.6543 169.123L25.8963 168.53L26.169 167.325L27.4548 167.696L28.9313 162.687Z" fill="black"/>
<path d="M19.1882 174.66C26.6322 184.285 33.2378 182.905 39.52 178.046C45.8022 173.187 48.7713 165.298 41.063 157.742" stroke="black" stroke-linecap="round"/>
<path d="M41.3594 167.768L45.1669 170.883" stroke="black"/>
<path d="M37.5288 173.061L41.3363 176.176" stroke="black"/>
<path d="M31.5358 176.764L35.2772 180.396" stroke="black"/>
</svg>
