<?xml version="1.0" encoding="UTF-8"?>
<svg width="50px" height="50px" viewBox="0 0 50 50" version="1.1" xmlns="http://www.w3.org/2000/svg" xmlns:xlink="http://www.w3.org/1999/xlink">
    <g transform="translate(-20.000000, -20.000000)" fill="#FF7A34">
        <path d="M28.7192571,20.5333483 C34.1461714,20.1777828 39.5730857,20 45,20 C50.4269143,20 55.8538286,20.1777828 61.2807428,20.5333483 C65.6768684,20.8213777 69.1786223,24.3231315 69.4666517,28.7192571 C69.8222172,34.1461714 70,39.5730857 70,45 C70,50.4269143 69.8222172,55.8538286 69.4666517,61.2807428 C69.1786223,65.6768684 65.6768685,69.1786223 61.2807429,69.4666517 C55.8538286,69.8222172 50.4269143,70 45,70 C39.5730857,70 34.1461714,69.8222172 28.7192572,69.4666517 C24.3231316,69.1786223 20.8213777,65.6768685 20.5333483,61.2807429 C20.1777828,55.8538286 20,50.4269143 20,45 C20,39.5730857 20.1777828,34.1461714 20.5333483,28.7192572 C20.8213777,24.3231316 24.3231315,20.8213777 28.7192571,20.5333483 Z M50.8762457,40.2343927 L51.1691474,40.8848123 C51.2398121,41.041731 51.3961613,41.1424087 51.568256,41.1418099 L59.1484456,41.1154358 C59.1825068,41.1153173 59.2164369,41.1112083 59.2495418,41.1031927 C59.4836015,41.0465209 59.6274028,40.8108364 59.570731,40.5767767 L59.5707292,40.5767771 C59.3966047,39.8576273 59.2189778,39.2359403 59.0378488,38.711716 C57.0304127,32.5632248 52.0825115,28.8509317 45.142784,28.8509317 C35.8428287,28.8509317 30.2484472,35.5390125 30.2484472,45.0776398 C30.2484472,54.616267 35.8428287,61.3043478 45.142784,61.3043478 C52.1060431,61.3043478 57.063016,57.5667072 59.0571307,51.3841454 C59.2861013,50.7008335 59.4704459,50.0484167 59.6101646,49.4268952 C59.6172359,49.3954391 59.6207817,49.3632957 59.6207817,49.3310546 C59.6207817,49.0902338 59.4253537,48.8951012 59.1845329,48.8952139 L51.6072608,48.8987581 C51.4337618,48.8988393 51.2768184,49.0017709 51.2076111,49.1608691 L50.920362,49.8212156 C50.8601783,49.9595697 50.7971151,50.0945667 50.7312282,50.2261036 C49.6314623,52.4216814 47.794561,53.6056351 45.2457829,53.6056351 C43.1328802,53.6056351 41.5181785,52.7965749 40.3910599,51.2810356 C39.2742682,49.7793821 38.6625608,47.603139 38.6625608,45.0776398 C38.6625608,42.5521405 39.2742682,40.3758974 40.3910599,38.8742439 C41.5181785,37.3587046 43.1328802,36.5496444 45.2457829,36.5496444 C47.7764172,36.5496444 49.6043182,37.7163688 50.7071268,39.8814613 C50.7656902,39.9964361 50.8220759,40.1141028 50.8762457,40.2343927 Z"></path>
    </g>
</svg>
