<svg width="375" height="483" viewBox="0 0 375 483" fill="none" xmlns="http://www.w3.org/2000/svg">
<path d="M348.671 60.2L346.271 70.1L343.271 59.7L333.971 58.2L343.271 56.1L345.871 46L348.271 55.3L358.071 57.8L348.671 60.2Z" stroke="#00353D" stroke-linejoin="round"/>
<path d="M289.271 34L288.271 39L287.571 34.3L282.971 33.3L287.671 32.6L288.671 28L288.971 32.7L293.971 33.7L289.271 34Z" stroke="#00353D" stroke-linejoin="round"/>
<path d="M35.0771 39.202C31.4012 37.5453 28.6067 34.9063 27.05 31.9994C25.4937 29.0931 25.1844 25.9458 26.4137 23.2183C27.643 20.4908 30.2059 18.638 33.4141 17.8792C36.623 17.1202 40.4511 17.466 44.127 19.1227C47.8029 20.7795 50.5973 23.4185 52.154 26.3254C53.7104 29.2316 54.0196 32.3789 52.7903 35.1064C51.561 37.834 48.9981 39.6868 45.7899 40.4456C42.581 41.2046 38.753 40.8588 35.0771 39.202Z" stroke="black"/>
<path d="M26.1516 23.5208C20.9482 35.0659 25.4456 40.4602 32.981 43.8565C40.5165 47.2528 49.217 46.1232 52.3903 35.3468" stroke="black" stroke-linecap="round"/>
<path d="M43.3215 40.5191L42.3213 45.5402" stroke="black"/>
<path d="M36.5872 39.5895L35.5869 44.6105" stroke="black"/>
<path d="M30.2534 35.8956L28.7456 41.1088" stroke="black"/>
<path fill-rule="evenodd" clip-rule="evenodd" d="M38.448 32.6211C38.2578 32.5413 38.0818 32.4253 37.9312 32.2817C37.7808 32.1362 37.6519 31.9627 37.5305 31.7937L37.1194 31.2307L36.7086 30.6637L36.6873 30.6309L36.6781 30.595C36.6804 30.5619 36.7055 30.5382 36.7266 30.5161C37.1957 30.1337 37.6747 29.7774 38.1719 29.442C38.398 29.2874 38.6276 29.1389 38.8647 28.9948L38.9839 28.8582C39.0515 28.955 39.1113 29.0531 39.171 29.1512L39.3368 29.4134L39.5286 29.7517C39.6713 30.0083 39.8019 30.27 39.9204 30.5366C39.9675 30.6476 40.0144 30.7625 40.057 30.8809L40.1025 31.0153C40.2011 31.3432 40.2402 31.6807 40.1206 31.9935C39.9741 32.4101 39.555 32.6942 39.1217 32.7306C38.8894 32.7497 38.6573 32.7081 38.448 32.6211ZM38.4424 31.3501L38.3389 31.2059L38.0245 30.7728C38.2433 30.6099 38.4657 30.4531 38.6879 30.2982C38.7643 30.4386 38.8329 30.5785 38.9012 30.7222L39.0072 30.943L39.0976 31.1627C39.1371 31.2712 39.1657 31.3671 39.1833 31.4506C39.2057 31.5794 39.1906 31.6273 39.1859 31.6387C39.1805 31.6599 39.1717 31.6749 39.1469 31.6928L39.0941 31.7204L39.0383 31.7342C38.995 31.737 38.9444 31.7335 38.8944 31.7203L38.8255 31.6978C38.7838 31.6773 38.7386 31.6526 38.6938 31.6202L38.6272 31.5646C38.5685 31.5077 38.5143 31.4432 38.4424 31.3501Z" fill="black"/>
<path fill-rule="evenodd" clip-rule="evenodd" d="M42.1895 27.3015C42.4743 27.7658 42.7581 28.2456 42.7953 28.7808C42.8149 29.0621 42.7431 29.3625 42.5934 29.6007C42.4573 29.8125 42.2619 29.9751 42.0192 30.0307L41.9005 30.0479L41.7984 30.0525L41.6468 30.0361C41.4496 30.0009 41.2602 29.9094 41.0961 29.7903C40.8393 29.5982 40.6495 29.3441 40.4558 29.0879L40.4341 29.0629L40.1155 28.6335L39.9725 28.4375L39.9329 28.3878C39.9227 28.3656 39.9164 28.3436 39.9219 28.3205C39.9255 28.2679 39.971 28.2338 40.0163 28.2017L40.7699 27.6688L41.7786 26.9597L41.9109 26.916C41.98 26.9913 42.0408 27.0739 42.1014 27.1603L42.1895 27.3015ZM41.7883 28.9593L41.7637 29.032L41.6923 28.9879C41.6253 28.9382 41.5669 28.8774 41.4944 28.794L41.2858 28.5269L41.6112 28.297C41.6526 28.3763 41.6867 28.4491 41.7133 28.5175C41.7635 28.6404 41.7914 28.7462 41.7999 28.8486L41.7973 28.8856C41.7996 28.9092 41.794 28.9343 41.7883 28.9593Z" fill="black"/>
<path fill-rule="evenodd" clip-rule="evenodd" d="M42.5031 23.7503L41.3985 21.8977L38.6339 24.0391L39.2674 25.0073L35.8279 27.3367L34.9038 25.9861L32.2091 28.0796L33.3535 29.9212L31.8567 31.0623L33.686 34.1479L33.7114 34.177L33.7724 34.2576L33.8653 34.3855C33.9369 34.4825 34.0342 34.6028 34.1635 34.7136C34.4291 34.9494 34.8196 35.1332 35.3351 35.0398C35.7398 34.9642 36.0705 34.7699 36.3017 34.598L36.3265 34.5802C36.5786 34.8953 36.9344 35.2412 37.4122 35.5211C37.7169 35.7009 38.0628 35.8502 38.4593 35.9483C39.0445 36.0928 39.7353 36.1252 40.5364 35.9792C41.6428 35.6666 42.609 34.6668 42.751 33.1319C43.3149 33.1888 44.0134 33.1101 44.6077 32.7285C45.5338 32.1371 46.0317 30.9461 45.6898 28.9939L45.6845 28.9582L45.4869 28.365L46.5563 27.4585L46.6027 27.354C46.7371 27.054 46.7974 26.7509 46.7171 26.385C46.6454 26.0648 46.4694 25.7237 46.2273 25.3211L44.6186 22.3841L42.5031 23.7503ZM40.6422 25.2831L39.977 24.2637L41.1192 23.3799L42.1743 25.1547L44.2572 23.8077L44.8861 24.9557L43.0115 26.2917L43.5891 27.1072L45.3586 25.8187C45.4955 26.0455 45.5856 26.2143 45.6469 26.3458C45.6982 26.4532 45.7277 26.5355 45.7426 26.6031C45.7604 26.6846 45.7596 26.7531 45.7294 26.8489L44.327 28.0396L44.712 29.2038C45.0011 30.9018 44.526 31.5951 44.0711 31.8865C43.5425 32.2237 42.8168 32.1869 42.423 32.0499L41.7195 31.8052L41.7617 32.5501C41.8419 33.9869 41.0543 34.7818 40.3342 35.0019C39.2361 35.1957 38.4565 34.9751 37.9187 34.6577C37.6252 34.4865 37.3928 34.2804 37.2147 34.082C37.0549 33.9025 36.9377 33.7299 36.8573 33.5912L36.5741 33.1036L36.1237 33.4423L35.9613 33.5817L35.9278 33.6127L35.7783 33.7354L35.7037 33.7948C35.5385 33.9184 35.3552 34.0192 35.1569 34.0564L35.0702 34.064L35.0234 34.0608C34.9419 34.0512 34.8817 34.0157 34.8227 33.9626C34.7673 33.9157 34.7166 33.8554 34.6629 33.7831L34.6128 33.715L34.5089 33.5766L34.2777 33.1846L35.8763 32.0448L35.2947 31.231L33.7661 32.3209L33.1702 31.3181L34.6836 30.1645L33.5318 28.3165L34.6783 27.4271L35.5671 28.7224L40.6422 25.2831Z" fill="black"/>
</svg>
