<svg width="767" height="517" viewBox="0 0 767 517" fill="none" xmlns="http://www.w3.org/2000/svg">
<g clip-path="url(#clip0_2859_144831)">
<path d="M729.7 76.2L727.3 86.1L724.3 75.7L715 74.2L724.3 72.1L726.9 62L729.3 71.3L739.1 73.8L729.7 76.2Z" stroke="#00353D" stroke-linejoin="round"/>
<path d="M701.3 6L700.3 11L699.6 6.3L695 5.3L699.7 4.6L700.7 0L701 4.7L706 5.7L701.3 6Z" stroke="#00353D" stroke-linejoin="round"/>
<path d="M690.732 353.498C691.155 353.696 691.57 353.906 691.979 354.128C692.389 354.351 692.792 354.585 693.187 354.833C693.583 355.081 693.971 355.339 694.354 355.611C694.735 355.882 695.108 356.166 695.474 356.461C695.841 356.756 696.199 357.062 696.549 357.38C696.9 357.697 697.241 358.027 697.574 358.367C697.906 358.705 698.231 359.056 698.546 359.417C698.861 359.779 699.168 360.149 699.464 360.53C699.761 360.912 700.047 361.303 700.324 361.703C700.602 362.104 700.87 362.514 701.127 362.933C701.384 363.352 701.631 363.78 701.868 364.217C702.105 364.653 702.331 365.098 702.547 365.551C702.762 366.004 702.967 366.465 703.162 366.933C703.355 367.402 703.537 367.876 703.71 368.359C703.882 368.842 704.042 369.331 704.191 369.826C704.34 370.321 704.478 370.822 704.605 371.329C704.731 371.837 704.845 372.349 704.948 372.867C705.052 373.385 705.143 373.908 705.223 374.435C705.302 374.963 705.371 375.494 705.426 376.028C705.483 376.564 705.526 377.102 705.559 377.644C705.591 378.186 705.611 378.732 705.62 379.279C705.628 379.827 705.624 380.376 705.609 380.927C705.594 381.479 705.565 382.033 705.526 382.587C705.487 383.141 705.435 383.697 705.372 384.252C705.309 384.808 705.234 385.364 705.147 385.92C705.06 386.476 704.962 387.033 704.852 387.588C704.742 388.143 704.62 388.695 704.487 389.248C704.353 389.8 704.209 390.351 704.052 390.899C703.896 391.448 703.729 391.994 703.55 392.537C703.371 393.08 703.182 393.621 702.981 394.158C702.781 394.695 702.57 395.228 702.348 395.757C702.125 396.286 701.893 396.81 701.65 397.331C701.406 397.851 701.153 398.366 700.89 398.875C700.626 399.386 700.353 399.89 700.07 400.387C699.787 400.886 699.493 401.378 699.191 401.864C698.889 402.349 698.578 402.827 698.256 403.298C697.936 403.771 697.607 404.235 697.268 404.691C696.93 405.147 696.583 405.596 696.228 406.037C695.873 406.477 695.51 406.909 695.139 407.331C694.768 407.755 694.389 408.169 694.004 408.574C693.618 408.979 693.225 409.375 692.825 409.76C692.424 410.146 692.018 410.522 691.605 410.888C691.192 411.253 690.772 411.608 690.348 411.953C689.922 412.298 689.491 412.631 689.055 412.955C688.618 413.277 688.176 413.589 687.73 413.889C687.283 414.189 686.833 414.478 686.378 414.755C685.921 415.032 685.462 415.297 684.999 415.549C684.535 415.802 684.069 416.043 683.599 416.271C683.129 416.499 682.656 416.714 682.18 416.917C681.705 417.12 681.227 417.311 680.746 417.489C680.265 417.666 679.784 417.831 679.301 417.982C678.816 418.133 678.332 418.271 677.847 418.395C677.361 418.52 676.874 418.632 676.388 418.73C675.901 418.829 675.415 418.914 674.928 418.984C674.441 419.056 673.956 419.113 673.47 419.157C672.985 419.201 672.501 419.232 672.019 419.248C671.536 419.266 671.056 419.269 670.577 419.258C670.098 419.247 669.621 419.223 669.146 419.185C668.672 419.147 668.201 419.096 667.733 419.031C667.265 418.966 666.8 418.888 666.339 418.795C665.878 418.704 665.421 418.599 664.969 418.479C664.516 418.361 664.067 418.228 663.624 418.083C663.18 417.938 662.742 417.78 662.308 417.608C661.875 417.436 661.448 417.252 661.026 417.054C660.604 416.857 660.189 416.648 659.78 416.425C659.37 416.202 658.967 415.967 658.572 415.72C658.175 415.473 657.787 415.213 657.405 414.941C657.024 414.671 656.65 414.387 656.284 414.092C655.917 413.798 655.56 413.491 655.209 413.173C654.859 412.856 654.518 412.527 654.185 412.187C653.852 411.847 653.528 411.497 653.213 411.136C652.898 410.775 652.591 410.404 652.295 410.023C651.998 409.642 651.711 409.251 651.433 408.85C651.156 408.449 650.889 408.039 650.632 407.62C650.374 407.201 650.128 406.773 649.891 406.336C649.654 405.9 649.427 405.454 649.212 405.002C648.996 404.549 648.792 404.088 648.597 403.62C648.404 403.152 648.22 402.677 648.049 402.194C647.877 401.711 647.716 401.223 647.568 400.727C647.418 400.232 647.281 399.73 647.154 399.223C647.028 398.716 646.913 398.204 646.809 397.686C646.707 397.168 646.615 396.645 646.536 396.119C646.456 395.591 646.388 395.06 646.333 394.525C646.276 393.99 646.233 393.451 646.2 392.909C646.167 392.367 646.148 391.822 646.139 391.274C646.131 390.727 646.135 390.177 646.15 389.625C646.165 389.075 646.194 388.521 646.233 387.967C646.272 387.412 646.324 386.857 646.387 386.3C646.45 385.744 646.525 385.189 646.612 384.633C646.699 384.077 646.796 383.521 646.907 382.966C647.017 382.411 647.138 381.858 647.272 381.305C647.406 380.752 647.55 380.202 647.707 379.654C647.863 379.105 648.03 378.559 648.208 378.016C648.387 377.472 648.577 376.932 648.778 376.395C648.977 375.859 649.189 375.325 649.411 374.796C649.634 374.267 649.866 373.743 650.109 373.223C650.353 372.702 650.606 372.187 650.869 371.678C651.132 371.167 651.406 370.663 651.689 370.166C651.972 369.667 652.265 369.175 652.567 368.69C652.869 368.204 653.181 367.726 653.501 367.254C653.823 366.782 654.152 366.319 654.49 365.862C654.829 365.405 655.175 364.958 655.53 364.517C655.886 364.077 656.248 363.644 656.619 363.221C656.99 362.798 657.368 362.384 657.755 361.979C658.141 361.574 658.534 361.179 658.934 360.793C659.334 360.408 659.741 360.032 660.153 359.666C660.567 359.3 660.986 358.944 661.411 358.6C661.837 358.256 662.268 357.921 662.704 357.599C663.14 357.276 663.583 356.964 664.029 356.664C664.475 356.365 664.926 356.076 665.381 355.799C665.836 355.522 666.296 355.257 666.76 355.004C667.223 354.752 667.689 354.511 668.16 354.282C668.63 354.054 669.103 353.838 669.578 353.635C670.054 353.432 670.532 353.242 671.012 353.065C671.493 352.888 671.975 352.723 672.458 352.572C672.942 352.421 673.427 352.282 673.912 352.157C674.398 352.032 674.884 351.921 675.371 351.822C675.858 351.724 676.344 351.64 676.831 351.569C677.318 351.497 677.803 351.44 678.289 351.395C678.773 351.352 679.257 351.321 679.74 351.304C680.223 351.288 680.703 351.285 681.182 351.295C681.661 351.306 682.138 351.33 682.613 351.368C683.086 351.405 683.558 351.457 684.026 351.522C684.494 351.586 684.959 351.666 685.42 351.757C685.881 351.849 686.337 351.955 686.79 352.074C687.243 352.193 687.692 352.325 688.135 352.47C688.579 352.615 689.017 352.774 689.45 352.945C689.884 353.117 690.311 353.302 690.732 353.498Z" fill="#C6B113"/>
<path fill-rule="evenodd" clip-rule="evenodd" d="M689.547 352.524C689.927 352.764 690.302 353.013 690.669 353.275C691.05 353.546 691.425 353.83 691.791 354.125C692.157 354.42 692.516 354.726 692.865 355.044C693.215 355.362 693.557 355.691 693.89 356.031C694.223 356.37 694.547 356.72 694.862 357.081C695.178 357.443 695.483 357.813 695.78 358.194C696.076 358.576 696.364 358.967 696.641 359.367C696.918 359.768 697.185 360.178 697.443 360.597C697.7 361.016 697.948 361.444 698.185 361.881C698.421 362.318 698.647 362.762 698.862 363.215C699.078 363.668 699.283 364.128 699.477 364.597C699.672 365.066 699.854 365.54 700.026 366.023C700.197 366.506 700.358 366.995 700.507 367.49C700.657 367.985 700.795 368.486 700.921 368.993C701.047 369.501 701.162 370.013 701.265 370.531C701.368 371.05 701.459 371.572 701.539 372.099C701.619 372.626 701.686 373.157 701.743 373.692C701.798 374.228 701.843 374.767 701.874 375.309C701.907 375.851 701.928 376.395 701.935 376.943C701.944 377.491 701.941 378.04 701.924 378.591C701.909 379.143 701.882 379.696 701.842 380.251C701.803 380.805 701.752 381.361 701.689 381.916C701.626 382.472 701.55 383.028 701.464 383.584C701.377 384.14 701.278 384.697 701.168 385.252C701.058 385.806 700.936 386.36 700.802 386.912C700.67 387.464 700.524 388.015 700.369 388.563C700.212 389.112 700.045 389.658 699.866 390.201C699.688 390.745 699.498 391.285 699.298 391.822C699.097 392.359 698.886 392.892 698.664 393.421C698.442 393.95 698.208 394.475 697.966 394.995C697.723 395.515 697.47 396.03 697.206 396.539C696.943 397.049 696.669 397.553 696.386 398.051C696.102 398.55 695.81 399.042 695.507 399.528C695.205 400.013 694.893 400.491 694.573 400.962C694.252 401.434 693.922 401.899 693.584 402.355C693.247 402.811 692.899 403.26 692.545 403.701C692.19 404.141 691.826 404.573 691.456 404.996C691.084 405.419 690.706 405.833 690.32 406.238C689.934 406.643 689.541 407.039 689.141 407.424C688.741 407.81 688.334 408.186 687.921 408.552C687.508 408.917 687.089 409.272 686.663 409.617C686.238 409.962 685.807 410.295 685.371 410.618C684.934 410.941 684.493 411.252 684.047 411.553C683.6 411.853 683.149 412.142 682.693 412.419C682.238 412.696 681.779 412.961 681.315 413.213C680.852 413.466 680.385 413.707 679.915 413.935C679.445 414.163 678.972 414.378 678.496 414.581C678.02 414.784 677.542 414.974 677.062 415.153C676.582 415.33 676.1 415.495 675.617 415.646C675.133 415.797 674.649 415.935 674.162 416.06C673.677 416.184 673.191 416.296 672.704 416.394C672.217 416.493 671.73 416.578 671.245 416.648C670.758 416.72 670.271 416.778 669.787 416.821C669.301 416.866 668.817 416.896 668.335 416.912C667.852 416.93 667.371 416.933 666.892 416.922C666.413 416.911 665.936 416.887 665.463 416.849C664.988 416.811 664.517 416.76 664.048 416.695C663.58 416.63 663.117 416.552 662.655 416.459C662.194 416.368 661.737 416.263 661.284 416.143C660.859 416.032 660.44 415.909 660.023 415.774C659.642 415.535 659.268 415.285 658.901 415.023C658.52 414.753 658.146 414.469 657.78 414.174C657.413 413.88 657.056 413.573 656.705 413.255C656.355 412.938 656.014 412.609 655.681 412.269C655.348 411.929 655.024 411.579 654.709 411.218C654.394 410.857 654.087 410.486 653.791 410.105C653.494 409.724 653.208 409.333 652.929 408.932C652.652 408.531 652.385 408.121 652.128 407.702C651.87 407.283 651.624 406.855 651.387 406.419C651.15 405.982 650.923 405.537 650.708 405.084C650.492 404.631 650.288 404.17 650.093 403.702C649.9 403.234 649.716 402.759 649.545 402.276C649.373 401.793 649.212 401.305 649.064 400.809C648.914 400.314 648.777 399.812 648.65 399.305C648.524 398.798 648.409 398.286 648.305 397.768C648.203 397.25 648.111 396.727 648.032 396.201C647.952 395.673 647.884 395.142 647.829 394.607C647.772 394.072 647.729 393.533 647.696 392.991C647.664 392.449 647.644 391.904 647.635 391.356C647.627 390.809 647.631 390.259 647.646 389.707C647.661 389.157 647.69 388.603 647.729 388.049C647.768 387.494 647.82 386.939 647.883 386.382C647.946 385.826 648.021 385.271 648.108 384.715C648.195 384.159 648.292 383.603 648.403 383.048C648.513 382.493 648.635 381.94 648.768 381.387C648.902 380.834 649.046 380.285 649.203 379.736C649.359 379.187 649.526 378.641 649.705 378.098C649.883 377.554 650.073 377.014 650.274 376.477C650.474 375.941 650.685 375.407 650.907 374.878C651.13 374.35 651.362 373.825 651.605 373.305C651.849 372.784 652.102 372.269 652.365 371.76C652.629 371.249 652.902 370.745 653.185 370.248C653.468 369.749 653.761 369.257 654.063 368.772C654.365 368.286 654.677 367.808 654.998 367.336C655.319 366.864 655.648 366.401 655.986 365.944C656.325 365.487 656.671 365.04 657.027 364.599C657.382 364.159 657.745 363.726 658.115 363.303C658.486 362.88 658.864 362.466 659.251 362.061C659.637 361.656 660.03 361.261 660.43 360.875C660.83 360.49 661.237 360.114 661.649 359.748C662.063 359.382 662.483 359.026 662.907 358.682C663.333 358.338 663.764 358.003 664.2 357.681C664.637 357.358 665.079 357.046 665.525 356.747C665.971 356.447 666.422 356.158 666.877 355.881C667.332 355.604 667.792 355.339 668.256 355.086C668.72 354.834 669.186 354.593 669.656 354.364C670.126 354.136 670.599 353.92 671.074 353.717C671.55 353.514 672.028 353.324 672.508 353.147C672.989 352.97 673.471 352.805 673.954 352.654C674.438 352.503 674.923 352.364 675.408 352.239C675.894 352.114 676.381 352.003 676.867 351.904C677.354 351.806 677.84 351.722 678.327 351.651C678.814 351.579 679.299 351.522 679.785 351.477C680.269 351.434 680.754 351.403 681.236 351.386C681.719 351.37 682.199 351.367 682.678 351.377C683.157 351.388 683.634 351.412 684.109 351.45C684.582 351.487 685.054 351.539 685.522 351.604C685.99 351.669 686.455 351.748 686.916 351.839C687.377 351.931 687.833 352.037 688.286 352.156C688.711 352.267 689.131 352.39 689.547 352.524Z" fill="#638200"/>
<path d="M685.553 351.076C685.974 351.274 686.39 351.484 686.8 351.706C687.208 351.929 687.611 352.164 688.008 352.411C688.403 352.659 688.792 352.917 689.173 353.189C689.554 353.461 689.929 353.744 690.295 354.039C690.661 354.334 691.02 354.64 691.369 354.958C691.719 355.276 692.061 355.605 692.394 355.945C692.727 356.284 693.051 356.634 693.366 356.995C693.682 357.357 693.987 357.727 694.284 358.108C694.58 358.49 694.868 358.881 695.145 359.281C695.422 359.682 695.689 360.092 695.947 360.511C696.204 360.93 696.452 361.358 696.688 361.795C696.925 362.232 697.151 362.676 697.366 363.129C697.582 363.582 697.787 364.042 697.981 364.512C698.175 364.98 698.358 365.454 698.53 365.937C698.701 366.42 698.862 366.909 699.011 367.404C699.161 367.899 699.299 368.4 699.425 368.907C699.551 369.415 699.666 369.927 699.769 370.445C699.872 370.964 699.963 371.486 700.043 372.013C700.123 372.54 700.19 373.071 700.247 373.606C700.302 374.142 700.347 374.681 700.378 375.223C700.411 375.765 700.431 376.309 700.439 376.857C700.448 377.405 700.445 377.954 700.428 378.505C700.413 379.057 700.386 379.61 700.346 380.165C700.307 380.719 700.256 381.275 700.193 381.83C700.13 382.386 700.053 382.942 699.968 383.498C699.881 384.055 699.782 384.611 699.672 385.166C699.561 385.72 699.44 386.274 699.306 386.826C699.174 387.378 699.028 387.929 698.873 388.478C698.716 389.026 698.549 389.572 698.37 390.116C698.192 390.659 698.002 391.2 697.802 391.736C697.601 392.273 697.39 392.806 697.167 393.335C696.946 393.864 696.712 394.389 696.47 394.909C696.227 395.429 695.974 395.944 695.71 396.453C695.447 396.963 695.173 397.467 694.89 397.965C694.606 398.464 694.314 398.956 694.011 399.442C693.709 399.927 693.397 400.405 693.077 400.877C692.756 401.348 692.426 401.813 692.088 402.269C691.751 402.725 691.403 403.174 691.049 403.615C690.694 404.055 690.33 404.487 689.959 404.91C689.588 405.333 689.21 405.747 688.824 406.152C688.438 406.557 688.044 406.953 687.645 407.338C687.245 407.724 686.838 408.1 686.425 408.466C686.012 408.831 685.593 409.186 685.167 409.531C684.742 409.876 684.311 410.209 683.875 410.532C683.438 410.855 682.997 411.166 682.55 411.467C682.104 411.767 681.653 412.056 681.197 412.333C680.742 412.61 680.282 412.875 679.819 413.127C679.356 413.38 678.889 413.621 678.419 413.849C677.949 414.077 677.476 414.292 677 414.495C676.524 414.698 676.046 414.889 675.566 415.067C675.086 415.244 674.604 415.409 674.12 415.56C673.637 415.711 673.153 415.849 672.666 415.974C672.18 416.099 671.695 416.21 671.208 416.308C670.721 416.407 670.234 416.492 669.748 416.562C669.262 416.634 668.775 416.692 668.291 416.735C667.805 416.78 667.321 416.81 666.839 416.826C666.356 416.844 665.875 416.847 665.396 416.836C664.917 416.825 664.44 416.801 663.967 416.763C663.492 416.725 663.021 416.674 662.552 416.609C662.084 416.544 661.62 416.466 661.159 416.373C660.698 416.282 660.241 416.177 659.788 416.057C659.335 415.939 658.888 415.806 658.443 415.661C658 415.515 657.561 415.358 657.129 415.186C656.696 415.015 656.268 414.83 655.846 414.632C655.425 414.436 655.009 414.226 654.599 414.003C654.19 413.781 653.788 413.545 653.391 413.298C652.996 413.051 652.607 412.791 652.226 412.519C651.844 412.248 651.47 411.966 651.104 411.67C650.738 411.376 650.379 411.069 650.03 410.751C649.68 410.434 649.338 410.105 649.005 409.765C648.672 409.425 648.348 409.075 648.032 408.715C647.717 408.353 647.412 407.982 647.115 407.601C646.818 407.22 646.531 406.829 646.254 406.428C645.977 406.027 645.71 405.617 645.452 405.198C645.195 404.779 644.947 404.351 644.71 403.915C644.474 403.478 644.248 403.033 644.032 402.58C643.816 402.127 643.611 401.666 643.418 401.198C643.223 400.73 643.041 400.254 642.869 399.772C642.698 399.29 642.537 398.801 642.387 398.305C642.238 397.81 642.1 397.308 641.974 396.801C641.848 396.294 641.733 395.781 641.63 395.264C641.527 394.746 641.436 394.224 641.356 393.697C641.276 393.169 641.209 392.638 641.152 392.102C641.097 391.568 641.052 391.029 641.02 390.487C640.988 389.945 640.967 389.4 640.96 388.852C640.951 388.305 640.954 387.755 640.971 387.203C640.986 386.652 641.013 386.099 641.052 385.545C641.092 384.99 641.143 384.435 641.206 383.879C641.269 383.322 641.344 382.767 641.431 382.211C641.518 381.655 641.617 381.099 641.727 380.544C641.837 379.989 641.959 379.436 642.093 378.883C642.225 378.33 642.371 377.781 642.526 377.232C642.682 376.684 642.85 376.137 643.029 375.594C643.207 375.05 643.396 374.51 643.597 373.973C643.798 373.436 644.009 372.904 644.231 372.375C644.453 371.845 644.685 371.321 644.929 370.801C645.172 370.28 645.425 369.766 645.689 369.256C645.952 368.746 646.226 368.242 646.509 367.744C646.793 367.246 647.085 366.753 647.387 366.268C647.69 365.782 648.002 365.304 648.322 364.832C648.642 364.361 648.972 363.897 649.31 363.441C649.648 362.983 649.995 362.535 650.35 362.095C650.705 361.655 651.068 361.223 651.439 360.799C651.81 360.376 652.189 359.963 652.575 359.557C652.961 359.152 653.353 358.757 653.754 358.371C654.154 357.985 654.56 357.61 654.974 357.244C655.387 356.878 655.806 356.523 656.232 356.178C656.656 355.834 657.088 355.499 657.524 355.177C657.961 354.854 658.402 354.542 658.848 354.243C659.295 353.942 659.746 353.654 660.202 353.377C660.657 353.1 661.116 352.835 661.579 352.582C662.043 352.33 662.51 352.089 662.98 351.861C663.45 351.632 663.923 351.416 664.399 351.213C664.875 351.01 665.353 350.82 665.833 350.643C666.313 350.466 666.795 350.301 667.278 350.15C667.762 349.999 668.246 349.86 668.732 349.735C669.218 349.61 669.704 349.499 670.191 349.4C670.677 349.303 671.164 349.218 671.65 349.146C672.137 349.076 672.624 349.018 673.108 348.973C673.594 348.93 674.077 348.9 674.56 348.882C675.043 348.866 675.524 348.863 676.003 348.874C676.482 348.884 676.959 348.908 677.432 348.946C677.907 348.983 678.377 349.035 678.845 349.101C679.314 349.165 679.778 349.244 680.24 349.335C680.701 349.427 681.158 349.533 681.611 349.652C682.064 349.771 682.511 349.903 682.956 350.048C683.399 350.193 683.838 350.352 684.27 350.523C684.703 350.695 685.131 350.88 685.553 351.076Z" fill="#F4BD15"/>
<path d="M683.436 358.693C683.762 358.846 684.084 359.008 684.401 359.18C684.717 359.353 685.029 359.534 685.335 359.725C685.641 359.917 685.942 360.117 686.236 360.327C686.532 360.538 686.821 360.756 687.104 360.984C687.388 361.212 687.665 361.45 687.935 361.696C688.206 361.941 688.471 362.195 688.728 362.458C688.986 362.721 689.237 362.993 689.48 363.272C689.724 363.551 689.96 363.838 690.19 364.132C690.419 364.428 690.641 364.729 690.856 365.04C691.07 365.35 691.277 365.667 691.476 365.991C691.675 366.315 691.866 366.646 692.05 366.983C692.232 367.321 692.407 367.666 692.574 368.015C692.741 368.366 692.899 368.722 693.049 369.084C693.199 369.447 693.341 369.814 693.474 370.188C693.606 370.56 693.731 370.939 693.846 371.322C693.962 371.705 694.068 372.093 694.166 372.485C694.263 372.878 694.353 373.275 694.432 373.674C694.512 374.075 694.583 374.479 694.645 374.887C694.706 375.295 694.759 375.706 694.802 376.119C694.845 376.533 694.879 376.95 694.904 377.37C694.929 377.789 694.945 378.21 694.951 378.634C694.958 379.056 694.954 379.482 694.942 379.909C694.93 380.335 694.91 380.763 694.879 381.192C694.849 381.621 694.809 382.05 694.76 382.48C694.711 382.91 694.653 383.34 694.586 383.771C694.519 384.201 694.443 384.631 694.357 385.06C694.272 385.489 694.178 385.917 694.074 386.345C693.971 386.772 693.859 387.198 693.739 387.622C693.618 388.046 693.489 388.468 693.351 388.889C693.213 389.309 693.066 389.727 692.911 390.142C692.756 390.557 692.592 390.97 692.42 391.378C692.249 391.788 692.068 392.194 691.88 392.596C691.692 392.998 691.497 393.397 691.293 393.791C691.09 394.185 690.878 394.575 690.658 394.961C690.44 395.346 690.213 395.726 689.979 396.101C689.746 396.477 689.505 396.847 689.256 397.212C689.008 397.577 688.753 397.936 688.491 398.289C688.231 398.642 687.962 398.989 687.688 399.329C687.413 399.67 687.133 400.004 686.845 400.332C686.558 400.659 686.266 400.979 685.967 401.292C685.668 401.606 685.364 401.911 685.055 402.21C684.745 402.509 684.431 402.799 684.112 403.082C683.791 403.365 683.468 403.639 683.139 403.906C682.809 404.173 682.476 404.43 682.139 404.68C681.801 404.93 681.459 405.171 681.115 405.403C680.77 405.635 680.42 405.859 680.068 406.073C679.716 406.286 679.361 406.492 679.002 406.687C678.644 406.883 678.282 407.069 677.919 407.246C677.556 407.422 677.189 407.589 676.821 407.745C676.454 407.903 676.084 408.049 675.712 408.187C675.341 408.324 674.968 408.451 674.595 408.569C674.22 408.686 673.845 408.792 673.469 408.889C673.094 408.986 672.718 409.072 672.342 409.148C671.965 409.224 671.589 409.289 671.212 409.344C670.836 409.4 670.46 409.444 670.085 409.478C669.71 409.513 669.335 409.535 668.961 409.548C668.589 409.561 668.216 409.564 667.846 409.556C667.476 409.547 667.107 409.529 666.74 409.499C666.374 409.47 666.009 409.431 665.647 409.38C665.285 409.33 664.925 409.269 664.569 409.199C664.213 409.127 663.859 409.045 663.509 408.953C663.158 408.862 662.811 408.76 662.468 408.647C662.126 408.535 661.786 408.412 661.451 408.28C661.116 408.147 660.786 408.004 660.46 407.852C660.133 407.699 659.812 407.537 659.495 407.364C659.179 407.192 658.867 407.011 658.561 406.819C658.255 406.628 657.954 406.428 657.66 406.217C657.364 406.007 657.075 405.788 656.792 405.56C656.508 405.332 656.231 405.095 655.961 404.849C655.69 404.604 655.425 404.35 655.168 404.087C654.91 403.824 654.659 403.553 654.416 403.273C654.172 402.994 653.935 402.707 653.706 402.412C653.477 402.118 653.255 401.815 653.04 401.505C652.826 401.195 652.618 400.878 652.42 400.554C652.221 400.23 652.03 399.899 651.846 399.561C651.664 399.224 651.489 398.88 651.322 398.529C651.154 398.179 650.997 397.823 650.847 397.46C650.696 397.098 650.555 396.73 650.422 396.358C650.289 395.984 650.165 395.606 650.05 395.222C649.934 394.84 649.827 394.452 649.73 394.059C649.633 393.667 649.543 393.271 649.463 392.87C649.384 392.47 649.313 392.066 649.251 391.658C649.189 391.25 649.137 390.84 649.094 390.426C649.05 390.011 649.017 389.595 648.992 389.176C648.967 388.756 648.951 388.335 648.945 387.911C648.938 387.488 648.941 387.063 648.954 386.636C648.966 386.209 648.986 385.781 649.017 385.353C649.047 384.924 649.087 384.494 649.136 384.064C649.185 383.635 649.243 383.205 649.31 382.775C649.377 382.344 649.453 381.914 649.538 381.485C649.624 381.056 649.718 380.627 649.822 380.2C649.924 379.773 650.037 379.348 650.157 378.923C650.278 378.498 650.407 378.077 650.545 377.656C650.683 377.236 650.83 376.818 650.985 376.403C651.14 375.988 651.303 375.575 651.476 375.166C651.647 374.756 651.827 374.351 652.016 373.949C652.204 373.546 652.399 373.149 652.603 372.754C652.806 372.36 653.018 371.97 653.238 371.585C653.456 371.199 653.683 370.819 653.917 370.443C654.15 370.068 654.391 369.698 654.64 369.333C654.888 368.968 655.143 368.609 655.404 368.256C655.665 367.903 655.934 367.556 656.208 367.216C656.483 366.875 656.763 366.54 657.05 366.213C657.338 365.886 657.63 365.566 657.929 365.253C658.228 364.939 658.532 364.634 658.841 364.335C659.15 364.037 659.465 363.746 659.784 363.463C660.104 363.181 660.428 362.906 660.757 362.64C661.087 362.372 661.42 362.114 661.757 361.865C662.095 361.615 662.436 361.374 662.781 361.142C663.126 360.909 663.475 360.687 663.828 360.473C664.18 360.259 664.535 360.053 664.894 359.858C665.252 359.662 665.613 359.477 665.977 359.3C666.34 359.124 666.707 358.956 667.075 358.799C667.442 358.642 667.812 358.495 668.184 358.358C668.555 358.221 668.928 358.094 669.301 357.977C669.675 357.859 670.051 357.753 670.426 357.656C670.802 357.559 671.178 357.473 671.554 357.397C671.931 357.322 672.307 357.255 672.684 357.201C673.06 357.146 673.436 357.101 673.811 357.067C674.186 357.033 674.561 357.01 674.933 356.997C675.307 356.984 675.68 356.981 676.05 356.989C676.42 356.997 676.789 357.016 677.156 357.046C677.522 357.075 677.887 357.114 678.249 357.164C678.611 357.215 678.971 357.276 679.327 357.347C679.683 357.418 680.037 357.5 680.387 357.591C680.738 357.683 681.085 357.785 681.428 357.898C681.77 358.01 682.11 358.133 682.445 358.266C682.779 358.398 683.11 358.541 683.436 358.693Z" fill="#7A8B00"/>
<path d="M682.13 358.291C682.455 358.443 682.777 358.606 683.094 358.778C683.41 358.95 683.722 359.132 684.028 359.323C684.335 359.514 684.635 359.715 684.93 359.925C685.225 360.136 685.514 360.354 685.798 360.582C686.081 360.81 686.358 361.048 686.629 361.293C686.899 361.539 687.164 361.793 687.422 362.056C687.679 362.319 687.93 362.59 688.173 362.869C688.418 363.149 688.653 363.435 688.884 363.73C689.113 364.025 689.334 364.327 689.549 364.638C689.763 364.947 689.971 365.265 690.17 365.588C690.368 365.913 690.56 366.243 690.743 366.581C690.926 366.919 691.101 367.263 691.268 367.613C691.434 367.964 691.593 368.32 691.742 368.682C691.892 369.045 692.035 369.412 692.167 369.785C692.3 370.158 692.425 370.537 692.54 370.919C692.655 371.303 692.761 371.691 692.859 372.083C692.957 372.476 693.046 372.872 693.125 373.272C693.206 373.673 693.276 374.077 693.338 374.484C693.399 374.893 693.452 375.303 693.496 375.717C693.538 376.131 693.573 376.548 693.598 376.967C693.623 377.387 693.638 377.808 693.644 378.232C693.651 378.654 693.648 379.08 693.636 379.507C693.624 379.933 693.603 380.361 693.573 380.79C693.542 381.219 693.502 381.648 693.453 382.078C693.404 382.508 693.347 382.938 693.279 383.368C693.212 383.798 693.136 384.229 693.05 384.658C692.966 385.087 692.871 385.515 692.768 385.943C692.665 386.369 692.553 386.795 692.432 387.22C692.312 387.644 692.182 388.066 692.044 388.486C691.906 388.907 691.76 389.325 691.605 389.74C691.449 390.155 691.285 390.568 691.114 390.976C690.942 391.386 690.762 391.792 690.574 392.194C690.386 392.596 690.19 392.994 689.986 393.388C689.783 393.783 689.571 394.173 689.352 394.558C689.133 394.944 688.906 395.324 688.673 395.699C688.439 396.075 688.198 396.445 687.949 396.81C687.702 397.175 687.447 397.533 687.185 397.886C686.924 398.239 686.656 398.587 686.381 398.927C686.106 399.268 685.826 399.602 685.538 399.93C685.251 400.257 684.959 400.577 684.66 400.89C684.362 401.204 684.058 401.509 683.748 401.808C683.438 402.106 683.125 402.396 682.805 402.68C682.485 402.962 682.161 403.237 681.832 403.503C681.503 403.77 681.169 404.028 680.833 404.278C680.495 404.527 680.153 404.769 679.808 405.001C679.463 405.232 679.113 405.456 678.761 405.67C678.409 405.884 678.054 406.089 677.696 406.285C677.337 406.48 676.976 406.666 676.613 406.843C676.249 407.019 675.883 407.186 675.515 407.343C675.147 407.5 674.777 407.647 674.406 407.785C674.034 407.922 673.662 408.049 673.288 408.166C672.913 408.284 672.538 408.39 672.163 408.487C671.788 408.583 671.411 408.669 671.035 408.745C670.658 408.821 670.282 408.886 669.905 408.942C669.53 408.997 669.154 409.042 668.778 409.075C668.403 409.11 668.028 409.133 667.655 409.146C667.282 409.159 666.91 409.161 666.539 409.154C666.169 409.145 665.801 409.126 665.434 409.097C665.068 409.068 664.703 409.029 664.341 408.978C663.978 408.928 663.619 408.867 663.262 408.796C662.906 408.725 662.552 408.643 662.202 408.551C661.851 408.46 661.505 408.357 661.162 408.244C660.819 408.133 660.479 408.01 660.145 407.877C659.809 407.745 659.479 407.601 659.153 407.449C658.826 407.296 658.506 407.134 658.189 406.962C657.873 406.79 657.561 406.609 657.254 406.416C656.948 406.225 656.647 406.025 656.353 405.815C656.057 405.605 655.769 405.386 655.485 405.157C655.202 404.929 654.925 404.693 654.654 404.447C654.384 404.202 654.119 403.947 653.861 403.685C653.604 403.422 653.353 403.15 653.11 402.871C652.865 402.592 652.628 402.305 652.399 402.01C652.17 401.715 651.948 401.412 651.733 401.103C651.519 400.793 651.312 400.476 651.113 400.151C650.914 399.827 650.723 399.496 650.54 399.158C650.357 398.822 650.182 398.477 650.015 398.126C649.848 397.777 649.69 397.42 649.54 397.058C649.389 396.696 649.248 396.328 649.116 395.955C648.982 395.582 648.858 395.204 648.743 394.82C648.628 394.438 648.52 394.05 648.424 393.657C648.326 393.265 648.237 392.868 648.156 392.467C648.077 392.068 648.007 391.664 647.945 391.255C647.883 390.848 647.831 390.437 647.787 390.023C647.744 389.608 647.71 389.192 647.685 388.773C647.66 388.354 647.645 387.932 647.638 387.509C647.632 387.085 647.634 386.661 647.647 386.234C647.659 385.807 647.68 385.379 647.71 384.951C647.74 384.522 647.781 384.092 647.829 383.662C647.878 383.232 647.936 382.802 648.003 382.372C648.071 381.942 648.147 381.512 648.231 381.083C648.317 380.654 648.412 380.225 648.515 379.798C648.617 379.371 648.73 378.945 648.851 378.521C648.971 378.096 649.1 377.674 649.238 377.254C649.376 376.834 649.523 376.415 649.678 376.001C649.834 375.586 649.996 375.173 650.169 374.763C650.341 374.354 650.52 373.949 650.709 373.547C650.897 373.144 651.092 372.746 651.297 372.352C651.5 371.958 651.712 371.568 651.931 371.182C652.149 370.797 652.376 370.416 652.61 370.041C652.843 369.666 653.085 369.295 653.333 368.93C653.581 368.566 653.836 368.207 654.097 367.854C654.359 367.501 654.627 367.153 654.902 366.813C655.177 366.472 655.457 366.138 655.744 365.811C656.031 365.484 656.324 365.164 656.622 364.851C656.921 364.537 657.225 364.232 657.535 363.933C657.843 363.634 658.158 363.344 658.478 363.061C658.797 362.778 659.122 362.503 659.451 362.237C659.78 361.97 660.113 361.712 660.45 361.463C660.788 361.213 661.129 360.972 661.474 360.739C661.82 360.507 662.168 360.284 662.521 360.07C662.873 359.856 663.229 359.651 663.587 359.456C663.945 359.26 664.306 359.074 664.67 358.897C665.034 358.721 665.4 358.554 665.768 358.396C666.135 358.24 666.506 358.092 666.877 357.955C667.249 357.819 667.621 357.692 667.995 357.574C668.368 357.457 668.744 357.35 669.119 357.254C669.495 357.157 669.872 357.07 670.248 356.994C670.625 356.919 671 356.853 671.377 356.799C671.753 356.743 672.129 356.699 672.505 356.665C672.879 356.63 673.254 356.608 673.627 356.594C674 356.581 674.373 356.578 674.743 356.587C675.114 356.594 675.482 356.614 675.849 356.643C676.215 356.673 676.58 356.712 676.942 356.762C677.305 356.813 677.664 356.874 678.02 356.944C678.377 357.016 678.731 357.097 679.081 357.189C679.431 357.281 679.778 357.383 680.121 357.496C680.463 357.608 680.803 357.731 681.138 357.863C681.472 357.996 681.804 358.139 682.13 358.291Z" fill="#80BC00"/>
<path d="M678.457 366.252C678.898 366.458 679.325 366.691 679.738 366.949C680.152 367.208 680.551 367.491 680.933 367.8C681.317 368.108 681.683 368.44 682.03 368.795C682.379 369.15 682.708 369.527 683.018 369.926C683.328 370.324 683.617 370.742 683.887 371.181C684.156 371.619 684.403 372.075 684.629 372.549C684.853 373.022 685.056 373.511 685.236 374.015C685.416 374.52 685.571 375.037 685.704 375.567C685.835 376.099 685.944 376.638 686.026 377.19C686.11 377.741 686.169 378.3 686.202 378.867C686.236 379.433 686.245 380.006 686.229 380.582C686.212 381.159 686.171 381.738 686.105 382.319C686.038 382.9 685.948 383.481 685.833 384.061C685.718 384.641 685.578 385.218 685.415 385.792C685.252 386.365 685.065 386.932 684.856 387.494C684.646 388.055 684.415 388.608 684.16 389.151C683.906 389.696 683.63 390.228 683.335 390.748C683.038 391.269 682.722 391.777 682.388 392.27C682.052 392.763 681.699 393.24 681.328 393.699C680.956 394.16 680.569 394.602 680.165 395.026C679.762 395.449 679.344 395.852 678.912 396.235C678.481 396.617 678.036 396.976 677.58 397.314C677.123 397.651 676.657 397.965 676.181 398.255C675.704 398.544 675.221 398.808 674.729 399.047C674.238 399.286 673.742 399.497 673.239 399.683C672.737 399.868 672.232 400.026 671.724 400.157C671.216 400.287 670.708 400.39 670.199 400.464C669.691 400.539 669.184 400.585 668.68 400.602C668.175 400.62 667.674 400.609 667.179 400.57C666.683 400.529 666.195 400.462 665.712 400.365C665.23 400.27 664.758 400.145 664.294 399.994C663.83 399.842 663.377 399.663 662.936 399.456C662.495 399.25 662.068 399.017 661.654 398.759C661.24 398.5 660.842 398.217 660.458 397.908C660.076 397.6 659.71 397.269 659.362 396.913C659.014 396.558 658.685 396.181 658.375 395.783C658.064 395.384 657.775 394.965 657.506 394.527C657.237 394.089 656.99 393.633 656.764 393.159C656.538 392.686 656.336 392.197 656.157 391.692C655.977 391.188 655.821 390.671 655.689 390.14C655.556 389.61 655.449 389.069 655.366 388.518C655.283 387.966 655.224 387.408 655.19 386.841C655.157 386.274 655.148 385.703 655.164 385.126C655.181 384.549 655.222 383.97 655.288 383.389C655.354 382.808 655.444 382.227 655.56 381.647C655.675 381.067 655.814 380.49 655.978 379.917C656.141 379.343 656.328 378.775 656.537 378.214C656.747 377.653 656.978 377.1 657.232 376.556C657.487 376.013 657.762 375.48 658.058 374.959C658.354 374.439 658.67 373.932 659.005 373.438C659.341 372.945 659.694 372.468 660.065 372.008C660.437 371.547 660.823 371.105 661.227 370.683C661.63 370.259 662.049 369.856 662.481 369.474C662.912 369.091 663.356 368.732 663.813 368.394C664.269 368.056 664.736 367.743 665.212 367.453C665.687 367.165 666.172 366.901 666.663 366.662C667.155 366.423 667.651 366.211 668.154 366.025C668.656 365.839 669.161 365.682 669.668 365.552C670.177 365.42 670.685 365.318 671.193 365.244C671.702 365.169 672.209 365.124 672.713 365.106C673.218 365.088 673.718 365.1 674.214 365.139C674.709 365.178 675.198 365.246 675.68 365.342C676.163 365.439 676.635 365.562 677.099 365.714C677.563 365.866 678.016 366.046 678.457 366.252Z" fill="#F4BD15"/>
<path d="M675.226 375.811C675.424 375.904 675.616 376.008 675.802 376.124C675.988 376.24 676.167 376.368 676.339 376.507C676.511 376.646 676.675 376.794 676.832 376.954C676.988 377.114 677.136 377.282 677.275 377.461C677.414 377.641 677.544 377.828 677.665 378.025C677.787 378.223 677.897 378.427 677.998 378.64C678.099 378.853 678.191 379.072 678.271 379.299C678.352 379.525 678.422 379.758 678.482 379.997C678.54 380.234 678.589 380.478 678.626 380.725C678.664 380.972 678.69 381.224 678.705 381.478C678.721 381.732 678.724 381.99 678.717 382.248C678.71 382.508 678.691 382.767 678.662 383.029C678.632 383.29 678.591 383.551 678.539 383.811C678.487 384.072 678.425 384.332 678.351 384.589C678.279 384.846 678.195 385.102 678.1 385.354C678.006 385.606 677.902 385.854 677.788 386.099C677.674 386.343 677.55 386.582 677.417 386.816C677.284 387.05 677.142 387.277 676.991 387.499C676.84 387.721 676.682 387.934 676.516 388.142C676.348 388.348 676.175 388.547 675.993 388.737C675.812 388.927 675.624 389.109 675.431 389.28C675.236 389.452 675.036 389.614 674.832 389.766C674.627 389.917 674.417 390.058 674.203 390.188C673.989 390.318 673.772 390.436 673.551 390.544C673.331 390.651 673.107 390.747 672.882 390.829C672.656 390.913 672.429 390.983 672.201 391.042C671.973 391.101 671.745 391.147 671.517 391.181C671.288 391.214 671.061 391.234 670.834 391.243C670.607 391.251 670.382 391.245 670.159 391.228C669.937 391.21 669.717 391.18 669.501 391.137C669.285 391.093 669.072 391.038 668.863 390.969C668.655 390.901 668.452 390.821 668.254 390.728C668.056 390.635 667.864 390.531 667.678 390.414C667.493 390.299 667.313 390.171 667.141 390.033C666.969 389.894 666.805 389.745 666.649 389.586C666.492 389.426 666.344 389.256 666.205 389.077C666.065 388.899 665.936 388.711 665.814 388.513C665.694 388.317 665.583 388.113 665.482 387.9C665.38 387.687 665.29 387.467 665.208 387.24C665.128 387.013 665.058 386.781 664.999 386.543C664.939 386.305 664.891 386.062 664.854 385.814C664.816 385.567 664.79 385.316 664.775 385.061C664.76 384.806 664.756 384.55 664.763 384.29C664.771 384.032 664.789 383.771 664.818 383.51C664.849 383.25 664.889 382.988 664.941 382.727C664.992 382.467 665.055 382.208 665.129 381.951C665.202 381.692 665.285 381.438 665.38 381.186C665.474 380.933 665.579 380.685 665.693 380.441C665.807 380.196 665.931 379.957 666.063 379.724C666.197 379.489 666.338 379.261 666.489 379.041C666.64 378.819 666.798 378.604 666.965 378.398C667.132 378.191 667.306 377.992 667.487 377.802C667.669 377.612 667.855 377.431 668.05 377.259C668.244 377.088 668.443 376.926 668.648 376.774C668.854 376.623 669.063 376.482 669.277 376.351C669.491 376.221 669.708 376.102 669.929 375.996C670.149 375.889 670.373 375.793 670.598 375.709C670.824 375.627 671.051 375.555 671.279 375.496C671.507 375.438 671.735 375.392 671.963 375.358C672.193 375.325 672.42 375.304 672.647 375.297C672.874 375.289 673.097 375.293 673.32 375.312C673.543 375.329 673.763 375.36 673.979 375.403C674.196 375.446 674.408 375.502 674.617 375.57C674.824 375.639 675.029 375.719 675.226 375.811Z" fill="#F45A04"/>
<path d="M674.183 375.393C674.381 375.486 674.573 375.59 674.759 375.706C674.945 375.822 675.124 375.95 675.296 376.089C675.468 376.228 675.632 376.376 675.789 376.536C675.945 376.696 676.093 376.864 676.232 377.043C676.371 377.223 676.501 377.41 676.622 377.607C676.744 377.805 676.854 378.009 676.955 378.222C677.056 378.435 677.148 378.654 677.228 378.881C677.309 379.107 677.379 379.34 677.439 379.579C677.497 379.816 677.546 380.06 677.583 380.307C677.621 380.554 677.647 380.806 677.662 381.06C677.678 381.314 677.681 381.572 677.674 381.83C677.667 382.09 677.648 382.349 677.619 382.611C677.589 382.872 677.548 383.133 677.496 383.393C677.444 383.654 677.382 383.914 677.308 384.171C677.236 384.428 677.152 384.684 677.057 384.936C676.963 385.188 676.859 385.436 676.745 385.681C676.631 385.925 676.507 386.164 676.374 386.398C676.241 386.632 676.099 386.859 675.948 387.081C675.797 387.303 675.639 387.517 675.473 387.724C675.305 387.93 675.132 388.129 674.95 388.319C674.769 388.509 674.581 388.691 674.388 388.862C674.193 389.034 673.993 389.196 673.789 389.348C673.584 389.499 673.374 389.64 673.16 389.77C672.946 389.9 672.729 390.018 672.508 390.126C672.288 390.233 672.064 390.329 671.839 390.411C671.613 390.495 671.386 390.565 671.158 390.624C670.93 390.683 670.702 390.73 670.474 390.763C670.245 390.796 670.018 390.816 669.791 390.825C669.564 390.833 669.339 390.827 669.116 390.81C668.894 390.793 668.674 390.762 668.458 390.719C668.242 390.675 668.029 390.62 667.82 390.551C667.612 390.483 667.409 390.403 667.211 390.31C667.013 390.217 666.821 390.113 666.635 389.996C666.45 389.881 666.27 389.753 666.098 389.615C665.926 389.476 665.762 389.327 665.606 389.168C665.449 389.008 665.301 388.838 665.162 388.659C665.022 388.481 664.893 388.293 664.771 388.095C664.651 387.899 664.54 387.695 664.439 387.482C664.337 387.269 664.247 387.049 664.165 386.822C664.085 386.595 664.015 386.363 663.956 386.125C663.896 385.887 663.848 385.644 663.811 385.396C663.773 385.149 663.747 384.898 663.732 384.644C663.717 384.388 663.713 384.132 663.72 383.872C663.728 383.614 663.746 383.353 663.775 383.092C663.806 382.832 663.846 382.57 663.898 382.309C663.949 382.049 664.012 381.79 664.086 381.533C664.159 381.274 664.242 381.02 664.337 380.768C664.431 380.515 664.536 380.267 664.65 380.023C664.764 379.778 664.888 379.539 665.02 379.306C665.154 379.071 665.295 378.843 665.446 378.623C665.597 378.401 665.756 378.186 665.922 377.98C666.089 377.773 666.263 377.575 666.444 377.384C666.626 377.194 666.812 377.013 667.007 376.841C667.201 376.67 667.4 376.508 667.605 376.356C667.811 376.205 668.02 376.064 668.234 375.933C668.448 375.803 668.665 375.685 668.886 375.578C669.106 375.471 669.33 375.375 669.555 375.291C669.781 375.209 670.008 375.137 670.236 375.078C670.464 375.02 670.692 374.974 670.92 374.94C671.15 374.907 671.377 374.886 671.604 374.879C671.831 374.871 672.054 374.875 672.277 374.894C672.5 374.911 672.72 374.942 672.936 374.985C673.153 375.028 673.365 375.084 673.574 375.152C673.781 375.221 673.986 375.301 674.183 375.393Z" fill="#FF7A34"/>
<path d="M651.094 369.65C651.094 369.65 645.931 352.717 640.689 350.13C635.447 347.542 637.148 363.123 637.148 363.123L651.094 369.65Z" fill="#386F77"/>
<path fill-rule="evenodd" clip-rule="evenodd" d="M646.615 367.554C646.865 367.12 647.121 366.691 647.384 366.268C647.687 365.782 647.999 365.304 648.32 364.832C648.557 364.483 648.799 364.138 649.046 363.797C650.311 367.084 651.093 369.65 651.093 369.65L646.615 367.554Z" fill="#36520A"/>
<path d="M648.33 374.87C648.33 374.87 632.926 379.419 630.815 375.402C628.703 371.384 634.091 369.652 634.091 369.652L648.33 374.87Z" fill="#386F77"/>
<path d="M648.33 374.87C648.33 374.87 632.926 379.419 630.815 375.402C628.703 371.384 634.091 369.652 634.091 369.652L648.33 374.87Z" fill="#386F77"/>
<path fill-rule="evenodd" clip-rule="evenodd" d="M642.832 376.206C642.896 376.001 642.962 375.797 643.029 375.594C643.207 375.049 643.396 374.509 643.597 373.973C643.688 373.728 643.782 373.485 643.877 373.242L648.33 374.874C648.33 374.874 645.897 375.592 642.832 376.206Z" fill="#36520A"/>
<path d="M671.687 382.075L671.648 382.098C671.491 382.189 671.321 382.243 671.141 382.26C670.961 382.279 670.784 382.259 670.612 382.203L635.76 370.735C635.566 370.671 635.378 370.592 635.196 370.499C635.014 370.406 634.841 370.298 634.676 370.177C634.511 370.057 634.357 369.923 634.212 369.779C634.069 369.633 633.936 369.478 633.817 369.313C633.697 369.147 633.591 368.973 633.499 368.79C633.406 368.608 633.328 368.42 633.265 368.225C633.203 368.031 633.155 367.832 633.124 367.63C633.091 367.428 633.076 367.225 633.076 367.021C633.076 366.599 633.142 366.189 633.276 365.789C633.321 365.657 633.372 365.528 633.43 365.401C633.488 365.275 633.552 365.153 633.624 365.033C633.694 364.914 633.771 364.799 633.855 364.688C633.939 364.576 634.028 364.469 634.122 364.368C634.217 364.266 634.317 364.171 634.422 364.079C634.527 363.988 634.636 363.903 634.75 363.824C634.865 363.745 634.982 363.672 635.104 363.605C635.226 363.539 635.352 363.478 635.48 363.424C635.608 363.371 635.738 363.326 635.872 363.285C636.005 363.246 636.14 363.214 636.276 363.189C636.413 363.164 636.551 363.146 636.689 363.137C636.828 363.126 636.967 363.123 637.105 363.127C637.244 363.132 637.383 363.143 637.52 363.163C637.658 363.182 637.794 363.208 637.928 363.242C638.063 363.276 638.195 363.317 638.326 363.365C638.456 363.413 638.584 363.468 638.708 363.529L671.623 379.815C671.851 379.926 672.028 380.091 672.156 380.311C672.199 380.383 672.235 380.46 672.262 380.541C672.29 380.62 672.31 380.703 672.322 380.787C672.334 380.871 672.337 380.956 672.331 381.041C672.326 381.125 672.313 381.209 672.291 381.29C672.27 381.373 672.239 381.452 672.202 381.528C672.164 381.604 672.12 381.676 672.068 381.743C672.016 381.811 671.958 381.873 671.894 381.928C671.83 381.983 671.761 382.032 671.687 382.075Z" fill="#386F77"/>
<path fill-rule="evenodd" clip-rule="evenodd" d="M643.816 373.385C643.949 373.046 644.086 372.707 644.228 372.371C644.449 371.841 644.682 371.317 644.925 370.797C645.168 370.276 645.421 369.762 645.685 369.252C645.948 368.742 646.222 368.238 646.505 367.74C646.558 367.648 646.61 367.556 646.663 367.465L671.623 379.815C671.851 379.926 672.028 380.091 672.156 380.311C672.199 380.383 672.235 380.46 672.262 380.541C672.29 380.62 672.31 380.703 672.322 380.787C672.334 380.871 672.337 380.956 672.331 381.041C672.326 381.125 672.313 381.209 672.291 381.29C672.27 381.373 672.239 381.452 672.202 381.528C672.164 381.604 672.12 381.676 672.068 381.743C672.016 381.811 671.958 381.873 671.894 381.928C671.83 381.983 671.761 382.032 671.687 382.075L671.648 382.098C671.491 382.189 671.321 382.243 671.141 382.26C670.961 382.279 670.784 382.259 670.612 382.203L643.816 373.385Z" fill="#36520A"/>
<path fill-rule="evenodd" clip-rule="evenodd" d="M649.914 375.394C649.997 375.183 650.083 374.974 650.171 374.765C650.342 374.356 650.522 373.95 650.711 373.549C650.899 373.146 651.094 372.748 651.298 372.354C651.501 371.959 651.713 371.569 651.933 371.184C652.097 370.894 652.265 370.608 652.438 370.324L671.623 379.817C671.851 379.928 672.028 380.093 672.155 380.312C672.199 380.385 672.235 380.462 672.262 380.543C672.29 380.622 672.31 380.704 672.321 380.789C672.333 380.873 672.337 380.957 672.331 381.042C672.326 381.127 672.313 381.211 672.291 381.292C672.269 381.375 672.239 381.454 672.202 381.53C672.164 381.606 672.119 381.678 672.067 381.745C672.016 381.812 671.958 381.874 671.894 381.93C671.829 381.985 671.761 382.034 671.687 382.076L671.648 382.1C671.491 382.19 671.321 382.245 671.141 382.262C670.96 382.28 670.783 382.261 670.612 382.204L649.914 375.394Z" fill="#1A4D00"/>
<path fill-rule="evenodd" clip-rule="evenodd" d="M671.648 382.098L671.687 382.075C671.761 382.032 671.829 381.983 671.893 381.928C671.957 381.873 672.016 381.811 672.067 381.743C672.119 381.676 672.164 381.604 672.202 381.528C672.238 381.452 672.269 381.373 672.291 381.29C672.312 381.209 672.325 381.125 672.331 381.04C672.336 380.956 672.333 380.871 672.321 380.787C672.309 380.703 672.29 380.62 672.261 380.541C672.234 380.46 672.198 380.383 672.155 380.311C672.028 380.091 671.851 379.926 671.623 379.815L658.938 373.539C658.629 374 658.336 374.474 658.059 374.959C657.764 375.48 657.488 376.013 657.234 376.556C657.066 376.915 656.908 377.278 656.76 377.645L670.611 382.203C670.783 382.259 670.96 382.279 671.14 382.26C671.321 382.243 671.49 382.189 671.648 382.098Z" fill="#36520A"/>
<path fill-rule="evenodd" clip-rule="evenodd" d="M671.649 382.101L671.688 382.077C671.762 382.035 671.83 381.986 671.894 381.931C671.958 381.875 672.017 381.814 672.068 381.746C672.12 381.679 672.165 381.607 672.203 381.531C672.24 381.455 672.27 381.376 672.292 381.293C672.313 381.212 672.326 381.128 672.332 381.043C672.337 380.959 672.334 380.874 672.322 380.79C672.31 380.706 672.291 380.623 672.262 380.544C672.235 380.463 672.199 380.386 672.156 380.314C672.029 380.094 671.852 379.929 671.624 379.818L666.528 377.297C666.499 377.327 666.47 377.357 666.441 377.387C666.259 377.577 666.086 377.776 665.918 377.983C665.752 378.189 665.593 378.404 665.442 378.626C665.291 378.846 665.15 379.074 665.017 379.309C664.884 379.542 664.76 379.781 664.646 380.026C664.617 380.088 664.588 380.151 664.561 380.214L670.612 382.206C670.784 382.262 670.961 382.282 671.141 382.263C671.322 382.246 671.491 382.192 671.649 382.101Z" fill="#42280B"/>
<path d="M701.345 416.921C701.075 416.921 700.832 416.791 700.661 416.578L698.492 413.707L696.322 416.578C696.165 416.791 695.909 416.921 695.638 416.921C695.366 416.921 695.124 416.791 694.953 416.578L692.783 413.707L690.615 416.578C690.457 416.791 690.2 416.921 689.93 416.921C689.658 416.921 689.415 416.791 689.245 416.578L686.391 412.807C686.106 412.437 686.176 411.894 686.562 411.608C686.932 411.322 687.475 411.393 687.76 411.779L689.93 414.649L692.098 411.779C692.257 411.565 692.513 411.436 692.783 411.436C693.056 411.436 693.312 411.565 693.469 411.779L695.638 414.649L697.806 411.779C697.963 411.565 698.221 411.436 698.492 411.436C698.762 411.436 699.005 411.565 699.177 411.779L701.345 414.649L703.515 411.779C703.801 411.409 704.343 411.322 704.713 411.608C705.085 411.894 705.17 412.437 704.885 412.807L702.03 416.578C701.874 416.791 701.617 416.921 701.345 416.921Z" fill="#80BC00"/>
<path fill-rule="evenodd" clip-rule="evenodd" d="M688.797 413.144C688.444 413.399 688.089 413.648 687.73 413.889C687.616 413.965 687.502 414.041 687.387 414.116L686.393 412.803C686.108 412.433 686.178 411.89 686.564 411.604C686.934 411.319 687.477 411.389 687.762 411.775L688.797 413.144Z" fill="#638200"/>
<mask id="mask0_2859_144831" style="mask-type:luminance" maskUnits="userSpaceOnUse" x="619" y="351" width="13" height="13">
<path d="M619.691 351.785H631.201V363.247H619.691V351.785Z" fill="white"/>
</mask>
<g mask="url(#mask0_2859_144831)">
<path d="M631.035 362.601L623.43 352.119C623.373 352.033 623.245 352.019 623.173 352.104L619.763 355.745C619.691 355.832 619.705 355.945 619.791 356.002L630.794 362.843C630.951 362.943 631.135 362.744 631.022 362.601H631.035Z" fill="#FF7A34"/>
</g>
<path d="M633.092 360.822L632.778 352.812C632.778 352.698 632.663 352.626 632.563 352.655L628.754 353.797C628.654 353.826 628.596 353.955 628.654 354.055L632.778 360.922C632.863 361.081 633.105 361.008 633.092 360.822Z" fill="#FF7A34"/>
<path d="M630.167 364.583L622.275 363.212C622.162 363.199 622.062 363.285 622.075 363.398L622.389 367.368C622.389 367.483 622.504 367.553 622.618 367.51L630.196 364.912C630.367 364.855 630.338 364.612 630.167 364.583Z" fill="#FF7A34"/>
<path d="M640.561 409.372L639.676 410.259L638.791 409.372C638.477 409.058 637.964 409.058 637.649 409.372C637.336 409.687 637.336 410.2 637.649 410.515L638.534 411.4L637.649 412.285C637.336 412.6 637.336 413.114 637.649 413.429C637.964 413.742 638.477 413.742 638.791 413.429L639.676 412.542L640.561 413.429C640.874 413.742 641.388 413.742 641.703 413.429C642.016 413.114 642.016 412.6 641.703 412.285L640.818 411.4L641.703 410.515C642.016 410.2 642.016 409.687 641.703 409.372C641.388 409.058 640.874 409.058 640.561 409.372Z" fill="#F4BD15"/>
<path d="M697.668 347.684L696.783 348.569L695.899 347.684C695.584 347.371 695.071 347.371 694.758 347.684C694.443 347.998 694.443 348.513 694.758 348.826L695.641 349.713L694.758 350.598C694.443 350.911 694.443 351.426 694.758 351.74C695.071 352.055 695.584 352.055 695.899 351.74L696.783 350.854L697.668 351.74C697.981 352.055 698.496 352.055 698.81 351.74C699.123 351.426 699.123 350.911 698.81 350.598L697.925 349.713L698.81 348.826C699.123 348.513 699.123 347.998 698.81 347.684C698.496 347.371 697.981 347.371 697.668 347.684Z" fill="#F4BD15"/>
<mask id="mask1_2859_144831" style="mask-type:luminance" maskUnits="userSpaceOnUse" x="700" y="354" width="6" height="6">
<path d="M700.758 354.691H705.559V359.981H700.758V354.691Z" fill="white"/>
</mask>
<g mask="url(#mask1_2859_144831)">
<path d="M704.102 355.322L703.217 356.207L702.332 355.322C702.018 355.007 701.504 355.007 701.19 355.322C700.877 355.636 700.877 356.151 701.19 356.464L702.075 357.349L701.19 358.234C700.877 358.549 700.877 359.062 701.19 359.378C701.504 359.691 702.018 359.691 702.332 359.378L703.217 358.492L704.102 359.378C704.415 359.691 704.929 359.691 705.244 359.378C705.557 359.062 705.557 358.549 705.244 358.234L704.359 357.349L705.244 356.464C705.557 356.151 705.557 355.636 705.244 355.322C704.929 355.007 704.415 355.007 704.102 355.322Z" fill="#F4BD15"/>
</g>
<path d="M710.199 386.406C710.199 393.08 705.611 403.299 700.605 407.47" stroke="black" stroke-width="0.795605" stroke-linecap="round"/>
<path d="M712.7 393.289C711.866 397.877 709.676 402.048 707.486 404.759" stroke="black" stroke-width="0.795605" stroke-linecap="round"/>
<path d="M636.059 366.594L670.991 380.775" stroke="white" stroke-width="0.795605" stroke-linecap="round"/>
<path d="M639.916 355.332L641.793 365.76" stroke="white" stroke-width="0.795605" stroke-linecap="round"/>
<path d="M644.311 360.883L645.324 368.555" stroke="white" stroke-width="0.795605" stroke-linecap="round"/>
<path d="M642.789 371.809L635.541 374.521" stroke="white" stroke-width="0.795605" stroke-linecap="round"/>
<path d="M57.1356 353.936L90.9852 392.681L92.6705 391.865L58.8195 353.12L57.1356 353.936Z" fill="#80BC00"/>
<path d="M58.818 353.121L92.4728 393.371L122.374 377.474L88.5226 338.73L58.818 353.121Z" fill="#F4BD15"/>
<path d="M58.5596 353.321L91.5407 392.364L92.6694 391.813L60.2435 352.505L58.5596 353.321Z" fill="#7A8B00"/>
<path d="M84.2096 347.784C84.7267 348.375 85.431 348.809 86.1958 349.059C87.2788 349.413 88.482 349.396 89.4446 348.93C90.4072 348.463 90.9163 347.651 90.9217 346.77C90.9238 346.148 90.6765 345.492 90.1593 344.901C88.9117 343.473 86.5688 342.961 84.9249 343.757C83.2811 344.554 82.9619 346.355 84.2096 347.784Z" stroke="#10112B" stroke-width="0.61295" stroke-miterlimit="10" stroke-linecap="round" stroke-linejoin="round"/>
<path d="M65.7864 354.979L67.908 357.408L82.0241 350.569L79.9025 348.14L65.7864 354.979Z" fill="#80BC00"/>
<path d="M68.2925 361.509L83.202 377.318L106.497 366.119L92.3058 349.875L68.2925 361.509Z" fill="#F45A04"/>
<path d="M69.4194 360.954L83.6124 377.198L107.624 365.565L93.4327 349.32L69.4194 360.954Z" fill="#FF7A34"/>
<path d="M68.8743 359.022L70.9959 361.451L85.112 354.612L82.9904 352.183L68.8743 359.022Z" fill="#80BC00"/>
<path fill-rule="evenodd" clip-rule="evenodd" d="M70.2201 360.56L70.9926 361.444L85.1087 354.605L84.3362 353.721L70.2201 360.56Z" fill="#805A00"/>
<path d="M72.5992 362.6L85.5956 377.474L109.244 365.845L96.2492 350.971L72.5992 362.6Z" stroke="#10112B" stroke-width="0.61295" stroke-miterlimit="10" stroke-linecap="round" stroke-linejoin="round"/>
<path d="M102.785 378.957L90.3943 384.96" stroke="#10112B" stroke-width="0.61295" stroke-miterlimit="10" stroke-linecap="round" stroke-linejoin="round"/>
<path d="M104.061 380.418L91.6683 386.422" stroke="#10112B" stroke-width="0.61295" stroke-miterlimit="10" stroke-linecap="round" stroke-linejoin="round"/>
<path d="M105.049 369.186L107.962 372.52L111.995 370.566L109.082 367.232L105.049 369.186Z" fill="#80BC00"/>
<path d="M109.555 374.347L112.469 377.682L116.503 375.727L113.589 372.392L109.555 374.347Z" fill="#FF7A34"/>
<path d="M103.632 377.213L106.546 380.549L110.579 378.595L107.666 375.259L103.632 377.213Z" fill="#386F77"/>
<path d="M103.68 372.223L86.5259 380.533" stroke="#10112B" stroke-width="0.61295" stroke-miterlimit="10" stroke-linecap="round" stroke-linejoin="round"/>
<path d="M99.1455 373.686C99.1187 373.784 99.1174 373.883 99.1431 373.987C99.1667 374.09 99.2144 374.189 99.2856 374.281C99.3576 374.375 99.4481 374.456 99.5558 374.526C99.6636 374.595 99.7807 374.648 99.9081 374.681C100.036 374.716 100.164 374.732 100.291 374.727C100.42 374.723 100.538 374.697 100.646 374.654C100.755 374.61 100.846 374.55 100.92 374.473C100.993 374.398 101.042 374.31 101.069 374.213C101.095 374.115 101.097 374.016 101.072 373.913C101.048 373.81 100.999 373.712 100.929 373.618C100.857 373.524 100.767 373.444 100.659 373.374C100.551 373.305 100.434 373.252 100.306 373.217C100.178 373.182 100.051 373.166 99.9227 373.172C99.7949 373.177 99.676 373.202 99.5669 373.246C99.4592 373.289 99.3668 373.35 99.2942 373.425C99.2223 373.502 99.1708 373.589 99.1455 373.686Z" fill="#F15D5E" stroke="#10112B" stroke-width="0.61295" stroke-miterlimit="10" stroke-linecap="round" stroke-linejoin="round"/>
<path d="M120.214 376.415C120.214 376.415 119.363 383.751 124.347 383.086C129.763 382.363 133.307 382.74 135.575 383.385L140.839 365.871C134.501 361.9 124.894 357.667 124.021 364.53L124.02 364.532C121.792 364.904 120.507 366.253 120.749 368.783C118.884 368.434 116.58 368.094 114.582 368.073C112.486 368.051 110.73 368.38 110.184 369.417C110.073 369.63 110 369.839 109.965 370.045C109.465 372.805 115.322 375.045 120.214 376.415Z" fill="white" stroke="#10112B" stroke-width="0.61295" stroke-miterlimit="10" stroke-linecap="round" stroke-linejoin="round"/>
<path fill-rule="evenodd" clip-rule="evenodd" d="M114.161 368.066C112.253 368.092 110.693 368.444 110.185 369.41C110.073 369.623 110 369.833 109.966 370.038C109.466 372.798 115.322 375.038 120.215 376.408C120.215 376.408 120.106 377.347 120.194 378.524L122.374 377.468L114.161 368.066Z" fill="#F4BD15"/>
<path fill-rule="evenodd" clip-rule="evenodd" d="M115.873 374.997L113.588 372.381L112.033 373.135C113.076 373.819 114.422 374.443 115.873 374.997Z" fill="#FF7A34"/>
<path d="M129.846 365.087C124.315 363.597 120.344 364.485 120.75 368.778" stroke="#10112B" stroke-width="0.61295" stroke-miterlimit="10" stroke-linecap="round" stroke-linejoin="round"/>
<path d="M124.3 369.558C124.3 369.558 111.819 366.308 110.188 369.417C107.55 374.444 126.575 377.909 126.575 377.909" stroke="#10112B" stroke-width="0.61295" stroke-miterlimit="10" stroke-linecap="round" stroke-linejoin="round"/>
<path d="M120.218 376.413C120.218 376.413 119.367 383.749 124.351 383.083C129.767 382.36 133.31 382.737 135.577 383.381" stroke="#10112B" stroke-width="0.61295" stroke-miterlimit="10" stroke-linecap="round" stroke-linejoin="round"/>
<path d="M140.838 365.87C134.501 361.899 124.895 357.667 124.019 364.53" stroke="#10112B" stroke-width="0.61295" stroke-miterlimit="10" stroke-linecap="round" stroke-linejoin="round"/>
<path d="M141.182 364.728L135.319 384.234C135.133 384.85 135.436 385.509 136.023 385.77L141.748 388.314C142.512 388.653 143.389 388.177 143.522 387.352L146.861 366.618C146.956 366.032 146.634 365.458 146.086 365.233L142.885 363.917C142.188 363.63 141.399 364.006 141.182 364.728Z" fill="white" stroke="#10112B" stroke-width="0.61295" stroke-miterlimit="10" stroke-linecap="round" stroke-linejoin="round"/>
<path d="M109.966 370.041C110.815 370.644 111.954 370.778 112.954 370.294C113.865 369.852 114.445 369.002 114.583 368.069C112.486 368.048 110.73 368.377 110.185 369.413C110.073 369.626 110 369.836 109.966 370.041Z" fill="#10112B"/>
<path d="M138.795 384.154C138.864 384.297 138.958 384.421 139.076 384.526C139.193 384.629 139.327 384.709 139.475 384.761C139.624 384.812 139.777 384.835 139.935 384.825C140.093 384.816 140.242 384.777 140.384 384.708C140.526 384.64 140.648 384.547 140.753 384.429C140.858 384.311 140.936 384.176 140.988 384.028C141.039 383.879 141.06 383.725 141.051 383.569C141.041 383.411 141.002 383.261 140.933 383.118C140.864 382.977 140.771 382.853 140.653 382.748C140.535 382.642 140.402 382.564 140.254 382.513C140.105 382.461 139.951 382.439 139.794 382.448C139.636 382.457 139.487 382.496 139.346 382.564C139.203 382.634 139.08 382.726 138.975 382.844C138.87 382.962 138.793 383.097 138.741 383.245C138.69 383.394 138.668 383.547 138.678 383.704C138.687 383.862 138.727 384.012 138.795 384.154Z" fill="white" stroke="#10112B" stroke-width="0.61295" stroke-miterlimit="10" stroke-linecap="round" stroke-linejoin="round"/>
<path d="M116.09 357.809L114.258 364.362" stroke="#10112B" stroke-width="0.61295" stroke-miterlimit="10" stroke-linecap="round" stroke-linejoin="round"/>
<path d="M116.994 354.566L116.734 355.5" stroke="#10112B" stroke-width="0.61295" stroke-miterlimit="10" stroke-linecap="round" stroke-linejoin="round"/>
<path d="M111.9 361.406L112.617 364.06" stroke="#10112B" stroke-width="0.61295" stroke-miterlimit="10" stroke-linecap="round" stroke-linejoin="round"/>
<path d="M111.207 358.648L111.386 359.36" stroke="#10112B" stroke-width="0.61295" stroke-miterlimit="10" stroke-linecap="round" stroke-linejoin="round"/>
<path d="M118.348 362.027L115.587 364.992" stroke="#10112B" stroke-width="0.61295" stroke-miterlimit="10" stroke-linecap="round" stroke-linejoin="round"/>
<path d="M120.438 359.781L119.897 360.361" stroke="#10112B" stroke-width="0.61295" stroke-miterlimit="10" stroke-linecap="round" stroke-linejoin="round"/>
<path d="M38.8075 384.592C37.8429 382.917 37.4767 381.06 37.6459 379.275C37.6645 379.084 37.6875 378.895 37.717 378.708C38.1259 376.13 39.6516 373.755 42.0857 372.353C44.5198 370.952 47.3396 370.824 49.7732 371.764C49.9514 371.832 50.127 371.905 50.2995 371.985C51.9291 372.735 53.3535 373.984 54.3182 375.659C56.7901 379.951 55.3215 385.43 51.0379 387.897C46.7542 390.364 41.2794 388.884 38.8075 384.592Z" stroke="#10112B" stroke-width="0.61295" stroke-miterlimit="10" stroke-linecap="round" stroke-linejoin="round"/>
<mask id="mask2_2859_144831" style="mask-type:luminance" maskUnits="userSpaceOnUse" x="41" y="389" width="25" height="26">
<path d="M50.125 414.715L65.8392 405.664L56.7152 389.822L41.001 398.873L50.125 414.715Z" fill="white"/>
</mask>
<g mask="url(#mask2_2859_144831)">
<path d="M45.6669 406.752C44.7022 405.077 44.3375 403.22 44.5066 401.434C44.5239 401.245 44.5469 401.055 44.5777 400.867C44.9867 398.29 46.5124 395.915 48.9451 394.514C51.3792 393.112 54.2004 392.983 56.6339 393.924C56.8121 393.991 56.9864 394.065 57.1589 394.145C58.7899 394.894 60.2143 396.143 61.179 397.818C63.6508 402.11 62.1809 407.59 57.8972 410.057C53.6149 412.524 48.1388 411.044 45.6669 406.752Z" stroke="#10112B" stroke-width="0.61295" stroke-miterlimit="10" stroke-linecap="round" stroke-linejoin="round"/>
</g>
<path d="M83.875 390.464C82.9737 388.899 81.6461 387.735 80.1253 387.034C79.9638 386.96 79.8004 386.89 79.6338 386.826C77.3619 385.95 74.7292 386.069 72.4574 387.377C70.1856 388.686 68.7615 390.903 68.3807 393.307C68.352 393.483 68.329 393.659 68.313 393.835C68.1547 395.503 68.4958 397.237 69.3971 398.802C71.7035 402.807 76.8155 404.188 80.8132 401.886C84.8122 399.582 86.1814 394.468 83.875 390.464Z" stroke="#10112B" stroke-width="0.61295" stroke-miterlimit="10" stroke-linecap="round" stroke-linejoin="round"/>
<path fill-rule="evenodd" clip-rule="evenodd" d="M75.0323 394.595L75.4062 395.186L75.4204 395.177L75.7146 395.642C75.826 395.572 75.9491 395.5 76.0769 395.426C76.215 395.346 76.3586 395.262 76.4989 395.173C76.8007 395.01 77.0902 394.827 77.3483 394.637L77.0418 394.152L77.0469 394.149L76.6781 393.565C78.356 392.686 79.4861 392.619 79.7063 392.711C79.6932 392.989 78.776 393.974 76.5948 395.353C74.4329 396.72 73.1303 397.139 72.8731 397.031C72.8739 396.771 73.4482 395.757 75.0323 394.595ZM74.9311 394.434C73.2971 395.594 72.2771 396.772 72.5643 397.226C72.884 397.732 74.7098 397.158 76.7051 395.931C76.5001 396.059 76.3025 396.179 76.0976 396.288L77.916 399.164L79.5374 398.139L77.7165 395.259C79.3106 394.115 80.2983 392.963 80.0152 392.515C79.7333 392.07 78.2817 392.462 76.5752 393.402L76.0706 392.604L78.136 391.299L77.2574 389.909L71.4858 393.558L72.3523 394.928L74.4177 393.622L74.9311 394.434Z" fill="#80BC00"/>
<path d="M72.5547 387.332L68.517 380.321L76.2854 375.847" stroke="#10112B" stroke-width="0.61295" stroke-miterlimit="10" stroke-linecap="round" stroke-linejoin="round"/>
<path d="M68.5157 380.324L64.6388 373.592C64.0876 372.635 62.8666 372.305 61.9122 372.855L54.9923 376.84" stroke="#10112B" stroke-width="0.61295" stroke-miterlimit="10" stroke-linecap="round" stroke-linejoin="round"/>
<path d="M69.6157 382.228L61.7895 386.735C60.8351 387.285 60.5076 388.506 61.0581 389.462L63.1609 393.113C63.7113 394.069 63.3838 395.29 62.4294 395.84L60.4629 396.973" stroke="#10112B" stroke-width="0.61295" stroke-miterlimit="10" stroke-linecap="round" stroke-linejoin="round"/>
<mask id="mask3_2859_144831" style="mask-type:luminance" maskUnits="userSpaceOnUse" x="58" y="335" width="17" height="14">
<path d="M71.7871 335.668L58.9927 341.866L62.0015 348.077L74.7958 341.878L71.7871 335.668Z" fill="white"/>
</mask>
<g mask="url(#mask3_2859_144831)">
<path d="M72.0259 336.876C71.497 336.551 70.8228 336.473 70.2349 336.67C69.6469 336.868 69.1565 337.337 68.9322 337.916C68.7896 338.283 68.7546 338.708 68.915 339.068C69.0754 339.428 69.4575 339.702 69.8497 339.661C70.4686 339.598 70.7834 338.751 70.459 338.219C70.1346 337.687 69.3927 337.524 68.8043 337.725C68.2159 337.926 67.7676 338.414 67.4413 338.943C66.9284 339.777 66.6548 340.755 66.6621 341.735C66.6643 342.08 66.7042 342.436 66.8711 342.738C67.0371 343.041 67.3537 343.281 67.6987 343.273C68.2893 343.258 68.6416 342.502 68.4376 341.948C68.2332 341.392 67.6666 341.052 67.1011 340.881C66.1759 340.602 65.1506 340.669 64.2718 341.069C63.393 341.468 62.6669 342.195 62.269 343.076C61.6216 344.508 61.8598 346.167 62.1096 347.721" stroke="black" stroke-width="0.61295" stroke-miterlimit="10" stroke-linecap="round" stroke-linejoin="round"/>
</g>
<path d="M107.674 390.566C108.268 390.853 108.931 390.956 109.584 391.048C110.738 391.21 112.055 391.296 112.918 390.515C113.611 389.886 113.778 388.739 113.256 387.96C113.139 387.786 112.989 387.629 112.799 387.54C112.254 387.285 111.565 387.741 111.448 388.33C111.332 388.92 111.673 389.528 112.156 389.888C112.638 390.247 113.238 390.404 113.828 390.522C114.498 390.658 115.189 390.755 115.862 390.641C116.536 390.525 117.197 390.172 117.54 389.581C117.883 388.989 117.828 388.15 117.312 387.7" stroke="black" stroke-width="0.61295" stroke-miterlimit="10" stroke-linecap="round" stroke-linejoin="round"/>
<path d="M56.3876 403.36C56.3213 403.67 56.1242 403.942 55.7956 404.178L54.2442 405.291L52.8672 403.372L54.4232 402.256C54.7422 402.027 55.0628 401.933 55.3851 401.973C55.7075 402.014 55.9692 402.175 56.1707 402.455C56.3814 402.749 56.4536 403.05 56.3876 403.36ZM52.2937 399.535C52.5604 399.344 52.845 399.249 53.1478 399.252C53.4504 399.255 53.7116 399.41 53.9318 399.717C54.1308 399.994 54.2076 400.285 54.1624 400.589C54.1175 400.893 53.945 401.153 53.6458 401.368L52.1823 402.418L50.8546 400.568L52.2937 399.535ZM56.3618 400.909C55.9057 400.781 55.4144 400.845 54.8874 401.1C55.2108 400.754 55.3821 400.367 55.4012 399.941C55.4204 399.515 55.2974 399.117 55.0328 398.748C54.7517 398.357 54.4013 398.091 53.9816 397.953C53.562 397.814 53.1744 397.803 52.8196 397.919C52.5 398.024 52.146 398.21 51.7588 398.475L51.1184 397.583L50.2239 398.225L50.863 399.116L50.2407 399.562L49.6016 398.672L48.707 399.314L49.3461 400.204L48.0629 401.125L48.748 402.08L49.718 401.383L53.1076 406.107L52.1376 406.803L52.8576 407.806L54.1408 406.885L54.747 407.73L55.6416 407.088L55.0353 406.243L55.6576 405.797L56.2639 406.642L57.1585 406L56.5522 405.155L56.74 405.02C57.4392 404.518 57.8312 403.971 57.9165 403.379C58.0011 402.787 57.8587 402.233 57.4886 401.717C57.1935 401.306 56.8178 401.037 56.3618 400.909Z" fill="#F4BD15"/>
<path d="M45.7438 378.413L48.4689 377.153L45.0543 376.125L42.9499 375.573L45.7438 378.413Z" fill="#FF7A34"/>
<path d="M48.1805 381.199L44.4369 382.085L48.6084 383.312L50.1749 383.751L48.1805 381.199Z" fill="#FF7A34"/>
<path d="M48.182 381.201L50.1452 383.704L49.8223 379.46L49.6504 377.844L48.182 381.201Z" fill="#F45A04"/>
<path d="M45.7419 378.413L43.0135 375.537L43.9228 381L45.7419 378.413Z" fill="#F45A04"/>
<path d="M47.3187 380.554L48.4664 377.151L45.7413 378.412L43.9222 381L47.3187 380.554Z" fill="#F4BD15"/>
<path d="M53.4332 365.574C53.4332 365.574 57.7272 366.421 57.4359 364.575C57.1445 362.729 54.4615 364.246 55.4199 367.066" stroke="black" stroke-width="0.61295" stroke-linecap="round" stroke-linejoin="round"/>
<path d="M84.1729 362.77L89.6746 367.101L89.2198 367.335L87.3328 365.847L84.5878 367.256L84.6958 369.656L84.241 369.889L83.9314 362.894L84.1729 362.77ZM86.9819 365.57L84.4116 363.543L84.567 366.809L86.9819 365.57Z" fill="black"/>
<path d="M87.4738 361.128L89.442 360.118C90.4375 359.607 91.3311 359.479 92.1228 359.734C92.9172 359.987 93.5271 360.528 93.9525 361.357C94.3697 362.17 94.4543 362.976 94.2063 363.775C93.9597 364.569 93.3587 365.211 92.4035 365.701L90.3588 366.75L87.4738 361.128ZM88.0944 361.267L90.6077 366.165L92.1935 365.351C92.9206 364.978 93.4115 364.445 93.6659 363.752C93.9217 363.055 93.8602 362.337 93.4816 361.599C93.1113 360.877 92.5703 360.411 91.8586 360.2C91.1469 359.989 90.4114 360.078 89.652 360.468L88.0944 361.267Z" fill="black"/>
<path d="M96.5803 359.185L96.7992 359.612C96.2941 359.553 95.8913 359.6 95.5908 359.754C95.3681 359.868 95.2113 360.025 95.1203 360.224C95.0293 360.424 95.0292 360.612 95.1201 360.789C95.1848 360.915 95.2903 361.008 95.4366 361.069C95.5842 361.125 95.9086 361.127 96.4098 361.073C96.9137 361.018 97.2748 361.044 97.493 361.153C97.7113 361.261 97.8755 361.422 97.9857 361.637C98.133 361.924 98.1409 362.227 98.0093 362.545C97.8764 362.861 97.6382 363.107 97.2947 363.283C96.9217 363.475 96.4936 363.552 96.0104 363.515L95.8121 363.129C96.3651 363.13 96.8107 363.043 97.1488 362.87C97.3769 362.753 97.5324 362.597 97.6153 362.402C97.7009 362.205 97.6956 362.013 97.5992 361.825C97.5331 361.696 97.4242 361.603 97.2726 361.545C97.1222 361.484 96.7937 361.478 96.2871 361.527C95.7831 361.576 95.4268 361.552 95.2181 361.456C95.0106 361.355 94.856 361.206 94.7541 361.007C94.6096 360.725 94.6024 360.427 94.7327 360.113C94.8642 359.795 95.0964 359.55 95.4291 359.38C95.7323 359.224 96.116 359.159 96.5803 359.185Z" fill="black"/>
<path d="M84.1729 362.77L89.6746 367.101L89.2198 367.335L87.3328 365.847L84.5878 367.256L84.6958 369.656L84.241 369.889L83.9314 362.894L84.1729 362.77ZM86.9819 365.57L84.4116 363.543L84.567 366.809L86.9819 365.57Z" stroke="#FF7A34" stroke-width="0.306475"/>
<path d="M87.4738 361.128L89.442 360.118C90.4375 359.607 91.3311 359.479 92.1228 359.734C92.9172 359.987 93.5271 360.528 93.9525 361.357C94.3697 362.17 94.4543 362.976 94.2063 363.775C93.9597 364.569 93.3587 365.211 92.4035 365.701L90.3588 366.75L87.4738 361.128ZM88.0944 361.267L90.6077 366.165L92.1935 365.351C92.9206 364.978 93.4115 364.445 93.6659 363.752C93.9217 363.055 93.8602 362.337 93.4816 361.599C93.1113 360.877 92.5703 360.411 91.8586 360.2C91.1469 359.989 90.4114 360.078 89.652 360.468L88.0944 361.267Z" stroke="#FF7A34" stroke-width="0.306475"/>
<path d="M96.5803 359.185L96.7992 359.612C96.2941 359.553 95.8913 359.6 95.5908 359.754C95.3681 359.868 95.2113 360.025 95.1203 360.224C95.0293 360.424 95.0292 360.612 95.1201 360.789C95.1848 360.915 95.2903 361.008 95.4366 361.069C95.5842 361.125 95.9086 361.127 96.4098 361.073C96.9137 361.018 97.2748 361.044 97.493 361.153C97.7113 361.261 97.8755 361.422 97.9857 361.637C98.133 361.924 98.1409 362.227 98.0093 362.545C97.8764 362.861 97.6382 363.107 97.2947 363.283C96.9217 363.475 96.4936 363.552 96.0104 363.515L95.8121 363.129C96.3651 363.13 96.8107 363.043 97.1488 362.87C97.3769 362.753 97.5324 362.597 97.6153 362.402C97.7009 362.205 97.6956 362.013 97.5992 361.825C97.5331 361.696 97.4242 361.603 97.2726 361.545C97.1222 361.484 96.7937 361.478 96.2871 361.527C95.7831 361.576 95.4268 361.552 95.2181 361.456C95.0106 361.355 94.856 361.206 94.7541 361.007C94.6096 360.725 94.6024 360.427 94.7327 360.113C94.8642 359.795 95.0964 359.55 95.4291 359.38C95.7323 359.224 96.116 359.159 96.5803 359.185Z" stroke="#FF7A34" stroke-width="0.306475"/>
<path fill-rule="evenodd" clip-rule="evenodd" d="M68.4004 40.0993C69.7109 42.5464 72.0757 44.7877 75.2064 46.1987C78.337 47.6097 81.5825 47.8971 84.2839 47.2581C86.9841 46.6195 89.0944 45.0733 90.101 42.84C91.1076 40.6067 90.8683 38.0015 89.5584 35.5555C88.2479 33.1084 85.883 30.8671 82.7524 29.4561C79.6218 28.0451 76.3763 27.7577 73.6749 28.3967C70.9747 29.0353 68.8643 30.5815 67.8578 32.8148C66.8512 35.0481 67.0905 37.6532 68.4004 40.0993ZM67.0614 32.4559C64.7794 37.519 68.2653 44.0285 74.8475 46.9951C81.4296 49.9617 88.6154 48.2621 90.8974 43.1989C93.1794 38.1358 89.6934 31.6263 83.1113 28.6597C76.5292 25.6931 69.3434 27.3927 67.0614 32.4559Z" fill="black"/>
<path fill-rule="evenodd" clip-rule="evenodd" d="M82.9628 51.1742C85.8732 50.1762 88.3796 47.7032 89.7336 43.1051C89.8017 42.8737 90.0445 42.7414 90.2759 42.8095C90.5073 42.8776 90.6396 43.1205 90.5715 43.3518C89.1536 48.1668 86.4742 50.8936 83.2462 52.0005C80.0397 53.1 76.3756 52.5725 73.0193 51.0597C69.6914 49.5598 66.9449 47.5813 65.6436 44.6253C64.3376 41.6584 64.5357 37.8212 66.8352 32.7192C66.9343 32.4993 67.1929 32.4014 67.4128 32.5005C67.6327 32.5996 67.7307 32.8582 67.6316 33.0781C65.386 38.0605 65.2757 41.6214 66.4431 44.2733C67.6152 46.936 70.124 48.7967 73.3782 50.2634C76.604 51.7173 80.0309 52.1797 82.9628 51.1742Z" fill="black"/>
<path fill-rule="evenodd" clip-rule="evenodd" d="M80.9271 52.0481L81.8008 47.6622L82.6575 47.8329L81.7837 52.2188L80.9271 52.0481Z" fill="black"/>
<path fill-rule="evenodd" clip-rule="evenodd" d="M75.0442 51.2356L75.918 46.8497L76.7746 47.0204L75.9009 51.4063L75.0442 51.2356Z" fill="black"/>
<path fill-rule="evenodd" clip-rule="evenodd" d="M69.0784 48.141L70.3954 43.5873L71.2345 43.83L69.9175 48.3837L69.0784 48.141Z" fill="black"/>
<path fill-rule="evenodd" clip-rule="evenodd" d="M77.5088 41.0771C77.3426 41.0074 77.1889 40.9061 77.0574 40.7806C76.926 40.6535 76.8134 40.502 76.7074 40.3544L76.3483 39.8625L75.9894 39.3673L75.9709 39.3386L75.9628 39.3073C75.9648 39.2784 75.9868 39.2577 76.0052 39.2384C76.4149 38.9044 76.8333 38.5932 77.2676 38.3001C77.4651 38.1651 77.6657 38.0354 77.8728 37.9096L77.9769 37.7903C78.036 37.8748 78.0881 37.9605 78.1403 38.0462L78.2851 38.2752L78.4527 38.5707C78.5773 38.7949 78.6914 39.0234 78.7949 39.2563C78.8361 39.3533 78.877 39.4536 78.9142 39.5571L78.954 39.6744C79.0401 39.9609 79.0743 40.2557 78.9698 40.5289C78.8418 40.8928 78.4757 41.1409 78.0973 41.1728C77.8943 41.1894 77.6916 41.1531 77.5088 41.0771ZM77.5039 39.9669L77.4135 39.8409L77.1388 39.4626C77.33 39.3203 77.5242 39.1833 77.7183 39.0481C77.7851 39.1707 77.845 39.2929 77.9046 39.4184L77.9972 39.6113L78.0762 39.8032C78.1107 39.8979 78.1356 39.9818 78.1511 40.0547C78.1706 40.1672 78.1575 40.209 78.1533 40.219C78.1486 40.2375 78.1409 40.2506 78.1193 40.2662L78.0731 40.2904L78.0244 40.3024C77.9866 40.3049 77.9424 40.3018 77.8987 40.2902L77.8385 40.2706C77.8021 40.2527 77.7626 40.2311 77.7235 40.2028L77.6653 40.1543C77.6141 40.1045 77.5667 40.0482 77.5039 39.9669Z" fill="black"/>
<path fill-rule="evenodd" clip-rule="evenodd" d="M80.7769 36.4305C81.0257 36.836 81.2736 37.2552 81.3061 37.7226C81.3232 37.9683 81.2605 38.2307 81.1297 38.4388C81.0108 38.6238 80.8402 38.7659 80.6282 38.8144L80.5245 38.8294L80.4353 38.8335L80.3029 38.8191C80.1306 38.7883 79.9652 38.7084 79.8219 38.6044C79.5976 38.4366 79.4317 38.2147 79.2626 37.9909L79.2436 37.969L78.9653 37.594L78.8404 37.4228L78.8058 37.3793C78.7969 37.3599 78.7914 37.3407 78.7962 37.3205C78.7994 37.2746 78.8391 37.2449 78.8787 37.2168L79.537 36.7513L80.418 36.1319L80.5335 36.0938C80.594 36.1596 80.6471 36.2317 80.7 36.3072L80.7769 36.4305ZM80.4265 37.8786L80.405 37.9421L80.3427 37.9035C80.2841 37.8601 80.2331 37.807 80.1697 37.7342L79.9876 37.5009L80.2718 37.3001C80.308 37.3693 80.3378 37.4329 80.361 37.4927C80.4048 37.6 80.4292 37.6924 80.4366 37.7818L80.4344 37.8141C80.4364 37.8348 80.4314 37.8567 80.4265 37.8786Z" fill="black"/>
<path fill-rule="evenodd" clip-rule="evenodd" d="M81.0508 33.3286L80.086 31.7103L77.6711 33.5808L78.2245 34.4265L75.2202 36.4612L74.413 35.2815L72.0592 37.1101L73.0589 38.7188L71.7514 39.7155L73.3493 42.4107L73.3714 42.4362L73.4247 42.5066L73.5058 42.6182C73.5684 42.703 73.6534 42.8081 73.7664 42.9049C73.9983 43.1108 74.3394 43.2714 74.7897 43.1898C75.1432 43.1238 75.4321 42.954 75.634 42.8039L75.6556 42.7883C75.8759 43.0636 76.1867 43.3657 76.604 43.6102C76.8702 43.7672 77.1723 43.8977 77.5187 43.9833C78.0298 44.1095 78.6332 44.1378 79.333 44.0104C80.2994 43.7373 81.1434 42.8639 81.2674 41.5233C81.7599 41.5729 82.3701 41.5042 82.8892 41.1709C83.6982 40.6543 84.1331 39.614 83.8344 37.9087L83.8297 37.8776L83.6572 37.3594L84.5913 36.5676L84.6318 36.4764C84.7492 36.2143 84.8019 35.9495 84.7317 35.63C84.6691 35.3503 84.5154 35.0523 84.3039 34.7007L82.8987 32.1352L81.0508 33.3286ZM79.4254 34.6674L78.8443 33.777L79.842 33.005L80.7637 34.5553L82.5831 33.3787L83.1324 34.3814L81.495 35.5484L81.9995 36.2608L83.5451 35.1353C83.6647 35.3334 83.7434 35.4808 83.797 35.5957C83.8417 35.6895 83.8675 35.7614 83.8805 35.8204C83.8961 35.8916 83.8953 35.9514 83.869 36.0351L82.644 37.0752L82.9803 38.0922C83.2328 39.5753 82.8179 40.1809 82.4205 40.4355C81.9588 40.73 81.3249 40.6978 80.9809 40.5781L80.3664 40.3644L80.4032 41.0151C80.4733 42.2701 79.7854 42.9644 79.1564 43.1567C78.1972 43.326 77.5162 43.1332 77.0464 42.856C76.79 42.7065 76.5871 42.5265 76.4315 42.3532C76.292 42.1964 76.1896 42.0456 76.1193 41.9244L75.8719 41.4985L75.4785 41.7944L75.3367 41.9162L75.3074 41.9432L75.1768 42.0504L75.1117 42.1023C74.9673 42.2103 74.8073 42.2983 74.634 42.3307L74.5583 42.3375L74.5175 42.3346C74.4462 42.3262 74.3937 42.2952 74.3422 42.2489C74.2937 42.2079 74.2495 42.1552 74.2026 42.0921L74.1588 42.0326L74.068 41.9117L73.8661 41.5693L75.2625 40.5737L74.7544 39.8628L73.4192 40.8148L72.8987 39.939L74.2207 38.9313L73.2145 37.317L74.216 36.5402L74.9923 37.6716L79.4254 34.6674Z" fill="black"/>
<path d="M64.3736 202.872C61.1087 205.238 57.4296 206.351 54.1336 206.257C50.8382 206.162 47.9536 204.866 46.1981 202.444C44.4426 200.021 44.109 196.876 45.0455 193.715C45.9822 190.554 48.1852 187.404 51.4501 185.038C54.715 182.672 58.3941 181.559 61.6901 181.654C64.9855 181.748 67.8701 183.044 69.6256 185.467C71.3811 187.89 71.7147 191.034 70.7782 194.195C69.8415 197.357 67.6385 200.507 64.3736 202.872Z" stroke="black"/>
<path d="M46.3304 202.823C53.761 213.077 60.6774 211.856 67.3703 207.006C74.0633 202.156 77.4084 194.045 69.6355 185.935" stroke="black" stroke-linecap="round"/>
<path d="M69.6166 196.371L73.476 199.735" stroke="black"/>
<path d="M65.4604 201.758L69.3198 205.122" stroke="black"/>
<path d="M59.1031 205.411L62.877 209.311" stroke="black"/>
<path fill-rule="evenodd" clip-rule="evenodd" d="M60.8812 193.308C60.9213 193.51 60.9235 193.721 60.8885 193.926C60.8519 194.132 60.7801 194.336 60.7078 194.531L60.4707 195.186L60.2301 195.844L60.2148 195.88L60.1902 195.908C60.1614 195.924 60.1277 195.917 60.0977 195.911C59.5184 195.736 58.9552 195.538 58.3992 195.313C58.1446 195.212 57.8932 195.105 57.6412 194.989L57.4613 194.966C57.5037 194.856 57.5517 194.752 57.5997 194.647L57.7244 194.363L57.8978 194.015C58.0308 193.753 58.1748 193.499 58.3297 193.252C58.3954 193.15 58.4644 193.047 58.5389 192.946L58.6248 192.833C58.8417 192.568 59.0997 192.347 59.4259 192.271C59.8532 192.16 60.3231 192.349 60.5954 192.688C60.7411 192.87 60.8363 193.085 60.8812 193.308ZM59.8303 194.023L59.7685 194.189L59.5852 194.692C59.3277 194.601 59.0734 194.505 58.8208 194.407C58.8945 194.265 58.9722 194.13 59.0532 193.993L59.177 193.782L59.3087 193.584C59.3766 193.491 59.4402 193.413 59.4995 193.352C59.5938 193.261 59.642 193.247 59.6541 193.245C59.6746 193.237 59.6921 193.236 59.7207 193.247L59.7732 193.275L59.8157 193.314C59.8423 193.348 59.8677 193.392 59.8846 193.441L59.9046 193.511C59.9108 193.557 59.9156 193.608 59.9137 193.663L59.9049 193.749C59.8905 193.83 59.8673 193.911 59.8303 194.023Z" fill="black"/>
<path fill-rule="evenodd" clip-rule="evenodd" d="M54.3789 193.178C54.6046 192.682 54.8439 192.179 55.2669 191.849C55.4892 191.675 55.7785 191.567 56.0597 191.558C56.3114 191.553 56.5554 191.624 56.7371 191.794L56.8177 191.883L56.8787 191.965L56.9498 192.1C57.0308 192.283 57.0608 192.491 57.0537 192.694C57.0379 193.014 56.9334 193.313 56.8291 193.617L56.8205 193.649L56.6425 194.153L56.5599 194.382L56.5408 194.442C56.5281 194.463 56.5134 194.481 56.4911 194.489C56.4455 194.515 56.3918 194.497 56.3399 194.477L55.4767 194.15L54.325 193.71L54.2149 193.625C54.2387 193.525 54.2731 193.429 54.311 193.33L54.3789 193.178ZM55.9778 192.584L56.0518 192.564L56.0551 192.648C56.0514 192.731 56.0336 192.814 56.005 192.92L55.9001 193.243L55.5276 193.101C55.5701 193.023 55.6114 192.954 55.6533 192.893C55.7272 192.783 55.7993 192.701 55.8794 192.636L55.9116 192.618C55.9299 192.603 55.9538 192.594 55.9778 192.584Z" fill="black"/>
<path fill-rule="evenodd" clip-rule="evenodd" d="M51.2588 194.903L50.3398 196.854L53.6607 197.95L54.1095 196.883L57.9635 198.434L57.36 199.955L60.602 201.019L61.4896 199.041L63.2724 199.645L64.8086 196.403L64.8186 196.366L64.8514 196.27L64.9055 196.122C64.9459 196.008 64.9913 195.86 65.0109 195.691C65.058 195.339 64.9922 194.912 64.6266 194.537C64.3377 194.244 63.9918 194.078 63.72 193.982L63.6914 193.972C63.8118 193.587 63.8997 193.098 63.8648 192.546C63.8436 192.193 63.7741 191.822 63.6338 191.439C63.4266 190.873 63.0674 190.282 62.4986 189.699C61.621 188.956 60.2519 188.714 58.8998 189.454C58.6318 188.954 58.1761 188.419 57.5276 188.14C56.5195 187.702 55.2537 187.955 53.8259 189.33L53.7993 189.354L53.4178 189.849L52.0684 189.469L51.9559 189.489C51.632 189.545 51.3469 189.665 51.0884 189.936C50.8629 190.174 50.6784 190.511 50.4799 190.937L48.9435 193.912L51.2588 194.903ZM53.5698 195.589L53.0963 196.711L51.7251 196.257L52.6071 194.39L50.326 193.416L50.9265 192.253L53.082 193.061L53.4354 192.126L51.378 191.379C51.4896 191.139 51.5792 190.97 51.654 190.845C51.7143 190.743 51.7661 190.672 51.8138 190.622C51.8715 190.562 51.9287 190.524 52.025 190.496L53.7962 190.993L54.5465 190.023C55.793 188.834 56.6334 188.841 57.1293 189.055C57.7043 189.305 58.0794 189.927 58.1859 190.331L58.3761 191.051L58.9703 190.599C60.1169 189.73 61.2162 189.939 61.8012 190.413C62.5756 191.215 62.8284 191.985 62.8658 192.608C62.8879 192.947 62.8468 193.255 62.7819 193.514C62.7223 193.747 62.6447 193.94 62.5746 194.084L62.3286 194.592L62.8611 194.776L63.0675 194.833L63.1119 194.843L63.2973 194.899L63.3882 194.927C63.5831 194.995 63.7691 195.091 63.9107 195.235L63.9655 195.302L63.9889 195.343C64.0266 195.416 64.0308 195.485 64.0197 195.564C64.0118 195.636 63.9901 195.712 63.9602 195.797L63.9317 195.876L63.875 196.04L63.6792 196.451L61.8405 195.762L61.4908 196.699L63.2489 197.358L62.7504 198.412L60.9479 197.802L60.0592 199.79L58.6809 199.336L59.2583 197.876L53.5698 195.589Z" fill="black"/>
<path d="M720.28 194.232C717.302 191.515 715.466 188.137 714.891 184.891C714.315 181.645 715 178.557 717.016 176.347C719.033 174.137 722.045 173.173 725.33 173.449C728.615 173.725 732.146 175.244 735.125 177.962C738.103 180.68 739.939 184.057 740.514 187.303C741.09 190.55 740.405 193.637 738.389 195.847C736.372 198.057 733.361 199.021 730.075 198.745C726.79 198.469 723.259 196.95 720.28 194.232Z" stroke="black"/>
<path d="M716.67 176.552C708.135 185.907 710.732 192.432 716.838 198.003C722.944 203.574 731.564 205.206 737.931 195.95" stroke="black" stroke-linecap="round"/>
<path d="M727.706 198.048L725.194 202.509" stroke="black"/>
<path d="M721.593 195.068L719.081 199.529" stroke="black"/>
<path d="M716.724 189.588L713.67 194.074" stroke="black"/>
<path fill-rule="evenodd" clip-rule="evenodd" d="M726.01 189.997C725.821 189.913 725.648 189.793 725.5 189.646C725.353 189.498 725.228 189.322 725.11 189.15L724.71 188.579L724.312 188.003L724.291 187.97L724.283 187.934C724.286 187.901 724.311 187.877 724.333 187.856C724.81 187.483 725.296 187.137 725.8 186.812C726.03 186.662 726.262 186.519 726.502 186.38L726.624 186.246C726.69 186.344 726.748 186.443 726.805 186.543L726.966 186.808L727.15 187.15C727.287 187.41 727.413 187.674 727.525 187.943C727.57 188.055 727.615 188.171 727.655 188.29L727.697 188.426C727.789 188.756 727.821 189.094 727.695 189.404C727.54 189.818 727.115 190.093 726.681 190.12C726.448 190.134 726.217 190.088 726.01 189.997ZM726.031 188.726L725.93 188.579L725.625 188.14C725.847 187.981 726.073 187.829 726.298 187.679C726.372 187.821 726.437 187.962 726.503 188.108L726.604 188.331L726.69 188.552C726.727 188.661 726.753 188.758 726.769 188.842C726.789 188.971 726.773 189.019 726.768 189.03C726.762 189.051 726.753 189.066 726.728 189.083L726.674 189.11L726.618 189.122C726.575 189.124 726.524 189.12 726.475 189.105L726.406 189.081C726.365 189.06 726.32 189.034 726.276 189.001L726.211 188.944C726.153 188.886 726.101 188.82 726.031 188.726Z" fill="black"/>
<path fill-rule="evenodd" clip-rule="evenodd" d="M729.862 184.757C730.137 185.227 730.411 185.712 730.437 186.248C730.45 186.53 730.372 186.829 730.217 187.064C730.077 187.273 729.878 187.431 729.634 187.482L729.515 187.496L729.413 187.499L729.262 187.479C729.065 187.44 728.878 187.344 728.717 187.222C728.464 187.024 728.279 186.766 728.091 186.506L728.07 186.481L727.76 186.045L727.621 185.846L727.583 185.795C727.573 185.773 727.567 185.751 727.573 185.728C727.578 185.675 727.624 185.642 727.67 185.611L728.435 185.094L729.458 184.406L729.591 184.365C729.659 184.442 729.718 184.526 729.777 184.614L729.862 184.757ZM729.426 186.406L729.4 186.478L729.329 186.432C729.263 186.381 729.206 186.319 729.136 186.234L728.933 185.963L729.263 185.74C729.303 185.82 729.335 185.893 729.36 185.962C729.408 186.086 729.434 186.193 729.44 186.295L729.437 186.332C729.438 186.356 729.432 186.381 729.426 186.406Z" fill="black"/>
<path fill-rule="evenodd" clip-rule="evenodd" d="M730.25 181.213L729.184 179.337L726.375 181.42L726.989 182.402L723.501 184.658L722.605 183.289L719.867 185.325L720.973 187.19L719.452 188.3L721.217 191.423L721.241 191.453L721.301 191.535L721.391 191.664C721.46 191.763 721.555 191.885 721.682 191.999C721.943 192.24 722.329 192.432 722.847 192.349C723.253 192.282 723.588 192.095 723.822 191.928L723.847 191.911C724.093 192.231 724.441 192.584 724.913 192.874C725.214 193.06 725.557 193.217 725.951 193.323C726.533 193.48 727.223 193.527 728.027 193.398C729.14 193.108 730.127 192.129 730.301 190.597C730.863 190.666 731.564 190.602 732.166 190.233C733.104 189.661 733.627 188.481 733.326 186.522L733.321 186.486L733.136 185.889L734.224 185.005L734.273 184.902C734.414 184.605 734.48 184.303 734.408 183.935C734.343 183.614 734.174 183.269 733.94 182.861L732.394 179.891L730.25 181.213ZM728.357 182.706L727.714 181.673L728.874 180.813L729.892 182.61L732.002 181.307L732.607 182.468L730.705 183.764L731.265 184.592L733.061 183.341C733.194 183.57 733.28 183.741 733.339 183.874C733.388 183.982 733.415 184.065 733.429 184.133C733.445 184.215 733.443 184.283 733.41 184.378L731.983 185.539L732.344 186.711C732.597 188.415 732.108 189.098 731.647 189.38C731.111 189.706 730.387 189.654 729.996 189.509L729.298 189.249L729.324 189.995C729.374 191.433 728.57 192.211 727.845 192.416C726.743 192.587 725.969 192.35 725.438 192.022C725.148 191.844 724.92 191.633 724.746 191.431C724.59 191.248 724.476 191.073 724.399 190.933L724.126 190.44L723.669 190.769L723.503 190.905L723.469 190.935L723.317 191.055L723.241 191.112C723.073 191.233 722.888 191.329 722.689 191.362L722.602 191.368L722.556 191.364C722.474 191.353 722.415 191.316 722.357 191.262C722.303 191.214 722.253 191.152 722.201 191.079L722.152 191.01L722.051 190.869L721.828 190.472L723.451 189.366L722.886 188.541L721.335 189.598L720.76 188.583L722.298 187.461L721.185 185.59L722.35 184.725L723.211 186.038L728.357 182.706Z" fill="black"/>
</g>
<defs>
<clipPath id="clip0_2859_144831">
<rect width="767" height="517" fill="white"/>
</clipPath>
</defs>
</svg>
