<svg width="688" height="480" viewBox="0 0 688 480" fill="none" xmlns="http://www.w3.org/2000/svg">
<path d="M105.358 367.564C102.955 369.434 100.552 371.305 98.149 373.175" stroke="white" stroke-width="2"/>
<path d="M98.1488 366.762C100.819 369.167 106.159 373.976 106.159 373.976" stroke="white" stroke-width="2"/>
<rect x="543.288" y="102.345" width="422.101" height="27.3454" transform="rotate(180 543.288 102.345)" fill="white"/>
<ellipse cx="130.702" cy="88.6256" rx="3.20395" ry="3.20619" fill="#D84710"/>
<ellipse cx="153.129" cy="88.6256" rx="3.20395" ry="3.20619" fill="#80BC00"/>
<ellipse cx="141.915" cy="88.6256" rx="3.20395" ry="3.20619" fill="#F4BD15"/>
<path fill-rule="evenodd" clip-rule="evenodd" d="M223.557 179.473L142.375 181.688L144.173 284.819L260.749 282.783L257.914 207.174L223.557 179.473Z" fill="#80BC00" style="mix-blend-mode:multiply"/>
<rect width="65.9094" height="18.2303" transform="matrix(-1 0 0 1 371.503 293.061)" fill="white"/>
<rect width="65.9094" height="18.2303" transform="matrix(-1 0 0 1 389.032 311.291)" fill="white"/>
<rect width="65.9094" height="18.2303" transform="matrix(-1 0 0 1 407.262 329.521)" fill="white"/>
<rect width="65.9094" height="18.2303" transform="matrix(-1 0 0 1 424.792 347.751)" fill="white"/>
<rect width="65.9094" height="18.2303" transform="matrix(-1 0 0 1 442.321 365.981)" fill="white"/>
<rect width="65.9094" height="18.2303" transform="matrix(-1 0 0 1 459.85 384.211)" fill="white"/>
<path fill-rule="evenodd" clip-rule="evenodd" d="M306.309 293.061H288.065V402.442H424.792" fill="#F5EFE9" style="mix-blend-mode:multiply"/>
<path fill-rule="evenodd" clip-rule="evenodd" d="M223.557 179.471L226.362 207.518L257.914 207.173L223.557 179.471Z" fill="#9ACA33"/>
<path fill-rule="evenodd" clip-rule="evenodd" d="M596.577 303.639L390.379 221.717L375.267 259.106L581.465 341.027L596.577 303.639Z" fill="#FF7A34" style="mix-blend-mode:multiply"/>
<path d="M589.483 306.003C587.487 306.666 585.491 307.329 583.496 307.991" stroke="white" stroke-width="2"/>
<path d="M585.436 304.043C586.142 306.439 587.556 310.431 587.556 310.431" stroke="white" stroke-width="2"/>
<path fill-rule="evenodd" clip-rule="evenodd" d="M487.968 396.728L478.36 401.004V403.142H494.374V396.728H487.968Z" fill="#FF7A34"/>
<path fill-rule="evenodd" clip-rule="evenodd" d="M523.083 382.399L528.855 391L530.921 390.634L528.189 375.081L521.99 376.178L523.083 382.399Z" fill="#FF7A34"/>
<path fill-rule="evenodd" clip-rule="evenodd" d="M487.979 396.729L490.115 343.011L510.398 346.173L494.385 396.729H487.979Z" fill="#252525"/>
<path fill-rule="evenodd" clip-rule="evenodd" d="M523.563 382.297L498.525 378.118L489.935 343.414L511.879 343.011L507.706 369.759L522.729 376.446L523.563 382.297Z" fill="#515151"/>
<path fill-rule="evenodd" clip-rule="evenodd" d="M507.214 345.2L486.863 347.02L482.687 315.332C482.687 315.332 473.278 313.54 467.217 310.231C461.156 306.921 457.166 300.28 457.166 300.28L464.432 295.263C464.432 295.263 469.491 299.488 474.73 301.6C479.969 303.713 505.575 303.713 505.575 303.713C505.575 303.713 512.407 299.647 515.596 294.206C518.786 288.765 517.692 280.475 517.692 280.475H529.219C529.219 280.475 529.404 291.701 525.027 299.488C520.65 307.274 512.067 313.747 512.067 313.747L515.596 342.795L507.214 345.2Z" fill="#F4BD15"/>
<path fill-rule="evenodd" clip-rule="evenodd" d="M463.472 296.1L461.341 292.334L455.298 290.253L454.864 292.4L459.314 298.915L463.472 296.1Z" fill="#FFD7C2"/>
<path fill-rule="evenodd" clip-rule="evenodd" d="M520.419 280.575V272.972L522.478 272.516V268.306L524.73 267.747L527.426 271.863L527.625 278.216L525.566 280.575H520.419Z" fill="#FFD7C2"/>
<path fill-rule="evenodd" clip-rule="evenodd" d="M498.114 301.62H497.085V303.725H491.938L490.908 301.62C488.634 301.62 486.791 299.777 486.791 297.503V286.888H491.938V294.254H501.203L498.114 301.62Z" fill="#FFD7C2"/>
<path fill-rule="evenodd" clip-rule="evenodd" d="M500.136 302.122H494.798L491.595 294.639V287.156H485.19V281.811C485.19 281.811 489.46 279.673 493.73 279.673C498 279.673 500.121 280.089 502.271 281.811C504.421 283.533 504.406 281.397 504.406 288.225C504.406 295.053 500.136 302.122 500.136 302.122Z" fill="#252525"/>
<path d="M357.803 164.56L254.588 194.295L244.043 180.633L238.486 182.226L239.655 186.301" stroke="#252525" stroke-width="2" stroke-linejoin="round"/>
<rect width="22.4548" height="8.02444" rx="2" transform="matrix(0.275637 0.961262 0.961262 -0.275637 235.665 187.54)" stroke="#252525" stroke-width="2" stroke-linejoin="round"/>
<path fill-rule="evenodd" clip-rule="evenodd" d="M321.627 287.344L312.004 291.624V293.764H328.043V287.344H321.627Z" fill="#252525"/>
<path fill-rule="evenodd" clip-rule="evenodd" d="M336.966 287.344L327.342 291.624V293.764H343.381V287.344H336.966Z" fill="#252525"/>
<path fill-rule="evenodd" clip-rule="evenodd" d="M321.684 287.344L323.822 232.778L342.534 234.385L328.099 287.344H321.684Z" fill="#386F77"/>
<path fill-rule="evenodd" clip-rule="evenodd" d="M337.134 287.344L323.572 233.379L343.621 229.568L343.393 287.344H337.134Z" fill="#608C93"/>
<path fill-rule="evenodd" clip-rule="evenodd" d="M319.194 238.395L316.4 205.287C316.4 205.287 305.966 203.935 299.867 200.606C293.768 197.278 289.41 190.424 289.41 190.424L298.063 184.041C298.063 184.041 302.281 189.353 307.553 191.477C312.825 193.602 338.018 193.602 338.018 193.602C338.018 193.602 345.464 188.719 348.674 183.247C351.883 177.774 350.782 169.385 350.782 169.385H362.381C362.381 169.385 362.567 181.522 358.163 189.353C353.759 197.184 344.379 203.89 344.379 203.89L348.674 232.906L319.194 238.395Z" fill="#F4C8B7"/>
<path fill-rule="evenodd" clip-rule="evenodd" d="M295.825 186.198L295.104 178.62H292.732L288.064 180.876L288.608 187.281L291.701 189.446L295.825 186.198Z" fill="#FFD7C2"/>
<path fill-rule="evenodd" clip-rule="evenodd" d="M354.118 169.385L353.566 162.055L355.693 160.442V157.216L358.567 156.545L362.128 160.442L362.387 167.092L359.47 169.385H354.118Z" fill="#FFD7C2"/>
<path fill-rule="evenodd" clip-rule="evenodd" d="M331.756 191.352H330.668V193.458H325.226L324.137 191.352C321.733 191.352 319.784 189.403 319.784 186.998V176.607H325.226V183.979H335.021L331.756 191.352Z" fill="#FFD7C2"/>
<path fill-rule="evenodd" clip-rule="evenodd" d="M333.25 191.854H327.903L324.696 184.364V176.875H318.28V171.525C318.28 171.525 322.557 169.385 326.834 169.385C331.111 169.385 333.235 169.801 335.388 171.525C337.542 173.249 337.527 171.111 337.527 177.945C337.527 184.778 333.25 191.854 333.25 191.854Z" fill="#252525"/>
<path d="M189.201 260.193V272.025L156.947 272.726V260.105L185.975 259.404" stroke="white" stroke-width="2"/>
<mask id="mask0_2403_32306" style="mask-type:luminance" maskUnits="userSpaceOnUse" x="547" y="77" width="101" height="79">
<path d="M628.754 77L547.875 116.183L566.895 155.442L647.773 116.259L628.754 77Z" fill="white"/>
</mask>
<g mask="url(#mask0_2403_32306)">
<path d="M630.283 84.618C626.94 82.5608 622.678 82.0674 618.961 83.3182C615.244 84.569 612.144 87.5288 610.727 91.1892C609.825 93.5125 609.604 96.1969 610.618 98.4747C611.632 100.752 614.048 102.479 616.527 102.224C620.439 101.825 622.429 96.4679 620.378 93.1065C618.328 89.7451 613.638 88.7109 609.918 89.9823C606.198 91.2536 603.365 94.3403 601.302 97.6864C598.06 102.953 596.33 109.137 596.376 115.331C596.39 117.511 596.643 119.761 597.697 121.674C598.747 123.589 600.748 125.107 602.929 125.055C606.662 124.96 608.889 120.185 607.6 116.678C606.308 113.167 602.726 111.014 599.152 109.932C593.303 108.168 586.821 108.596 581.266 111.121C575.711 113.647 571.121 118.243 568.606 123.81C564.513 132.865 566.019 143.352 567.598 153.171" stroke="black" stroke-miterlimit="10" stroke-linecap="round" stroke-linejoin="round"/>
</g>
<path d="M646.875 354.999C644.422 361.906 633.188 375.572 607.875 374.98" stroke="black"/>
<path d="M588.593 224.665C585.328 227.031 581.649 228.144 578.353 228.05C575.058 227.955 572.173 226.659 570.418 224.236C568.662 221.814 568.329 218.669 569.265 215.508C570.202 212.347 572.405 209.197 575.67 206.831C578.935 204.465 582.614 203.352 585.91 203.447C589.205 203.541 592.09 204.837 593.845 207.26C595.601 209.683 595.934 212.827 594.998 215.988C594.061 219.15 591.858 222.3 588.593 224.665Z" stroke="black"/>
<path d="M570.55 224.615C577.981 234.87 584.897 233.649 591.59 228.799C598.283 223.949 601.628 215.838 593.855 207.728" stroke="black" stroke-linecap="round"/>
<path d="M593.836 218.164L597.696 221.528" stroke="black"/>
<path d="M589.68 223.551L593.54 226.915" stroke="black"/>
<path d="M583.323 227.204L587.097 231.104" stroke="black"/>
<path fill-rule="evenodd" clip-rule="evenodd" d="M585.101 215.101C585.141 215.303 585.143 215.514 585.108 215.719C585.072 215.925 585 216.129 584.928 216.324L584.69 216.979L584.45 217.637L584.435 217.673L584.41 217.701C584.381 217.717 584.347 217.71 584.317 217.704C583.738 217.529 583.175 217.331 582.619 217.106C582.364 217.005 582.113 216.898 581.861 216.782L581.681 216.759C581.723 216.649 581.771 216.545 581.819 216.44L581.944 216.156L582.117 215.808C582.251 215.546 582.395 215.292 582.549 215.045C582.615 214.943 582.684 214.84 582.759 214.739L582.845 214.626C583.061 214.361 583.319 214.14 583.646 214.064C584.073 213.953 584.543 214.142 584.815 214.481C584.961 214.663 585.056 214.878 585.101 215.101ZM584.05 215.815L583.988 215.982L583.805 216.485C583.547 216.394 583.293 216.298 583.041 216.2C583.114 216.058 583.192 215.923 583.273 215.786L583.397 215.575L583.528 215.377C583.596 215.284 583.66 215.206 583.719 215.145C583.814 215.054 583.862 215.04 583.874 215.038C583.894 215.03 583.912 215.029 583.94 215.04L583.993 215.068L584.035 215.107C584.062 215.141 584.087 215.185 584.104 215.234L584.124 215.304C584.131 215.35 584.135 215.401 584.133 215.456L584.125 215.542C584.11 215.623 584.087 215.704 584.05 215.815Z" fill="black"/>
<path fill-rule="evenodd" clip-rule="evenodd" d="M578.599 214.971C578.824 214.475 579.064 213.972 579.487 213.642C579.709 213.468 579.998 213.36 580.279 213.351C580.531 213.346 580.775 213.417 580.957 213.587L581.037 213.676L581.098 213.758L581.169 213.893C581.25 214.076 581.28 214.284 581.273 214.487C581.258 214.807 581.153 215.106 581.049 215.41L581.04 215.442L580.862 215.946L580.78 216.175L580.761 216.235C580.748 216.256 580.733 216.274 580.711 216.282C580.665 216.308 580.612 216.29 580.56 216.27L579.696 215.943L578.545 215.503L578.435 215.418C578.458 215.318 578.493 215.222 578.531 215.123L578.599 214.971ZM580.198 214.377L580.272 214.357L580.275 214.441C580.271 214.524 580.253 214.607 580.225 214.713L580.12 215.035L579.747 214.894C579.79 214.816 579.831 214.747 579.873 214.686C579.947 214.576 580.019 214.494 580.099 214.429L580.131 214.411C580.15 214.396 580.174 214.386 580.198 214.377Z" fill="black"/>
<path fill-rule="evenodd" clip-rule="evenodd" d="M575.478 216.696L574.56 218.647L577.88 219.743L578.329 218.676L582.183 220.227L581.58 221.748L584.822 222.812L585.709 220.834L587.492 221.438L589.028 218.196L589.038 218.159L589.071 218.063L589.125 217.915C589.166 217.801 589.211 217.653 589.231 217.484C589.278 217.132 589.212 216.705 588.846 216.33C588.557 216.037 588.212 215.871 587.94 215.775L587.911 215.765C588.032 215.38 588.119 214.891 588.085 214.339C588.063 213.986 587.994 213.615 587.854 213.232C587.646 212.666 587.287 212.075 586.718 211.492C585.841 210.749 584.472 210.507 583.12 211.247C582.852 210.747 582.396 210.212 581.747 209.933C580.739 209.495 579.473 209.748 578.046 211.123L578.019 211.147L577.638 211.642L576.288 211.262L576.176 211.282C575.852 211.338 575.567 211.458 575.308 211.729C575.083 211.967 574.898 212.304 574.7 212.73L573.163 215.705L575.478 216.696ZM577.79 217.382L577.316 218.504L575.945 218.05L576.827 216.183L574.546 215.209L575.146 214.046L577.302 214.854L577.655 213.919L575.598 213.172C575.709 212.931 575.799 212.762 575.874 212.638C575.934 212.536 575.986 212.465 576.034 212.415C576.091 212.355 576.148 212.317 576.245 212.289L578.016 212.786L578.766 211.816C580.013 210.627 580.853 210.634 581.349 210.848C581.924 211.098 582.299 211.72 582.406 212.124L582.596 212.844L583.19 212.392C584.337 211.523 585.436 211.732 586.021 212.206C586.795 213.008 587.048 213.778 587.085 214.401C587.108 214.74 587.067 215.048 587.002 215.307C586.942 215.54 586.864 215.733 586.794 215.877L586.548 216.385L587.081 216.569L587.287 216.626L587.332 216.636L587.517 216.692L587.608 216.72C587.803 216.788 587.989 216.884 588.13 217.028L588.185 217.095L588.209 217.136C588.246 217.209 588.25 217.278 588.239 217.357C588.232 217.429 588.21 217.505 588.18 217.59L588.151 217.669L588.095 217.833L587.899 218.244L586.06 217.555L585.71 218.492L587.469 219.151L586.97 220.205L585.168 219.595L584.279 221.583L582.901 221.129L583.478 219.668L577.79 217.382Z" fill="black"/>
<path fill-rule="evenodd" clip-rule="evenodd" d="M87.5711 384.621C89.6937 388.584 93.524 392.215 98.5946 394.5C103.665 396.785 108.922 397.251 113.297 396.216C117.671 395.182 121.089 392.677 122.719 389.06C124.35 385.443 123.962 381.223 121.84 377.261C119.718 373.298 115.888 369.667 110.817 367.382C105.746 365.097 100.49 364.631 96.1141 365.666C91.7406 366.701 88.3225 369.205 86.6921 372.822C85.0618 376.44 85.4494 380.659 87.5711 384.621ZM85.4023 372.241C81.7062 380.442 87.3523 390.985 98.0133 395.79C108.674 400.595 120.313 397.842 124.009 389.641C127.705 381.441 122.059 370.897 111.398 366.092C100.737 361.287 89.0985 364.04 85.4023 372.241Z" fill="black"/>
<path fill-rule="evenodd" clip-rule="evenodd" d="M111.155 402.556C115.868 400.939 119.928 396.934 122.121 389.486C122.231 389.111 122.625 388.897 122.999 389.007C123.374 389.118 123.589 389.511 123.478 389.886C121.182 397.684 116.842 402.101 111.613 403.894C106.42 405.675 100.485 404.82 95.0491 402.37C89.659 399.941 85.2105 396.736 83.1028 391.948C80.9874 387.143 81.3082 380.928 85.0328 372.664C85.1933 372.308 85.6122 372.149 85.9683 372.31C86.3245 372.47 86.4831 372.889 86.3226 373.245C82.6854 381.315 82.5068 387.083 84.3976 391.378C86.2961 395.691 90.3596 398.705 95.6304 401.08C100.855 403.435 106.406 404.184 111.155 402.556Z" fill="black"/>
<path fill-rule="evenodd" clip-rule="evenodd" d="M107.859 403.974L109.274 396.87L110.662 397.147L109.246 404.25L107.859 403.974Z" fill="black"/>
<path fill-rule="evenodd" clip-rule="evenodd" d="M98.3311 402.659L99.7463 395.555L101.134 395.831L99.7186 402.935L98.3311 402.659Z" fill="black"/>
<path fill-rule="evenodd" clip-rule="evenodd" d="M88.6667 397.643L90.7999 390.267L92.159 390.66L90.0258 398.036L88.6667 397.643Z" fill="black"/>
<path fill-rule="evenodd" clip-rule="evenodd" d="M102.321 386.205C102.052 386.092 101.803 385.928 101.59 385.724C101.377 385.518 101.195 385.273 101.023 385.034L100.441 384.237L99.8602 383.435L99.8302 383.389L99.8171 383.338C99.8203 383.291 99.8559 383.258 99.8858 383.226C100.549 382.685 101.227 382.181 101.93 381.707C102.25 381.488 102.575 381.278 102.911 381.074L103.079 380.881C103.175 381.018 103.259 381.157 103.344 381.295L103.579 381.666L103.85 382.145C104.052 382.508 104.237 382.878 104.404 383.255C104.471 383.412 104.537 383.575 104.597 383.743L104.662 383.933C104.801 384.397 104.857 384.874 104.687 385.317C104.48 385.906 103.887 386.308 103.274 386.359C102.946 386.386 102.617 386.328 102.321 386.205ZM102.313 384.406L102.167 384.202L101.722 383.59C102.032 383.359 102.346 383.137 102.661 382.918C102.769 383.117 102.866 383.315 102.962 383.518L103.112 383.83L103.24 384.141C103.296 384.295 103.336 384.43 103.361 384.548C103.393 384.731 103.372 384.799 103.365 384.815C103.357 384.845 103.345 384.866 103.31 384.891L103.235 384.93L103.156 384.95C103.095 384.954 103.023 384.949 102.953 384.93L102.855 384.898C102.796 384.869 102.732 384.834 102.669 384.788L102.575 384.71C102.492 384.629 102.415 384.538 102.313 384.406Z" fill="black"/>
<path fill-rule="evenodd" clip-rule="evenodd" d="M107.614 378.679C108.017 379.335 108.419 380.014 108.472 380.771C108.499 381.169 108.398 381.594 108.186 381.931C107.993 382.231 107.717 382.461 107.374 382.54L107.206 382.564L107.061 382.571L106.847 382.547C106.568 382.497 106.3 382.368 106.068 382.2C105.704 381.928 105.436 381.568 105.162 381.206L105.131 381.17L104.68 380.563L104.478 380.286L104.422 380.215C104.407 380.184 104.398 380.153 104.406 380.12C104.411 380.046 104.476 379.997 104.54 379.952L105.606 379.198L107.033 378.195L107.22 378.133C107.318 378.24 107.404 378.356 107.49 378.479L107.614 378.679ZM107.047 381.024L107.012 381.127L106.911 381.064C106.816 380.994 106.734 380.908 106.631 380.79L106.336 380.412L106.796 380.087C106.855 380.199 106.903 380.302 106.941 380.399C107.012 380.573 107.051 380.722 107.063 380.867L107.06 380.92C107.063 380.953 107.055 380.988 107.047 381.024Z" fill="black"/>
<path fill-rule="evenodd" clip-rule="evenodd" d="M108.058 373.654L106.495 371.033L102.584 374.063L103.48 375.433L98.6143 378.728L97.3069 376.817L93.4944 379.779L95.1136 382.385L92.9959 383.999L95.584 388.365L95.6199 388.406L95.7061 388.52L95.8376 388.701C95.9388 388.838 96.0766 389.008 96.2595 389.165C96.6352 389.499 97.1877 389.759 97.9171 389.626C98.4896 389.52 98.9574 389.245 99.2846 389.001L99.3196 388.976C99.6764 389.422 100.18 389.911 100.856 390.307C101.287 390.562 101.776 390.773 102.337 390.912C103.165 391.116 104.142 391.162 105.276 390.956C106.841 390.513 108.208 389.099 108.409 386.927C109.207 387.008 110.195 386.896 111.036 386.357C112.346 385.52 113.05 383.835 112.567 381.073L112.559 381.022L112.28 380.183L113.793 378.901L113.858 378.753C114.048 378.328 114.134 377.899 114.02 377.382C113.919 376.929 113.67 376.446 113.327 375.877L111.051 371.721L108.058 373.654ZM105.425 375.823L104.484 374.381L106.1 373.13L107.593 375.641L110.54 373.736L111.43 375.36L108.777 377.25L109.595 378.404L112.098 376.581C112.292 376.902 112.419 377.14 112.506 377.326C112.579 377.478 112.62 377.595 112.641 377.69C112.667 377.806 112.665 377.903 112.623 378.038L110.639 379.723L111.183 381.37C111.592 383.772 110.92 384.753 110.277 385.165C109.529 385.642 108.502 385.59 107.945 385.396L106.95 385.05L107.009 386.104C107.123 388.137 106.008 389.261 104.99 389.573C103.436 389.847 102.333 389.535 101.572 389.086C101.157 388.844 100.828 388.552 100.576 388.271C100.35 388.017 100.184 387.773 100.071 387.577L99.6699 386.887L99.0327 387.366L98.8029 387.564L98.7556 387.607L98.5441 387.781L98.4385 387.865C98.2047 388.04 97.9455 388.183 97.6649 388.235L97.5422 388.246L97.4761 388.241C97.3607 388.228 97.2755 388.178 97.1921 388.102C97.1137 388.036 97.042 387.951 96.966 387.849L96.8952 387.752L96.7482 387.556L96.4211 387.002L98.6827 385.389L97.8598 384.238L95.6973 385.78L94.8542 384.361L96.9953 382.729L95.3657 380.114L96.9878 378.856L98.2452 380.689L105.425 375.823Z" fill="black"/>
</svg>
