<svg width="335" height="290" viewBox="0 0 335 290" fill="none" xmlns="http://www.w3.org/2000/svg">
<g clip-path="url(#clip0_2403_32382)">
<rect x="315.055" y="56.2153" width="294.755" height="19.0954" transform="rotate(180 315.055 56.2153)" fill="white"/>
<ellipse cx="26.9444" cy="46.6354" rx="2.23733" ry="2.23889" fill="#D84710"/>
<ellipse cx="42.6055" cy="46.6354" rx="2.23733" ry="2.23889" fill="#80BC00"/>
<ellipse cx="34.7744" cy="46.6354" rx="2.23733" ry="2.23889" fill="#F4BD15"/>
<path fill-rule="evenodd" clip-rule="evenodd" d="M80.573 110.074L23.883 111.621L25.1392 183.638L106.544 182.216L104.565 129.418L80.573 110.074Z" fill="#80BC00" style="mix-blend-mode:multiply"/>
<rect width="46.0248" height="12.7303" transform="matrix(-1 0 0 1 183.885 189.394)" fill="white"/>
<rect width="46.0248" height="12.7303" transform="matrix(-1 0 0 1 196.125 202.124)" fill="white"/>
<rect width="46.0248" height="12.7303" transform="matrix(-1 0 0 1 208.855 214.854)" fill="white"/>
<rect width="46.0248" height="12.7303" transform="matrix(-1 0 0 1 221.097 227.584)" fill="white"/>
<rect width="46.0248" height="12.7303" transform="matrix(-1 0 0 1 233.337 240.314)" fill="white"/>
<rect width="46.0248" height="12.7303" transform="matrix(-1 0 0 1 245.577 253.044)" fill="white"/>
<path fill-rule="evenodd" clip-rule="evenodd" d="M138.36 189.394H125.62V265.775H221.097" fill="#F5EFE9" style="mix-blend-mode:multiply"/>
<path fill-rule="evenodd" clip-rule="evenodd" d="M80.5738 110.074L82.5323 129.659L104.565 129.418L80.5738 110.074Z" fill="#9ACA33"/>
<path fill-rule="evenodd" clip-rule="evenodd" d="M341.055 196.78L197.066 139.574L186.513 165.683L330.502 222.889L341.055 196.78Z" fill="#FF7A34" style="mix-blend-mode:multiply"/>
<path d="M336.102 198.432C334.708 198.894 333.314 199.357 331.921 199.82" stroke="white" stroke-width="2"/>
<path d="M333.275 197.062C333.768 198.736 334.755 201.523 334.755 201.523" stroke="white" stroke-width="2"/>
<path fill-rule="evenodd" clip-rule="evenodd" d="M265.212 261.785L258.503 264.771V266.264H269.685V261.785H265.212Z" fill="#FF7A34"/>
<path fill-rule="evenodd" clip-rule="evenodd" d="M289.732 251.779L293.763 257.785L295.206 257.529L293.298 246.669L288.969 247.435L289.732 251.779Z" fill="#FF7A34"/>
<path fill-rule="evenodd" clip-rule="evenodd" d="M265.22 261.786L266.711 224.274L280.875 226.482L269.693 261.786H265.22Z" fill="#252525"/>
<path fill-rule="evenodd" clip-rule="evenodd" d="M290.069 251.708L272.584 248.789L266.586 224.555L281.909 224.274L278.995 242.953L289.486 247.622L290.069 251.708Z" fill="#515151"/>
<path fill-rule="evenodd" clip-rule="evenodd" d="M278.651 225.803L264.44 227.074L261.524 204.946C261.524 204.946 254.954 203.695 250.721 201.384C246.489 199.073 243.703 194.435 243.703 194.435L248.777 190.931C248.777 190.931 252.309 193.882 255.968 195.357C259.626 196.832 277.507 196.832 277.507 196.832C277.507 196.832 282.277 193.993 284.505 190.194C286.732 186.394 285.968 180.605 285.968 180.605H294.017C294.017 180.605 294.147 188.444 291.09 193.882C288.034 199.319 282.04 203.839 282.04 203.839L284.505 224.124L278.651 225.803Z" fill="#F4BD15"/>
<path fill-rule="evenodd" clip-rule="evenodd" d="M248.106 191.516L246.618 188.886L242.399 187.433L242.095 188.932L245.203 193.482L248.106 191.516Z" fill="#FFD7C2"/>
<path fill-rule="evenodd" clip-rule="evenodd" d="M287.872 180.675V175.366L289.31 175.048V172.107L290.882 171.717L292.765 174.592L292.904 179.028L291.466 180.675H287.872Z" fill="#FFD7C2"/>
<path fill-rule="evenodd" clip-rule="evenodd" d="M272.297 195.371H271.578V196.841H267.983L267.265 195.371C265.677 195.371 264.389 194.084 264.389 192.496V185.083H267.983V190.227H274.453L272.297 195.371Z" fill="#FFD7C2"/>
<path fill-rule="evenodd" clip-rule="evenodd" d="M273.709 195.721H269.981L267.745 190.496V185.27H263.272V181.538C263.272 181.538 266.254 180.045 269.236 180.045C272.218 180.045 273.698 180.335 275.199 181.538C276.701 182.741 276.69 181.249 276.69 186.017C276.69 190.785 273.709 195.721 273.709 195.721Z" fill="#252525"/>
<path d="M174.318 99.6609L102.243 120.425L94.879 110.884L90.999 111.997L91.815 114.843" stroke="#252525" stroke-linejoin="round"/>
<rect width="15.6803" height="5.60349" rx="2" transform="matrix(0.275637 0.961262 0.961262 -0.275637 89.0283 115.707)" stroke="#252525" stroke-linejoin="round"/>
<path fill-rule="evenodd" clip-rule="evenodd" d="M149.056 185.402L142.336 188.39V189.885H153.536V185.402H149.056Z" fill="#252525"/>
<path fill-rule="evenodd" clip-rule="evenodd" d="M159.767 185.402L153.047 188.39V189.885H164.247V185.402H159.767Z" fill="#252525"/>
<path fill-rule="evenodd" clip-rule="evenodd" d="M149.096 185.402L150.589 147.298L163.656 148.42L153.576 185.402H149.096Z" fill="#386F77"/>
<path fill-rule="evenodd" clip-rule="evenodd" d="M159.884 185.402L150.414 147.718L164.414 145.057L164.255 185.402H159.884Z" fill="#608C93"/>
<path fill-rule="evenodd" clip-rule="evenodd" d="M147.357 151.22L145.406 128.101C145.406 128.101 138.12 127.156 133.861 124.832C129.602 122.508 126.559 117.722 126.559 117.722L132.601 113.265C132.601 113.265 135.546 116.974 139.228 118.457C142.909 119.941 160.502 119.941 160.502 119.941C160.502 119.941 165.701 116.531 167.943 112.71C170.184 108.889 169.415 103.03 169.415 103.03H177.514C177.514 103.03 177.645 111.505 174.569 116.974C171.493 122.442 164.943 127.125 164.943 127.125L167.943 147.387L147.357 151.22Z" fill="#F4C8B7"/>
<path fill-rule="evenodd" clip-rule="evenodd" d="M131.038 114.77L130.535 109.478H128.878L125.619 111.054L125.998 115.526L128.158 117.038L131.038 114.77Z" fill="#FFD7C2"/>
<path fill-rule="evenodd" clip-rule="evenodd" d="M171.745 103.03L171.359 97.9112L172.845 96.7848V94.5322L174.852 94.064L177.339 96.7848L177.519 101.429L175.482 103.03H171.745Z" fill="#FFD7C2"/>
<path fill-rule="evenodd" clip-rule="evenodd" d="M156.129 118.37H155.369V119.841H151.569L150.809 118.37C149.13 118.37 147.769 117.009 147.769 115.33V108.073H151.569V113.221H158.409L156.129 118.37Z" fill="#FFD7C2"/>
<path fill-rule="evenodd" clip-rule="evenodd" d="M157.172 118.72H153.439L151.199 113.49V108.26H146.719V104.525C146.719 104.525 149.706 103.03 152.692 103.03C155.679 103.03 157.162 103.321 158.666 104.525C160.17 105.728 160.159 104.235 160.159 109.007C160.159 113.779 157.172 118.72 157.172 118.72Z" fill="#252525"/>
<path d="M56.582 166.442V174.704L34.0593 175.194V166.381L54.3298 165.891" stroke="white"/>
<mask id="mask0_2403_32382" style="mask-type:luminance" maskUnits="userSpaceOnUse" x="275" y="23" width="55" height="43">
<path d="M319.15 23L275.213 44.2862L285.546 65.6132L329.483 44.327L319.15 23Z" fill="white"/>
</mask>
<g mask="url(#mask0_2403_32382)">
<path d="M319.981 27.1385C318.165 26.021 315.85 25.7529 313.831 26.4324C311.812 27.1119 310.127 28.7198 309.357 30.7083C308.868 31.9704 308.747 33.4287 309.298 34.6661C309.849 35.9035 311.161 36.8414 312.508 36.703C314.634 36.4863 315.714 33.576 314.6 31.7499C313.486 29.9238 310.939 29.362 308.918 30.0526C306.897 30.7433 305.358 32.4202 304.237 34.2379C302.476 37.0991 301.537 40.4586 301.562 43.8232C301.569 45.0076 301.706 46.23 302.279 47.2691C302.849 48.3096 303.937 49.1342 305.121 49.1056C307.149 49.0541 308.359 46.46 307.659 44.5552C306.957 42.6476 305.011 41.478 303.069 40.8903C299.892 39.9319 296.371 40.1647 293.353 41.5364C290.335 42.9082 287.842 45.4051 286.475 48.4292C284.252 53.3486 285.07 59.0456 285.928 64.3795" stroke="black" stroke-miterlimit="10" stroke-linecap="round" stroke-linejoin="round"/>
</g>
<path d="M263.354 119.325C261.002 121.03 258.351 121.831 255.976 121.763C253.602 121.695 251.524 120.761 250.259 119.016C248.994 117.271 248.754 115.005 249.429 112.727C250.104 110.449 251.691 108.18 254.043 106.476C256.395 104.771 259.046 103.969 261.421 104.037C263.795 104.105 265.873 105.039 267.138 106.785C268.403 108.53 268.643 110.796 267.969 113.073C267.294 115.351 265.707 117.62 263.354 119.325Z" stroke="black" stroke-width="0.720481"/>
<path d="M250.355 119.289C255.708 126.677 260.691 125.798 265.513 122.303C270.336 118.809 272.746 112.965 267.146 107.122" stroke="black" stroke-width="0.720481" stroke-linecap="round"/>
<path d="M267.132 114.641L269.913 117.064" stroke="black" stroke-width="0.720481"/>
<path d="M264.137 118.522L266.918 120.946" stroke="black" stroke-width="0.720481"/>
<path d="M259.557 121.154L262.276 123.964" stroke="black" stroke-width="0.720481"/>
<path fill-rule="evenodd" clip-rule="evenodd" d="M260.838 112.434C260.867 112.579 260.869 112.731 260.844 112.879C260.817 113.027 260.765 113.174 260.713 113.315L260.542 113.787L260.369 114.261L260.358 114.287L260.34 114.307C260.32 114.319 260.295 114.313 260.274 114.31C259.856 114.183 259.451 114.041 259.05 113.879C258.867 113.806 258.685 113.728 258.504 113.645L258.374 113.629C258.405 113.549 258.439 113.474 258.474 113.399L258.564 113.194L258.689 112.943C258.785 112.755 258.888 112.571 259 112.393C259.047 112.32 259.097 112.246 259.151 112.173L259.213 112.092C259.369 111.901 259.555 111.741 259.79 111.687C260.098 111.607 260.436 111.743 260.632 111.987C260.737 112.118 260.806 112.273 260.838 112.434ZM260.081 112.949L260.037 113.069L259.905 113.431C259.719 113.366 259.536 113.296 259.354 113.226C259.407 113.123 259.463 113.026 259.521 112.927L259.61 112.775L259.705 112.633C259.754 112.565 259.8 112.51 259.843 112.466C259.911 112.4 259.945 112.39 259.954 112.388C259.969 112.383 259.982 112.382 260.002 112.39L260.04 112.41L260.071 112.438C260.09 112.463 260.108 112.494 260.12 112.53L260.135 112.58C260.139 112.613 260.143 112.65 260.141 112.69L260.135 112.752C260.124 112.81 260.108 112.868 260.081 112.949Z" fill="black"/>
<path fill-rule="evenodd" clip-rule="evenodd" d="M256.153 112.34C256.316 111.983 256.489 111.62 256.793 111.383C256.953 111.258 257.162 111.18 257.364 111.173C257.546 111.169 257.722 111.22 257.853 111.343L257.911 111.407L257.955 111.466L258.006 111.563C258.064 111.695 258.086 111.845 258.081 111.991C258.069 112.222 257.994 112.438 257.919 112.657L257.913 112.68L257.784 113.043L257.725 113.207L257.711 113.251C257.702 113.266 257.691 113.279 257.675 113.285C257.642 113.304 257.604 113.29 257.566 113.276L256.944 113.04L256.115 112.723L256.035 112.662C256.052 112.59 256.077 112.521 256.105 112.45L256.153 112.34ZM257.305 111.912L257.359 111.898L257.361 111.958C257.358 112.018 257.346 112.078 257.325 112.155L257.249 112.387L256.981 112.285C257.012 112.228 257.042 112.178 257.072 112.135C257.125 112.056 257.177 111.996 257.235 111.95L257.258 111.937C257.271 111.926 257.288 111.919 257.305 111.912Z" fill="black"/>
<path fill-rule="evenodd" clip-rule="evenodd" d="M253.905 113.583L253.243 114.989L255.636 115.778L255.959 115.01L258.736 116.127L258.301 117.223L260.637 117.99L261.277 116.564L262.561 116.999L263.668 114.664L263.675 114.637L263.699 114.568L263.738 114.461C263.767 114.379 263.799 114.273 263.814 114.151C263.848 113.897 263.8 113.59 263.537 113.319C263.329 113.108 263.079 112.989 262.884 112.92L262.863 112.912C262.95 112.635 263.013 112.283 262.988 111.885C262.973 111.63 262.923 111.363 262.821 111.087C262.672 110.679 262.413 110.253 262.004 109.834C261.371 109.298 260.385 109.124 259.411 109.657C259.218 109.297 258.889 108.912 258.422 108.71C257.696 108.395 256.784 108.577 255.755 109.567L255.736 109.585L255.461 109.942L254.489 109.668L254.408 109.682C254.174 109.723 253.969 109.809 253.783 110.004C253.62 110.176 253.487 110.419 253.344 110.725L252.237 112.869L253.905 113.583ZM255.571 114.077L255.229 114.885L254.241 114.559L254.877 113.214L253.233 112.512L253.666 111.674L255.219 112.256L255.474 111.582L253.991 111.044C254.072 110.871 254.136 110.749 254.19 110.659C254.234 110.586 254.271 110.535 254.305 110.499C254.347 110.455 254.388 110.428 254.458 110.408L255.734 110.766L256.274 110.067C257.172 109.211 257.778 109.215 258.135 109.37C258.549 109.55 258.82 109.998 258.896 110.289L259.033 110.807L259.461 110.482C260.288 109.856 261.08 110.006 261.501 110.348C262.059 110.926 262.241 111.481 262.268 111.93C262.284 112.174 262.254 112.396 262.208 112.582C262.165 112.75 262.109 112.889 262.058 112.993L261.881 113.359L262.265 113.492L262.413 113.532L262.445 113.54L262.579 113.58L262.645 113.6C262.785 113.649 262.919 113.718 263.021 113.822L263.06 113.871L263.077 113.9C263.104 113.952 263.107 114.003 263.1 114.059C263.094 114.111 263.078 114.166 263.057 114.227L263.036 114.284L262.995 114.402L262.854 114.698L261.529 114.202L261.277 114.877L262.544 115.352L262.185 116.111L260.886 115.672L260.246 117.104L259.253 116.777L259.669 115.725L255.571 114.077Z" fill="black"/>
<path fill-rule="evenodd" clip-rule="evenodd" d="M42.2066 236.088C43.524 238.548 45.9013 240.802 49.0485 242.22C52.1956 243.638 55.4583 243.927 58.1739 243.285C60.8884 242.643 63.0099 241.089 64.0218 238.844C65.0337 236.598 64.7931 233.98 63.4763 231.521C62.1588 229.061 59.7815 226.807 56.6344 225.389C53.4872 223.97 50.2245 223.682 47.5089 224.324C44.7944 224.966 42.6729 226.52 41.661 228.765C40.6491 231.011 40.8897 233.629 42.2066 236.088ZM40.8605 228.405C38.5664 233.494 42.0708 240.038 48.6876 243.021C55.3045 246.003 62.5283 244.294 64.8223 239.204C67.1164 234.114 63.612 227.571 56.9952 224.588C50.3783 221.606 43.1546 223.315 40.8605 228.405Z" fill="black"/>
<path fill-rule="evenodd" clip-rule="evenodd" d="M56.8443 247.22C59.77 246.217 62.2896 243.731 63.6508 239.108C63.7193 238.876 63.9634 238.743 64.196 238.811C64.4286 238.879 64.5616 239.124 64.4931 239.356C63.0678 244.197 60.3742 246.938 57.1291 248.051C53.9058 249.156 50.2223 248.626 46.8483 247.105C43.5028 245.597 40.7418 243.608 39.4336 240.636C38.1207 237.654 38.3198 233.796 40.6315 228.667C40.7312 228.446 40.9911 228.348 41.2122 228.448C41.4333 228.547 41.5317 228.807 41.4321 229.028C39.1746 234.037 39.0637 237.617 40.2373 240.283C41.4156 242.959 43.9377 244.83 47.2091 246.304C50.4519 247.766 53.8968 248.231 56.8443 247.22Z" fill="black"/>
<path fill-rule="evenodd" clip-rule="evenodd" d="M54.7988 248.1L55.6772 243.691L56.5384 243.862L55.66 248.271L54.7988 248.1Z" fill="black"/>
<path fill-rule="evenodd" clip-rule="evenodd" d="M48.8857 247.283L49.7641 242.874L50.6253 243.046L49.7469 247.455L48.8857 247.283Z" fill="black"/>
<path fill-rule="evenodd" clip-rule="evenodd" d="M42.8875 244.171L44.2115 239.593L45.055 239.837L43.731 244.415L42.8875 244.171Z" fill="black"/>
<path fill-rule="evenodd" clip-rule="evenodd" d="M51.3622 237.071C51.1952 237.001 51.0407 236.899 50.9085 236.773C50.7764 236.645 50.6632 236.493 50.5566 236.345L50.1956 235.85L49.8348 235.352L49.8162 235.324L49.8081 235.292C49.8101 235.263 49.8322 235.242 49.8507 235.223C50.2626 234.887 50.6832 234.574 51.1197 234.28C51.3183 234.144 51.5199 234.014 51.7281 233.887L51.8328 233.767C51.8922 233.852 51.9446 233.938 51.9971 234.024L52.1427 234.255L52.3111 234.552C52.4364 234.777 52.5511 235.007 52.6552 235.241C52.6965 235.338 52.7376 235.439 52.7751 235.543L52.815 235.661C52.9016 235.949 52.936 236.246 52.8309 236.52C52.7023 236.886 52.3342 237.135 51.9538 237.167C51.7498 237.184 51.546 237.148 51.3622 237.071ZM51.3573 235.955L51.2664 235.829L50.9903 235.448C51.1825 235.305 51.3778 235.168 51.5729 235.032C51.6399 235.155 51.7002 235.278 51.7602 235.404L51.8533 235.598L51.9327 235.791C51.9673 235.886 51.9924 235.97 52.0079 236.043C52.0276 236.157 52.0143 236.199 52.0102 236.209C52.0055 236.227 51.9977 236.24 51.9759 236.256L51.9296 236.28L51.8806 236.292C51.8426 236.295 51.7981 236.292 51.7542 236.28L51.6937 236.261C51.6571 236.243 51.6174 236.221 51.5781 236.192L51.5196 236.144C51.4681 236.094 51.4204 236.037 51.3573 235.955Z" fill="black"/>
<path fill-rule="evenodd" clip-rule="evenodd" d="M54.6476 232.4C54.8977 232.808 55.1469 233.229 55.1796 233.699C55.1968 233.946 55.1337 234.21 55.0023 234.419C54.8827 234.605 54.7112 234.748 54.4981 234.797L54.3939 234.812L54.3042 234.816L54.1711 234.801C53.9979 234.77 53.8316 234.69 53.6876 234.586C53.462 234.417 53.2953 234.194 53.1253 233.969L53.1062 233.947L52.8264 233.57L52.7009 233.398L52.6661 233.354C52.6571 233.334 52.6516 233.315 52.6564 233.295C52.6596 233.249 52.6995 233.219 52.7393 233.191L53.4011 232.723L54.2868 232.1L54.403 232.062C54.4637 232.128 54.5171 232.2 54.5703 232.276L54.6476 232.4ZM54.2953 233.856L54.2737 233.92L54.2111 233.881C54.1522 233.837 54.1009 233.784 54.0372 233.711L53.8541 233.476L54.1398 233.274C54.1762 233.344 54.2062 233.408 54.2295 233.468C54.2735 233.576 54.298 233.669 54.3055 233.759L54.3033 233.791C54.3053 233.812 54.3003 233.834 54.2953 233.856Z" fill="black"/>
<path fill-rule="evenodd" clip-rule="evenodd" d="M54.923 229.282L53.9531 227.655L51.5254 229.535L52.0817 230.386L49.0615 232.431L48.2501 231.245L45.8838 233.083L46.8888 234.701L45.5744 235.702L47.1807 238.412L47.203 238.438L47.2566 238.508L47.3381 238.621C47.401 238.706 47.4865 238.811 47.6 238.909C47.8332 239.116 48.1761 239.277 48.6288 239.195C48.9842 239.129 49.2745 238.958 49.4776 238.807L49.4993 238.792C49.7207 239.068 50.0331 239.372 50.4527 239.618C50.7202 239.776 51.024 239.907 51.3722 239.993C51.886 240.12 52.4926 240.148 53.196 240.02C54.1676 239.746 55.016 238.868 55.1407 237.52C55.6358 237.57 56.2492 237.501 56.7711 237.166C57.5843 236.646 58.0215 235.6 57.7213 233.886L57.7166 233.855L57.5431 233.334L58.4821 232.538L58.5229 232.446C58.6409 232.183 58.6938 231.917 58.6233 231.595C58.5604 231.314 58.4058 231.015 58.1932 230.661L56.7806 228.082L54.923 229.282ZM53.289 230.628L52.7048 229.733L53.7078 228.957L54.6343 230.515L56.4633 229.332L57.0155 230.34L55.3694 231.513L55.8766 232.23L57.4304 231.098C57.5507 231.297 57.6297 231.445 57.6836 231.561C57.7286 231.655 57.7545 231.728 57.7676 231.787C57.7832 231.858 57.7825 231.919 57.756 232.003L56.5246 233.048L56.8626 234.071C57.1165 235.562 56.6993 236.17 56.2999 236.426C55.8357 236.722 55.1984 236.69 54.8527 236.57L54.235 236.355L54.272 237.009C54.3424 238.271 53.6508 238.969 53.0185 239.162C52.0542 239.332 51.3697 239.138 50.8974 238.86C50.6397 238.709 50.4357 238.528 50.2793 238.354C50.139 238.197 50.036 238.045 49.9654 237.923L49.7167 237.495L49.3212 237.792L49.1786 237.915L49.1492 237.942L49.018 238.05L48.9524 238.102C48.8074 238.21 48.6465 238.299 48.4723 238.332L48.3962 238.338L48.3551 238.335C48.2835 238.327 48.2306 238.296 48.1789 238.249C48.1302 238.208 48.0857 238.155 48.0385 238.092L47.9946 238.032L47.9033 237.91L47.7003 237.566L49.104 236.565L48.5933 235.851L47.2511 236.808L46.7278 235.927L48.0567 234.914L47.0453 233.291L48.052 232.51L48.8325 233.648L53.289 230.628Z" fill="black"/>
</g>
<defs>
<clipPath id="clip0_2403_32382">
<rect width="335" height="290" rx="20" fill="white"/>
</clipPath>
</defs>
</svg>
