<svg width="688" height="400" viewBox="0 0 688 400" fill="none" xmlns="http://www.w3.org/2000/svg">
<g clip-path="url(#clip0_1537_14000)">
<g filter="url(#filter0_d_1537_14000)">
<g filter="url(#filter1_d_1537_14000)">
<mask id="mask0_1537_14000" style="mask-type:luminance" maskUnits="userSpaceOnUse" x="124" y="38" width="337" height="194">
<path d="M124.5 58C124.5 47.2304 133.23 38.5 144 38.5H440.39C451.16 38.5 459.89 47.2304 459.89 58V211.892C459.89 222.661 451.16 231.392 440.39 231.392H144C133.23 231.392 124.5 222.661 124.5 211.892V58Z" fill="white" stroke="white"/>
</mask>
<g mask="url(#mask0_1537_14000)">
<path d="M124.512 58.3613C124.512 47.5918 133.242 38.8613 144.012 38.8613H440.422C451.192 38.8613 459.922 47.5918 459.922 58.3613V211.754C459.922 222.523 451.192 231.254 440.422 231.254H144.012C133.242 231.254 124.512 222.523 124.512 211.754V58.3613Z" fill="white" stroke="#E8E8E8"/>
</g>
</g>
<mask id="mask1_1537_14000" style="mask-type:luminance" maskUnits="userSpaceOnUse" x="124" y="38" width="337" height="19">
<path d="M124 38H460.39V56.5099H124V38Z" fill="white"/>
</mask>
<g mask="url(#mask1_1537_14000)">
<path d="M460.422 49.7374C460.422 43.3214 455.227 38.1221 448.827 38.1221H135.607C129.207 38.1221 124.012 43.3214 124.012 49.7374V55.8006H460.422V49.7374Z" fill="#B2CED1"/>
</g>
<path d="M142.749 47.0973C142.749 48.5979 141.532 49.8146 140.032 49.8146C138.535 49.8146 137.318 48.5979 137.318 47.0973C137.318 45.5927 138.535 44.376 140.032 44.376C141.532 44.376 142.749 45.5927 142.749 47.0973Z" fill="#80BC00"/>
<path d="M152.251 47.0973C152.251 48.5979 151.035 49.8146 149.534 49.8146C148.037 49.8146 146.821 48.5979 146.821 47.0973C146.821 45.5927 148.037 44.376 149.534 44.376C151.035 44.376 152.251 45.5927 152.251 47.0973Z" fill="#F4BD15"/>
<path d="M161.753 47.0973C161.753 48.5979 160.536 49.8146 159.04 49.8146C157.539 49.8146 156.322 48.5979 156.322 47.0973C156.322 45.5927 157.539 44.376 159.04 44.376C160.536 44.376 161.753 45.5927 161.753 47.0973Z" fill="#CB2126"/>
<path d="M247.816 140.931H149.36V99.1621H247.816V140.931Z" fill="#E8E8E8"/>
<g clip-path="url(#clip1_1537_14000)">
<path d="M196.35 137.201C205.412 137.201 212.759 129.855 212.759 120.792C212.759 111.729 205.412 104.383 196.35 104.383C187.287 104.383 179.94 111.729 179.94 120.792C179.94 129.855 187.287 137.201 196.35 137.201Z" fill="#D6D6D6"/>
<path fill-rule="evenodd" clip-rule="evenodd" d="M198.321 122.211V122.209C198.208 122.217 197.627 122.252 196.329 122.252C195.294 122.252 194.564 122.221 194.308 122.209V122.212C190.321 122.037 187.344 121.342 187.344 120.512C187.344 119.682 190.321 118.988 194.308 118.809V121.521C194.569 121.539 195.315 121.583 196.347 121.583C197.585 121.583 198.205 121.532 198.321 121.522V118.811C202.3 118.989 205.269 119.683 205.269 120.512C205.269 121.342 202.3 122.035 198.321 122.211ZM198.321 118.529V116.103H203.874V112.402H188.756V116.103H194.308V118.528C189.795 118.735 186.402 119.63 186.402 120.7C186.402 121.771 189.795 122.664 194.308 122.872V130.648H198.321V122.87C202.827 122.663 206.212 121.77 206.212 120.7C206.212 119.631 202.827 118.737 198.321 118.529Z" fill="white"/>
</g>
<path d="M402.958 117.809H372.377V99.1621H402.958V117.809Z" fill="#E8E8E8"/>
<path d="M402.958 178.225H372.377V159.578H402.958V178.225Z" fill="#FF7A34"/>
<path d="M438.014 117.809H407.433V99.1621H438.014V117.809Z" fill="#80BC00"/>
<path d="M438.014 178.225H407.433V159.578H438.014V178.225Z" fill="#E8E8E8"/>
<path d="M438.014 89.4659H149.36V66.3438H438.014V89.4659Z" fill="#E8E8E8"/>
<path d="M361.934 140.931H263.479V97.6699H361.934V140.931Z" fill="#F5F5F5" fill-opacity="0.4"/>
<path d="M351.856 132.664H271.784V135.834H351.856V132.664Z" fill="#E5E5E5"/>
<path d="M333.796 126.74H271.784V129.908H333.796V126.74Z" fill="#D6D6D6"/>
<path d="M344.157 120.815H271.784V123.983H344.157V120.815Z" fill="#E5E5E5"/>
<path d="M311.745 114.89H271.784V118.06H311.745V114.89Z" fill="#D6D6D6"/>
<path d="M324.325 103.042H271.784V106.212H324.325V103.042Z" fill="#E5E5E5"/>
<path d="M344.074 108.365H271.528V111.424H344.074V108.365Z" fill="#E5E5E5"/>
<path d="M402.889 152.972H372.456V124.63H402.889V152.972Z" fill="#F5F5F5" fill-opacity="0.4"/>
<path d="M399.773 147.556H375.023V149.633H399.773V147.556Z" fill="#E5E5E5"/>
<path d="M394.191 143.675H375.023V145.751H394.191V143.675Z" fill="#D6D6D6"/>
<path d="M397.394 139.793H375.023V141.869H397.394V139.793Z" fill="#E5E5E5"/>
<path d="M387.375 135.912H375.023V137.988H387.375V135.912Z" fill="#D6D6D6"/>
<path d="M391.264 128.149H375.023V130.226H391.264V128.149Z" fill="#E5E5E5"/>
<path d="M397.368 131.637H374.944V133.641H397.368V131.637Z" fill="#E5E5E5"/>
<path d="M402.889 213.288H372.456V184.945H402.889V213.288Z" fill="#F4F4F4"/>
<path d="M399.773 207.871H375.023V209.948H399.773V207.871Z" fill="#80BC00"/>
<path d="M394.191 203.991H375.023V206.066H394.191V203.991Z" fill="#FF7A34"/>
<path d="M397.394 200.109H375.023V202.184H397.394V200.109Z" fill="#80BC00"/>
<path d="M387.375 196.228H375.023V198.304H387.375V196.228Z" fill="#FF7A34"/>
<path d="M391.264 188.465H375.023V190.542H391.264V188.465Z" fill="#80BC00"/>
<path d="M397.368 191.953H374.944V193.957H397.368V191.953Z" fill="#80BC00"/>
<path d="M438.014 152.972H407.581V124.63H438.014V152.972Z" fill="#F4F4F4"/>
<path d="M434.899 147.556H410.148V149.633H434.899V147.556Z" fill="#80BC00"/>
<path d="M429.316 143.675H410.148V145.751H429.316V143.675Z" fill="#FF7A34"/>
<path d="M432.519 139.793H410.148V141.869H432.519V139.793Z" fill="#80BC00"/>
<path d="M422.5 135.912H410.148V137.988H422.5V135.912Z" fill="#FF7A34"/>
<path d="M426.389 128.149H410.148V130.226H426.389V128.149Z" fill="#80BC00"/>
<path d="M432.493 131.637H410.069V133.641H432.493V131.637Z" fill="#80BC00"/>
<path d="M438.014 213.288H407.581V184.945H438.014V213.288Z" fill="#F5F5F5" fill-opacity="0.4"/>
<path d="M434.899 207.871H410.148V209.948H434.899V207.871Z" fill="#E5E5E5"/>
<path d="M429.316 203.991H410.148V206.066H429.316V203.991Z" fill="#D6D6D6"/>
<path d="M432.519 200.109H410.148V202.184H432.519V200.109Z" fill="#E5E5E5"/>
<path d="M422.5 196.228H410.148V198.304H422.5V196.228Z" fill="#D6D6D6"/>
<path d="M426.389 188.465H410.148V190.542H426.389V188.465Z" fill="#E5E5E5"/>
<path d="M432.493 191.953H410.069V193.957H432.493V191.953Z" fill="#E5E5E5"/>
<path d="M245.702 213.281H149.36V152.865H245.702V213.281Z" fill="#F5F5F5" fill-opacity="0.4"/>
<path d="M235.84 201.736H157.487V206.163H235.84V201.736Z" fill="#E5E5E5"/>
<path d="M218.168 193.463H157.487V197.888H218.168V193.463Z" fill="#D6D6D6"/>
<path d="M228.307 185.189H157.487V189.613H228.307V185.189Z" fill="#E5E5E5"/>
<path d="M196.59 176.914H157.487V181.341H196.59V176.914Z" fill="#D6D6D6"/>
<path d="M208.901 160.368H157.487V164.795H208.901V160.368Z" fill="#E5E5E5"/>
<path d="M228.226 167.803H157.237V172.074H228.226V167.803Z" fill="#E5E5E5"/>
<path d="M361.934 213.281H263.403V152.865H361.934V213.281Z" fill="#F5F5F5" fill-opacity="0.4"/>
<path d="M351.849 201.736H271.715V206.163H351.849V201.736Z" fill="#E5E5E5"/>
<path d="M333.775 193.463H271.715V197.888H333.775V193.463Z" fill="#D6D6D6"/>
<path d="M344.144 185.189H271.715V189.613H344.144V185.189Z" fill="#E5E5E5"/>
<path d="M311.707 176.914H271.715V181.341H311.707V176.914Z" fill="#D6D6D6"/>
<path d="M324.297 160.368H271.715V164.795H324.297V160.368Z" fill="#E5E5E5"/>
<path d="M344.061 167.803H271.459V172.074H344.061V167.803Z" fill="#E5E5E5"/>
</g>
<g filter="url(#filter2_d_1537_14000)">
<g filter="url(#filter3_d_1537_14000)">
<mask id="mask2_1537_14000" style="mask-type:luminance" maskUnits="userSpaceOnUse" x="228" y="188" width="337" height="194">
<path d="M228.923 208.06C228.923 197.291 237.653 188.56 248.423 188.56H544.813C555.583 188.56 564.313 197.291 564.313 208.06V361.952C564.313 372.721 555.583 381.452 544.813 381.452H248.423C237.653 381.452 228.923 372.721 228.923 361.952V208.06Z" fill="white" stroke="white"/>
</mask>
<g mask="url(#mask2_1537_14000)">
<path d="M228.935 208.421C228.935 197.651 237.665 188.921 248.435 188.921H544.845C555.615 188.921 564.345 197.651 564.345 208.421V361.813C564.345 372.583 555.615 381.313 544.845 381.313H248.435C237.665 381.313 228.935 372.583 228.935 361.813V208.421Z" fill="white" stroke="#E8E8E8"/>
</g>
</g>
<mask id="mask3_1537_14000" style="mask-type:luminance" maskUnits="userSpaceOnUse" x="228" y="188" width="337" height="19">
<path d="M228.423 188.06H564.813V206.57H228.423V188.06Z" fill="white"/>
</mask>
<g mask="url(#mask3_1537_14000)">
<path d="M564.845 199.797C564.845 193.381 559.65 188.182 553.25 188.182H240.03C233.63 188.182 228.435 193.381 228.435 199.797V205.86H564.845V199.797Z" fill="#B2CED1"/>
</g>
<path d="M247.172 197.156C247.172 198.657 245.955 199.874 244.454 199.874C242.958 199.874 241.741 198.657 241.741 197.156C241.741 195.652 242.958 194.435 244.454 194.435C245.955 194.435 247.172 195.652 247.172 197.156Z" fill="#80BC00"/>
<path d="M256.674 197.156C256.674 198.657 255.457 199.874 253.957 199.874C252.46 199.874 251.244 198.657 251.244 197.156C251.244 195.652 252.46 194.435 253.957 194.435C255.457 194.435 256.674 195.652 256.674 197.156Z" fill="#F4BD15"/>
<path d="M266.176 197.156C266.176 198.657 264.959 199.874 263.463 199.874C261.962 199.874 260.746 198.657 260.746 197.156C260.746 195.652 261.962 194.435 263.463 194.435C264.959 194.435 266.176 195.652 266.176 197.156Z" fill="#CB2126"/>
<path d="M323.895 279.057H264.971V237.288H323.895V279.057Z" fill="#E8E8E8"/>
<path d="M392.516 279.057H332.846V237.288H392.516V279.057Z" fill="#FF7A34"/>
<path d="M366.677 264.136C366.152 264.626 365.431 264.878 364.513 264.891L360.179 264.951L360.105 259.59L364.452 259.53C365.343 259.517 366.062 259.759 366.609 260.253C367.157 260.746 367.436 261.385 367.447 262.17C367.458 262.99 367.201 263.645 366.677 264.136ZM364.017 251.699C364.762 251.689 365.414 251.883 365.974 252.281C366.535 252.678 366.82 253.306 366.832 254.164C366.842 254.938 366.608 255.579 366.129 256.087C365.65 256.596 364.992 256.856 364.156 256.867L360.068 256.924L359.996 251.755L364.017 251.699ZM369.81 259.538C369.126 258.708 368.128 258.189 366.816 257.979C367.868 257.755 368.688 257.258 369.277 256.489C369.866 255.719 370.153 254.819 370.139 253.789C370.124 252.695 369.815 251.746 369.214 250.943C368.612 250.14 367.905 249.616 367.093 249.373C366.362 249.153 365.462 249.04 364.396 249.032L364.361 246.539L361.862 246.573L361.897 249.061L360.158 249.085L360.124 246.597L357.624 246.632L357.659 249.12L354.074 249.17L354.111 251.837L356.821 251.799L357.004 264.995L354.294 265.032L354.332 267.835L357.917 267.785L357.95 270.146L360.449 270.111L360.416 267.751L362.155 267.727L362.188 270.087L364.687 270.052L364.654 267.692L365.179 267.685C367.132 267.658 368.572 267.148 369.5 266.155C370.426 265.162 370.88 263.946 370.86 262.505C370.844 261.356 370.493 260.367 369.81 259.538Z" fill="white"/>
<path d="M460.391 279.057H401.466V237.288H460.391V279.057Z" fill="#E8E8E8"/>
<path d="M529.584 279.057H470.66V237.288H529.584V279.057Z" fill="#80BC00"/>
<path fill-rule="evenodd" clip-rule="evenodd" d="M500.699 256.704L500.71 258.411L500.771 258.41L500.784 259.748C501.105 259.745 501.451 259.754 501.811 259.764L501.811 259.764C502.199 259.774 502.603 259.785 503.007 259.781C503.841 259.828 504.674 259.82 505.451 259.757L505.438 258.379L505.443 258.379L505.432 256.697C510.034 257.04 512.457 258.358 512.794 258.832C512.408 259.391 509.24 260.248 502.949 260.289C496.713 260.331 493.479 259.517 493.085 258.963C493.422 258.426 495.919 257.067 500.699 256.704ZM500.696 256.242C495.817 256.535 492.186 257.658 492.194 258.969C492.204 260.472 497.001 261.665 502.958 261.626C503.176 261.624 503.394 261.621 503.609 261.616C503.389 261.625 503.167 261.632 502.946 261.634C502.171 261.641 501.451 261.649 500.731 261.6L500.812 269.881L505.462 269.834L505.381 261.54C510.16 261.229 513.694 260.119 513.685 258.826C513.677 257.541 510.169 256.482 505.429 256.227L505.413 253.925L511.371 253.886L511.344 249.877L494.697 249.987L494.723 253.94L500.681 253.901L500.696 256.242Z" fill="white"/>
<path d="M323.982 355.481H264.971V293.229H323.982V355.481Z" fill="#F5F5F5" fill-opacity="0.4"/>
<path d="M317.941 343.584H269.949V348.146H317.941V343.584Z" fill="#E5E5E5"/>
<path d="M307.116 335.062H269.949V339.62H307.116V335.062Z" fill="#D6D6D6"/>
<path d="M313.326 326.535H269.949V331.094H313.326V326.535Z" fill="#E5E5E5"/>
<path d="M293.9 318.009H269.949V322.571H293.9V318.009Z" fill="#D6D6D6"/>
<path d="M301.44 300.96H269.949V305.522H301.44V300.96Z" fill="#E5E5E5"/>
<path d="M313.277 308.62H269.795V313.022H313.277V308.62Z" fill="#E5E5E5"/>
<path d="M391.942 355.481H332.932V293.229H391.942V355.481Z" fill="#F5F5F5" fill-opacity="0.4"/>
<path d="M385.902 343.584H337.91V348.146H385.902V343.584Z" fill="#F4BD15"/>
<path d="M375.077 335.062H337.91V339.62H375.077V335.062Z" fill="#80BC00"/>
<path d="M381.287 326.535H337.91V331.094H381.287V326.535Z" fill="#F4BD15"/>
<path d="M361.861 318.009H337.91V322.571H361.861V318.009Z" fill="#80BC00"/>
<path d="M369.401 300.96H337.91V305.522H369.401V300.96Z" fill="#F4BD15"/>
<path d="M381.237 308.62H337.756V313.022H381.237V308.62Z" fill="#F4BD15"/>
<path d="M459.904 355.481H400.893V293.229H459.904V355.481Z" fill="#F5F5F5" fill-opacity="0.4"/>
<path d="M453.863 343.584H405.871V348.146H453.863V343.584Z" fill="#E5E5E5"/>
<path d="M443.039 335.062H405.871V339.62H443.039V335.062Z" fill="#D6D6D6"/>
<path d="M449.249 326.535H405.871V331.094H449.249V326.535Z" fill="#E5E5E5"/>
<path d="M429.822 318.009H405.871V322.571H429.822V318.009Z" fill="#D6D6D6"/>
<path d="M437.362 300.96H405.871V305.522H437.362V300.96Z" fill="#E5E5E5"/>
<path d="M449.199 308.62H405.717V313.022H449.199V308.62Z" fill="#E5E5E5"/>
<path d="M529.097 355.481H470.087V293.229H529.097V355.481Z" fill="#F5F5F5" fill-opacity="0.4"/>
<path d="M523.057 343.584H475.064V348.146H523.057V343.584Z" fill="#F4BD15"/>
<path d="M512.232 335.062H475.064V339.62H512.232V335.062Z" fill="#FF7A34"/>
<path d="M518.442 326.535H475.064V331.094H518.442V326.535Z" fill="#F4BD15"/>
<path d="M499.015 318.009H475.064V322.571H499.015V318.009Z" fill="#FF7A34"/>
<path d="M506.556 300.96H475.064V305.522H506.556V300.96Z" fill="#F4BD15"/>
<path d="M518.393 308.62H474.911V313.022H518.393V308.62Z" fill="#F4BD15"/>
</g>
<path d="M653 177C650.547 183.907 639.313 197.573 614 196.981" stroke="black"/>
<path d="M149.273 283.327C149.273 283.327 150.281 266.628 143.438 268.677C136.594 270.727 143.718 280.112 153.907 275.037" stroke="black" stroke-linecap="round" stroke-linejoin="round"/>
<path d="M487.639 14.1904L469.011 32.3391" stroke="#10112B" stroke-miterlimit="10" stroke-linecap="round" stroke-linejoin="round"/>
<path d="M496.857 5.20898L494.206 7.79632" stroke="#10112B" stroke-miterlimit="10" stroke-linecap="round" stroke-linejoin="round"/>
<path d="M466.888 18.0381L464.163 28.1868" stroke="#10112B" stroke-miterlimit="10" stroke-linecap="round" stroke-linejoin="round"/>
<path d="M469.89 7.60547L469.116 10.303" stroke="#10112B" stroke-miterlimit="10" stroke-linecap="round" stroke-linejoin="round"/>
<path d="M487.018 32.46L472.204 36.9648" stroke="#10112B" stroke-miterlimit="10" stroke-linecap="round" stroke-linejoin="round"/>
<path d="M498.223 29.0527L495.322 29.9304" stroke="#10112B" stroke-miterlimit="10" stroke-linecap="round" stroke-linejoin="round"/>
<path fill-rule="evenodd" clip-rule="evenodd" d="M115.907 337.75C118.03 341.713 121.86 345.344 126.931 347.629C132.001 349.914 137.258 350.38 141.633 349.345C146.007 348.31 149.425 345.806 151.055 342.189C152.686 338.572 152.298 334.352 150.176 330.39C148.054 326.427 144.223 322.796 139.153 320.511C134.082 318.226 128.825 317.76 124.45 318.795C120.076 319.83 116.658 322.334 115.028 325.951C113.398 329.568 113.785 333.788 115.907 337.75ZM113.738 325.37C110.042 333.571 115.688 344.114 126.349 348.919C137.01 353.724 148.649 350.971 152.345 342.77C156.041 334.569 150.395 324.026 139.734 319.221C129.073 314.416 117.434 317.169 113.738 325.37Z" fill="black"/>
<path fill-rule="evenodd" clip-rule="evenodd" d="M139.49 355.685C144.204 354.068 148.264 350.062 150.457 342.615C150.567 342.24 150.961 342.026 151.335 342.136C151.71 342.247 151.924 342.64 151.814 343.015C149.518 350.813 145.178 355.23 139.949 357.023C134.756 358.804 128.821 357.949 123.385 355.499C117.995 353.07 113.546 349.865 111.439 345.077C109.323 340.272 109.644 334.057 113.369 325.793C113.529 325.437 113.948 325.278 114.304 325.439C114.66 325.599 114.819 326.018 114.659 326.374C111.021 334.444 110.843 340.212 112.734 344.507C114.632 348.82 118.695 351.834 123.966 354.209C129.191 356.564 134.742 357.313 139.49 355.685Z" fill="black"/>
<path fill-rule="evenodd" clip-rule="evenodd" d="M136.195 357.103L137.61 349.999L138.998 350.276L137.582 357.379L136.195 357.103Z" fill="black"/>
<path fill-rule="evenodd" clip-rule="evenodd" d="M126.667 355.787L128.082 348.684L129.47 348.96L128.055 356.064L126.667 355.787Z" fill="black"/>
<path fill-rule="evenodd" clip-rule="evenodd" d="M117.003 350.772L119.136 343.396L120.495 343.789L118.362 351.165L117.003 350.772Z" fill="black"/>
<path fill-rule="evenodd" clip-rule="evenodd" d="M130.657 339.333C130.388 339.221 130.139 339.056 129.926 338.853C129.713 338.647 129.531 338.402 129.359 338.163L128.777 337.366L128.196 336.564L128.166 336.518L128.153 336.467C128.156 336.42 128.192 336.387 128.222 336.355C128.885 335.814 129.563 335.31 130.266 334.836C130.586 334.617 130.911 334.407 131.247 334.203L131.415 334.01C131.511 334.147 131.595 334.285 131.68 334.424L131.915 334.795L132.186 335.274C132.388 335.637 132.573 336.007 132.74 336.384C132.807 336.541 132.873 336.704 132.933 336.871L132.998 337.062C133.137 337.526 133.193 338.003 133.023 338.446C132.816 339.035 132.223 339.437 131.61 339.488C131.281 339.515 130.953 339.457 130.657 339.333ZM130.649 337.535L130.503 337.331L130.058 336.719C130.367 336.488 130.682 336.266 130.996 336.047C131.105 336.246 131.202 336.444 131.298 336.647L131.448 336.959L131.576 337.27C131.632 337.424 131.672 337.559 131.697 337.677C131.729 337.86 131.708 337.927 131.701 337.944C131.693 337.974 131.681 337.995 131.646 338.02L131.571 338.059L131.492 338.079C131.431 338.083 131.359 338.078 131.289 338.059L131.191 338.027C131.132 337.998 131.068 337.963 131.005 337.917L130.911 337.839C130.828 337.758 130.751 337.667 130.649 337.535Z" fill="black"/>
<path fill-rule="evenodd" clip-rule="evenodd" d="M135.95 331.807C136.353 332.464 136.755 333.143 136.807 333.9C136.835 334.298 136.734 334.723 136.522 335.06C136.329 335.36 136.053 335.59 135.709 335.669L135.542 335.693L135.397 335.699L135.183 335.676C134.904 335.626 134.636 335.497 134.404 335.328C134.04 335.057 133.772 334.697 133.498 334.335L133.467 334.299L133.016 333.692L132.814 333.415L132.758 333.344C132.743 333.313 132.734 333.282 132.742 333.249C132.747 333.175 132.812 333.126 132.876 333.081L133.942 332.327L135.369 331.324L135.556 331.262C135.654 331.369 135.74 331.485 135.826 331.608L135.95 331.807ZM135.383 334.153L135.348 334.256L135.247 334.193C135.152 334.123 135.07 334.037 134.967 333.919L134.672 333.541L135.132 333.216C135.191 333.328 135.239 333.431 135.277 333.528C135.348 333.702 135.387 333.851 135.399 333.996L135.396 334.048C135.399 334.082 135.391 334.117 135.383 334.153Z" fill="black"/>
<path fill-rule="evenodd" clip-rule="evenodd" d="M136.394 326.783L134.831 324.162L130.92 327.192L131.816 328.562L126.95 331.857L125.643 329.946L121.83 332.908L123.45 335.514L121.332 337.128L123.92 341.493L123.956 341.535L124.042 341.649L124.174 341.83C124.275 341.967 124.412 342.137 124.595 342.294C124.971 342.627 125.524 342.887 126.253 342.755C126.826 342.648 127.293 342.374 127.621 342.13L127.656 342.105C128.012 342.551 128.516 343.04 129.192 343.436C129.623 343.691 130.112 343.902 130.673 344.041C131.501 344.245 132.478 344.291 133.612 344.084C135.177 343.642 136.544 342.228 136.745 340.056C137.543 340.137 138.531 340.025 139.372 339.485C140.682 338.649 141.386 336.964 140.903 334.202L140.895 334.151L140.616 333.312L142.128 332.029L142.194 331.882C142.384 331.457 142.47 331.028 142.356 330.511C142.255 330.058 142.006 329.575 141.663 329.006L139.387 324.85L136.394 326.783ZM133.761 328.952L132.82 327.51L134.436 326.259L135.929 328.77L138.876 326.864L139.766 328.489L137.113 330.379L137.931 331.532L140.434 329.71C140.628 330.03 140.755 330.269 140.842 330.455C140.914 330.607 140.956 330.724 140.977 330.819C141.002 330.935 141.001 331.031 140.959 331.167L138.975 332.852L139.519 334.499C139.928 336.901 139.256 337.882 138.613 338.294C137.865 338.771 136.838 338.719 136.281 338.525L135.286 338.179L135.345 339.233C135.459 341.266 134.344 342.39 133.326 342.702C131.772 342.976 130.669 342.664 129.908 342.215C129.493 341.973 129.164 341.681 128.912 341.4C128.686 341.146 128.52 340.902 128.407 340.706L128.006 340.016L127.369 340.495L127.139 340.692L127.092 340.736L126.88 340.91L126.774 340.994C126.541 341.169 126.281 341.311 126.001 341.364L125.878 341.375L125.812 341.37C125.697 341.357 125.611 341.306 125.528 341.231C125.45 341.165 125.378 341.08 125.302 340.977L125.231 340.881L125.084 340.685L124.757 340.131L127.019 338.518L126.196 337.367L124.033 338.909L123.19 337.49L125.331 335.858L123.702 333.243L125.324 331.985L126.581 333.818L133.761 328.952Z" fill="black"/>
</g>
<defs>
<filter id="filter0_d_1537_14000" x="104.012" y="18.1221" width="376.378" height="233.632" filterUnits="userSpaceOnUse" color-interpolation-filters="sRGB">
<feFlood flood-opacity="0" result="BackgroundImageFix"/>
<feColorMatrix in="SourceAlpha" type="matrix" values="0 0 0 0 0 0 0 0 0 0 0 0 0 0 0 0 0 0 127 0" result="hardAlpha"/>
<feOffset/>
<feGaussianBlur stdDeviation="10"/>
<feComposite in2="hardAlpha" operator="out"/>
<feColorMatrix type="matrix" values="0 0 0 0 0 0 0 0 0 0 0 0 0 0 0 0 0 0 0.1 0"/>
<feBlend mode="normal" in2="BackgroundImageFix" result="effect1_dropShadow_1537_14000"/>
<feBlend mode="normal" in="SourceGraphic" in2="effect1_dropShadow_1537_14000" result="shape"/>
</filter>
<filter id="filter1_d_1537_14000" x="60.0117" y="-22.6387" width="464.378" height="321.393" filterUnits="userSpaceOnUse" color-interpolation-filters="sRGB">
<feFlood flood-opacity="0" result="BackgroundImageFix"/>
<feColorMatrix in="SourceAlpha" type="matrix" values="0 0 0 0 0 0 0 0 0 0 0 0 0 0 0 0 0 0 127 0" result="hardAlpha"/>
<feOffset dy="3"/>
<feGaussianBlur stdDeviation="32"/>
<feComposite in2="hardAlpha" operator="out"/>
<feColorMatrix type="matrix" values="0 0 0 0 0.572569 0 0 0 0 0.666879 0 0 0 0 0.808333 0 0 0 0.2 0"/>
<feBlend mode="normal" in2="BackgroundImageFix" result="effect1_dropShadow_1537_14000"/>
<feBlend mode="normal" in="SourceGraphic" in2="effect1_dropShadow_1537_14000" result="shape"/>
</filter>
<filter id="filter2_d_1537_14000" x="208.435" y="168.182" width="376.378" height="233.632" filterUnits="userSpaceOnUse" color-interpolation-filters="sRGB">
<feFlood flood-opacity="0" result="BackgroundImageFix"/>
<feColorMatrix in="SourceAlpha" type="matrix" values="0 0 0 0 0 0 0 0 0 0 0 0 0 0 0 0 0 0 127 0" result="hardAlpha"/>
<feOffset/>
<feGaussianBlur stdDeviation="10"/>
<feComposite in2="hardAlpha" operator="out"/>
<feColorMatrix type="matrix" values="0 0 0 0 0 0 0 0 0 0 0 0 0 0 0 0 0 0 0.1 0"/>
<feBlend mode="normal" in2="BackgroundImageFix" result="effect1_dropShadow_1537_14000"/>
<feBlend mode="normal" in="SourceGraphic" in2="effect1_dropShadow_1537_14000" result="shape"/>
</filter>
<filter id="filter3_d_1537_14000" x="164.435" y="127.421" width="464.378" height="321.393" filterUnits="userSpaceOnUse" color-interpolation-filters="sRGB">
<feFlood flood-opacity="0" result="BackgroundImageFix"/>
<feColorMatrix in="SourceAlpha" type="matrix" values="0 0 0 0 0 0 0 0 0 0 0 0 0 0 0 0 0 0 127 0" result="hardAlpha"/>
<feOffset dy="3"/>
<feGaussianBlur stdDeviation="32"/>
<feComposite in2="hardAlpha" operator="out"/>
<feColorMatrix type="matrix" values="0 0 0 0 0.572569 0 0 0 0 0.666879 0 0 0 0 0.808333 0 0 0 0.2 0"/>
<feBlend mode="normal" in2="BackgroundImageFix" result="effect1_dropShadow_1537_14000"/>
<feBlend mode="normal" in="SourceGraphic" in2="effect1_dropShadow_1537_14000" result="shape"/>
</filter>
<clipPath id="clip0_1537_14000">
<rect width="688" height="400" rx="32" fill="white"/>
</clipPath>
<clipPath id="clip1_1537_14000">
<rect x="179.94" y="104.383" width="32.8186" height="32.8186" rx="16.4093" fill="white"/>
</clipPath>
</defs>
</svg>
