<svg width="992" height="490" viewBox="0 0 992 490" fill="none" xmlns="http://www.w3.org/2000/svg">
<path d="M835.905 86.2L833.505 96.1L830.505 85.7L821.205 84.2L830.505 82.1L833.105 72L835.505 81.3L845.305 83.8L835.905 86.2Z" stroke="#00353D" stroke-linejoin="round"/>
<path d="M807.505 16L806.505 21L805.805 16.3L801.205 15.3L805.905 14.6L806.905 10L807.205 14.7L812.205 15.7L807.505 16Z" stroke="#00353D" stroke-linejoin="round"/>
<path d="M826.937 343.498C827.36 343.696 827.775 343.906 828.184 344.128C828.594 344.351 828.997 344.585 829.392 344.833C829.788 345.081 830.176 345.339 830.559 345.611C830.94 345.882 831.314 346.166 831.68 346.461C832.046 346.756 832.404 347.062 832.754 347.38C833.105 347.697 833.446 348.027 833.779 348.367C834.112 348.705 834.436 349.056 834.751 349.417C835.066 349.779 835.373 350.149 835.669 350.53C835.966 350.912 836.252 351.303 836.529 351.703C836.808 352.104 837.075 352.514 837.332 352.933C837.59 353.352 837.836 353.78 838.073 354.217C838.31 354.653 838.536 355.098 838.752 355.551C838.967 356.004 839.172 356.465 839.367 356.933C839.56 357.402 839.742 357.876 839.915 358.359C840.087 358.842 840.248 359.331 840.396 359.826C840.545 360.321 840.683 360.822 840.81 361.329C840.936 361.837 841.05 362.349 841.153 362.867C841.257 363.385 841.348 363.908 841.428 364.435C841.508 364.963 841.576 365.494 841.631 366.028C841.688 366.564 841.731 367.102 841.764 367.644C841.796 368.186 841.816 368.732 841.825 369.279C841.833 369.827 841.829 370.376 841.814 370.927C841.799 371.479 841.77 372.033 841.731 372.587C841.692 373.141 841.64 373.697 841.577 374.252C841.514 374.808 841.439 375.364 841.352 375.92C841.265 376.476 841.168 377.033 841.057 377.588C840.947 378.143 840.825 378.695 840.692 379.248C840.558 379.8 840.414 380.351 840.257 380.899C840.101 381.448 839.934 381.994 839.755 382.537C839.576 383.08 839.387 383.621 839.186 384.158C838.986 384.695 838.775 385.228 838.553 385.757C838.33 386.286 838.098 386.81 837.855 387.331C837.611 387.851 837.358 388.366 837.095 388.875C836.831 389.386 836.558 389.89 836.275 390.387C835.992 390.886 835.698 391.378 835.397 391.864C835.095 392.349 834.783 392.827 834.461 393.298C834.141 393.771 833.812 394.235 833.473 394.691C833.135 395.147 832.789 395.596 832.433 396.037C832.078 396.477 831.715 396.909 831.344 397.331C830.974 397.755 830.594 398.169 830.209 398.574C829.823 398.979 829.43 399.375 829.03 399.76C828.629 400.146 828.223 400.522 827.811 400.888C827.397 401.253 826.977 401.608 826.553 401.953C826.127 402.298 825.696 402.631 825.26 402.955C824.823 403.277 824.381 403.589 823.935 403.889C823.489 404.189 823.038 404.478 822.583 404.755C822.126 405.032 821.667 405.297 821.204 405.549C820.74 405.802 820.274 406.043 819.804 406.271C819.334 406.499 818.861 406.714 818.386 406.917C817.91 407.12 817.432 407.311 816.951 407.489C816.471 407.666 815.989 407.831 815.506 407.982C815.022 408.133 814.537 408.271 814.052 408.395C813.566 408.52 813.079 408.632 812.593 408.73C812.106 408.829 811.62 408.914 811.133 408.984C810.646 409.056 810.161 409.113 809.675 409.157C809.19 409.201 808.706 409.232 808.224 409.248C807.741 409.266 807.261 409.269 806.782 409.258C806.303 409.247 805.826 409.223 805.351 409.185C804.878 409.147 804.406 409.096 803.938 409.031C803.47 408.966 803.005 408.888 802.544 408.795C802.083 408.704 801.627 408.599 801.174 408.479C800.721 408.361 800.272 408.228 799.829 408.083C799.385 407.938 798.947 407.78 798.513 407.608C798.08 407.436 797.653 407.252 797.231 407.054C796.809 406.857 796.394 406.648 795.985 406.425C795.575 406.202 795.172 405.967 794.777 405.72C794.38 405.473 793.992 405.213 793.61 404.941C793.229 404.671 792.855 404.387 792.489 404.092C792.122 403.798 791.765 403.491 791.414 403.173C791.064 402.856 790.723 402.527 790.39 402.187C790.057 401.847 789.733 401.497 789.418 401.136C789.103 400.775 788.796 400.404 788.5 400.023C788.203 399.642 787.916 399.251 787.638 398.85C787.361 398.449 787.094 398.039 786.837 397.62C786.579 397.201 786.333 396.773 786.096 396.336C785.859 395.9 785.632 395.454 785.417 395.002C785.201 394.549 784.997 394.088 784.802 393.62C784.609 393.152 784.425 392.677 784.254 392.194C784.082 391.711 783.921 391.223 783.773 390.727C783.623 390.232 783.486 389.73 783.359 389.223C783.233 388.716 783.118 388.204 783.014 387.686C782.912 387.168 782.82 386.645 782.741 386.119C782.661 385.591 782.593 385.06 782.538 384.525C782.481 383.99 782.438 383.451 782.405 382.909C782.373 382.367 782.353 381.822 782.344 381.274C782.336 380.727 782.34 380.177 782.355 379.625C782.37 379.075 782.399 378.521 782.438 377.967C782.477 377.412 782.529 376.857 782.592 376.3C782.655 375.744 782.73 375.189 782.817 374.633C782.904 374.077 783.001 373.521 783.112 372.966C783.222 372.411 783.344 371.858 783.477 371.305C783.611 370.752 783.755 370.202 783.912 369.654C784.068 369.105 784.235 368.559 784.413 368.016C784.592 367.472 784.782 366.932 784.983 366.395C785.183 365.859 785.394 365.325 785.616 364.796C785.839 364.267 786.071 363.743 786.314 363.223C786.558 362.702 786.811 362.187 787.074 361.678C787.338 361.167 787.611 360.663 787.894 360.166C788.177 359.667 788.47 359.175 788.772 358.69C789.074 358.204 789.386 357.726 789.707 357.254C790.028 356.782 790.357 356.319 790.695 355.862C791.034 355.405 791.38 354.958 791.736 354.517C792.091 354.077 792.454 353.644 792.824 353.221C793.195 352.798 793.573 352.384 793.96 351.979C794.346 351.574 794.739 351.179 795.139 350.793C795.539 350.408 795.946 350.032 796.358 349.666C796.772 349.3 797.192 348.944 797.616 348.6C798.042 348.256 798.473 347.921 798.909 347.599C799.346 347.276 799.788 346.964 800.234 346.664C800.68 346.365 801.131 346.076 801.586 345.799C802.041 345.522 802.501 345.257 802.965 345.004C803.429 344.752 803.895 344.511 804.365 344.282C804.835 344.054 805.308 343.838 805.783 343.635C806.259 343.432 806.737 343.242 807.217 343.065C807.698 342.888 808.18 342.723 808.663 342.572C809.147 342.421 809.632 342.282 810.117 342.157C810.603 342.032 811.09 341.921 811.576 341.822C812.063 341.724 812.549 341.64 813.036 341.569C813.523 341.497 814.008 341.44 814.494 341.395C814.978 341.352 815.463 341.321 815.945 341.304C816.428 341.288 816.908 341.285 817.387 341.295C817.866 341.306 818.343 341.33 818.818 341.368C819.291 341.405 819.763 341.457 820.231 341.522C820.699 341.586 821.164 341.666 821.625 341.757C822.086 341.849 822.542 341.955 822.995 342.074C823.448 342.193 823.897 342.325 824.34 342.47C824.784 342.615 825.222 342.774 825.655 342.945C826.089 343.117 826.516 343.302 826.937 343.498Z" fill="#C6B113"/>
<path fill-rule="evenodd" clip-rule="evenodd" d="M825.752 342.524C826.132 342.764 826.507 343.013 826.874 343.275C827.255 343.546 827.63 343.83 827.996 344.125C828.362 344.42 828.721 344.726 829.07 345.044C829.42 345.362 829.762 345.691 830.095 346.031C830.428 346.37 830.752 346.72 831.067 347.081C831.383 347.443 831.688 347.813 831.985 348.194C832.281 348.576 832.569 348.967 832.846 349.367C833.123 349.768 833.39 350.178 833.648 350.597C833.905 351.016 834.153 351.444 834.39 351.881C834.626 352.318 834.852 352.762 835.067 353.215C835.284 353.668 835.488 354.128 835.682 354.597C835.877 355.066 836.059 355.54 836.231 356.023C836.402 356.506 836.563 356.995 836.712 357.49C836.862 357.985 837 358.486 837.126 358.993C837.252 359.501 837.367 360.013 837.47 360.531C837.573 361.05 837.665 361.572 837.744 362.099C837.824 362.626 837.892 363.157 837.948 363.692C838.003 364.228 838.048 364.767 838.079 365.309C838.112 365.851 838.133 366.395 838.14 366.943C838.149 367.491 838.146 368.04 838.129 368.591C838.114 369.143 838.087 369.696 838.047 370.251C838.008 370.805 837.957 371.361 837.894 371.916C837.831 372.472 837.755 373.028 837.669 373.584C837.582 374.14 837.483 374.697 837.373 375.252C837.263 375.806 837.141 376.36 837.007 376.912C836.875 377.464 836.729 378.015 836.574 378.563C836.418 379.112 836.25 379.658 836.071 380.201C835.893 380.745 835.703 381.285 835.503 381.822C835.302 382.359 835.091 382.892 834.869 383.421C834.647 383.95 834.414 384.475 834.171 384.995C833.928 385.515 833.675 386.03 833.411 386.539C833.148 387.049 832.874 387.553 832.591 388.051C832.307 388.55 832.015 389.042 831.712 389.528C831.41 390.013 831.098 390.491 830.778 390.962C830.458 391.434 830.127 391.899 829.79 392.355C829.452 392.811 829.104 393.26 828.75 393.701C828.395 394.141 828.031 394.573 827.661 394.996C827.289 395.419 826.911 395.833 826.526 396.238C826.139 396.643 825.746 397.039 825.346 397.424C824.946 397.81 824.539 398.186 824.126 398.552C823.713 398.917 823.294 399.272 822.868 399.617C822.444 399.962 822.012 400.295 821.576 400.618C821.139 400.941 820.698 401.252 820.252 401.553C819.805 401.853 819.354 402.142 818.898 402.419C818.443 402.696 817.984 402.961 817.52 403.213C817.057 403.466 816.59 403.707 816.12 403.935C815.65 404.163 815.177 404.378 814.701 404.581C814.225 404.784 813.747 404.974 813.267 405.153C812.787 405.33 812.305 405.495 811.822 405.646C811.338 405.797 810.854 405.935 810.367 406.06C809.882 406.184 809.396 406.296 808.909 406.394C808.422 406.493 807.935 406.578 807.45 406.648C806.963 406.72 806.476 406.778 805.992 406.821C805.506 406.866 805.022 406.896 804.54 406.912C804.057 406.93 803.576 406.933 803.097 406.922C802.618 406.911 802.141 406.887 801.668 406.849C801.193 406.811 800.722 406.76 800.254 406.695C799.785 406.63 799.322 406.552 798.86 406.459C798.399 406.368 797.942 406.263 797.489 406.143C797.065 406.032 796.645 405.909 796.228 405.774C795.847 405.535 795.473 405.285 795.106 405.023C794.725 404.753 794.352 404.469 793.985 404.174C793.618 403.88 793.261 403.573 792.91 403.255C792.56 402.938 792.219 402.609 791.886 402.269C791.553 401.929 791.229 401.579 790.914 401.218C790.599 400.857 790.292 400.486 789.996 400.105C789.699 399.724 789.413 399.333 789.135 398.932C788.858 398.531 788.59 398.121 788.333 397.702C788.075 397.283 787.829 396.855 787.592 396.419C787.355 395.982 787.128 395.537 786.913 395.084C786.697 394.631 786.493 394.17 786.298 393.702C786.105 393.234 785.922 392.759 785.75 392.276C785.578 391.793 785.418 391.305 785.269 390.809C785.119 390.314 784.982 389.812 784.855 389.305C784.729 388.798 784.614 388.286 784.511 387.768C784.408 387.25 784.316 386.727 784.237 386.201C784.158 385.673 784.089 385.142 784.034 384.607C783.977 384.072 783.934 383.533 783.901 382.991C783.869 382.449 783.849 381.904 783.84 381.356C783.832 380.809 783.836 380.259 783.851 379.707C783.866 379.157 783.895 378.603 783.934 378.049C783.973 377.494 784.025 376.939 784.088 376.382C784.151 375.826 784.226 375.271 784.313 374.715C784.4 374.159 784.498 373.603 784.608 373.048C784.718 372.493 784.84 371.94 784.973 371.387C785.107 370.834 785.251 370.285 785.408 369.736C785.564 369.187 785.731 368.641 785.91 368.098C786.088 367.554 786.278 367.014 786.479 366.477C786.679 365.941 786.89 365.407 787.112 364.878C787.335 364.35 787.567 363.825 787.81 363.305C788.054 362.784 788.307 362.269 788.57 361.76C788.834 361.249 789.107 360.745 789.39 360.248C789.673 359.749 789.967 359.257 790.269 358.772C790.57 358.286 790.882 357.808 791.203 357.336C791.524 356.864 791.853 356.401 792.191 355.944C792.53 355.487 792.876 355.04 793.232 354.599C793.587 354.159 793.95 353.726 794.32 353.303C794.692 352.88 795.07 352.466 795.456 352.061C795.842 351.656 796.235 351.261 796.635 350.875C797.036 350.49 797.442 350.114 797.855 349.748C798.268 349.382 798.688 349.026 799.112 348.682C799.538 348.338 799.969 348.003 800.405 347.681C800.842 347.358 801.284 347.046 801.73 346.747C802.177 346.447 802.627 346.158 803.082 345.881C803.538 345.604 803.997 345.339 804.461 345.086C804.925 344.834 805.391 344.593 805.861 344.364C806.331 344.136 806.804 343.92 807.28 343.717C807.755 343.514 808.233 343.324 808.713 343.147C809.194 342.97 809.676 342.805 810.159 342.654C810.643 342.503 811.128 342.364 811.613 342.239C812.099 342.114 812.586 342.003 813.072 341.904C813.559 341.806 814.045 341.722 814.532 341.651C815.019 341.579 815.504 341.522 815.99 341.477C816.474 341.434 816.959 341.403 817.441 341.386C817.924 341.37 818.404 341.367 818.883 341.377C819.362 341.388 819.839 341.412 820.314 341.45C820.788 341.487 821.259 341.539 821.727 341.604C822.195 341.669 822.66 341.748 823.121 341.839C823.582 341.931 824.039 342.037 824.491 342.156C824.916 342.267 825.336 342.39 825.752 342.524Z" fill="#638200"/>
<path d="M821.758 341.076C822.179 341.274 822.595 341.484 823.005 341.706C823.413 341.929 823.816 342.164 824.213 342.411C824.608 342.659 824.997 342.917 825.378 343.189C825.759 343.461 826.134 343.744 826.5 344.039C826.866 344.334 827.225 344.64 827.574 344.958C827.924 345.276 828.266 345.605 828.599 345.945C828.932 346.284 829.256 346.634 829.571 346.995C829.887 347.357 830.192 347.727 830.489 348.108C830.785 348.49 831.073 348.881 831.35 349.281C831.627 349.682 831.894 350.092 832.152 350.511C832.409 350.93 832.657 351.358 832.894 351.795C833.13 352.232 833.356 352.676 833.571 353.129C833.787 353.582 833.992 354.042 834.186 354.512C834.381 354.98 834.563 355.454 834.735 355.937C834.906 356.42 835.067 356.909 835.216 357.404C835.366 357.899 835.504 358.4 835.63 358.907C835.756 359.415 835.871 359.927 835.974 360.445C836.077 360.964 836.168 361.486 836.248 362.013C836.328 362.54 836.395 363.071 836.452 363.606C836.507 364.142 836.552 364.681 836.583 365.223C836.616 365.765 836.637 366.309 836.644 366.857C836.653 367.405 836.65 367.954 836.633 368.505C836.618 369.057 836.591 369.61 836.551 370.165C836.512 370.719 836.461 371.275 836.398 371.83C836.335 372.386 836.259 372.942 836.173 373.498C836.086 374.055 835.987 374.611 835.877 375.166C835.767 375.72 835.645 376.274 835.511 376.826C835.379 377.378 835.233 377.929 835.078 378.478C834.921 379.026 834.754 379.572 834.575 380.116C834.397 380.659 834.207 381.2 834.007 381.736C833.806 382.273 833.595 382.806 833.373 383.335C833.151 383.864 832.917 384.389 832.675 384.909C832.432 385.429 832.179 385.944 831.915 386.453C831.652 386.963 831.378 387.467 831.095 387.965C830.811 388.464 830.519 388.956 830.216 389.442C829.914 389.927 829.602 390.405 829.282 390.877C828.961 391.348 828.631 391.813 828.293 392.269C827.956 392.725 827.608 393.174 827.254 393.615C826.899 394.055 826.535 394.487 826.164 394.91C825.793 395.333 825.415 395.747 825.029 396.152C824.643 396.557 824.25 396.953 823.85 397.338C823.45 397.724 823.043 398.1 822.63 398.466C822.217 398.831 821.798 399.186 821.372 399.531C820.947 399.876 820.516 400.209 820.08 400.532C819.643 400.855 819.202 401.166 818.756 401.467C818.309 401.767 817.858 402.056 817.402 402.333C816.947 402.61 816.488 402.875 816.024 403.127C815.561 403.38 815.094 403.621 814.624 403.849C814.154 404.077 813.681 404.292 813.205 404.495C812.729 404.698 812.251 404.889 811.771 405.067C811.291 405.244 810.809 405.409 810.325 405.56C809.842 405.711 809.358 405.849 808.871 405.974C808.386 406.099 807.9 406.21 807.413 406.308C806.926 406.407 806.439 406.492 805.954 406.562C805.467 406.634 804.98 406.692 804.496 406.735C804.01 406.78 803.526 406.81 803.044 406.826C802.561 406.844 802.08 406.847 801.601 406.836C801.122 406.825 800.645 406.801 800.172 406.763C799.697 406.725 799.226 406.674 798.757 406.609C798.289 406.544 797.825 406.466 797.364 406.373C796.903 406.282 796.446 406.177 795.993 406.057C795.54 405.939 795.093 405.806 794.648 405.661C794.205 405.515 793.766 405.358 793.334 405.186C792.901 405.015 792.473 404.83 792.051 404.632C791.63 404.436 791.214 404.226 790.804 404.003C790.395 403.781 789.993 403.545 789.596 403.298C789.201 403.051 788.812 402.791 788.431 402.519C788.049 402.248 787.675 401.966 787.309 401.67C786.943 401.376 786.584 401.069 786.235 400.751C785.885 400.434 785.543 400.105 785.21 399.765C784.877 399.425 784.553 399.075 784.237 398.715C783.922 398.353 783.617 397.982 783.32 397.601C783.023 397.22 782.736 396.829 782.459 396.428C782.182 396.027 781.915 395.617 781.657 395.198C781.4 394.779 781.152 394.351 780.915 393.915C780.679 393.478 780.453 393.033 780.237 392.58C780.022 392.127 779.816 391.666 779.623 391.198C779.428 390.73 779.246 390.254 779.074 389.772C778.903 389.29 778.742 388.801 778.592 388.305C778.443 387.81 778.305 387.308 778.179 386.801C778.053 386.294 777.938 385.781 777.835 385.264C777.732 384.746 777.641 384.224 777.561 383.697C777.481 383.169 777.414 382.638 777.357 382.102C777.302 381.568 777.257 381.029 777.225 380.487C777.193 379.945 777.172 379.4 777.165 378.852C777.156 378.305 777.159 377.755 777.176 377.203C777.191 376.652 777.218 376.099 777.257 375.545C777.297 374.99 777.348 374.435 777.411 373.879C777.474 373.322 777.549 372.767 777.636 372.211C777.723 371.655 777.822 371.099 777.932 370.544C778.042 369.989 778.164 369.436 778.298 368.883C778.43 368.33 778.576 367.781 778.731 367.232C778.888 366.684 779.055 366.137 779.234 365.594C779.412 365.05 779.601 364.51 779.802 363.973C780.003 363.436 780.214 362.904 780.436 362.375C780.658 361.845 780.891 361.321 781.134 360.801C781.377 360.28 781.63 359.766 781.894 359.256C782.157 358.746 782.431 358.242 782.714 357.744C782.998 357.246 783.29 356.753 783.592 356.268C783.895 355.782 784.207 355.304 784.527 354.832C784.848 354.361 785.177 353.897 785.516 353.441C785.853 352.983 786.2 352.535 786.555 352.095C786.91 351.655 787.273 351.223 787.645 350.799C788.015 350.376 788.394 349.963 788.78 349.557C789.166 349.152 789.558 348.757 789.959 348.371C790.359 347.985 790.765 347.61 791.179 347.244C791.592 346.878 792.011 346.523 792.437 346.178C792.862 345.834 793.293 345.499 793.729 345.177C794.166 344.854 794.607 344.542 795.054 344.243C795.5 343.942 795.951 343.654 796.407 343.377C796.862 343.1 797.321 342.835 797.784 342.582C798.248 342.33 798.715 342.089 799.185 341.861C799.655 341.632 800.128 341.416 800.604 341.213C801.08 341.01 801.558 340.82 802.038 340.643C802.518 340.466 803 340.301 803.484 340.15C803.967 339.999 804.451 339.86 804.937 339.735C805.423 339.61 805.909 339.499 806.396 339.4C806.882 339.303 807.369 339.218 807.855 339.146C808.342 339.076 808.829 339.018 809.313 338.973C809.799 338.93 810.282 338.9 810.765 338.882C811.248 338.866 811.729 338.863 812.208 338.874C812.687 338.884 813.164 338.908 813.637 338.946C814.112 338.983 814.582 339.035 815.05 339.101C815.519 339.165 815.984 339.244 816.445 339.335C816.906 339.427 817.363 339.533 817.816 339.652C818.269 339.771 818.716 339.903 819.161 340.048C819.604 340.193 820.043 340.352 820.475 340.523C820.908 340.695 821.336 340.88 821.758 341.076Z" fill="#F4BD15"/>
<path d="M819.641 348.693C819.967 348.846 820.289 349.008 820.606 349.18C820.922 349.353 821.234 349.534 821.54 349.725C821.846 349.917 822.147 350.117 822.442 350.327C822.737 350.538 823.026 350.756 823.309 350.984C823.593 351.212 823.87 351.45 824.14 351.696C824.411 351.941 824.676 352.195 824.933 352.458C825.191 352.721 825.442 352.993 825.685 353.272C825.929 353.551 826.165 353.838 826.395 354.132C826.624 354.428 826.846 354.729 827.061 355.04C827.275 355.35 827.483 355.667 827.681 355.991C827.88 356.315 828.071 356.646 828.255 356.983C828.437 357.321 828.612 357.666 828.779 358.015C828.946 358.366 829.104 358.722 829.254 359.084C829.404 359.447 829.546 359.814 829.679 360.188C829.811 360.56 829.936 360.939 830.051 361.322C830.167 361.705 830.273 362.093 830.371 362.485C830.469 362.878 830.558 363.275 830.637 363.674C830.717 364.075 830.788 364.479 830.85 364.887C830.911 365.295 830.964 365.706 831.007 366.119C831.05 366.533 831.084 366.95 831.109 367.37C831.134 367.789 831.15 368.21 831.156 368.634C831.163 369.056 831.159 369.482 831.147 369.909C831.135 370.335 831.115 370.763 831.084 371.192C831.054 371.621 831.014 372.05 830.965 372.48C830.916 372.91 830.858 373.34 830.791 373.771C830.724 374.201 830.648 374.631 830.562 375.06C830.477 375.489 830.383 375.917 830.28 376.345C830.176 376.772 830.064 377.198 829.944 377.622C829.823 378.046 829.694 378.468 829.556 378.889C829.418 379.309 829.272 379.727 829.116 380.142C828.961 380.557 828.797 380.97 828.625 381.378C828.454 381.788 828.273 382.194 828.085 382.596C827.898 382.998 827.702 383.397 827.498 383.791C827.295 384.185 827.083 384.575 826.863 384.961C826.645 385.346 826.418 385.726 826.185 386.101C825.951 386.477 825.71 386.847 825.461 387.212C825.214 387.577 824.958 387.936 824.696 388.289C824.436 388.642 824.167 388.989 823.893 389.329C823.618 389.67 823.338 390.004 823.05 390.332C822.763 390.659 822.471 390.979 822.172 391.292C821.873 391.606 821.569 391.911 821.26 392.21C820.95 392.509 820.636 392.799 820.317 393.082C819.996 393.365 819.673 393.639 819.344 393.906C819.015 394.173 818.681 394.43 818.344 394.68C818.007 394.93 817.664 395.171 817.32 395.403C816.975 395.635 816.625 395.859 816.273 396.073C815.921 396.286 815.566 396.492 815.207 396.687C814.849 396.883 814.487 397.069 814.124 397.246C813.761 397.422 813.395 397.589 813.026 397.745C812.659 397.903 812.289 398.049 811.917 398.187C811.546 398.324 811.173 398.451 810.8 398.569C810.425 398.686 810.05 398.792 809.674 398.889C809.3 398.986 808.923 399.072 808.547 399.148C808.17 399.224 807.794 399.289 807.417 399.344C807.041 399.4 806.666 399.444 806.29 399.478C805.915 399.513 805.54 399.535 805.167 399.548C804.794 399.561 804.421 399.564 804.051 399.556C803.681 399.547 803.312 399.529 802.945 399.499C802.579 399.47 802.214 399.431 801.853 399.38C801.49 399.33 801.13 399.269 800.774 399.199C800.418 399.127 800.064 399.045 799.714 398.953C799.363 398.862 799.016 398.76 798.673 398.647C798.331 398.535 797.991 398.412 797.657 398.28C797.321 398.147 796.991 398.004 796.665 397.852C796.338 397.699 796.017 397.537 795.7 397.364C795.384 397.192 795.072 397.011 794.766 396.819C794.46 396.628 794.159 396.428 793.865 396.217C793.569 396.007 793.28 395.788 792.997 395.56C792.713 395.332 792.436 395.095 792.166 394.849C791.895 394.604 791.63 394.35 791.373 394.087C791.115 393.824 790.865 393.553 790.621 393.273C790.377 392.994 790.14 392.707 789.911 392.412C789.682 392.118 789.46 391.815 789.245 391.505C789.031 391.195 788.824 390.878 788.625 390.554C788.426 390.23 788.235 389.899 788.051 389.561C787.869 389.224 787.694 388.88 787.527 388.529C787.359 388.179 787.202 387.823 787.052 387.46C786.901 387.098 786.76 386.73 786.627 386.358C786.494 385.984 786.37 385.606 786.255 385.222C786.14 384.84 786.032 384.452 785.935 384.059C785.838 383.667 785.749 383.271 785.668 382.87C785.589 382.47 785.518 382.066 785.456 381.658C785.394 381.25 785.342 380.84 785.299 380.426C785.255 380.011 785.222 379.595 785.197 379.176C785.172 378.756 785.157 378.335 785.15 377.911C785.144 377.488 785.146 377.063 785.159 376.636C785.171 376.209 785.191 375.781 785.222 375.353C785.252 374.924 785.292 374.494 785.341 374.064C785.39 373.635 785.448 373.205 785.515 372.775C785.582 372.344 785.658 371.914 785.743 371.485C785.829 371.056 785.923 370.627 786.027 370.2C786.129 369.773 786.242 369.348 786.362 368.923C786.483 368.498 786.612 368.077 786.75 367.656C786.888 367.236 787.035 366.818 787.19 366.403C787.345 365.988 787.508 365.575 787.681 365.166C787.853 364.756 788.032 364.351 788.221 363.949C788.409 363.546 788.604 363.149 788.808 362.754C789.011 362.36 789.223 361.97 789.443 361.585C789.661 361.199 789.888 360.819 790.122 360.443C790.355 360.068 790.596 359.698 790.845 359.333C791.093 358.968 791.348 358.609 791.609 358.256C791.87 357.903 792.139 357.556 792.413 357.216C792.688 356.875 792.969 356.54 793.255 356.213C793.543 355.886 793.835 355.566 794.134 355.253C794.433 354.939 794.737 354.634 795.046 354.335C795.355 354.037 795.67 353.746 795.989 353.463C796.309 353.181 796.633 352.906 796.962 352.64C797.292 352.372 797.625 352.114 797.962 351.865C798.3 351.615 798.641 351.374 798.986 351.142C799.331 350.909 799.68 350.687 800.033 350.473C800.385 350.259 800.74 350.053 801.099 349.858C801.457 349.662 801.818 349.477 802.182 349.3C802.546 349.124 802.912 348.956 803.28 348.799C803.647 348.642 804.017 348.495 804.389 348.358C804.76 348.221 805.133 348.094 805.507 347.977C805.88 347.859 806.256 347.753 806.631 347.656C807.007 347.559 807.384 347.473 807.759 347.397C808.136 347.322 808.512 347.255 808.889 347.201C809.265 347.146 809.641 347.101 810.016 347.067C810.391 347.033 810.766 347.01 811.139 346.997C811.512 346.984 811.885 346.981 812.255 346.989C812.626 346.997 812.994 347.016 813.361 347.046C813.727 347.075 814.092 347.114 814.454 347.164C814.816 347.215 815.176 347.276 815.532 347.347C815.888 347.418 816.243 347.5 816.592 347.591C816.943 347.683 817.29 347.785 817.633 347.898C817.975 348.01 818.315 348.133 818.65 348.266C818.984 348.398 819.315 348.541 819.641 348.693Z" fill="#7A8B00"/>
<path d="M818.335 348.291C818.661 348.443 818.982 348.606 819.299 348.778C819.615 348.95 819.927 349.132 820.233 349.323C820.54 349.514 820.841 349.715 821.135 349.925C821.43 350.136 821.719 350.354 822.003 350.582C822.286 350.81 822.563 351.048 822.834 351.293C823.104 351.539 823.369 351.793 823.627 352.056C823.884 352.319 824.135 352.59 824.378 352.869C824.623 353.149 824.858 353.435 825.089 353.73C825.318 354.025 825.539 354.327 825.754 354.638C825.968 354.947 826.176 355.265 826.375 355.588C826.573 355.913 826.765 356.243 826.948 356.581C827.131 356.919 827.306 357.263 827.473 357.613C827.639 357.964 827.798 358.32 827.948 358.682C828.097 359.045 828.24 359.412 828.372 359.785C828.505 360.158 828.63 360.537 828.745 360.919C828.86 361.303 828.966 361.691 829.064 362.083C829.162 362.476 829.251 362.872 829.33 363.272C829.411 363.673 829.481 364.077 829.543 364.484C829.604 364.893 829.657 365.303 829.701 365.717C829.743 366.131 829.778 366.548 829.803 366.967C829.828 367.387 829.843 367.808 829.849 368.232C829.856 368.654 829.853 369.08 829.841 369.507C829.829 369.933 829.808 370.361 829.778 370.79C829.747 371.219 829.707 371.648 829.658 372.078C829.609 372.508 829.552 372.938 829.485 373.368C829.417 373.798 829.341 374.229 829.255 374.658C829.171 375.087 829.076 375.515 828.973 375.943C828.87 376.369 828.758 376.795 828.637 377.22C828.517 377.644 828.387 378.066 828.249 378.486C828.112 378.907 827.965 379.325 827.81 379.74C827.654 380.155 827.49 380.568 827.319 380.976C827.147 381.386 826.967 381.792 826.779 382.194C826.591 382.596 826.395 382.994 826.191 383.388C825.988 383.783 825.776 384.173 825.557 384.558C825.338 384.944 825.111 385.324 824.878 385.699C824.644 386.075 824.403 386.445 824.155 386.81C823.907 387.175 823.652 387.533 823.39 387.886C823.129 388.239 822.861 388.587 822.586 388.927C822.311 389.268 822.031 389.602 821.743 389.93C821.456 390.257 821.164 390.577 820.865 390.89C820.567 391.204 820.263 391.509 819.953 391.808C819.644 392.106 819.33 392.396 819.01 392.68C818.69 392.962 818.366 393.237 818.037 393.503C817.708 393.77 817.374 394.028 817.038 394.278C816.7 394.527 816.358 394.769 816.013 395.001C815.668 395.232 815.318 395.456 814.966 395.67C814.614 395.884 814.259 396.089 813.901 396.285C813.542 396.48 813.181 396.666 812.818 396.843C812.454 397.019 812.088 397.186 811.72 397.343C811.353 397.5 810.982 397.647 810.611 397.785C810.239 397.922 809.867 398.049 809.493 398.166C809.118 398.284 808.743 398.39 808.368 398.487C807.993 398.583 807.616 398.669 807.24 398.745C806.863 398.821 806.487 398.886 806.111 398.942C805.735 398.997 805.359 399.042 804.983 399.075C804.608 399.11 804.234 399.133 803.86 399.146C803.487 399.159 803.115 399.161 802.744 399.154C802.374 399.145 802.006 399.126 801.639 399.097C801.273 399.068 800.908 399.029 800.546 398.978C800.183 398.928 799.824 398.867 799.467 398.796C799.111 398.725 798.757 398.643 798.407 398.551C798.056 398.46 797.71 398.357 797.367 398.244C797.024 398.133 796.684 398.01 796.35 397.877C796.014 397.745 795.684 397.601 795.358 397.449C795.031 397.296 794.711 397.134 794.394 396.962C794.078 396.79 793.766 396.609 793.46 396.416C793.153 396.225 792.852 396.025 792.558 395.815C792.263 395.605 791.974 395.386 791.69 395.157C791.407 394.929 791.13 394.693 790.859 394.447C790.589 394.202 790.324 393.947 790.066 393.685C789.809 393.422 789.558 393.15 789.315 392.871C789.07 392.592 788.833 392.305 788.604 392.01C788.375 391.715 788.153 391.412 787.938 391.103C787.724 390.793 787.517 390.476 787.318 390.151C787.119 389.827 786.928 389.496 786.745 389.158C786.562 388.822 786.387 388.477 786.22 388.126C786.053 387.777 785.895 387.42 785.745 387.058C785.594 386.696 785.453 386.328 785.321 385.955C785.187 385.582 785.063 385.204 784.948 384.82C784.833 384.438 784.725 384.05 784.629 383.657C784.531 383.265 784.442 382.868 784.362 382.467C784.282 382.068 784.212 381.664 784.15 381.255C784.088 380.848 784.036 380.437 783.992 380.023C783.949 379.608 783.915 379.192 783.89 378.773C783.865 378.354 783.85 377.932 783.843 377.509C783.837 377.085 783.839 376.661 783.852 376.234C783.864 375.807 783.885 375.379 783.915 374.951C783.946 374.522 783.986 374.092 784.035 373.662C784.083 373.232 784.141 372.802 784.208 372.372C784.276 371.942 784.352 371.512 784.436 371.083C784.522 370.654 784.617 370.225 784.72 369.798C784.822 369.371 784.935 368.945 785.056 368.521C785.176 368.096 785.305 367.674 785.443 367.254C785.581 366.834 785.728 366.415 785.883 366.001C786.039 365.586 786.202 365.173 786.374 364.763C786.546 364.354 786.725 363.949 786.914 363.547C787.102 363.144 787.298 362.746 787.502 362.352C787.705 361.958 787.917 361.568 788.136 361.182C788.354 360.797 788.581 360.416 788.815 360.041C789.048 359.666 789.29 359.295 789.538 358.93C789.786 358.566 790.041 358.207 790.302 357.854C790.564 357.501 790.832 357.153 791.107 356.813C791.382 356.472 791.662 356.138 791.949 355.811C792.236 355.484 792.529 355.164 792.827 354.851C793.126 354.537 793.43 354.232 793.74 353.933C794.048 353.634 794.363 353.344 794.683 353.061C795.002 352.778 795.327 352.503 795.656 352.237C795.985 351.97 796.318 351.712 796.655 351.463C796.993 351.213 797.334 350.972 797.679 350.739C798.025 350.507 798.374 350.284 798.727 350.07C799.078 349.856 799.434 349.651 799.792 349.456C800.151 349.26 800.511 349.074 800.875 348.897C801.239 348.721 801.605 348.554 801.973 348.396C802.34 348.24 802.711 348.092 803.082 347.955C803.454 347.819 803.826 347.692 804.2 347.574C804.574 347.457 804.949 347.35 805.324 347.254C805.7 347.157 806.077 347.07 806.453 346.994C806.83 346.919 807.205 346.853 807.582 346.799C807.958 346.743 808.334 346.699 808.71 346.665C809.085 346.63 809.459 346.608 809.832 346.594C810.206 346.581 810.578 346.578 810.948 346.587C811.319 346.594 811.687 346.614 812.054 346.643C812.42 346.673 812.785 346.712 813.147 346.762C813.51 346.813 813.869 346.874 814.226 346.944C814.582 347.016 814.936 347.097 815.286 347.189C815.637 347.281 815.983 347.383 816.326 347.496C816.668 347.608 817.008 347.731 817.343 347.863C817.677 347.996 818.009 348.139 818.335 348.291Z" fill="#80BC00"/>
<path d="M814.662 356.252C815.103 356.458 815.53 356.691 815.944 356.949C816.357 357.208 816.756 357.491 817.138 357.8C817.522 358.108 817.888 358.44 818.235 358.795C818.584 359.15 818.913 359.527 819.223 359.926C819.533 360.324 819.822 360.742 820.092 361.181C820.361 361.619 820.608 362.075 820.834 362.549C821.058 363.022 821.262 363.511 821.441 364.015C821.621 364.52 821.776 365.037 821.909 365.567C822.04 366.099 822.149 366.638 822.232 367.19C822.315 367.741 822.374 368.3 822.408 368.867C822.441 369.433 822.45 370.006 822.434 370.582C822.417 371.159 822.376 371.738 822.31 372.319C822.243 372.9 822.153 373.481 822.038 374.061C821.923 374.641 821.783 375.218 821.62 375.792C821.457 376.365 821.27 376.932 821.061 377.494C820.851 378.055 820.62 378.608 820.365 379.151C820.111 379.696 819.835 380.228 819.54 380.748C819.243 381.269 818.927 381.777 818.593 382.27C818.257 382.763 817.904 383.24 817.533 383.699C817.161 384.16 816.774 384.602 816.37 385.026C815.967 385.449 815.549 385.852 815.117 386.235C814.686 386.617 814.241 386.976 813.785 387.314C813.328 387.651 812.862 387.965 812.386 388.255C811.909 388.544 811.426 388.808 810.934 389.047C810.443 389.286 809.947 389.497 809.444 389.683C808.942 389.868 808.437 390.026 807.93 390.157C807.421 390.287 806.913 390.39 806.405 390.464C805.896 390.539 805.389 390.585 804.885 390.602C804.38 390.62 803.879 390.609 803.384 390.57C802.888 390.529 802.4 390.462 801.917 390.365C801.435 390.27 800.963 390.145 800.499 389.994C800.035 389.842 799.582 389.663 799.141 389.456C798.7 389.25 798.273 389.017 797.859 388.759C797.446 388.5 797.047 388.217 796.663 387.908C796.281 387.6 795.915 387.269 795.567 386.913C795.219 386.558 794.89 386.181 794.58 385.783C794.269 385.384 793.981 384.965 793.711 384.527C793.442 384.089 793.195 383.633 792.969 383.159C792.743 382.686 792.541 382.197 792.362 381.692C792.182 381.188 792.026 380.671 791.894 380.14C791.761 379.61 791.654 379.069 791.571 378.518C791.488 377.966 791.429 377.408 791.395 376.841C791.362 376.274 791.353 375.703 791.369 375.126C791.386 374.549 791.427 373.97 791.493 373.389C791.559 372.808 791.65 372.227 791.765 371.647C791.88 371.067 792.019 370.49 792.183 369.917C792.346 369.343 792.533 368.775 792.742 368.214C792.952 367.653 793.183 367.1 793.437 366.556C793.692 366.013 793.967 365.48 794.263 364.959C794.559 364.439 794.876 363.932 795.21 363.438C795.546 362.945 795.899 362.468 796.27 362.008C796.642 361.547 797.028 361.105 797.432 360.683C797.835 360.259 798.254 359.856 798.686 359.474C799.117 359.091 799.561 358.732 800.018 358.394C800.474 358.056 800.941 357.743 801.417 357.453C801.892 357.165 802.377 356.901 802.868 356.662C803.36 356.423 803.856 356.211 804.359 356.025C804.861 355.839 805.366 355.682 805.873 355.552C806.382 355.42 806.89 355.318 807.398 355.244C807.907 355.169 808.414 355.124 808.918 355.106C809.423 355.088 809.923 355.1 810.419 355.139C810.914 355.178 811.403 355.246 811.885 355.342C812.368 355.439 812.84 355.562 813.304 355.714C813.768 355.866 814.221 356.046 814.662 356.252Z" fill="#F4BD15"/>
<path d="M811.431 365.811C811.629 365.904 811.821 366.008 812.007 366.124C812.193 366.24 812.372 366.368 812.544 366.507C812.716 366.646 812.88 366.794 813.037 366.954C813.193 367.114 813.341 367.282 813.48 367.461C813.619 367.641 813.749 367.828 813.87 368.025C813.992 368.223 814.102 368.427 814.203 368.64C814.304 368.853 814.396 369.072 814.476 369.299C814.557 369.525 814.627 369.758 814.687 369.997C814.745 370.234 814.794 370.478 814.831 370.725C814.869 370.972 814.895 371.224 814.911 371.478C814.926 371.732 814.929 371.99 814.922 372.248C814.915 372.508 814.896 372.767 814.867 373.029C814.837 373.29 814.796 373.551 814.744 373.811C814.692 374.072 814.63 374.332 814.556 374.589C814.484 374.846 814.4 375.102 814.305 375.354C814.211 375.606 814.107 375.854 813.993 376.099C813.879 376.343 813.755 376.582 813.622 376.816C813.489 377.05 813.347 377.277 813.196 377.499C813.046 377.721 812.887 377.934 812.721 378.142C812.553 378.348 812.38 378.547 812.198 378.737C812.017 378.927 811.829 379.109 811.636 379.28C811.441 379.452 811.241 379.614 811.037 379.766C810.832 379.917 810.622 380.058 810.408 380.188C810.194 380.318 809.977 380.436 809.756 380.544C809.536 380.651 809.312 380.747 809.087 380.829C808.861 380.913 808.634 380.983 808.406 381.042C808.178 381.101 807.95 381.147 807.722 381.181C807.493 381.214 807.266 381.234 807.039 381.243C806.812 381.251 806.587 381.245 806.364 381.228C806.142 381.21 805.922 381.18 805.706 381.137C805.49 381.093 805.277 381.038 805.068 380.969C804.86 380.901 804.657 380.821 804.459 380.728C804.261 380.635 804.069 380.531 803.883 380.414C803.698 380.299 803.518 380.171 803.346 380.033C803.174 379.894 803.01 379.745 802.854 379.586C802.697 379.426 802.55 379.256 802.411 379.077C802.27 378.899 802.141 378.711 802.019 378.513C801.899 378.317 801.788 378.113 801.687 377.9C801.585 377.687 801.495 377.467 801.413 377.24C801.333 377.013 801.263 376.781 801.204 376.543C801.144 376.305 801.096 376.062 801.059 375.814C801.021 375.567 800.995 375.316 800.98 375.061C800.965 374.806 800.962 374.55 800.968 374.29C800.976 374.032 800.994 373.771 801.023 373.51C801.054 373.25 801.094 372.988 801.146 372.727C801.197 372.467 801.26 372.208 801.334 371.951C801.407 371.692 801.49 371.438 801.585 371.186C801.679 370.933 801.784 370.685 801.898 370.441C802.012 370.196 802.136 369.957 802.268 369.724C802.402 369.489 802.543 369.261 802.694 369.041C802.845 368.819 803.004 368.604 803.17 368.398C803.337 368.191 803.511 367.992 803.692 367.802C803.874 367.612 804.06 367.431 804.255 367.259C804.449 367.088 804.648 366.926 804.853 366.774C805.059 366.623 805.268 366.482 805.482 366.351C805.696 366.221 805.914 366.102 806.134 365.996C806.354 365.889 806.578 365.793 806.803 365.709C807.029 365.627 807.256 365.555 807.484 365.496C807.712 365.438 807.94 365.392 808.168 365.358C808.398 365.325 808.625 365.304 808.852 365.297C809.079 365.289 809.302 365.293 809.525 365.312C809.748 365.329 809.968 365.36 810.184 365.403C810.401 365.446 810.613 365.502 810.822 365.57C811.03 365.639 811.234 365.719 811.431 365.811Z" fill="#F45A04"/>
<path d="M810.388 365.393C810.586 365.486 810.778 365.59 810.964 365.706C811.15 365.822 811.329 365.95 811.501 366.089C811.673 366.228 811.837 366.376 811.994 366.536C812.15 366.696 812.298 366.864 812.437 367.043C812.576 367.223 812.706 367.41 812.827 367.607C812.949 367.805 813.059 368.009 813.16 368.222C813.261 368.435 813.353 368.654 813.433 368.881C813.515 369.107 813.584 369.34 813.644 369.579C813.702 369.816 813.751 370.06 813.788 370.307C813.826 370.554 813.852 370.806 813.868 371.06C813.883 371.314 813.886 371.572 813.879 371.83C813.872 372.09 813.853 372.349 813.824 372.611C813.794 372.872 813.753 373.133 813.701 373.393C813.649 373.654 813.587 373.914 813.513 374.171C813.441 374.428 813.357 374.684 813.263 374.936C813.168 375.188 813.064 375.436 812.95 375.681C812.836 375.925 812.712 376.164 812.579 376.398C812.446 376.632 812.304 376.859 812.154 377.081C812.003 377.303 811.844 377.517 811.678 377.724C811.51 377.93 811.337 378.129 811.155 378.319C810.974 378.509 810.786 378.691 810.593 378.862C810.398 379.034 810.198 379.196 809.994 379.348C809.789 379.499 809.579 379.64 809.365 379.77C809.151 379.9 808.934 380.018 808.714 380.126C808.493 380.233 808.269 380.329 808.044 380.411C807.818 380.495 807.591 380.565 807.363 380.624C807.135 380.683 806.907 380.73 806.679 380.763C806.45 380.796 806.223 380.816 805.996 380.825C805.769 380.833 805.544 380.827 805.321 380.81C805.099 380.793 804.879 380.762 804.663 380.719C804.447 380.675 804.234 380.62 804.025 380.551C803.817 380.483 803.614 380.403 803.416 380.31C803.218 380.217 803.026 380.113 802.84 379.996C802.655 379.881 802.475 379.753 802.303 379.615C802.131 379.476 801.967 379.327 801.811 379.168C801.654 379.008 801.507 378.838 801.368 378.659C801.227 378.481 801.098 378.293 800.977 378.095C800.856 377.899 800.745 377.695 800.644 377.482C800.542 377.269 800.452 377.049 800.37 376.822C800.29 376.595 800.221 376.363 800.161 376.125C800.101 375.887 800.053 375.644 800.016 375.396C799.978 375.149 799.952 374.898 799.937 374.644C799.922 374.388 799.919 374.132 799.925 373.872C799.933 373.614 799.951 373.353 799.98 373.092C800.011 372.832 800.051 372.57 800.103 372.309C800.154 372.049 800.217 371.79 800.291 371.533C800.364 371.274 800.448 371.02 800.542 370.768C800.637 370.515 800.741 370.267 800.855 370.023C800.969 369.778 801.093 369.539 801.225 369.306C801.359 369.071 801.5 368.843 801.651 368.623C801.802 368.401 801.961 368.186 802.127 367.98C802.294 367.773 802.468 367.575 802.649 367.384C802.831 367.194 803.017 367.013 803.212 366.841C803.406 366.67 803.605 366.508 803.81 366.356C804.016 366.205 804.225 366.064 804.439 365.933C804.653 365.803 804.871 365.685 805.091 365.578C805.312 365.471 805.535 365.375 805.76 365.291C805.986 365.209 806.213 365.137 806.441 365.078C806.669 365.02 806.897 364.974 807.125 364.94C807.355 364.907 807.582 364.886 807.809 364.879C808.036 364.871 808.259 364.875 808.482 364.894C808.705 364.911 808.925 364.942 809.141 364.985C809.358 365.028 809.571 365.084 809.779 365.152C809.987 365.221 810.191 365.301 810.388 365.393Z" fill="#FF7A34"/>
<path d="M787.299 359.65C787.299 359.65 782.136 342.717 776.894 340.13C771.652 337.542 773.353 353.123 773.353 353.123L787.299 359.65Z" fill="#386F77"/>
<path fill-rule="evenodd" clip-rule="evenodd" d="M782.82 357.554C783.07 357.12 783.326 356.691 783.589 356.268C783.892 355.782 784.204 355.304 784.525 354.832C784.762 354.483 785.004 354.138 785.251 353.797C786.516 357.084 787.298 359.65 787.298 359.65L782.82 357.554Z" fill="#36520A"/>
<path d="M784.535 364.87C784.535 364.87 769.132 369.419 767.02 365.402C764.908 361.384 770.296 359.652 770.296 359.652L784.535 364.87Z" fill="#386F77"/>
<path d="M784.535 364.87C784.535 364.87 769.132 369.419 767.02 365.402C764.908 361.384 770.296 359.652 770.296 359.652L784.535 364.87Z" fill="#386F77"/>
<path fill-rule="evenodd" clip-rule="evenodd" d="M779.037 366.206C779.101 366.001 779.167 365.797 779.234 365.593C779.412 365.049 779.601 364.509 779.802 363.973C779.893 363.728 779.987 363.485 780.082 363.242L784.535 364.874C784.535 364.874 782.102 365.592 779.037 366.206Z" fill="#36520A"/>
<path d="M807.892 372.075L807.853 372.098C807.696 372.189 807.526 372.243 807.346 372.26C807.166 372.279 806.989 372.259 806.817 372.203L771.965 360.735C771.771 360.671 771.583 360.592 771.402 360.499C771.219 360.406 771.046 360.298 770.881 360.177C770.716 360.057 770.562 359.923 770.417 359.779C770.274 359.633 770.142 359.478 770.022 359.313C769.903 359.147 769.796 358.973 769.704 358.79C769.611 358.608 769.533 358.42 769.47 358.225C769.408 358.031 769.361 357.832 769.329 357.63C769.296 357.428 769.281 357.225 769.281 357.021C769.281 356.599 769.348 356.189 769.481 355.789C769.526 355.657 769.577 355.528 769.635 355.401C769.693 355.275 769.757 355.153 769.829 355.033C769.899 354.914 769.976 354.799 770.06 354.688C770.144 354.576 770.233 354.469 770.327 354.368C770.422 354.266 770.522 354.171 770.627 354.079C770.732 353.988 770.841 353.903 770.955 353.824C771.07 353.745 771.188 353.672 771.309 353.605C771.431 353.539 771.557 353.478 771.685 353.424C771.813 353.371 771.944 353.326 772.077 353.285C772.21 353.246 772.345 353.214 772.481 353.189C772.618 353.164 772.756 353.146 772.894 353.137C773.033 353.126 773.172 353.123 773.31 353.127C773.449 353.132 773.588 353.143 773.725 353.163C773.863 353.182 773.999 353.208 774.133 353.242C774.268 353.276 774.401 353.317 774.531 353.365C774.661 353.413 774.789 353.468 774.913 353.529L807.828 369.815C808.056 369.926 808.234 370.091 808.361 370.311C808.404 370.383 808.44 370.46 808.467 370.541C808.495 370.62 808.515 370.703 808.527 370.787C808.539 370.871 808.542 370.956 808.537 371.041C808.531 371.125 808.518 371.209 808.496 371.29C808.475 371.373 808.444 371.452 808.407 371.528C808.369 371.604 808.325 371.676 808.273 371.743C808.222 371.811 808.163 371.873 808.099 371.928C808.035 371.983 807.966 372.032 807.892 372.075Z" fill="#386F77"/>
<path fill-rule="evenodd" clip-rule="evenodd" d="M780.021 363.385C780.154 363.045 780.291 362.707 780.433 362.371C780.654 361.841 780.887 361.317 781.13 360.797C781.373 360.276 781.627 359.762 781.89 359.252C782.153 358.742 782.427 358.238 782.711 357.74C782.763 357.648 782.815 357.556 782.868 357.465L807.829 369.815C808.057 369.926 808.234 370.091 808.361 370.311C808.404 370.383 808.44 370.46 808.467 370.541C808.496 370.62 808.515 370.703 808.527 370.787C808.539 370.871 808.542 370.956 808.537 371.04C808.531 371.125 808.518 371.209 808.497 371.29C808.475 371.373 808.444 371.452 808.408 371.528C808.37 371.604 808.325 371.676 808.273 371.743C808.222 371.811 808.163 371.872 808.099 371.928C808.035 371.983 807.967 372.032 807.893 372.075L807.854 372.098C807.696 372.189 807.527 372.243 807.346 372.26C807.166 372.279 806.989 372.259 806.817 372.203L780.021 363.385Z" fill="#36520A"/>
<path fill-rule="evenodd" clip-rule="evenodd" d="M786.119 365.394C786.202 365.183 786.288 364.974 786.376 364.765C786.548 364.356 786.727 363.95 786.916 363.549C787.104 363.146 787.299 362.748 787.503 362.354C787.707 361.959 787.918 361.569 788.138 361.184C788.302 360.894 788.47 360.608 788.643 360.324L807.828 369.817C808.056 369.928 808.233 370.093 808.36 370.312C808.404 370.385 808.44 370.462 808.467 370.543C808.495 370.622 808.515 370.704 808.527 370.789C808.538 370.873 808.542 370.957 808.536 371.042C808.531 371.127 808.518 371.211 808.496 371.292C808.474 371.375 808.444 371.454 808.407 371.53C808.369 371.606 808.325 371.678 808.272 371.745C808.221 371.812 808.163 371.874 808.099 371.93C808.034 371.985 807.966 372.034 807.892 372.076L807.853 372.1C807.696 372.19 807.526 372.245 807.346 372.262C807.166 372.28 806.988 372.261 806.817 372.204L786.119 365.394Z" fill="#1A4D00"/>
<path fill-rule="evenodd" clip-rule="evenodd" d="M807.853 372.098L807.892 372.075C807.966 372.032 808.034 371.983 808.098 371.928C808.162 371.873 808.221 371.811 808.272 371.743C808.324 371.676 808.369 371.604 808.407 371.528C808.444 371.452 808.474 371.373 808.496 371.29C808.517 371.209 808.53 371.125 808.536 371.04C808.541 370.956 808.538 370.871 808.526 370.787C808.514 370.703 808.495 370.62 808.466 370.541C808.439 370.46 808.403 370.383 808.36 370.311C808.233 370.091 808.056 369.926 807.828 369.815L795.143 363.539C794.834 364 794.541 364.474 794.264 364.959C793.969 365.48 793.693 366.013 793.439 366.556C793.271 366.915 793.113 367.278 792.965 367.645L806.816 372.203C806.988 372.259 807.165 372.279 807.345 372.26C807.526 372.243 807.695 372.189 807.853 372.098Z" fill="#36520A"/>
<path fill-rule="evenodd" clip-rule="evenodd" d="M807.854 372.101L807.893 372.077C807.967 372.035 808.035 371.986 808.099 371.931C808.163 371.875 808.222 371.814 808.273 371.746C808.325 371.679 808.37 371.607 808.408 371.531C808.445 371.455 808.475 371.376 808.497 371.293C808.519 371.212 808.532 371.128 808.537 371.043C808.542 370.959 808.539 370.874 808.527 370.79C808.515 370.706 808.496 370.623 808.467 370.544C808.44 370.463 808.404 370.386 808.361 370.314C808.234 370.094 808.057 369.929 807.829 369.818L802.733 367.297C802.704 367.327 802.675 367.357 802.646 367.387C802.464 367.577 802.291 367.776 802.123 367.983C801.957 368.189 801.799 368.404 801.648 368.626C801.497 368.846 801.355 369.074 801.222 369.309C801.089 369.542 800.965 369.781 800.851 370.026C800.822 370.088 800.794 370.151 800.766 370.214L806.818 372.206C806.989 372.262 807.166 372.282 807.347 372.263C807.527 372.246 807.696 372.192 807.854 372.101Z" fill="#42280B"/>
<path d="M837.55 406.921C837.28 406.921 837.037 406.791 836.867 406.578L834.697 403.707L832.527 406.578C832.37 406.791 832.114 406.921 831.844 406.921C831.571 406.921 831.329 406.791 831.158 406.578L828.989 403.707L826.821 406.578C826.662 406.791 826.406 406.921 826.135 406.921C825.863 406.921 825.62 406.791 825.45 406.578L822.597 402.807C822.311 402.437 822.381 401.894 822.767 401.608C823.137 401.322 823.68 401.393 823.966 401.779L826.135 404.649L828.303 401.779C828.462 401.565 828.718 401.436 828.989 401.436C829.261 401.436 829.517 401.565 829.674 401.779L831.844 404.649L834.012 401.779C834.168 401.565 834.427 401.436 834.697 401.436C834.967 401.436 835.21 401.565 835.382 401.779L837.55 404.649L839.72 401.779C840.006 401.409 840.548 401.322 840.918 401.608C841.29 401.894 841.375 402.437 841.091 402.807L838.236 406.578C838.079 406.791 837.822 406.921 837.55 406.921Z" fill="#80BC00"/>
<path fill-rule="evenodd" clip-rule="evenodd" d="M825.002 403.144C824.65 403.399 824.294 403.648 823.935 403.889C823.821 403.965 823.707 404.041 823.592 404.116L822.599 402.803C822.313 402.433 822.383 401.89 822.769 401.604C823.139 401.319 823.682 401.389 823.967 401.775L825.002 403.144Z" fill="#638200"/>
<mask id="mask0_2893_159528" style="mask-type:luminance" maskUnits="userSpaceOnUse" x="755" y="341" width="13" height="13">
<path d="M755.896 341.785H767.406V353.247H755.896V341.785Z" fill="white"/>
</mask>
<g mask="url(#mask0_2893_159528)">
<path d="M767.241 352.601L759.635 342.119C759.578 342.033 759.45 342.019 759.378 342.104L755.969 345.745C755.896 345.832 755.91 345.945 755.996 346.002L766.999 352.843C767.156 352.943 767.34 352.744 767.227 352.601H767.241Z" fill="#FF7A34"/>
</g>
<path d="M769.297 350.822L768.983 342.812C768.983 342.698 768.868 342.626 768.768 342.655L764.959 343.797C764.859 343.826 764.801 343.955 764.859 344.055L768.983 350.922C769.068 351.081 769.311 351.008 769.297 350.822Z" fill="#FF7A34"/>
<path d="M766.372 354.583L758.48 353.212C758.367 353.199 758.267 353.285 758.281 353.398L758.594 357.368C758.594 357.483 758.709 357.553 758.823 357.51L766.401 354.912C766.572 354.855 766.543 354.612 766.372 354.583Z" fill="#FF7A34"/>
<path d="M776.766 399.372L775.881 400.259L774.996 399.372C774.682 399.058 774.169 399.058 773.854 399.372C773.541 399.687 773.541 400.2 773.854 400.515L774.739 401.4L773.854 402.285C773.541 402.6 773.541 403.114 773.854 403.429C774.169 403.742 774.682 403.742 774.996 403.429L775.881 402.542L776.766 403.429C777.079 403.742 777.593 403.742 777.908 403.429C778.221 403.114 778.221 402.6 777.908 402.285L777.023 401.4L777.908 400.515C778.221 400.2 778.221 399.687 777.908 399.372C777.593 399.058 777.079 399.058 776.766 399.372Z" fill="#F4BD15"/>
<path d="M833.873 337.684L832.988 338.569L832.105 337.684C831.789 337.371 831.276 337.371 830.963 337.684C830.648 337.998 830.648 338.513 830.963 338.826L831.846 339.713L830.963 340.598C830.648 340.911 830.648 341.426 830.963 341.74C831.276 342.055 831.789 342.055 832.105 341.74L832.988 340.854L833.873 341.74C834.186 342.055 834.701 342.055 835.015 341.74C835.328 341.426 835.328 340.911 835.015 340.598L834.13 339.713L835.015 338.826C835.328 338.513 835.328 337.998 835.015 337.684C834.701 337.371 834.186 337.371 833.873 337.684Z" fill="#F4BD15"/>
<mask id="mask1_2893_159528" style="mask-type:luminance" maskUnits="userSpaceOnUse" x="836" y="344" width="6" height="6">
<path d="M836.963 344.691H841.764V349.981H836.963V344.691Z" fill="white"/>
</mask>
<g mask="url(#mask1_2893_159528)">
<path d="M840.307 345.322L839.422 346.207L838.537 345.322C838.223 345.007 837.709 345.007 837.395 345.322C837.082 345.636 837.082 346.151 837.395 346.464L838.28 347.349L837.395 348.234C837.082 348.549 837.082 349.062 837.395 349.378C837.709 349.691 838.223 349.691 838.537 349.378L839.422 348.492L840.307 349.378C840.62 349.691 841.134 349.691 841.449 349.378C841.762 349.062 841.762 348.549 841.449 348.234L840.564 347.349L841.449 346.464C841.762 346.151 841.762 345.636 841.449 345.322C841.134 345.007 840.62 345.007 840.307 345.322Z" fill="#F4BD15"/>
</g>
<path d="M846.404 376.406C846.404 383.08 841.816 393.299 836.811 397.47" stroke="black" stroke-width="0.795605" stroke-linecap="round"/>
<path d="M848.905 383.289C848.071 387.877 845.881 392.048 843.691 394.759" stroke="black" stroke-width="0.795605" stroke-linecap="round"/>
<path d="M772.264 356.594L807.196 370.775" stroke="white" stroke-width="0.795605" stroke-linecap="round"/>
<path d="M776.121 345.332L777.998 355.76" stroke="white" stroke-width="0.795605" stroke-linecap="round"/>
<path d="M780.516 350.883L781.529 358.555" stroke="white" stroke-width="0.795605" stroke-linecap="round"/>
<path d="M778.994 361.809L771.746 364.521" stroke="white" stroke-width="0.795605" stroke-linecap="round"/>
<path d="M163.341 353.936L197.19 392.681L198.876 391.865L165.025 353.12L163.341 353.936Z" fill="#80BC00"/>
<path d="M165.023 353.121L198.678 393.371L228.579 377.474L194.728 338.73L165.023 353.121Z" fill="#F4BD15"/>
<path d="M164.765 353.321L197.746 392.364L198.874 391.813L166.449 352.505L164.765 353.321Z" fill="#7A8B00"/>
<path d="M190.415 347.784C190.932 348.375 191.636 348.809 192.401 349.059C193.484 349.413 194.687 349.396 195.65 348.93C196.612 348.463 197.121 347.651 197.127 346.77C197.129 346.148 196.882 345.492 196.364 344.901C195.117 343.473 192.774 342.961 191.13 343.757C189.486 344.554 189.167 346.355 190.415 347.784Z" stroke="#10112B" stroke-width="0.61295" stroke-miterlimit="10" stroke-linecap="round" stroke-linejoin="round"/>
<path d="M171.991 354.979L174.113 357.408L188.229 350.569L186.108 348.14L171.991 354.979Z" fill="#80BC00"/>
<path d="M174.498 361.509L189.407 377.318L212.702 366.119L198.511 349.875L174.498 361.509Z" fill="#F45A04"/>
<path d="M175.624 360.954L189.817 377.198L213.829 365.565L199.638 349.32L175.624 360.954Z" fill="#FF7A34"/>
<path d="M175.079 359.022L177.201 361.451L191.317 354.612L189.195 352.183L175.079 359.022Z" fill="#80BC00"/>
<path fill-rule="evenodd" clip-rule="evenodd" d="M176.425 360.56L177.198 361.444L191.314 354.605L190.541 353.721L176.425 360.56Z" fill="#805A00"/>
<path d="M178.804 362.6L191.801 377.474L215.449 365.845L202.454 350.971L178.804 362.6Z" stroke="#10112B" stroke-width="0.61295" stroke-miterlimit="10" stroke-linecap="round" stroke-linejoin="round"/>
<path d="M208.99 378.957L196.599 384.96" stroke="#10112B" stroke-width="0.61295" stroke-miterlimit="10" stroke-linecap="round" stroke-linejoin="round"/>
<path d="M210.266 380.418L197.873 386.422" stroke="#10112B" stroke-width="0.61295" stroke-miterlimit="10" stroke-linecap="round" stroke-linejoin="round"/>
<path d="M211.254 369.186L214.167 372.52L218.2 370.566L215.287 367.232L211.254 369.186Z" fill="#80BC00"/>
<path d="M215.76 374.347L218.674 377.682L222.708 375.727L219.795 372.392L215.76 374.347Z" fill="#FF7A34"/>
<path d="M209.838 377.213L212.751 380.549L216.784 378.595L213.871 375.259L209.838 377.213Z" fill="#386F77"/>
<path d="M209.885 372.223L192.731 380.533" stroke="#10112B" stroke-width="0.61295" stroke-miterlimit="10" stroke-linecap="round" stroke-linejoin="round"/>
<path d="M205.351 373.686C205.324 373.784 205.323 373.883 205.348 373.987C205.372 374.09 205.419 374.189 205.491 374.281C205.563 374.375 205.653 374.456 205.761 374.526C205.869 374.595 205.986 374.648 206.113 374.681C206.241 374.716 206.369 374.732 206.497 374.727C206.625 374.723 206.743 374.697 206.851 374.654C206.96 374.61 207.051 374.55 207.125 374.473C207.198 374.398 207.247 374.31 207.274 374.213C207.301 374.115 207.302 374.016 207.277 373.913C207.253 373.81 207.204 373.712 207.134 373.618C207.062 373.524 206.972 373.444 206.864 373.374C206.756 373.305 206.639 373.252 206.511 373.217C206.383 373.182 206.256 373.166 206.128 373.172C206 373.177 205.881 373.202 205.772 373.246C205.664 373.289 205.572 373.35 205.499 373.425C205.427 373.502 205.376 373.589 205.351 373.686Z" fill="#F15D5E" stroke="#10112B" stroke-width="0.61295" stroke-miterlimit="10" stroke-linecap="round" stroke-linejoin="round"/>
<path d="M226.419 376.415C226.419 376.415 225.569 383.751 230.552 383.086C235.968 382.363 239.512 382.74 241.78 383.385L247.044 365.871C240.706 361.9 231.099 357.667 230.226 364.53L230.225 364.532C227.997 364.904 226.712 366.253 226.954 368.783C225.089 368.434 222.785 368.094 220.787 368.073C218.691 368.051 216.935 368.38 216.39 369.417C216.278 369.63 216.205 369.839 216.17 370.045C215.67 372.805 221.527 375.045 226.419 376.415Z" fill="white" stroke="#10112B" stroke-width="0.61295" stroke-miterlimit="10" stroke-linecap="round" stroke-linejoin="round"/>
<path fill-rule="evenodd" clip-rule="evenodd" d="M220.366 368.066C218.459 368.092 216.899 368.444 216.39 369.41C216.278 369.623 216.205 369.833 216.171 370.038C215.671 372.798 221.527 375.038 226.42 376.408C226.42 376.408 226.311 377.347 226.399 378.524L228.579 377.468L220.366 368.066Z" fill="#F4BD15"/>
<path fill-rule="evenodd" clip-rule="evenodd" d="M222.078 374.997L219.793 372.381L218.238 373.135C219.281 373.819 220.627 374.443 222.078 374.997Z" fill="#FF7A34"/>
<path d="M236.051 365.087C230.52 363.597 226.549 364.485 226.955 368.778" stroke="#10112B" stroke-width="0.61295" stroke-miterlimit="10" stroke-linecap="round" stroke-linejoin="round"/>
<path d="M230.505 369.558C230.505 369.558 218.024 366.308 216.393 369.417C213.755 374.444 232.78 377.909 232.78 377.909" stroke="#10112B" stroke-width="0.61295" stroke-miterlimit="10" stroke-linecap="round" stroke-linejoin="round"/>
<path d="M226.423 376.413C226.423 376.413 225.572 383.749 230.556 383.083C235.972 382.36 239.515 382.737 241.782 383.381" stroke="#10112B" stroke-width="0.61295" stroke-miterlimit="10" stroke-linecap="round" stroke-linejoin="round"/>
<path d="M247.044 365.87C240.706 361.899 231.1 357.667 230.224 364.53" stroke="#10112B" stroke-width="0.61295" stroke-miterlimit="10" stroke-linecap="round" stroke-linejoin="round"/>
<path d="M247.387 364.728L241.524 384.234C241.338 384.85 241.641 385.509 242.228 385.77L247.953 388.314C248.717 388.653 249.594 388.177 249.727 387.352L253.066 366.618C253.161 366.032 252.839 365.458 252.291 365.233L249.09 363.917C248.393 363.63 247.604 364.006 247.387 364.728Z" fill="white" stroke="#10112B" stroke-width="0.61295" stroke-miterlimit="10" stroke-linecap="round" stroke-linejoin="round"/>
<path d="M216.171 370.041C217.02 370.644 218.159 370.778 219.159 370.294C220.07 369.852 220.65 369.002 220.788 368.069C218.691 368.048 216.936 368.377 216.39 369.413C216.278 369.626 216.205 369.836 216.171 370.041Z" fill="#10112B"/>
<path d="M245 384.154C245.069 384.297 245.163 384.421 245.281 384.526C245.398 384.629 245.532 384.709 245.68 384.761C245.829 384.812 245.982 384.835 246.14 384.825C246.298 384.816 246.447 384.777 246.589 384.708C246.731 384.64 246.853 384.547 246.958 384.429C247.064 384.311 247.141 384.176 247.193 384.028C247.244 383.879 247.265 383.725 247.256 383.569C247.247 383.411 247.207 383.261 247.138 383.118C247.07 382.977 246.976 382.853 246.858 382.748C246.74 382.642 246.607 382.564 246.459 382.513C246.31 382.461 246.156 382.439 245.999 382.448C245.841 382.457 245.692 382.496 245.551 382.564C245.408 382.634 245.286 382.726 245.18 382.844C245.075 382.962 244.998 383.097 244.946 383.245C244.895 383.394 244.874 383.547 244.883 383.704C244.892 383.862 244.932 384.012 245 384.154Z" fill="white" stroke="#10112B" stroke-width="0.61295" stroke-miterlimit="10" stroke-linecap="round" stroke-linejoin="round"/>
<path d="M222.295 357.809L220.463 364.362" stroke="#10112B" stroke-width="0.61295" stroke-miterlimit="10" stroke-linecap="round" stroke-linejoin="round"/>
<path d="M223.199 354.566L222.939 355.5" stroke="#10112B" stroke-width="0.61295" stroke-miterlimit="10" stroke-linecap="round" stroke-linejoin="round"/>
<path d="M218.105 361.406L218.822 364.06" stroke="#10112B" stroke-width="0.61295" stroke-miterlimit="10" stroke-linecap="round" stroke-linejoin="round"/>
<path d="M217.412 358.648L217.591 359.36" stroke="#10112B" stroke-width="0.61295" stroke-miterlimit="10" stroke-linecap="round" stroke-linejoin="round"/>
<path d="M224.553 362.027L221.792 364.992" stroke="#10112B" stroke-width="0.61295" stroke-miterlimit="10" stroke-linecap="round" stroke-linejoin="round"/>
<path d="M226.643 359.781L226.102 360.361" stroke="#10112B" stroke-width="0.61295" stroke-miterlimit="10" stroke-linecap="round" stroke-linejoin="round"/>
<path d="M145.013 384.592C144.048 382.917 143.682 381.06 143.851 379.275C143.87 379.084 143.893 378.895 143.922 378.708C144.331 376.13 145.857 373.755 148.291 372.353C150.725 370.952 153.545 370.824 155.978 371.764C156.156 371.832 156.332 371.905 156.505 371.985C158.134 372.735 159.559 373.984 160.523 375.659C162.995 379.951 161.527 385.43 157.243 387.897C152.959 390.364 147.484 388.884 145.013 384.592Z" stroke="#10112B" stroke-width="0.61295" stroke-miterlimit="10" stroke-linecap="round" stroke-linejoin="round"/>
<mask id="mask2_2893_159528" style="mask-type:luminance" maskUnits="userSpaceOnUse" x="147" y="389" width="26" height="26">
<path d="M156.33 414.715L172.044 405.664L162.92 389.822L147.206 398.873L156.33 414.715Z" fill="white"/>
</mask>
<g mask="url(#mask2_2893_159528)">
<path d="M151.872 406.752C150.907 405.077 150.543 403.22 150.712 401.434C150.729 401.245 150.752 401.055 150.783 400.867C151.192 398.29 152.717 395.915 155.15 394.514C157.584 393.112 160.405 392.983 162.839 393.924C163.017 393.991 163.191 394.065 163.364 394.145C164.995 394.894 166.419 396.143 167.384 397.818C169.856 402.11 168.386 407.59 164.102 410.057C159.82 412.524 154.344 411.044 151.872 406.752Z" stroke="#10112B" stroke-width="0.61295" stroke-miterlimit="10" stroke-linecap="round" stroke-linejoin="round"/>
</g>
<path d="M190.08 390.464C189.179 388.899 187.851 387.735 186.33 387.034C186.169 386.96 186.005 386.89 185.839 386.826C183.567 385.95 180.934 386.069 178.662 387.377C176.391 388.686 174.967 390.903 174.586 393.307C174.557 393.483 174.534 393.659 174.518 393.835C174.36 395.503 174.701 397.237 175.602 398.802C177.909 402.807 183.021 404.188 187.018 401.886C191.017 399.582 192.386 394.468 190.08 390.464Z" stroke="#10112B" stroke-width="0.61295" stroke-miterlimit="10" stroke-linecap="round" stroke-linejoin="round"/>
<path fill-rule="evenodd" clip-rule="evenodd" d="M181.237 394.595L181.611 395.186L181.625 395.177L181.92 395.642C182.031 395.572 182.154 395.5 182.282 395.426C182.42 395.346 182.564 395.262 182.704 395.173C183.006 395.01 183.295 394.827 183.553 394.637L183.247 394.152L183.252 394.149L182.883 393.565C184.561 392.686 185.691 392.619 185.911 392.711C185.898 392.989 184.981 393.974 182.8 395.353C180.638 396.72 179.335 397.139 179.078 397.031C179.079 396.771 179.653 395.757 181.237 394.595ZM181.136 394.434C179.502 395.594 178.482 396.772 178.769 397.226C179.089 397.732 180.915 397.158 182.91 395.931C182.705 396.059 182.508 396.179 182.303 396.288L184.121 399.164L185.743 398.139L183.922 395.259C185.516 394.115 186.503 392.963 186.22 392.515C185.938 392.07 184.487 392.462 182.78 393.402L182.276 392.604L184.341 391.299L183.462 389.909L177.691 393.558L178.557 394.928L180.623 393.622L181.136 394.434Z" fill="#80BC00"/>
<path d="M178.76 387.332L174.722 380.321L182.49 375.847" stroke="#10112B" stroke-width="0.61295" stroke-miterlimit="10" stroke-linecap="round" stroke-linejoin="round"/>
<path d="M174.721 380.324L170.844 373.592C170.293 372.635 169.072 372.305 168.117 372.855L161.197 376.84" stroke="#10112B" stroke-width="0.61295" stroke-miterlimit="10" stroke-linecap="round" stroke-linejoin="round"/>
<path d="M175.821 382.228L167.995 386.735C167.04 387.285 166.713 388.506 167.263 389.462L169.366 393.113C169.916 394.069 169.589 395.29 168.634 395.84L166.668 396.973" stroke="#10112B" stroke-width="0.61295" stroke-miterlimit="10" stroke-linecap="round" stroke-linejoin="round"/>
<mask id="mask3_2893_159528" style="mask-type:luminance" maskUnits="userSpaceOnUse" x="165" y="335" width="16" height="14">
<path d="M177.992 335.668L165.198 341.866L168.207 348.077L181.001 341.878L177.992 335.668Z" fill="white"/>
</mask>
<g mask="url(#mask3_2893_159528)">
<path d="M178.231 336.876C177.702 336.551 177.028 336.473 176.44 336.67C175.852 336.868 175.362 337.337 175.137 337.916C174.995 338.283 174.96 338.708 175.12 339.068C175.28 339.428 175.663 339.702 176.055 339.661C176.674 339.598 176.988 338.751 176.664 338.219C176.34 337.687 175.598 337.524 175.009 337.725C174.421 337.926 173.973 338.414 173.646 338.943C173.134 339.777 172.86 340.755 172.867 341.735C172.869 342.08 172.909 342.436 173.076 342.738C173.242 343.041 173.559 343.281 173.904 343.273C174.494 343.258 174.847 342.502 174.643 341.948C174.438 341.392 173.872 341.052 173.306 340.881C172.381 340.602 171.356 340.669 170.477 341.069C169.598 341.468 168.872 342.195 168.474 343.076C167.827 344.508 168.065 346.167 168.315 347.721" stroke="black" stroke-width="0.61295" stroke-miterlimit="10" stroke-linecap="round" stroke-linejoin="round"/>
</g>
<path d="M213.879 390.566C214.473 390.853 215.136 390.956 215.789 391.048C216.943 391.21 218.26 391.296 219.123 390.515C219.816 389.886 219.983 388.739 219.462 387.96C219.344 387.786 219.194 387.629 219.004 387.54C218.459 387.285 217.77 387.741 217.653 388.33C217.537 388.92 217.878 389.528 218.361 389.888C218.843 390.247 219.443 390.404 220.033 390.522C220.703 390.658 221.394 390.755 222.067 390.641C222.741 390.525 223.402 390.172 223.745 389.581C224.088 388.989 224.033 388.15 223.517 387.7" stroke="black" stroke-width="0.61295" stroke-miterlimit="10" stroke-linecap="round" stroke-linejoin="round"/>
<path d="M162.593 403.36C162.526 403.67 162.329 403.942 162.001 404.178L160.449 405.291L159.072 403.372L160.628 402.256C160.947 402.027 161.268 401.933 161.59 401.973C161.913 402.014 162.174 402.175 162.376 402.455C162.586 402.749 162.659 403.05 162.593 403.36ZM158.499 399.535C158.766 399.344 159.05 399.249 159.353 399.252C159.655 399.255 159.917 399.41 160.137 399.717C160.336 399.994 160.413 400.285 160.368 400.589C160.323 400.893 160.15 401.153 159.851 401.368L158.387 402.418L157.06 400.568L158.499 399.535ZM162.567 400.909C162.111 400.781 161.619 400.845 161.092 401.1C161.416 400.754 161.587 400.367 161.606 399.941C161.625 399.515 161.502 399.117 161.238 398.748C160.957 398.357 160.606 398.091 160.187 397.953C159.767 397.814 159.379 397.803 159.025 397.919C158.705 398.024 158.351 398.21 157.964 398.475L157.324 397.583L156.429 398.225L157.068 399.116L156.446 399.562L155.807 398.672L154.912 399.314L155.551 400.204L154.268 401.125L154.953 402.08L155.923 401.383L159.313 406.107L158.343 406.803L159.063 407.806L160.346 406.885L160.952 407.73L161.847 407.088L161.24 406.243L161.863 405.797L162.469 406.642L163.364 406L162.757 405.155L162.945 405.02C163.644 404.518 164.036 403.971 164.122 403.379C164.206 402.787 164.064 402.233 163.694 401.717C163.399 401.306 163.023 401.037 162.567 400.909Z" fill="#F4BD15"/>
<path d="M151.949 378.413L154.674 377.153L151.259 376.125L149.155 375.573L151.949 378.413Z" fill="#FF7A34"/>
<path d="M154.386 381.199L150.642 382.085L154.813 383.312L156.38 383.751L154.386 381.199Z" fill="#FF7A34"/>
<path d="M154.387 381.201L156.35 383.704L156.027 379.46L155.855 377.844L154.387 381.201Z" fill="#F45A04"/>
<path d="M151.947 378.413L149.219 375.537L150.128 381L151.947 378.413Z" fill="#F45A04"/>
<path d="M153.524 380.554L154.671 377.151L151.946 378.412L150.127 381L153.524 380.554Z" fill="#F4BD15"/>
<path d="M159.638 365.574C159.638 365.574 163.932 366.421 163.641 364.575C163.35 362.729 160.667 364.246 161.625 367.066" stroke="black" stroke-width="0.61295" stroke-linecap="round" stroke-linejoin="round"/>
<path d="M190.378 362.77L195.88 367.101L195.425 367.335L193.538 365.847L190.793 367.256L190.901 369.656L190.446 369.889L190.136 362.894L190.378 362.77ZM193.187 365.57L190.617 363.543L190.772 366.809L193.187 365.57Z" fill="black"/>
<path d="M193.679 361.128L195.647 360.118C196.643 359.607 197.536 359.479 198.328 359.734C199.122 359.987 199.732 360.528 200.158 361.357C200.575 362.17 200.659 362.976 200.411 363.775C200.165 364.569 199.564 365.211 198.609 365.701L196.564 366.75L193.679 361.128ZM194.299 361.267L196.813 366.165L198.399 365.351C199.126 364.978 199.617 364.445 199.871 363.752C200.127 363.055 200.065 362.337 199.687 361.599C199.316 360.877 198.775 360.411 198.064 360.2C197.352 359.989 196.616 360.078 195.857 360.468L194.299 361.267Z" fill="black"/>
<path d="M202.785 359.185L203.004 359.612C202.499 359.553 202.096 359.6 201.796 359.754C201.573 359.868 201.416 360.025 201.325 360.224C201.234 360.424 201.234 360.612 201.325 360.789C201.39 360.915 201.495 361.008 201.642 361.069C201.789 361.125 202.114 361.127 202.615 361.073C203.119 361.018 203.48 361.044 203.698 361.153C203.916 361.261 204.081 361.422 204.191 361.637C204.338 361.924 204.346 362.227 204.214 362.545C204.081 362.861 203.843 363.107 203.5 363.283C203.127 363.475 202.699 363.552 202.215 363.515L202.017 363.129C202.57 363.13 203.016 363.043 203.354 362.87C203.582 362.753 203.737 362.597 203.82 362.402C203.906 362.205 203.901 362.013 203.804 361.825C203.738 361.696 203.629 361.603 203.478 361.545C203.327 361.484 202.999 361.478 202.492 361.527C201.988 361.576 201.632 361.552 201.423 361.456C201.216 361.355 201.061 361.206 200.959 361.007C200.815 360.725 200.807 360.427 200.938 360.113C201.069 359.795 201.301 359.55 201.634 359.38C201.937 359.224 202.321 359.159 202.785 359.185Z" fill="black"/>
<path d="M190.378 362.77L195.88 367.101L195.425 367.335L193.538 365.847L190.793 367.256L190.901 369.656L190.446 369.889L190.136 362.894L190.378 362.77ZM193.187 365.57L190.617 363.543L190.772 366.809L193.187 365.57Z" stroke="#FF7A34" stroke-width="0.306475"/>
<path d="M193.679 361.128L195.647 360.118C196.643 359.607 197.536 359.479 198.328 359.734C199.122 359.987 199.732 360.528 200.158 361.357C200.575 362.17 200.659 362.976 200.411 363.775C200.165 364.569 199.564 365.211 198.609 365.701L196.564 366.75L193.679 361.128ZM194.299 361.267L196.813 366.165L198.399 365.351C199.126 364.978 199.617 364.445 199.871 363.752C200.127 363.055 200.065 362.337 199.687 361.599C199.316 360.877 198.775 360.411 198.064 360.2C197.352 359.989 196.616 360.078 195.857 360.468L194.299 361.267Z" stroke="#FF7A34" stroke-width="0.306475"/>
<path d="M202.785 359.185L203.004 359.612C202.499 359.553 202.096 359.6 201.796 359.754C201.573 359.868 201.416 360.025 201.325 360.224C201.234 360.424 201.234 360.612 201.325 360.789C201.39 360.915 201.495 361.008 201.642 361.069C201.789 361.125 202.114 361.127 202.615 361.073C203.119 361.018 203.48 361.044 203.698 361.153C203.916 361.261 204.081 361.422 204.191 361.637C204.338 361.924 204.346 362.227 204.214 362.545C204.081 362.861 203.843 363.107 203.5 363.283C203.127 363.475 202.699 363.552 202.215 363.515L202.017 363.129C202.57 363.13 203.016 363.043 203.354 362.87C203.582 362.753 203.737 362.597 203.82 362.402C203.906 362.205 203.901 362.013 203.804 361.825C203.738 361.696 203.629 361.603 203.478 361.545C203.327 361.484 202.999 361.478 202.492 361.527C201.988 361.576 201.632 361.552 201.423 361.456C201.216 361.355 201.061 361.206 200.959 361.007C200.815 360.725 200.807 360.427 200.938 360.113C201.069 359.795 201.301 359.55 201.634 359.38C201.937 359.224 202.321 359.159 202.785 359.185Z" stroke="#FF7A34" stroke-width="0.306475"/>
<path fill-rule="evenodd" clip-rule="evenodd" d="M174.605 40.0993C175.916 42.5464 178.281 44.7877 181.411 46.1987C184.542 47.6097 187.788 47.8971 190.489 47.2581C193.189 46.6195 195.3 45.0733 196.306 42.84C197.313 40.6067 197.073 38.0015 195.763 35.5555C194.453 33.1084 192.088 30.8671 188.957 29.4561C185.827 28.0451 182.581 27.7577 179.88 28.3967C177.18 29.0353 175.069 30.5815 174.063 32.8148C173.056 35.0481 173.296 37.6532 174.605 40.0993ZM173.267 32.4559C170.984 37.519 174.47 44.0285 181.053 46.9951C187.635 49.9617 194.82 48.2621 197.102 43.1989C199.384 38.1358 195.899 31.6263 189.316 28.6597C182.734 25.6931 175.549 27.3927 173.267 32.4559Z" fill="black"/>
<path fill-rule="evenodd" clip-rule="evenodd" d="M189.168 51.1742C192.078 50.1762 194.585 47.7032 195.939 43.1051C196.007 42.8737 196.25 42.7414 196.481 42.8095C196.712 42.8776 196.845 43.1205 196.777 43.3518C195.359 48.1668 192.679 50.8936 189.451 52.0005C186.245 53.1 182.581 52.5725 179.224 51.0597C175.897 49.5598 173.15 47.5813 171.849 44.6253C170.543 41.6584 170.741 37.8212 173.04 32.7192C173.139 32.4993 173.398 32.4014 173.618 32.5005C173.838 32.5996 173.936 32.8582 173.837 33.0781C171.591 38.0605 171.481 41.6214 172.648 44.2733C173.82 46.936 176.329 48.7967 179.583 50.2634C182.809 51.7173 186.236 52.1797 189.168 51.1742Z" fill="black"/>
<path fill-rule="evenodd" clip-rule="evenodd" d="M187.132 52.0481L188.006 47.6622L188.863 47.8329L187.989 52.2188L187.132 52.0481Z" fill="black"/>
<path fill-rule="evenodd" clip-rule="evenodd" d="M181.249 51.2356L182.123 46.8497L182.98 47.0204L182.106 51.4063L181.249 51.2356Z" fill="black"/>
<path fill-rule="evenodd" clip-rule="evenodd" d="M175.283 48.141L176.601 43.5873L177.44 43.83L176.123 48.3837L175.283 48.141Z" fill="black"/>
<path fill-rule="evenodd" clip-rule="evenodd" d="M183.714 41.0771C183.548 41.0074 183.394 40.9061 183.262 40.7806C183.131 40.6535 183.019 40.502 182.912 40.3544L182.553 39.8625L182.194 39.3673L182.176 39.3386L182.168 39.3073C182.17 39.2784 182.192 39.2577 182.21 39.2384C182.62 38.9044 183.038 38.5932 183.473 38.3001C183.67 38.1651 183.871 38.0354 184.078 37.9096L184.182 37.7903C184.241 37.8748 184.293 37.9605 184.345 38.0462L184.49 38.2752L184.658 38.5707C184.782 38.7949 184.896 39.0234 185 39.2563C185.041 39.3533 185.082 39.4536 185.119 39.5571L185.159 39.6744C185.245 39.9609 185.279 40.2557 185.175 40.5289C185.047 40.8928 184.681 41.1409 184.302 41.1728C184.099 41.1894 183.897 41.1531 183.714 41.0771ZM183.709 39.9669L183.619 39.8409L183.344 39.4626C183.535 39.3203 183.729 39.1833 183.923 39.0481C183.99 39.1707 184.05 39.2929 184.11 39.4184L184.202 39.6113L184.281 39.8032C184.316 39.8979 184.341 39.9818 184.356 40.0547C184.376 40.1672 184.363 40.209 184.358 40.219C184.354 40.2375 184.346 40.2506 184.324 40.2662L184.278 40.2904L184.229 40.3024C184.192 40.3049 184.147 40.3018 184.104 40.2902L184.044 40.2706C184.007 40.2527 183.968 40.2311 183.929 40.2028L183.87 40.1543C183.819 40.1045 183.772 40.0482 183.709 39.9669Z" fill="black"/>
<path fill-rule="evenodd" clip-rule="evenodd" d="M186.982 36.4305C187.231 36.836 187.479 37.2552 187.511 37.7226C187.528 37.9683 187.466 38.2307 187.335 38.4388C187.216 38.6238 187.045 38.7659 186.833 38.8144L186.73 38.8294L186.64 38.8335L186.508 38.8191C186.336 38.7883 186.17 38.7084 186.027 38.6044C185.803 38.4366 185.637 38.2147 185.468 37.9909L185.449 37.969L185.17 37.594L185.045 37.4228L185.011 37.3793C185.002 37.3599 184.996 37.3407 185.001 37.3205C185.004 37.2746 185.044 37.2449 185.084 37.2168L185.742 36.7513L186.623 36.1319L186.739 36.0938C186.799 36.1596 186.852 36.2317 186.905 36.3072L186.982 36.4305ZM186.632 37.8786L186.61 37.9421L186.548 37.9035C186.489 37.8601 186.438 37.807 186.375 37.7342L186.193 37.5009L186.477 37.3001C186.513 37.3693 186.543 37.4329 186.566 37.4927C186.61 37.6 186.634 37.6924 186.642 37.7818L186.639 37.8141C186.641 37.8348 186.637 37.8567 186.632 37.8786Z" fill="black"/>
<path fill-rule="evenodd" clip-rule="evenodd" d="M187.256 33.3286L186.291 31.7103L183.876 33.5808L184.43 34.4265L181.425 36.4612L180.618 35.2815L178.264 37.1101L179.264 38.7188L177.956 39.7155L179.554 42.4107L179.577 42.4362L179.63 42.5066L179.711 42.6182C179.773 42.703 179.858 42.8081 179.971 42.9049C180.203 43.1108 180.545 43.2714 180.995 43.1898C181.348 43.1238 181.637 42.954 181.839 42.8039L181.861 42.7883C182.081 43.0636 182.392 43.3657 182.809 43.6102C183.075 43.7672 183.377 43.8977 183.724 43.9833C184.235 44.1095 184.838 44.1378 185.538 44.0104C186.504 43.7373 187.348 42.8639 187.473 41.5233C187.965 41.5729 188.575 41.5042 189.094 41.1709C189.903 40.6543 190.338 39.614 190.04 37.9087L190.035 37.8776L189.862 37.3594L190.796 36.5676L190.837 36.4764C190.954 36.2143 191.007 35.9495 190.937 35.63C190.874 35.3503 190.72 35.0523 190.509 34.7007L189.104 32.1352L187.256 33.3286ZM185.63 34.6674L185.049 33.777L186.047 33.005L186.969 34.5553L188.788 33.3787L189.337 34.3814L187.7 35.5484L188.205 36.2608L189.75 35.1353C189.87 35.3334 189.948 35.4808 190.002 35.5957C190.047 35.6895 190.073 35.7614 190.086 35.8204C190.101 35.8916 190.1 35.9514 190.074 36.0351L188.849 37.0752L189.185 38.0922C189.438 39.5753 189.023 40.1809 188.626 40.4355C188.164 40.73 187.53 40.6978 187.186 40.5781L186.572 40.3644L186.608 41.0151C186.678 42.2701 185.99 42.9644 185.361 43.1567C184.402 43.326 183.721 43.1332 183.252 42.856C182.995 42.7065 182.792 42.5265 182.637 42.3532C182.497 42.1964 182.395 42.0456 182.324 41.9244L182.077 41.4985L181.684 41.7944L181.542 41.9162L181.512 41.9432L181.382 42.0504L181.317 42.1023C181.172 42.2103 181.012 42.2983 180.839 42.3307L180.763 42.3375L180.723 42.3346C180.651 42.3262 180.599 42.2952 180.547 42.2489C180.499 42.2079 180.455 42.1552 180.408 42.0921L180.364 42.0326L180.273 41.9117L180.071 41.5693L181.468 40.5737L180.959 39.8628L179.624 40.8148L179.104 39.939L180.426 38.9313L179.42 37.317L180.421 36.5402L181.197 37.6716L185.63 34.6674Z" fill="black"/>
<path d="M170.579 202.872C167.314 205.238 163.635 206.351 160.339 206.257C157.043 206.162 154.159 204.866 152.403 202.444C150.648 200.021 150.314 196.876 151.251 193.715C152.187 190.554 154.39 187.404 157.655 185.038C160.92 182.672 164.599 181.559 167.895 181.654C171.191 181.748 174.075 183.044 175.831 185.467C177.586 187.89 177.92 191.034 176.983 194.195C176.047 197.357 173.844 200.507 170.579 202.872Z" stroke="black"/>
<path d="M152.535 202.823C159.966 213.077 166.882 211.856 173.575 207.006C180.268 202.156 183.613 194.045 175.841 185.935" stroke="black" stroke-linecap="round"/>
<path d="M175.822 196.371L179.681 199.735" stroke="black"/>
<path d="M171.665 201.758L175.525 205.122" stroke="black"/>
<path d="M165.308 205.411L169.082 209.311" stroke="black"/>
<path fill-rule="evenodd" clip-rule="evenodd" d="M167.086 193.308C167.126 193.51 167.129 193.721 167.094 193.926C167.057 194.132 166.985 194.336 166.913 194.531L166.676 195.186L166.435 195.844L166.42 195.88L166.395 195.908C166.367 195.924 166.333 195.917 166.303 195.911C165.723 195.736 165.16 195.538 164.604 195.313C164.35 195.212 164.098 195.105 163.846 194.989L163.666 194.966C163.709 194.856 163.757 194.752 163.805 194.647L163.929 194.363L164.103 194.015C164.236 193.753 164.38 193.499 164.535 193.252C164.6 193.15 164.67 193.047 164.744 192.946L164.83 192.833C165.047 192.568 165.305 192.347 165.631 192.271C166.058 192.16 166.528 192.349 166.801 192.688C166.946 192.87 167.041 193.085 167.086 193.308ZM166.035 194.023L165.974 194.189L165.79 194.692C165.533 194.601 165.279 194.505 165.026 194.407C165.1 194.265 165.177 194.13 165.258 193.993L165.382 193.782L165.514 193.584C165.582 193.491 165.645 193.413 165.705 193.352C165.799 193.261 165.847 193.247 165.859 193.245C165.88 193.237 165.897 193.236 165.926 193.247L165.978 193.275L166.021 193.314C166.047 193.348 166.073 193.392 166.09 193.441L166.11 193.511C166.116 193.557 166.121 193.608 166.119 193.663L166.11 193.749C166.096 193.83 166.072 193.911 166.035 194.023Z" fill="black"/>
<path fill-rule="evenodd" clip-rule="evenodd" d="M160.584 193.178C160.81 192.682 161.049 192.179 161.472 191.849C161.694 191.675 161.984 191.567 162.265 191.558C162.516 191.553 162.76 191.624 162.942 191.794L163.023 191.883L163.084 191.965L163.155 192.1C163.236 192.283 163.266 192.491 163.259 192.694C163.243 193.014 163.138 193.313 163.034 193.617L163.026 193.649L162.848 194.153L162.765 194.382L162.746 194.442C162.733 194.463 162.718 194.481 162.696 194.489C162.651 194.515 162.597 194.497 162.545 194.477L161.682 194.15L160.53 193.71L160.42 193.625C160.444 193.525 160.478 193.429 160.516 193.33L160.584 193.178ZM162.183 192.584L162.257 192.564L162.26 192.648C162.256 192.731 162.239 192.814 162.21 192.92L162.105 193.243L161.733 193.101C161.775 193.023 161.817 192.954 161.858 192.893C161.932 192.783 162.004 192.701 162.085 192.636L162.117 192.618C162.135 192.603 162.159 192.594 162.183 192.584Z" fill="black"/>
<path fill-rule="evenodd" clip-rule="evenodd" d="M157.464 194.903L156.545 196.854L159.866 197.95L160.315 196.883L164.169 198.434L163.565 199.955L166.807 201.019L167.695 199.041L169.477 199.645L171.014 196.403L171.024 196.366L171.056 196.27L171.111 196.122C171.151 196.008 171.196 195.86 171.216 195.691C171.263 195.339 171.197 194.912 170.832 194.537C170.543 194.244 170.197 194.078 169.925 193.982L169.896 193.972C170.017 193.587 170.105 193.098 170.07 192.546C170.049 192.193 169.979 191.822 169.839 191.439C169.632 190.873 169.272 190.282 168.704 189.699C167.826 188.956 166.457 188.714 165.105 189.454C164.837 188.954 164.381 188.419 163.733 188.14C162.725 187.702 161.459 187.955 160.031 189.33L160.004 189.354L159.623 189.849L158.273 189.469L158.161 189.489C157.837 189.545 157.552 189.665 157.293 189.936C157.068 190.174 156.883 190.511 156.685 190.937L155.149 193.912L157.464 194.903ZM159.775 195.589L159.301 196.711L157.93 196.257L158.812 194.39L156.531 193.416L157.132 192.253L159.287 193.061L159.641 192.126L157.583 191.379C157.695 191.139 157.784 190.97 157.859 190.845C157.919 190.743 157.971 190.672 158.019 190.622C158.077 190.562 158.134 190.524 158.23 190.496L160.001 190.993L160.752 190.023C161.998 188.834 162.838 188.841 163.334 189.055C163.909 189.305 164.284 189.927 164.391 190.331L164.581 191.051L165.175 190.599C166.322 189.73 167.421 189.939 168.006 190.413C168.781 191.215 169.033 191.985 169.071 192.608C169.093 192.947 169.052 193.255 168.987 193.514C168.927 193.747 168.85 193.94 168.78 194.084L168.534 194.592L169.066 194.776L169.273 194.833L169.317 194.843L169.502 194.899L169.593 194.927C169.788 194.995 169.974 195.091 170.116 195.235L170.171 195.302L170.194 195.343C170.232 195.416 170.236 195.485 170.225 195.564C170.217 195.636 170.195 195.712 170.165 195.797L170.137 195.876L170.08 196.04L169.884 196.451L168.046 195.762L167.696 196.699L169.454 197.358L168.955 198.412L167.153 197.802L166.264 199.79L164.886 199.336L165.463 197.876L159.775 195.589Z" fill="black"/>
<path d="M856.485 204.232C853.507 201.515 851.671 198.137 851.096 194.891C850.52 191.645 851.205 188.557 853.221 186.347C855.238 184.137 858.25 183.173 861.535 183.449C864.821 183.725 868.351 185.244 871.33 187.962C874.308 190.68 876.144 194.057 876.72 197.303C877.295 200.55 876.61 203.637 874.594 205.847C872.578 208.057 869.566 209.021 866.28 208.745C862.995 208.469 859.464 206.95 856.485 204.232Z" stroke="black"/>
<path d="M852.875 186.552C844.34 195.907 846.937 202.432 853.043 208.003C859.149 213.574 867.769 215.206 874.136 205.95" stroke="black" stroke-linecap="round"/>
<path d="M863.911 208.048L861.399 212.509" stroke="black"/>
<path d="M857.798 205.068L855.286 209.529" stroke="black"/>
<path d="M852.929 199.588L849.875 204.074" stroke="black"/>
<path fill-rule="evenodd" clip-rule="evenodd" d="M862.215 199.997C862.026 199.913 861.853 199.793 861.705 199.646C861.558 199.498 861.433 199.322 861.315 199.15L860.916 198.579L860.517 198.003L860.496 197.97L860.488 197.934C860.491 197.901 860.516 197.877 860.538 197.856C861.015 197.483 861.501 197.137 862.005 196.812C862.235 196.662 862.467 196.519 862.707 196.38L862.829 196.246C862.895 196.344 862.953 196.443 863.01 196.543L863.171 196.808L863.355 197.15C863.493 197.41 863.618 197.674 863.731 197.943C863.775 198.055 863.82 198.171 863.86 198.29L863.902 198.426C863.994 198.756 864.026 199.094 863.9 199.404C863.745 199.818 863.32 200.093 862.886 200.12C862.653 200.134 862.422 200.088 862.215 199.997ZM862.236 198.726L862.135 198.579L861.83 198.14C862.052 197.981 862.278 197.829 862.503 197.679C862.577 197.821 862.642 197.962 862.708 198.108L862.809 198.331L862.895 198.552C862.932 198.661 862.958 198.758 862.974 198.842C862.994 198.971 862.978 199.019 862.973 199.03C862.967 199.051 862.958 199.066 862.933 199.083L862.88 199.11L862.823 199.122C862.78 199.124 862.73 199.12 862.68 199.105L862.611 199.081C862.57 199.06 862.525 199.034 862.481 199.001L862.416 198.944C862.359 198.886 862.306 198.82 862.236 198.726Z" fill="black"/>
<path fill-rule="evenodd" clip-rule="evenodd" d="M866.067 194.757C866.342 195.227 866.616 195.712 866.642 196.248C866.655 196.53 866.577 196.829 866.423 197.064C866.282 197.273 866.083 197.431 865.839 197.482L865.72 197.496L865.618 197.499L865.467 197.479C865.271 197.44 865.083 197.344 864.922 197.222C864.669 197.024 864.484 196.766 864.296 196.506L864.275 196.481L863.965 196.045L863.827 195.846L863.788 195.795C863.778 195.773 863.772 195.751 863.778 195.728C863.783 195.675 863.829 195.642 863.875 195.611L864.64 195.094L865.663 194.406L865.796 194.365C865.864 194.442 865.923 194.526 865.982 194.614L866.067 194.757ZM865.631 196.406L865.605 196.478L865.535 196.432C865.469 196.381 865.411 196.319 865.341 196.234L865.138 195.963L865.468 195.74C865.508 195.82 865.54 195.893 865.565 195.962C865.613 196.086 865.639 196.193 865.645 196.295L865.642 196.332C865.643 196.356 865.637 196.381 865.631 196.406Z" fill="black"/>
<path fill-rule="evenodd" clip-rule="evenodd" d="M866.455 191.213L865.389 189.337L862.581 191.42L863.194 192.402L859.706 194.658L858.81 193.289L856.072 195.325L857.178 197.19L855.658 198.3L857.422 201.423L857.446 201.453L857.506 201.535L857.596 201.664C857.665 201.763 857.76 201.885 857.887 201.999C858.148 202.24 858.534 202.432 859.052 202.349C859.458 202.282 859.793 202.095 860.027 201.928L860.053 201.911C860.298 202.231 860.646 202.584 861.118 202.874C861.419 203.06 861.762 203.217 862.156 203.323C862.738 203.48 863.428 203.527 864.232 203.398C865.345 203.108 866.332 202.129 866.506 200.597C867.069 200.666 867.769 200.602 868.371 200.233C869.309 199.661 869.832 198.481 869.531 196.522L869.526 196.486L869.341 195.889L870.429 195.005L870.478 194.902C870.619 194.605 870.685 194.303 870.613 193.935C870.548 193.614 870.379 193.269 870.145 192.861L868.599 189.891L866.455 191.213ZM864.562 192.706L863.919 191.673L865.079 190.813L866.097 192.61L868.208 191.307L868.812 192.468L866.91 193.764L867.47 194.592L869.266 193.341C869.399 193.57 869.485 193.741 869.544 193.874C869.593 193.982 869.62 194.065 869.634 194.133C869.65 194.215 869.648 194.283 869.616 194.378L868.188 195.539L868.549 196.711C868.802 198.415 868.313 199.098 867.852 199.38C867.316 199.706 866.592 199.654 866.201 199.509L865.503 199.249L865.529 199.995C865.579 201.433 864.775 202.211 864.051 202.416C862.949 202.587 862.174 202.35 861.643 202.022C861.353 201.844 861.125 201.633 860.951 201.431C860.795 201.248 860.681 201.073 860.604 200.933L860.331 200.44L859.874 200.769L859.708 200.905L859.674 200.935L859.522 201.055L859.446 201.112C859.279 201.233 859.093 201.329 858.894 201.362L858.807 201.368L858.761 201.364C858.679 201.353 858.62 201.316 858.562 201.262C858.508 201.214 858.458 201.152 858.406 201.079L858.357 201.01L858.256 200.869L858.034 200.472L859.656 199.366L859.091 198.541L857.54 199.598L856.965 198.583L858.503 197.461L857.39 195.59L858.555 194.725L859.416 196.038L864.562 192.706Z" fill="black"/>
</svg>
