<?xml version="1.0" encoding="UTF-8"?>
<svg version="1.1" xmlns="http://www.w3.org/2000/svg" xmlns:xlink="http://www.w3.org/1999/xlink">
<defs></defs>
<symbol id="arrow" fill="none" viewBox="0 0 25 24"><path fill="currentColor" d="M5.75 11.25h15a.73.73 0 0 1 .54.21q.21.211.21.54a.73.73 0 0 1-.21.54.73.73 0 0 1-.54.21h-15a.73.73 0 0 1-.54-.21A.73.73 0 0 1 5 12a.73.73 0 0 1 .21-.54.73.73 0 0 1 .54-.21m.305.75 6.234 6.21q.21.236.211.54a.72.72 0 0 1-.223.527.72.72 0 0 1-.527.223.78.78 0 0 1-.54-.21l-6.75-6.75a.78.78 0 0 1-.21-.54q0-.304.21-.54l6.75-6.75a.78.78 0 0 1 .54-.21q.305 0 .527.223a.72.72 0 0 1 .223.527q0 .305-.21.54z"/></symbol>
<symbol id="burger" fill="none" viewBox="0 0 24 24"><path fill="currentColor" d="M2.25 5.55A.75.75 0 0 1 3 4.8h18a.75.75 0 0 1 0 1.5H3a.75.75 0 0 1-.75-.75M2.25 12a.75.75 0 0 1 .75-.75h18a.75.75 0 0 1 0 1.5H3a.75.75 0 0 1-.75-.75M3 17.7a.75.75 0 0 0 0 1.5h18a.75.75 0 0 0 0-1.5z"/></symbol>
<symbol id="carrot" fill="none" viewBox="0 0 20 20"><path fill="currentColor" d="M2.053 5.58a1.25 1.25 0 0 1 1.767 0l6.188 6.188 6.187-6.187a1.25 1.25 0 0 1 1.767 1.767l-7.07 7.072a1.25 1.25 0 0 1-1.768 0L2.053 7.348a1.25 1.25 0 0 1 0-1.767"/></symbol>
<symbol id="close" fill="none" viewBox="0 0 24 24"><path fill="#191B1C" d="M17.907 5.039 12 10.945 6.094 5.04a.77.77 0 0 0-.527-.21.7.7 0 0 0-.516.222.7.7 0 0 0-.223.516q0 .293.21.527L10.946 12 5.04 17.907a.72.72 0 0 0-.2.726q.105.423.516.528t.738-.2L12 13.055l5.906 5.906a.77.77 0 0 0 .527.21.7.7 0 0 0 .516-.222.7.7 0 0 0 .223-.516.77.77 0 0 0-.21-.527L13.054 12l5.906-5.907a.72.72 0 0 0 .2-.726.68.68 0 0 0-.528-.528.72.72 0 0 0-.726.2"/></symbol>
<symbol id="eye" fill="none" viewBox="0 0 21 20"><path fill="#5E6060" fill-rule="evenodd" d="M10.5 5.625q1.855.04 3.096 1.28 1.24 1.24 1.279 3.095-.04 1.855-1.28 3.096-1.24 1.24-3.095 1.279-1.855-.04-3.096-1.28-1.24-1.24-1.279-3.095.04-1.855 1.28-3.096 1.24-1.24 3.095-1.279m0 1.25q-1.328.039-2.207.918-.879.88-.918 2.207.039 1.328.918 2.207.88.879 2.207.918 1.328-.039 2.207-.918.879-.88.918-2.207-.039-1.328-.918-2.207-.88-.879-2.207-.918" clip-rule="evenodd"/><path fill="#5E6060" fill-rule="evenodd" d="M10.5 3.125q4.727.43 7.344 3.438T20.5 10q-.04.43-2.656 3.438T10.5 16.875q-4.727-.43-7.344-3.437Q.54 10.43.5 10q.04-.43 2.656-3.437T10.5 3.125m0 1.25q-3.32.215-5.527 2.236T1.964 10q.801 1.368 3.009 3.389t5.527 2.236q3.32-.215 5.528-2.236 2.206-2.021 3.008-3.389-.801-1.368-3.009-3.389T10.5 4.375" clip-rule="evenodd"/></symbol>
<symbol id="facebook" aria-hidden="true" viewBox="0 0 32 32"><path fill="currentColor" d="M26.67 4H5.33A1.34 1.34 0 0 0 4 5.33v21.34A1.34 1.34 0 0 0 5.33 28h11.49v-9.28H13.7v-3.63h3.12v-2.67c0-3.1 1.89-4.79 4.67-4.79.93 0 1.86 0 2.79.14V11h-1.91c-1.51 0-1.8.72-1.8 1.77v2.31h3.6l-.47 3.63h-3.13V28h6.1A1.34 1.34 0 0 0 28 26.67V5.33A1.34 1.34 0 0 0 26.67 4"/></symbol>
<symbol id="linkedin" aria-hidden="true" viewBox="0 0 32 32"><path fill="currentColor" d="M26.21 4H5.79A1.78 1.78 0 0 0 4 5.73V26.2a1.77 1.77 0 0 0 1.79 1.73h20.42A1.77 1.77 0 0 0 28 26.2V5.73A1.78 1.78 0 0 0 26.21 4m-15.1 20.41H7.59V13h3.52zm-1.72-13a2.07 2.07 0 0 1-2.07-2.02 2 2 0 0 1 2.07-2.07 2.07 2.07 0 0 1 0 4.13zm15.09 12.93H21v-5.58c0-1.33 0-3.06-1.86-3.06S17 17.16 17 18.63v5.65h-3.56V13h3.32v1.5h.07a3.72 3.72 0 0 1 3.39-1.86c3.59 0 4.26 2.4 4.26 5.45z"/></symbol>
<symbol id="sort" fill="none" viewBox="0 0 6 4"><path fill="currentColor" d="M.22 1.238 2.544 3.48c.258.25.656.25.914 0L5.78 1.24C6.234.798 5.94 0 5.322 0H.678C.061 0-.234.8.221 1.238"/></symbol>
<symbol id="success" fill="none" viewBox="0 0 25 24"><path fill="currentColor" fill-rule="evenodd" d="M12.666 22.5c5.799 0 10.5-4.701 10.5-10.5s-4.701-10.5-10.5-10.5-10.5 4.701-10.5 10.5 4.701 10.5 10.5 10.5m0-1.5a9 9 0 1 0 0-18 9 9 0 0 0 0 18" clip-rule="evenodd"/><path fill="currentColor" d="M7.673 11.793a.75.75 0 0 0 0 1.06l3.182 3.182a.75.75 0 0 0 1.06 0l6.365-6.363a.75.75 0 0 0-1.06-1.061l-5.834 5.833-2.652-2.651a.75.75 0 0 0-1.06 0"/></symbol>
<symbol id="twitter" aria-hidden="true" viewBox="0 0 32 32"><path fill="currentColor" d="M11.92 24.94A12.76 12.76 0 0 0 24.76 12.1v-.59A9.4 9.4 0 0 0 27 9.18a9.3 9.3 0 0 1-2.59.71 4.56 4.56 0 0 0 2-2.5 8.9 8.9 0 0 1-2.86 1.1 4.52 4.52 0 0 0-7.7 4.11 12.8 12.8 0 0 1-9.3-4.71 4.51 4.51 0 0 0 1.4 6 4.5 4.5 0 0 1-2-.56v.05a4.53 4.53 0 0 0 3.55 4.45 4.5 4.5 0 0 1-2 .08A4.51 4.51 0 0 0 11.68 21a9.05 9.05 0 0 1-5.61 2A10 10 0 0 1 5 22.91a12.77 12.77 0 0 0 6.92 2"/></symbol>
<symbol id="wechat" viewBox="0 0 20 16"><path fill="currentColor" d="M17.707 14.226c1.24-.9 2.034-2.23 2.034-3.708 0-2.708-2.636-4.905-5.887-4.905S7.968 7.81 7.968 10.518c0 2.71 2.636 4.905 5.886 4.905.672 0 1.32-.095 1.922-.268l.173-.026c.113 0 .215.035.312.09l1.29.744.113.037a.196.196 0 0 0 .196-.196l-.032-.144-.265-.989-.02-.125c0-.132.064-.249.164-.32M7.064 0C3.163 0 0 2.635 0 5.887c0 1.773.951 3.37 2.44 4.449.12.085.198.225.198.384l-.024.15-.318 1.187-.039.171c0 .13.106.237.236.237l.136-.044 1.547-.894a.74.74 0 0 1 .374-.108l.208.031c.721.208 1.5.323 2.306.323l.388-.01a4.6 4.6 0 0 1-.237-1.442c0-2.965 2.884-5.368 6.442-5.368l.383.01C13.51 2.15 10.588 0 7.064 0m4.828 9.734a.785.785 0 1 1 0-1.57.785.785 0 0 1 0 1.57m3.925 0a.785.785 0 1 1 0-1.57.785.785 0 0 1 0 1.57M4.709 4.944a.941.941 0 1 1 0-1.882.941.941 0 0 1 0 1.882m4.71 0a.941.941 0 1 1 0-1.882.941.941 0 0 1 0 1.882"/></symbol>
</svg>