<svg width="335" height="276" viewBox="0 0 335 276" fill="none" xmlns="http://www.w3.org/2000/svg">
<g clip-path="url(#clip0_1557_14704)">
<g filter="url(#filter0_d_1557_14704)">
<g filter="url(#filter1_d_1557_14704)">
<mask id="mask0_1557_14704" style="mask-type:luminance" maskUnits="userSpaceOnUse" x="18" y="32" width="219" height="127">
<path d="M18.6162 45.6531C18.6162 38.6762 24.2721 33.0202 31.2491 33.0202H223.263C230.24 33.0202 235.896 38.6761 235.896 45.6531V145.35C235.896 152.327 230.24 157.983 223.263 157.983H31.2491C24.2721 157.983 18.6162 152.327 18.6162 145.35V45.6531Z" fill="white" stroke="white" stroke-width="0.647841"/>
</mask>
<g mask="url(#mask0_1557_14704)">
<path d="M18.6237 45.8875C18.6237 38.9105 24.2797 33.2546 31.2566 33.2546H223.283C230.26 33.2546 235.916 38.9105 235.916 45.8875V145.261C235.916 152.238 230.26 157.894 223.283 157.894H31.2566C24.2797 157.894 18.6237 152.238 18.6237 145.261V45.8875Z" fill="white" stroke="#E8E8E8" stroke-width="0.647841"/>
</g>
</g>
<mask id="mask1_1557_14704" style="mask-type:luminance" maskUnits="userSpaceOnUse" x="18" y="32" width="219" height="13">
<path d="M18.2922 32.6963H236.22V44.6878H18.2922V32.6963Z" fill="white"/>
</mask>
<g mask="url(#mask1_1557_14704)">
<path d="M236.24 40.3003C236.24 36.1437 232.875 32.7754 228.729 32.7754H25.8116C21.6655 32.7754 18.2998 36.1437 18.2998 40.3003V44.2282H236.24V40.3003Z" fill="#B2CED1"/>
</g>
<path d="M30.4385 38.5901C30.4385 39.5623 29.6503 40.3505 28.6781 40.3505C27.7086 40.3505 26.9204 39.5623 26.9204 38.5901C26.9204 37.6154 27.7086 36.8271 28.6781 36.8271C29.6503 36.8271 30.4385 37.6154 30.4385 38.5901Z" fill="#80BC00"/>
<path d="M36.5945 38.5901C36.5945 39.5623 35.8063 40.3505 34.8341 40.3505C33.8646 40.3505 33.0764 39.5623 33.0764 38.5901C33.0764 37.6154 33.8646 36.8271 34.8341 36.8271C35.8063 36.8271 36.5945 37.6154 36.5945 38.5901Z" fill="#F4BD15"/>
<path d="M42.75 38.5901C42.75 39.5623 41.9618 40.3505 40.9923 40.3505C40.0202 40.3505 39.2319 39.5623 39.2319 38.5901C39.2319 37.6154 40.0202 36.8271 40.9923 36.8271C41.9618 36.8271 42.75 37.6154 42.75 38.5901Z" fill="#CB2126"/>
<path d="M98.5048 99.379H34.7212V72.3193H98.5048V99.379Z" fill="#E8E8E8"/>
<g clip-path="url(#clip1_1557_14704)">
<path d="M65.1633 96.9629C71.0344 96.9629 75.7939 92.2034 75.7939 86.3323C75.7939 80.4611 71.0344 75.7017 65.1633 75.7017C59.2922 75.7017 54.5327 80.4611 54.5327 86.3323C54.5327 92.2034 59.2922 96.9629 65.1633 96.9629Z" fill="#D6D6D6"/>
<path fill-rule="evenodd" clip-rule="evenodd" d="M66.4403 87.2514V87.2501C66.3672 87.2554 65.9905 87.278 65.15 87.278C64.479 87.278 64.0066 87.2581 63.8405 87.2501V87.2521C61.2572 87.1385 59.3291 86.6887 59.3291 86.1505C59.3291 85.613 61.2572 85.1632 63.8405 85.0476V86.8043C64.0092 86.8162 64.4929 86.8448 65.1613 86.8448C65.9633 86.8448 66.3652 86.8116 66.4403 86.8049V85.0489C69.0182 85.1638 70.9417 85.6136 70.9417 86.1505C70.9417 86.6887 69.0182 87.1371 66.4403 87.2514ZM66.4403 84.8662V83.2942H70.0374V80.897H60.2433V83.2942H63.8405V84.8655C60.917 84.9997 58.7185 85.5791 58.7185 86.2727C58.7185 86.9664 60.917 87.5451 63.8405 87.68V92.7175H66.4403V87.6786C69.3591 87.5444 71.5523 86.9657 71.5523 86.2727C71.5523 85.5798 69.3591 85.001 66.4403 84.8662Z" fill="white"/>
</g>
<path d="M199.013 84.3996H179.201V72.3193H199.013V84.3996Z" fill="#E8E8E8"/>
<path d="M199.013 123.539H179.201V111.459H199.013V123.539Z" fill="#FF7A34"/>
<path d="M221.723 84.3996H201.912V72.3193H221.723V84.3996Z" fill="#80BC00"/>
<path d="M221.723 123.539H201.912V111.459H221.723V123.539Z" fill="#E8E8E8"/>
<path d="M221.723 66.0381H34.7214V51.0586H221.723V66.0381Z" fill="#E8E8E8"/>
<path d="M172.436 99.3792H108.652V71.353H172.436V99.3792Z" fill="#F5F5F5" fill-opacity="0.4"/>
<path d="M165.907 94.0229H114.033V96.0766H165.907V94.0229Z" fill="#E5E5E5"/>
<path d="M154.207 90.1855H114.033V92.2379H154.207V90.1855Z" fill="#D6D6D6"/>
<path d="M160.92 86.3472H114.033V88.3995H160.92V86.3472Z" fill="#E5E5E5"/>
<path d="M139.921 82.5088H114.033V84.5625H139.921V82.5088Z" fill="#D6D6D6"/>
<path d="M148.072 74.833H114.033V76.8867H148.072V74.833Z" fill="#E5E5E5"/>
<path d="M160.866 78.2817H113.867V80.2633H160.866V78.2817Z" fill="#E5E5E5"/>
<path d="M198.968 107.18H179.252V88.8184H198.968V107.18Z" fill="#F5F5F5" fill-opacity="0.4"/>
<path d="M196.95 103.671H180.915V105.016H196.95V103.671Z" fill="#E5E5E5"/>
<path d="M193.333 101.157H180.915V102.501H193.333V101.157Z" fill="#D6D6D6"/>
<path d="M195.408 98.6421H180.915V99.9867H195.408V98.6421Z" fill="#E5E5E5"/>
<path d="M188.917 96.1274H180.915V97.4729H188.917V96.1274Z" fill="#D6D6D6"/>
<path d="M191.437 91.0986H180.915V92.4441H191.437V91.0986Z" fill="#E5E5E5"/>
<path d="M195.392 93.3584H180.864V94.6566H195.392V93.3584Z" fill="#E5E5E5"/>
<path d="M198.968 146.255H179.252V127.894H198.968V146.255Z" fill="#F4F4F4"/>
<path d="M196.95 142.746H180.915V144.091H196.95V142.746Z" fill="#80BC00"/>
<path d="M193.333 140.232H180.915V141.577H193.333V140.232Z" fill="#FF7A34"/>
<path d="M195.408 137.717H180.915V139.061H195.408V137.717Z" fill="#80BC00"/>
<path d="M188.917 135.203H180.915V136.548H188.917V135.203Z" fill="#FF7A34"/>
<path d="M191.437 130.174H180.915V131.519H191.437V130.174Z" fill="#80BC00"/>
<path d="M195.392 132.433H180.864V133.731H195.392V132.433Z" fill="#80BC00"/>
<path d="M221.723 107.18H202.008V88.8184H221.723V107.18Z" fill="#F4F4F4"/>
<path d="M219.705 103.671H203.671V105.016H219.705V103.671Z" fill="#80BC00"/>
<path d="M216.089 101.157H203.671V102.501H216.089V101.157Z" fill="#FF7A34"/>
<path d="M218.164 98.6421H203.671V99.9867H218.164V98.6421Z" fill="#80BC00"/>
<path d="M211.673 96.1274H203.671V97.4729H211.673V96.1274Z" fill="#FF7A34"/>
<path d="M214.192 91.0986H203.671V92.4441H214.192V91.0986Z" fill="#80BC00"/>
<path d="M218.147 93.3584H203.62V94.6566H218.147V93.3584Z" fill="#80BC00"/>
<path d="M221.723 146.255H202.008V127.894H221.723V146.255Z" fill="#F5F5F5" fill-opacity="0.4"/>
<path d="M219.705 142.746H203.671V144.091H219.705V142.746Z" fill="#E5E5E5"/>
<path d="M216.089 140.232H203.671V141.577H216.089V140.232Z" fill="#D6D6D6"/>
<path d="M218.164 137.717H203.671V139.061H218.164V137.717Z" fill="#E5E5E5"/>
<path d="M211.673 135.203H203.671V136.548H211.673V135.203Z" fill="#D6D6D6"/>
<path d="M214.192 130.174H203.671V131.519H214.192V130.174Z" fill="#E5E5E5"/>
<path d="M218.147 132.433H203.62V133.731H218.147V132.433Z" fill="#E5E5E5"/>
<path d="M97.1354 146.25H34.7212V107.11H97.1354V146.25Z" fill="#F5F5F5" fill-opacity="0.4"/>
<path d="M90.7469 138.771H39.9866V141.639H90.7469V138.771Z" fill="#E5E5E5"/>
<path d="M79.298 133.412H39.9866V136.278H79.298V133.412Z" fill="#D6D6D6"/>
<path d="M85.8663 128.051H39.9866V130.917H85.8663V128.051Z" fill="#E5E5E5"/>
<path d="M65.319 122.69H39.9866V125.558H65.319V122.69Z" fill="#D6D6D6"/>
<path d="M73.2942 111.971H39.9866V114.839H73.2942V111.971Z" fill="#E5E5E5"/>
<path d="M85.8139 116.788H39.8242V119.555H85.8139V116.788Z" fill="#E5E5E5"/>
<path d="M172.436 146.25H108.603V107.11H172.436V146.25Z" fill="#F5F5F5" fill-opacity="0.4"/>
<path d="M165.903 138.771H113.989V141.639H165.903V138.771Z" fill="#E5E5E5"/>
<path d="M154.193 133.412H113.989V136.278H154.193V133.412Z" fill="#D6D6D6"/>
<path d="M160.911 128.051H113.989V130.917H160.911V128.051Z" fill="#E5E5E5"/>
<path d="M139.897 122.69H113.989V125.558H139.897V122.69Z" fill="#D6D6D6"/>
<path d="M148.053 111.971H113.989V114.839H148.053V111.971Z" fill="#E5E5E5"/>
<path d="M160.857 116.788H113.823V119.555H160.857V116.788Z" fill="#E5E5E5"/>
</g>
<g filter="url(#filter2_d_1557_14704)">
<g filter="url(#filter3_d_1557_14704)">
<mask id="mask2_1557_14704" style="mask-type:luminance" maskUnits="userSpaceOnUse" x="85" y="129" width="219" height="127">
<path d="M86.2656 142.868C86.2656 135.891 91.9215 130.235 98.8985 130.235H290.912C297.889 130.235 303.545 135.891 303.545 142.868V242.565C303.545 249.542 297.889 255.198 290.912 255.198H98.8985C91.9215 255.198 86.2656 249.542 86.2656 242.565V142.868Z" fill="white" stroke="white" stroke-width="0.647841"/>
</mask>
<g mask="url(#mask2_1557_14704)">
<path d="M86.2731 143.102C86.2731 136.125 91.9291 130.469 98.906 130.469H290.933C297.91 130.469 303.566 136.125 303.566 143.102V242.476C303.566 249.453 297.91 255.109 290.933 255.109H98.906C91.9291 255.109 86.2731 249.453 86.2731 242.476V143.102Z" fill="white" stroke="#E8E8E8" stroke-width="0.647841"/>
</g>
</g>
<mask id="mask3_1557_14704" style="mask-type:luminance" maskUnits="userSpaceOnUse" x="85" y="129" width="219" height="13">
<path d="M85.9417 129.911H303.869V141.903H85.9417V129.911Z" fill="white"/>
</mask>
<g mask="url(#mask3_1557_14704)">
<path d="M303.89 137.515C303.89 133.359 300.524 129.99 296.378 129.99H93.461C89.3149 129.99 85.9492 133.359 85.9492 137.515V141.443H303.89V137.515Z" fill="#B2CED1"/>
</g>
<path d="M98.0879 135.804C98.0879 136.776 97.2997 137.564 96.3276 137.564C95.358 137.564 94.5698 136.776 94.5698 135.804C94.5698 134.829 95.358 134.041 96.3276 134.041C97.2997 134.041 98.0879 134.829 98.0879 135.804Z" fill="#80BC00"/>
<path d="M104.244 135.804C104.244 136.776 103.456 137.564 102.484 137.564C101.514 137.564 100.726 136.776 100.726 135.804C100.726 134.829 101.514 134.041 102.484 134.041C103.456 134.041 104.244 134.829 104.244 135.804Z" fill="#F4BD15"/>
<path d="M110.4 135.804C110.4 136.776 109.611 137.564 108.642 137.564C107.67 137.564 106.882 136.776 106.882 135.804C106.882 134.829 107.67 134.041 108.642 134.041C109.611 134.041 110.4 134.829 110.4 135.804Z" fill="#CB2126"/>
<path d="M147.793 188.862H109.619V161.803H147.793V188.862Z" fill="#E8E8E8"/>
<path d="M192.248 188.862H153.591V161.803H192.248V188.862Z" fill="#FF7A34"/>
<path d="M175.508 179.196C175.168 179.514 174.701 179.677 174.106 179.685L171.299 179.724L171.251 176.251L174.067 176.212C174.644 176.204 175.11 176.361 175.465 176.68C175.819 177 176 177.414 176.007 177.922C176.015 178.454 175.848 178.878 175.508 179.196ZM173.785 171.139C174.268 171.133 174.69 171.258 175.053 171.516C175.416 171.774 175.601 172.18 175.609 172.736C175.616 173.238 175.464 173.653 175.153 173.982C174.843 174.312 174.417 174.48 173.875 174.487L171.227 174.524L171.18 171.175L173.785 171.139ZM177.538 176.217C177.095 175.68 176.449 175.344 175.599 175.208C176.28 175.062 176.811 174.74 177.193 174.242C177.574 173.743 177.76 173.16 177.751 172.493C177.741 171.784 177.541 171.17 177.152 170.649C176.762 170.129 176.304 169.79 175.778 169.632C175.304 169.49 174.721 169.416 174.03 169.411L174.008 167.796L172.389 167.819L172.411 169.43L171.285 169.446L171.263 167.834L169.644 167.857L169.666 169.468L167.344 169.5L167.368 171.228L169.123 171.204L169.242 179.753L167.486 179.777L167.511 181.593L169.833 181.561L169.855 183.09L171.474 183.067L171.452 181.538L172.579 181.523L172.6 183.052L174.219 183.029L174.198 181.5L174.538 181.495C175.803 181.478 176.736 181.148 177.337 180.505C177.937 179.861 178.231 179.073 178.218 178.14C178.208 177.395 177.981 176.755 177.538 176.217Z" fill="white"/>
<path d="M236.22 188.862H198.046V161.803H236.22V188.862Z" fill="#E8E8E8"/>
<path d="M281.046 188.862H242.873V161.803H281.046V188.862Z" fill="#80BC00"/>
<path fill-rule="evenodd" clip-rule="evenodd" d="M262.333 174.382L262.341 175.487L262.38 175.487L262.389 176.354C262.596 176.352 262.821 176.358 263.054 176.364L263.054 176.364C263.305 176.371 263.567 176.378 263.829 176.375C264.369 176.406 264.909 176.401 265.412 176.36L265.403 175.467L265.406 175.467L265.399 174.377C268.381 174.6 269.951 175.453 270.169 175.761C269.919 176.123 267.867 176.678 263.791 176.705C259.751 176.731 257.656 176.204 257.401 175.845C257.619 175.497 259.236 174.617 262.333 174.382ZM262.331 174.083C259.171 174.272 256.818 175 256.824 175.849C256.83 176.823 259.937 177.596 263.797 177.57C263.937 177.569 264.076 177.567 264.215 177.564C264.073 177.57 263.931 177.574 263.789 177.575L263.789 177.575C263.287 177.58 262.821 177.585 262.354 177.554L262.407 182.918L265.419 182.888L265.366 177.515C268.462 177.314 270.752 176.594 270.746 175.757C270.741 174.924 268.468 174.238 265.397 174.073L265.387 172.581L269.247 172.556L269.23 169.959L258.445 170.03L258.462 172.591L262.321 172.566L262.331 174.083Z" fill="white"/>
<path d="M147.849 238.373H109.619V198.043H147.849V238.373Z" fill="#F5F5F5" fill-opacity="0.4"/>
<path d="M143.935 230.667H112.844V233.622H143.935V230.667Z" fill="#E5E5E5"/>
<path d="M136.922 225.145H112.844V228.098H136.922V225.145Z" fill="#D6D6D6"/>
<path d="M140.946 219.621H112.844V222.574H140.946V219.621Z" fill="#E5E5E5"/>
<path d="M128.36 214.098H112.844V217.053H128.36V214.098Z" fill="#D6D6D6"/>
<path d="M133.245 203.052H112.844V206.008H133.245V203.052Z" fill="#E5E5E5"/>
<path d="M140.913 208.015H112.744V210.867H140.913V208.015Z" fill="#E5E5E5"/>
<path d="M191.876 238.373H153.647V198.043H191.876V238.373Z" fill="#F5F5F5" fill-opacity="0.4"/>
<path d="M187.963 230.667H156.872V233.622H187.963V230.667Z" fill="#F4BD15"/>
<path d="M180.951 225.145H156.872V228.098H180.951V225.145Z" fill="#80BC00"/>
<path d="M184.974 219.621H156.872V222.574H184.974V219.621Z" fill="#F4BD15"/>
<path d="M172.388 214.098H156.872V217.053H172.388V214.098Z" fill="#80BC00"/>
<path d="M177.273 203.052H156.872V206.008H177.273V203.052Z" fill="#F4BD15"/>
<path d="M184.941 208.015H156.772V210.867H184.941V208.015Z" fill="#F4BD15"/>
<path d="M235.904 238.373H197.675V198.043H235.904V238.373Z" fill="#F5F5F5" fill-opacity="0.4"/>
<path d="M231.991 230.667H200.9V233.622H231.991V230.667Z" fill="#E5E5E5"/>
<path d="M224.978 225.145H200.9V228.098H224.978V225.145Z" fill="#D6D6D6"/>
<path d="M229.002 219.621H200.9V222.574H229.002V219.621Z" fill="#E5E5E5"/>
<path d="M216.416 214.098H200.9V217.053H216.416V214.098Z" fill="#D6D6D6"/>
<path d="M221.301 203.052H200.9V206.008H221.301V203.052Z" fill="#E5E5E5"/>
<path d="M228.969 208.015H200.8V210.867H228.969V208.015Z" fill="#E5E5E5"/>
<path d="M280.731 238.373H242.501V198.043H280.731V238.373Z" fill="#F5F5F5" fill-opacity="0.4"/>
<path d="M276.817 230.667H245.726V233.622H276.817V230.667Z" fill="#F4BD15"/>
<path d="M269.805 225.145H245.726V228.098H269.805V225.145Z" fill="#FF7A34"/>
<path d="M273.828 219.621H245.726V222.574H273.828V219.621Z" fill="#F4BD15"/>
<path d="M261.242 214.098H245.726V217.053H261.242V214.098Z" fill="#FF7A34"/>
<path d="M266.127 203.052H245.726V206.008H266.127V203.052Z" fill="#F4BD15"/>
<path d="M273.796 208.015H245.626V210.867H273.796V208.015Z" fill="#F4BD15"/>
</g>
<path d="M321 103.747C319.411 108.222 312.133 117.075 295.734 116.692" stroke="black" stroke-width="0.647841"/>
<path d="M34.6655 191.63C34.6655 191.63 35.3183 180.812 30.8849 182.139C26.4515 183.467 31.0663 189.547 37.6671 186.26" stroke="black" stroke-width="0.647841" stroke-linecap="round" stroke-linejoin="round"/>
<path d="M253.873 17.2705L241.805 29.028" stroke="#10112B" stroke-width="0.647841" stroke-miterlimit="10" stroke-linecap="round" stroke-linejoin="round"/>
<path d="M259.845 11.4521L258.127 13.1283" stroke="#10112B" stroke-width="0.647841" stroke-miterlimit="10" stroke-linecap="round" stroke-linejoin="round"/>
<path d="M240.429 19.7637L238.664 26.3384" stroke="#10112B" stroke-width="0.647841" stroke-miterlimit="10" stroke-linecap="round" stroke-linejoin="round"/>
<path d="M242.374 13.0049L241.873 14.7524" stroke="#10112B" stroke-width="0.647841" stroke-miterlimit="10" stroke-linecap="round" stroke-linejoin="round"/>
<path d="M253.47 29.1064L243.873 32.0249" stroke="#10112B" stroke-width="0.647841" stroke-miterlimit="10" stroke-linecap="round" stroke-linejoin="round"/>
<path d="M260.729 26.8994L258.85 27.468" stroke="#10112B" stroke-width="0.647841" stroke-miterlimit="10" stroke-linecap="round" stroke-linejoin="round"/>
<mask id="mask4_1557_14704" style="mask-type:luminance" maskUnits="userSpaceOnUse" x="-2" y="-8" width="40" height="31">
<path d="M30.0664 -7.74219L-1.17102 8.0347L6.72338 22.9848L37.9608 7.20787L30.0664 -7.74219Z" fill="white"/>
</mask>
<g mask="url(#mask4_1557_14704)">
<path d="M30.7607 -4.81614C29.4274 -5.57999 27.7521 -5.73419 26.3096 -5.22155C24.8672 -4.70892 23.6857 -3.54358 23.1713 -2.12268C22.844 -1.22081 22.7874 -0.185627 23.2103 0.682648C23.6331 1.55092 24.5992 2.19523 25.5679 2.07639C27.0964 1.89002 27.8159 -0.18883 26.9747 -1.46557C26.1334 -2.74231 24.2842 -3.10107 22.8409 -2.5805C21.3976 -2.05993 20.3218 -0.847984 19.5512 0.457318C18.3399 2.51191 17.7315 4.90689 17.8191 7.29057C17.849 8.12972 17.9731 8.99378 18.4078 9.72122C18.8405 10.4497 19.6419 11.0172 20.4958 10.9787C21.9577 10.9108 22.7767 9.05407 22.2321 7.71517C21.6864 6.37429 20.2588 5.57562 18.8459 5.18909C16.5342 4.55903 13.9993 4.77836 11.8508 5.79692C9.70238 6.81548 7.95533 8.62322 7.03237 10.7872C5.53036 14.3072 6.23814 18.3314 6.9669 22.0977" stroke="black" stroke-width="0.647841" stroke-miterlimit="10" stroke-linecap="round" stroke-linejoin="round"/>
</g>
</g>
<defs>
<filter id="filter0_d_1557_14704" x="5.34299" y="19.8186" width="243.833" height="151.357" filterUnits="userSpaceOnUse" color-interpolation-filters="sRGB">
<feFlood flood-opacity="0" result="BackgroundImageFix"/>
<feColorMatrix in="SourceAlpha" type="matrix" values="0 0 0 0 0 0 0 0 0 0 0 0 0 0 0 0 0 0 127 0" result="hardAlpha"/>
<feOffset/>
<feGaussianBlur stdDeviation="6.47841"/>
<feComposite in2="hardAlpha" operator="out"/>
<feColorMatrix type="matrix" values="0 0 0 0 0 0 0 0 0 0 0 0 0 0 0 0 0 0 0.1 0"/>
<feBlend mode="normal" in2="BackgroundImageFix" result="effect1_dropShadow_1557_14704"/>
<feBlend mode="normal" in="SourceGraphic" in2="effect1_dropShadow_1557_14704" result="shape"/>
</filter>
<filter id="filter1_d_1557_14704" x="-23.162" y="-6.58762" width="300.843" height="208.211" filterUnits="userSpaceOnUse" color-interpolation-filters="sRGB">
<feFlood flood-opacity="0" result="BackgroundImageFix"/>
<feColorMatrix in="SourceAlpha" type="matrix" values="0 0 0 0 0 0 0 0 0 0 0 0 0 0 0 0 0 0 127 0" result="hardAlpha"/>
<feOffset dy="1.94352"/>
<feGaussianBlur stdDeviation="20.7309"/>
<feComposite in2="hardAlpha" operator="out"/>
<feColorMatrix type="matrix" values="0 0 0 0 0.572569 0 0 0 0 0.666879 0 0 0 0 0.808333 0 0 0 0.2 0"/>
<feBlend mode="normal" in2="BackgroundImageFix" result="effect1_dropShadow_1557_14704"/>
<feBlend mode="normal" in="SourceGraphic" in2="effect1_dropShadow_1557_14704" result="shape"/>
</filter>
<filter id="filter2_d_1557_14704" x="72.9924" y="117.033" width="243.833" height="151.356" filterUnits="userSpaceOnUse" color-interpolation-filters="sRGB">
<feFlood flood-opacity="0" result="BackgroundImageFix"/>
<feColorMatrix in="SourceAlpha" type="matrix" values="0 0 0 0 0 0 0 0 0 0 0 0 0 0 0 0 0 0 127 0" result="hardAlpha"/>
<feOffset/>
<feGaussianBlur stdDeviation="6.47841"/>
<feComposite in2="hardAlpha" operator="out"/>
<feColorMatrix type="matrix" values="0 0 0 0 0 0 0 0 0 0 0 0 0 0 0 0 0 0 0.1 0"/>
<feBlend mode="normal" in2="BackgroundImageFix" result="effect1_dropShadow_1557_14704"/>
<feBlend mode="normal" in="SourceGraphic" in2="effect1_dropShadow_1557_14704" result="shape"/>
</filter>
<filter id="filter3_d_1557_14704" x="44.4874" y="90.6267" width="300.843" height="208.211" filterUnits="userSpaceOnUse" color-interpolation-filters="sRGB">
<feFlood flood-opacity="0" result="BackgroundImageFix"/>
<feColorMatrix in="SourceAlpha" type="matrix" values="0 0 0 0 0 0 0 0 0 0 0 0 0 0 0 0 0 0 127 0" result="hardAlpha"/>
<feOffset dy="1.94352"/>
<feGaussianBlur stdDeviation="20.7309"/>
<feComposite in2="hardAlpha" operator="out"/>
<feColorMatrix type="matrix" values="0 0 0 0 0.572569 0 0 0 0 0.666879 0 0 0 0 0.808333 0 0 0 0.2 0"/>
<feBlend mode="normal" in2="BackgroundImageFix" result="effect1_dropShadow_1557_14704"/>
<feBlend mode="normal" in="SourceGraphic" in2="effect1_dropShadow_1557_14704" result="shape"/>
</filter>
<clipPath id="clip0_1557_14704">
<rect width="335" height="276" rx="16" fill="white"/>
</clipPath>
<clipPath id="clip1_1557_14704">
<rect x="54.5327" y="75.7017" width="21.2612" height="21.2612" rx="10.6306" fill="white"/>
</clipPath>
</defs>
</svg>
